<?xml version="1.0" standalone="no"?>
<!DOCTYPE svg PUBLIC "-//W3C//DTD SVG 20010904//EN"
 "http://www.w3.org/TR/2001/REC-SVG-20010904/DTD/svg10.dtd">
<svg version="1.0" xmlns="http://www.w3.org/2000/svg"
 width="788.000000pt" height="216.000000pt" viewBox="0 0 788.000000 216.000000"
 preserveAspectRatio="xMidYMid meet">
<metadata>
Created by potrace 1.16, written by Peter Selinger 2001-2019
</metadata>
<g transform="translate(0.000000,216.000000) scale(0.100000,-0.100000)"
fill="#000000" stroke="none">
<path d="M7 2153 c-4 -3 -7 -487 -7 -1075 l0 -1068 28 1 c15 0 50 6 77 13 40
9 61 9 105 -2 75 -19 289 -18 358 1 48 13 60 13 110 -1 73 -20 276 -19 354 1
50 12 64 12 110 0 69 -19 283 -20 358 -1 47 12 63 12 115 -1 78 -19 272 -19
350 0 52 13 68 13 115 1 75 -19 289 -18 358 1 48 13 60 13 110 -1 73 -20 276
-19 354 1 50 12 64 12 110 0 69 -19 283 -20 358 -1 47 12 63 12 115 -1 78 -19
272 -19 350 0 52 13 68 13 115 1 75 -19 289 -18 358 1 46 12 60 12 115 -1 36
-9 108 -15 172 -15 64 0 136 6 172 15 55 13 69 13 115 1 69 -19 283 -20 358
-1 47 12 63 12 115 -1 78 -19 272 -19 350 0 52 13 68 13 115 1 75 -19 289 -18
358 1 46 12 60 12 115 -1 81 -20 263 -20 344 0 55 13 69 13 115 1 69 -19 284
-20 358 -1 47 12 63 12 110 0 73 -18 289 -18 360 0 45 11 65 12 110 1 30 -6
84 -13 120 -15 l65 -3 0 1075 0 1075 -525 0 c-449 0 -534 -3 -588 -16 -57 -15
-67 -15 -120 0 -52 14 -370 16 -3343 18 -1807 2 -3288 0 -3292 -4z m542 -56
c-47 -18 -102 -43 -122 -54 l-37 -22 -91 44 -92 43 49 7 c27 4 54 8 59 10 6 2
80 4 165 4 l155 0 -86 -32z m491 9 c-36 -12 -92 -36 -125 -53 l-59 -30 -80 38
c-44 22 -87 40 -95 40 -9 1 11 7 44 14 33 7 132 13 220 14 l160 1 -65 -24z
m465 0 c-33 -13 -88 -38 -123 -55 l-63 -32 -34 21 c-19 11 -60 32 -92 44 l-58
24 50 7 c28 4 55 8 60 10 6 2 80 4 165 4 l155 0 -60 -23z m475 3 c-30 -11 -85
-35 -123 -53 l-68 -35 -90 44 -90 44 48 6 c26 4 53 8 58 10 6 2 80 3 165 3
l155 1 -55 -20z m439 -12 c-47 -18 -102 -43 -122 -54 l-37 -22 -91 44 -92 43
49 7 c27 4 54 8 59 10 6 2 80 4 165 4 l155 0 -86 -32z m491 9 c-36 -12 -92
-36 -125 -53 l-59 -30 -80 38 c-44 22 -87 40 -95 40 -9 1 11 7 44 14 33 7 132
13 220 14 l160 1 -65 -24z m465 0 c-33 -13 -88 -38 -123 -55 l-63 -32 -34 21
c-19 11 -60 32 -92 44 l-58 24 50 7 c28 4 55 8 60 10 6 2 80 4 165 4 l155 0
-60 -23z m475 3 c-30 -11 -85 -35 -123 -53 l-68 -35 -90 44 -90 44 48 6 c26 4
53 8 58 10 6 2 80 3 165 3 l155 1 -55 -20z m439 -12 c-47 -18 -102 -43 -122
-54 l-37 -22 -91 44 -92 43 49 7 c27 4 54 8 59 10 6 2 80 4 165 4 l155 0 -86
-32z m491 9 c-36 -12 -92 -36 -125 -53 l-60 -30 -89 43 -89 42 54 10 c30 5
126 10 214 11 l160 1 -65 -24z m465 0 c-33 -13 -89 -38 -123 -55 -49 -25 -67
-30 -77 -21 -8 7 -49 27 -91 45 l-77 33 49 7 c27 4 54 8 59 10 6 2 80 4 165 4
l155 0 -60 -23z m475 3 c-30 -11 -85 -35 -123 -53 l-68 -35 -90 44 -90 44 48
6 c26 4 53 8 58 10 6 2 80 3 165 3 l155 1 -55 -20z m439 -12 c-47 -18 -102
-43 -122 -54 l-37 -22 -91 44 -92 43 49 7 c27 4 54 8 59 10 6 2 80 4 165 4
l155 0 -86 -32z m419 22 l64 -11 -88 -42 -89 -43 -79 39 c-44 21 -87 39 -95
39 -9 1 11 7 44 14 78 17 162 18 243 4z m537 -13 c-33 -13 -87 -37 -120 -54
l-61 -30 -77 38 c-43 21 -80 40 -83 43 -12 12 111 25 251 25 l150 1 -60 -23z
m475 3 c-30 -11 -85 -35 -122 -54 l-68 -34 -90 44 -91 44 48 6 c26 4 53 8 58
10 6 2 80 3 165 3 l155 1 -55 -20z m-7295 -79 c98 -49 290 -179 290 -196 0 -5
-44 -51 -97 -103 l-97 -94 -103 96 c-108 100 -237 207 -251 207 -4 0 -7 24 -5
52 l3 53 55 22 c32 13 66 21 80 18 14 -3 70 -28 125 -55z m404 30 c88 -36 169
-84 279 -164 l84 -61 -104 -96 -103 -97 -88 82 c-114 104 -218 190 -284 234
-29 19 -53 38 -53 43 0 6 40 27 150 76 36 17 40 16 119 -17z m518 -25 c117
-56 303 -181 303 -204 0 -3 -45 -48 -100 -99 l-101 -94 -102 99 c-56 54 -149
134 -207 177 -58 44 -105 84 -105 90 0 17 167 87 195 81 14 -3 66 -26 117 -50z
m488 -10 c106 -54 290 -178 283 -193 -2 -4 -47 -49 -100 -101 l-97 -93 -98 92
c-96 91 -246 213 -304 247 -32 19 -36 28 -16 36 6 3 48 22 92 41 51 23 89 34
105 31 14 -3 75 -30 135 -60z m460 5 c98 -49 290 -179 290 -196 0 -5 -44 -51
-97 -103 l-97 -94 -103 96 c-112 103 -195 172 -276 227 -28 19 -52 38 -52 41
0 5 128 68 170 82 26 10 61 -2 165 -53z m404 30 c88 -36 169 -84 279 -164 l84
-61 -104 -96 -103 -97 -88 82 c-114 104 -218 190 -284 234 -29 19 -53 38 -53
43 0 6 40 27 150 76 36 17 40 16 119 -17z m518 -25 c117 -56 303 -181 303
-204 0 -3 -45 -48 -100 -99 l-101 -94 -102 99 c-56 54 -149 134 -207 177 -58
44 -105 84 -105 90 0 17 167 87 195 81 14 -3 66 -26 117 -50z m488 -10 c106
-54 290 -178 283 -193 -2 -4 -47 -49 -100 -101 l-98 -94 -87 84 c-98 94 -228
201 -297 245 -48 31 -54 38 -33 47 6 3 48 22 92 41 51 23 89 34 105 31 14 -3
75 -30 135 -60z m460 5 c98 -49 290 -179 290 -196 0 -5 -44 -51 -97 -103 l-97
-94 -103 96 c-105 98 -246 213 -299 244 -16 10 -29 20 -29 24 0 5 128 67 170
82 26 10 61 -2 165 -53z m404 30 c88 -36 169 -84 279 -164 l84 -61 -104 -96
-103 -97 -88 82 c-114 104 -218 190 -284 234 -29 19 -53 38 -53 43 0 6 40 27
150 76 36 17 40 16 119 -17z m518 -25 c89 -42 198 -111 275 -172 l37 -30 -105
-97 -105 -98 -102 99 c-56 54 -149 133 -207 177 -58 43 -106 82 -108 87 -7 18
164 91 198 83 14 -2 66 -24 117 -49z m488 -10 c108 -54 290 -178 283 -194 -2
-4 -47 -49 -101 -101 l-97 -93 -88 84 c-97 94 -227 201 -296 245 -48 31 -54
38 -33 47 6 3 48 22 92 41 51 23 89 34 105 31 14 -3 75 -30 135 -60z m460 5
c98 -49 290 -179 290 -196 0 -5 -44 -51 -97 -103 l-97 -94 -103 96 c-105 98
-246 213 -299 244 -16 10 -29 20 -29 24 0 5 128 67 170 82 26 10 61 -2 165
-53z m404 30 c88 -36 169 -84 279 -164 l84 -61 -104 -96 -103 -97 -88 82
c-114 104 -218 190 -284 234 -29 19 -53 38 -53 42 0 10 161 88 186 89 6 1 44
-12 83 -29z m1006 -35 c108 -54 290 -178 283 -194 -2 -4 -47 -49 -101 -101
l-97 -93 -88 84 c-97 94 -227 201 -296 245 -48 31 -54 38 -33 47 6 3 48 22 92
41 51 23 89 34 105 31 14 -3 75 -30 135 -60z m445 12 l85 -42 3 -169 2 -168
-97 89 c-104 96 -233 200 -283 229 -16 10 -30 21 -30 25 0 5 128 67 170 82 24
9 60 -2 150 -46z m-932 -2 c89 -43 199 -112 274 -172 l37 -30 -105 -97 -105
-98 -102 99 c-56 54 -149 133 -207 177 -58 43 -106 82 -108 87 -2 4 7 13 19
20 38 20 153 57 180 58 14 1 67 -19 117 -44z m-6504 -384 l39 -40 -69 -73
c-38 -40 -113 -124 -167 -186 l-97 -113 0 230 0 229 61 56 62 56 66 -59 c36
-33 84 -77 105 -100z m501 -31 c2 -4 -34 -49 -81 -101 -48 -52 -147 -165 -222
-252 -109 -128 -137 -156 -147 -145 -62 66 -196 231 -193 238 7 19 276 303
355 374 l85 77 99 -92 c55 -50 101 -95 104 -99z m390 71 l79 -81 -25 -27 c-14
-16 -52 -57 -84 -93 -33 -36 -114 -129 -179 -205 -66 -77 -127 -148 -136 -158
-16 -17 -22 -11 -122 106 l-105 123 98 110 c54 60 153 162 220 226 l122 117
26 -19 c14 -10 62 -55 106 -99z m489 -19 l59 -60 -89 -99 c-49 -54 -145 -163
-213 -243 -68 -80 -127 -149 -131 -153 -4 -5 -55 47 -113 114 l-105 124 41 50
c23 27 122 130 219 229 l178 178 47 -40 c27 -22 75 -67 107 -100z m490 -20
l38 -40 -113 -125 c-63 -68 -161 -181 -219 -250 -58 -69 -108 -125 -111 -124
-3 1 -52 56 -107 121 l-101 119 22 31 c12 17 110 121 219 230 l197 199 68 -61
c37 -33 85 -78 107 -100z m501 -32 c3 -5 -34 -50 -81 -102 -48 -51 -147 -164
-222 -251 -74 -87 -138 -155 -142 -150 -53 57 -200 235 -200 240 1 13 278 305
363 383 l78 71 100 -92 c55 -50 102 -95 104 -99z m390 71 l79 -81 -25 -27
c-14 -16 -52 -57 -84 -93 -33 -36 -114 -129 -179 -205 -66 -77 -127 -148 -136
-158 -16 -17 -22 -12 -122 106 l-105 123 103 115 c57 63 156 164 220 226 l117
112 26 -19 c14 -10 62 -55 106 -99z m489 -19 l59 -60 -89 -99 c-49 -54 -145
-163 -213 -243 -68 -80 -127 -149 -131 -153 -4 -5 -55 47 -113 114 l-105 124
51 60 c28 33 127 136 219 228 l168 169 48 -40 c26 -22 74 -67 106 -100z m490
-21 l39 -40 -82 -88 c-45 -48 -144 -161 -219 -250 -75 -89 -140 -161 -143
-160 -3 1 -52 56 -107 121 l-101 119 22 31 c12 17 110 121 219 230 l197 199
68 -61 c37 -33 86 -78 107 -101z m501 -32 c3 -4 -31 -47 -76 -95 -44 -48 -144
-161 -221 -251 -78 -90 -144 -160 -148 -156 -53 58 -200 235 -200 240 1 13
278 305 363 383 l78 71 100 -92 c55 -50 102 -95 104 -100z m390 72 l79 -81
-25 -27 c-14 -16 -52 -57 -84 -93 -33 -36 -114 -129 -179 -205 -66 -77 -127
-148 -136 -158 -16 -17 -22 -11 -122 106 l-105 123 103 115 c57 63 156 164
220 226 l117 112 26 -19 c14 -10 62 -55 106 -99z m479 -9 l69 -70 -89 -99
c-49 -54 -145 -163 -213 -243 -68 -80 -127 -149 -131 -153 -4 -5 -55 47 -113
114 l-105 124 51 60 c28 33 127 136 219 228 l168 169 37 -30 c21 -17 69 -62
107 -100z m500 -31 l39 -40 -82 -88 c-45 -48 -144 -161 -219 -250 -75 -89
-140 -161 -143 -160 -3 1 -52 56 -107 121 l-101 119 32 41 c17 23 116 126 219
230 l187 189 68 -61 c37 -33 86 -78 107 -101z m501 -32 c3 -4 -31 -47 -76 -95
-44 -48 -144 -161 -221 -251 -78 -90 -144 -160 -149 -156 -4 4 -50 59 -103
121 -76 90 -94 117 -86 130 16 29 262 288 348 367 l83 76 100 -92 c55 -50 102
-95 104 -100z m389 72 l79 -80 -44 -49 c-52 -59 -335 -384 -370 -425 l-25 -29
-105 124 -106 124 103 115 c57 63 156 164 220 226 l117 112 26 -19 c14 -10 62
-55 105 -99z m480 -9 l69 -70 -120 -134 c-66 -73 -161 -182 -212 -243 -52 -60
-97 -114 -101 -118 -4 -5 -55 47 -113 114 l-105 124 51 60 c28 33 127 136 219
228 l168 169 37 -30 c21 -17 69 -62 107 -100z m500 -31 l39 -40 -82 -88 c-45
-48 -144 -161 -219 -250 -75 -89 -140 -161 -143 -160 -3 1 -52 56 -107 121
l-101 119 32 41 c17 23 116 126 219 230 l187 189 68 -61 c37 -33 86 -78 107
-101z m46 -307 l0 -216 -95 112 c-63 74 -92 116 -87 125 9 17 172 195 178 195
2 0 4 -97 4 -216z m-7359 -414 l107 -126 -99 -109 c-55 -61 -103 -111 -108
-113 -10 -3 -156 152 -280 298 l-81 95 0 105 0 105 61 72 61 72 117 -137 c64
-75 164 -193 222 -262z m1292 130 l215 -254 -28 -36 c-16 -19 -63 -71 -105
-115 l-75 -80 -67 70 c-113 119 -374 428 -370 438 7 23 202 245 209 239 3 -4
103 -122 221 -262z m485 -20 l199 -235 -61 -69 c-34 -37 -80 -89 -103 -115
l-43 -46 -72 75 c-97 100 -368 416 -368 430 0 6 46 64 102 130 l102 121 22
-28 c12 -16 112 -134 222 -263z m1385 20 l215 -254 -28 -36 c-16 -19 -63 -71
-105 -115 l-75 -80 -67 70 c-113 119 -374 428 -370 438 7 23 202 245 209 239
3 -4 103 -122 221 -262z m489 -25 l195 -230 -61 -69 c-34 -37 -80 -89 -103
-115 l-43 -46 -72 75 c-97 100 -368 416 -368 430 0 6 46 64 102 130 l102 120
27 -32 c15 -18 114 -136 221 -263z m1381 25 l215 -254 -28 -36 c-16 -19 -63
-71 -105 -115 l-75 -80 -66 70 c-116 122 -375 427 -371 438 7 23 202 246 209
239 3 -4 103 -122 221 -262z m489 -25 l195 -230 -48 -55 c-27 -30 -73 -82
-104 -115 l-55 -60 -72 75 c-100 102 -368 416 -368 429 0 6 46 65 102 131
l102 120 27 -32 c15 -18 114 -136 221 -263z m1381 25 l215 -254 -28 -36 c-16
-19 -63 -71 -105 -115 l-75 -80 -66 70 c-116 122 -375 427 -371 438 7 23 202
246 209 239 3 -4 103 -122 221 -262z m351 140 l106 -125 0 -240 -1 -240 -62
65 c-96 101 -357 407 -357 419 0 11 201 253 206 248 1 -1 50 -58 108 -127z
m-6905 -129 c116 -138 216 -253 222 -256 6 -4 -7 -26 -33 -54 -24 -25 -73 -78
-109 -118 l-66 -72 -109 122 c-61 67 -161 182 -223 254 l-113 133 102 120 c56
66 106 120 111 120 4 0 103 -112 218 -249z m476 -10 c170 -201 213 -257 205
-270 -5 -9 -52 -61 -104 -116 l-95 -100 -80 86 c-92 98 -361 411 -361 419 0
13 203 241 211 238 5 -2 106 -117 224 -257z m1394 10 c116 -138 216 -253 222
-256 6 -4 -7 -26 -33 -54 -24 -25 -72 -78 -109 -118 l-65 -71 -106 116 c-58
65 -158 179 -222 254 l-117 138 101 120 c56 66 106 120 111 120 4 0 103 -112
218 -249z m474 -7 c172 -203 215 -260 207 -273 -5 -9 -52 -61 -104 -116 l-95
-100 -76 82 c-93 100 -365 416 -365 423 0 9 201 240 209 240 4 0 105 -115 224
-256z m1373 34 c103 -123 202 -239 220 -258 l32 -35 -106 -117 -107 -117 -35
39 c-117 130 -257 288 -328 372 l-83 98 102 120 c56 66 105 120 110 120 4 0
92 -100 195 -222z m497 -34 c142 -168 214 -261 209 -269 -13 -23 -193 -215
-202 -215 -9 0 -243 261 -365 408 -70 84 -76 94 -63 110 134 158 190 222 197
222 4 0 105 -115 224 -256z m1293 129 c60 -71 158 -187 220 -258 l111 -131
-106 -116 -106 -117 -35 39 c-117 130 -257 288 -328 372 l-83 98 102 120 c56
66 105 120 110 120 4 0 56 -57 115 -127z m577 -129 c172 -203 215 -260 207
-273 -5 -9 -52 -61 -104 -116 l-96 -100 -60 65 c-100 107 -375 430 -375 439 0
13 193 241 204 241 4 0 105 -115 224 -256z m-6604 -561 c-55 -56 -271 -243
-281 -243 -5 0 -8 86 -8 191 l0 190 61 68 61 68 105 -114 106 -115 -44 -45z
m1351 149 l93 -104 -59 -60 c-78 -80 -233 -210 -316 -265 l-67 -45 -73 51
c-40 28 -86 61 -102 74 l-28 23 148 146 c82 81 181 183 219 227 53 60 73 77
81 68 6 -7 53 -58 104 -115z m504 -40 l60 -63 -45 -45 c-68 -71 -248 -224
-328 -278 l-71 -49 -68 46 c-37 25 -83 59 -102 75 l-35 29 125 120 c69 66 167
168 219 226 l94 106 46 -52 c25 -29 73 -80 105 -115z m1366 40 l93 -104 -59
-60 c-78 -80 -233 -210 -316 -265 l-67 -45 -73 51 c-40 28 -86 61 -102 74
l-28 23 148 146 c82 81 181 183 219 227 53 60 73 77 81 68 6 -7 53 -58 104
-115z m504 -40 l60 -63 -45 -45 c-68 -71 -248 -224 -328 -278 l-71 -49 -68 46
c-37 25 -83 59 -101 75 l-35 29 125 120 c68 66 166 168 218 226 l94 105 46
-51 c25 -29 73 -80 105 -115z m1366 39 l94 -104 -95 -91 c-101 -99 -200 -180
-291 -240 l-57 -38 -73 51 c-40 28 -86 61 -102 74 l-28 23 148 146 c82 81 181
183 219 227 53 60 73 77 81 68 6 -7 53 -59 104 -116z m504 -39 l60 -63 -45
-45 c-69 -72 -252 -227 -329 -280 l-70 -48 -67 47 c-38 25 -84 59 -102 75
l-35 29 125 120 c68 66 166 168 218 226 l94 105 46 -51 c25 -29 73 -80 105
-115z m1371 35 l88 -98 -64 -65 c-84 -86 -225 -204 -310 -261 l-68 -45 -73 51
c-40 28 -86 61 -102 74 l-28 23 148 146 c82 81 181 183 219 227 65 74 71 78
86 63 8 -9 55 -61 104 -115z m499 -35 l60 -63 -45 -45 c-69 -72 -252 -227
-329 -280 l-70 -48 -67 47 c-38 25 -83 59 -102 75 l-35 29 135 130 c74 72 172
174 218 226 l84 96 46 -52 c25 -29 73 -80 105 -115z m-7054 46 l103 -113 -89
-83 c-105 -98 -213 -187 -295 -243 l-60 -40 -50 32 c-28 18 -75 51 -105 74
l-54 42 100 92 c54 50 152 150 216 221 65 72 121 130 124 130 4 0 53 -51 110
-112z m461 6 c52 -58 95 -109 97 -113 8 -22 -300 -291 -402 -352 l-35 -21 -73
51 c-40 28 -86 62 -101 75 l-29 23 57 54 c31 30 62 57 69 61 7 4 79 79 161
167 82 89 151 161 155 161 3 0 49 -48 101 -106z m1409 -6 l103 -113 -89 -83
c-105 -98 -213 -187 -295 -243 l-60 -40 -50 32 c-28 18 -75 51 -105 74 l-54
42 100 92 c54 50 152 150 216 221 65 72 121 130 124 130 4 0 53 -51 110 -112z
m461 6 c52 -58 95 -109 97 -113 8 -22 -300 -291 -402 -352 l-35 -21 -73 51
c-40 28 -86 62 -101 75 l-29 23 57 53 c31 30 64 59 73 66 10 7 82 82 161 168
80 86 147 156 151 156 3 0 49 -48 101 -106z m1409 -6 l103 -113 -89 -83 c-105
-98 -213 -187 -295 -243 l-60 -40 -50 32 c-28 18 -75 51 -105 74 l-54 42 100
92 c54 50 152 150 216 221 65 72 121 130 124 130 4 0 53 -51 110 -112z m461 6
c52 -58 95 -109 97 -113 8 -22 -300 -291 -402 -352 l-35 -21 -73 51 c-40 28
-86 62 -101 75 l-29 23 57 53 c31 30 64 59 73 66 10 7 82 82 161 168 80 86
147 156 151 156 3 0 49 -48 101 -106z m1409 -6 l103 -113 -89 -83 c-105 -98
-213 -187 -295 -243 l-60 -40 -50 32 c-28 18 -75 51 -105 74 l-54 42 100 92
c54 50 152 150 216 221 65 72 121 130 124 130 4 0 53 -51 110 -112z m461 6
c52 -58 95 -109 97 -113 8 -22 -300 -291 -402 -352 l-36 -21 -77 56 c-43 30
-89 64 -102 74 l-23 19 56 53 c31 30 65 59 74 66 10 7 82 82 161 168 80 86
147 156 151 156 3 0 49 -48 101 -106z m1049 -320 l0 -156 -67 48 c-38 26 -80
56 -95 68 l-27 21 92 87 c51 48 93 87 95 88 1 0 2 -70 2 -156z m-6069 -199
c35 -21 93 -50 129 -65 l64 -28 -49 -9 c-92 -15 -244 -8 -328 15 -79 23 -237
90 -237 101 0 3 19 18 43 33 23 15 67 47 97 71 l54 43 82 -62 c45 -34 111 -79
145 -99z m1883 -7 c33 -18 87 -45 120 -60 l60 -26 -49 -9 c-92 -15 -244 -8
-328 15 -79 23 -237 90 -237 101 0 3 19 18 43 33 23 15 67 47 96 70 l55 44 90
-68 c49 -37 116 -82 150 -100z m1835 22 c46 -29 114 -65 150 -80 l65 -28 -49
-9 c-92 -15 -244 -8 -328 15 -79 23 -237 90 -237 101 0 3 26 23 58 43 31 21
75 53 97 71 l39 34 61 -47 c33 -27 98 -71 144 -100z m1905 -22 c33 -18 87 -45
120 -60 l60 -26 -49 -9 c-92 -15 -244 -8 -328 15 -79 23 -237 90 -237 101 0 3
26 23 58 43 31 21 75 53 96 71 l39 33 90 -67 c50 -37 117 -83 151 -101z
m-7167 104 c100 -75 188 -127 271 -163 l66 -27 -50 -9 c-133 -22 -298 -4 -432
49 l-57 23 -2 50 -2 50 57 42 c31 23 60 42 64 43 4 0 42 -26 85 -58z m429 27
c70 -57 202 -139 285 -178 l82 -39 -74 -12 c-84 -14 -194 -8 -284 15 -71 18
-202 70 -230 92 -20 15 -20 15 5 31 13 10 56 41 95 70 38 28 73 52 76 52 3 0
24 -14 45 -31z m522 -39 c53 -39 146 -95 205 -125 l109 -54 -49 -8 c-89 -15
-242 -8 -324 15 -90 25 -232 88 -227 101 4 10 170 139 181 140 4 1 52 -31 105
-69z m885 36 c73 -59 218 -149 294 -182 72 -31 73 -32 41 -38 -116 -23 -259
-16 -373 20 -105 33 -238 103 -197 104 4 0 45 29 92 65 47 35 89 64 93 65 5 0
27 -15 50 -34z m463 3 c70 -57 202 -139 285 -178 l82 -39 -74 -12 c-84 -14
-194 -8 -284 15 -71 18 -202 70 -230 92 -20 15 -20 15 5 31 13 10 56 41 95 70
38 28 73 52 76 52 3 0 24 -14 45 -31z m522 -39 c53 -39 146 -95 205 -125 l109
-54 -49 -8 c-89 -15 -242 -8 -324 15 -90 25 -232 88 -227 101 4 10 170 139
181 140 4 1 52 -31 105 -69z m885 36 c73 -59 218 -149 294 -182 72 -31 73 -32
41 -38 -116 -23 -259 -16 -373 20 -61 19 -205 85 -205 93 0 4 13 14 28 23 16
9 57 40 93 67 35 28 68 51 72 51 5 0 27 -15 50 -34z m454 10 c64 -53 204 -142
287 -182 l88 -42 -73 -12 c-84 -14 -194 -8 -284 15 -71 18 -202 70 -230 92
-20 15 -20 15 5 31 13 10 56 41 95 70 38 28 73 52 77 52 3 0 19 -11 35 -24z
m531 -46 c53 -39 146 -95 205 -125 l109 -54 -49 -8 c-90 -15 -242 -8 -327 16
-92 25 -229 86 -224 99 4 11 169 140 181 141 4 1 52 -31 105 -69z m885 36 c73
-59 218 -149 294 -182 72 -31 73 -32 41 -38 -116 -23 -259 -16 -373 20 -61 19
-205 85 -205 93 0 4 13 14 28 23 16 9 57 40 93 67 35 28 68 51 72 51 5 0 27
-15 50 -34z m517 -36 c52 -39 143 -94 202 -124 l108 -54 -64 -11 c-149 -26
-308 1 -473 82 -35 16 -63 34 -63 38 0 4 15 17 34 29 19 11 60 41 92 65 32 25
60 45 64 45 3 0 48 -32 100 -70z m468 0 c53 -39 146 -95 205 -125 l109 -54
-49 -8 c-89 -15 -242 -8 -324 15 -90 25 -232 88 -227 101 4 10 170 139 181
140 4 1 52 -31 105 -69z m862 56 c6 -8 52 -42 101 -76 l89 -61 0 -60 c0 -40
-4 -59 -12 -59 -31 0 -148 22 -193 36 -61 19 -205 85 -205 93 0 4 13 14 28 23
16 9 57 40 93 67 69 55 80 59 99 37z"/>
</g>
</svg>
