<?xml version="1.0" standalone="no"?>
<!DOCTYPE svg PUBLIC "-//W3C//DTD SVG 20010904//EN"
 "http://www.w3.org/TR/2001/REC-SVG-20010904/DTD/svg10.dtd">
<svg version="1.0" xmlns="http://www.w3.org/2000/svg"
 width="64.000000pt" height="239.000000pt" viewBox="0 0 64.000000 239.000000"
 preserveAspectRatio="xMidYMid meet">
<metadata>
Created by potrace 1.16, written by Peter Selinger 2001-2019
</metadata>
<g transform="translate(0.000000,239.000000) scale(0.100000,-0.100000)"
fill="#000000" stroke="none">
<path d="M0 1658 c0 -784 8 -1004 40 -1169 11 -57 20 -129 20 -159 0 -61 12
-147 36 -258 12 -55 20 -72 31 -70 19 4 203 391 245 513 45 134 121 281 199
384 38 51 69 97 69 102 0 4 -29 53 -66 108 -77 119 -173 316 -204 421 -13 41
-69 166 -126 277 -103 202 -142 304 -185 486 -18 78 -26 97 -41 97 -17 0 -18
-33 -18 -732z"/>
</g>
</svg>
