<?xml version="1.0" standalone="no"?>
<!DOCTYPE svg PUBLIC "-//W3C//DTD SVG 20010904//EN"
 "http://www.w3.org/TR/2001/REC-SVG-20010904/DTD/svg10.dtd">
<svg version="1.0" xmlns="http://www.w3.org/2000/svg"
 width="245.000000pt" height="342.000000pt" viewBox="0 0 245.000000 342.000000"
 preserveAspectRatio="xMidYMid meet">
<metadata>
Created by potrace 1.16, written by Peter Selinger 2001-2019
</metadata>
<g transform="translate(0.000000,342.000000) scale(0.100000,-0.100000)"
fill="#000000" stroke="none">
<path d="M1319 3369 c-24 -29 -69 -87 -99 -129 -52 -74 -109 -147 -239 -305
-31 -38 -79 -108 -105 -155 -27 -47 -101 -163 -165 -258 -137 -203 -138 -205
-151 -259 -8 -30 -32 -65 -96 -135 -96 -105 -121 -151 -158 -293 -19 -69 -58
-164 -127 -308 -55 -115 -119 -264 -141 -332 l-41 -123 33 -84 c18 -45 75
-171 127 -278 52 -107 110 -242 129 -299 57 -174 196 -411 240 -411 8 0 31 26
50 57 19 32 78 128 130 213 131 211 399 567 555 736 38 40 69 83 69 94 0 12 7
20 16 20 11 0 15 6 11 19 -3 14 62 85 270 292 176 176 291 299 321 344 27 41
140 165 274 301 126 127 228 235 228 241 0 6 -35 39 -77 74 -103 85 -280 263
-372 374 -41 50 -148 164 -237 255 -89 91 -173 184 -188 207 -48 78 -167 193
-200 193 -7 0 -33 -23 -57 -51z"/>
</g>
</svg>
