<?xml version="1.0" standalone="no"?>
<!DOCTYPE svg PUBLIC "-//W3C//DTD SVG 20010904//EN"
 "http://www.w3.org/TR/2001/REC-SVG-20010904/DTD/svg10.dtd">
<svg version="1.0" xmlns="http://www.w3.org/2000/svg"
 width="428.000000pt" height="306.000000pt" viewBox="0 0 428.000000 306.000000"
 preserveAspectRatio="xMidYMid meet">
<metadata>
Created by potrace 1.16, written by Peter Selinger 2001-2019
</metadata>
<g transform="translate(0.000000,306.000000) scale(0.100000,-0.100000)"
fill="#000000" stroke="none">
<path d="M1175 3001 c-71 -32 -197 -89 -280 -128 -170 -80 -268 -122 -440
-189 -199 -77 -435 -216 -450 -265 -10 -32 17 -54 214 -174 96 -58 222 -138
280 -178 165 -112 483 -353 624 -473 70 -60 155 -130 190 -156 34 -26 70 -54
80 -63 9 -8 24 -15 32 -15 8 0 170 -150 360 -334 189 -184 387 -368 439 -410
101 -80 189 -161 474 -438 100 -98 191 -178 200 -178 10 0 40 26 67 58 118
137 271 295 386 398 222 199 295 267 469 432 94 89 204 186 243 216 87 64 204
186 213 222 9 35 -17 60 -209 206 -87 66 -229 176 -315 244 -87 69 -195 148
-242 176 -47 28 -200 127 -341 220 -154 101 -279 176 -313 188 -67 23 -87 36
-208 141 -105 92 -188 136 -334 179 -102 30 -207 73 -514 213 -206 94 -408
167 -457 166 -24 0 -88 -22 -168 -58z"/>
</g>
</svg>
