<?xml version="1.0" standalone="no"?>
<!DOCTYPE svg PUBLIC "-//W3C//DTD SVG 20010904//EN"
 "http://www.w3.org/TR/2001/REC-SVG-20010904/DTD/svg10.dtd">
<svg version="1.0" xmlns="http://www.w3.org/2000/svg"
 width="369.000000pt" height="343.000000pt" viewBox="0 0 369.000000 343.000000"
 preserveAspectRatio="xMidYMid meet">
<metadata>
Created by potrace 1.16, written by Peter Selinger 2001-2019
</metadata>
<g transform="translate(0.000000,343.000000) scale(0.100000,-0.100000)"
fill="#000000" stroke="none">
<path d="M945 3364 c-139 -111 -233 -204 -316 -310 -44 -57 -126 -152 -183
-213 -203 -214 -456 -534 -440 -556 16 -22 294 -335 409 -460 60 -66 137 -154
170 -195 79 -98 291 -309 387 -385 63 -50 75 -64 71 -82 -4 -18 -1 -23 16 -23
13 0 21 -6 21 -17 0 -10 20 -32 43 -50 24 -18 103 -85 177 -149 74 -64 196
-169 270 -233 74 -64 235 -211 357 -327 247 -236 395 -364 422 -364 19 0 125
70 231 153 100 78 479 402 635 544 122 110 380 323 455 376 20 14 23 21 14 35
-6 9 -105 102 -220 206 -115 103 -263 238 -330 300 -66 61 -273 230 -460 376
-284 222 -372 297 -544 465 -113 110 -264 249 -335 310 -72 60 -218 196 -325
301 -190 187 -400 364 -430 363 -8 0 -51 -29 -95 -65z"/>
</g>
</svg>
