<?xml version="1.0" standalone="no"?>
<!DOCTYPE svg PUBLIC "-//W3C//DTD SVG 20010904//EN"
 "http://www.w3.org/TR/2001/REC-SVG-20010904/DTD/svg10.dtd">
<svg version="1.0" xmlns="http://www.w3.org/2000/svg"
 width="429.000000pt" height="461.000000pt" viewBox="0 0 429.000000 461.000000"
 preserveAspectRatio="xMidYMid meet">
<metadata>
Created by potrace 1.16, written by Peter Selinger 2001-2019
</metadata>
<g transform="translate(0.000000,461.000000) scale(0.100000,-0.100000)"
fill="#000000" stroke="none">
<path d="M2704 4478 c-82 -72 -234 -209 -339 -303 -104 -94 -255 -227 -335
-297 -158 -138 -349 -328 -455 -453 -84 -100 -101 -115 -131 -115 -17 0 -24
-6 -24 -18 0 -11 -11 -24 -24 -30 -12 -5 -58 -52 -101 -104 -300 -356 -556
-646 -850 -958 -344 -366 -445 -486 -445 -529 0 -26 116 -198 223 -331 105
-130 422 -500 617 -720 154 -174 420 -492 478 -573 19 -26 41 -47 51 -47 22 0
118 99 441 455 272 300 434 493 715 850 237 300 327 405 555 645 117 124 284
304 369 400 86 96 252 276 370 400 343 359 479 527 467 572 -8 31 -165 225
-267 329 -46 47 -149 139 -229 205 -80 66 -199 170 -265 230 -277 253 -618
524 -660 524 -6 0 -79 -59 -161 -132z"/>
</g>
</svg>
