<?xml version="1.0" standalone="no"?>
<!DOCTYPE svg PUBLIC "-//W3C//DTD SVG 20010904//EN"
 "http://www.w3.org/TR/2001/REC-SVG-20010904/DTD/svg10.dtd">
<svg version="1.0" xmlns="http://www.w3.org/2000/svg"
 width="436.000000pt" height="499.000000pt" viewBox="0 0 436.000000 499.000000"
 preserveAspectRatio="xMidYMid meet">
<metadata>
Created by potrace 1.16, written by Peter Selinger 2001-2019
</metadata>
<g transform="translate(0.000000,499.000000) scale(0.100000,-0.100000)"
fill="#000000" stroke="none">
<path d="M1359 4932 c-30 -32 -147 -172 -260 -312 -114 -140 -248 -302 -299
-360 -51 -58 -160 -184 -243 -280 -83 -96 -198 -227 -256 -290 -219 -238 -301
-338 -301 -370 0 -9 73 -92 163 -186 89 -93 200 -216 247 -274 46 -58 145
-175 220 -260 185 -210 247 -287 540 -659 150 -191 263 -327 281 -336 17 -9
29 -24 29 -35 0 -15 7 -20 25 -20 32 0 47 -15 170 -170 219 -277 309 -379 655
-740 274 -287 449 -476 521 -563 28 -34 60 -66 71 -71 17 -8 65 36 350 320
426 425 561 570 778 839 98 121 207 256 244 299 36 44 66 87 66 96 0 27 -353
459 -575 705 -65 72 -188 216 -273 320 -188 229 -290 349 -437 515 -174 196
-299 347 -617 745 -377 473 -981 1145 -1028 1145 -10 0 -42 -26 -71 -58z"/>
</g>
</svg>
