<?xml version="1.0" standalone="no"?>
<!DOCTYPE svg PUBLIC "-//W3C//DTD SVG 20010904//EN"
 "http://www.w3.org/TR/2001/REC-SVG-20010904/DTD/svg10.dtd">
<svg version="1.0" xmlns="http://www.w3.org/2000/svg"
 width="316.000000pt" height="342.000000pt" viewBox="0 0 316.000000 342.000000"
 preserveAspectRatio="xMidYMid meet">
<metadata>
Created by potrace 1.16, written by Peter Selinger 2001-2019
</metadata>
<g transform="translate(0.000000,342.000000) scale(0.100000,-0.100000)"
fill="#000000" stroke="none">
<path d="M1205 3410 c-3 -5 -43 -38 -88 -72 -45 -34 -188 -166 -317 -292 -194
-190 -629 -592 -767 -709 -18 -16 -33 -37 -33 -47 0 -11 51 -58 138 -127 220
-174 341 -282 602 -538 220 -216 427 -404 480 -437 13 -9 18 -19 14 -35 -5
-19 -2 -23 15 -23 13 0 21 -6 21 -17 0 -10 35 -45 78 -79 90 -72 374 -337 482
-450 41 -44 114 -126 161 -184 114 -140 367 -400 388 -400 30 0 328 369 506
625 102 147 275 440 275 466 0 31 -148 308 -236 442 -92 140 -179 254 -339
442 -75 88 -179 215 -232 283 -118 151 -213 259 -419 472 -87 91 -177 192
-199 224 -63 94 -229 261 -366 367 -122 95 -151 111 -164 89z"/>
</g>
</svg>
