<?xml version="1.0" standalone="no"?>
<!DOCTYPE svg PUBLIC "-//W3C//DTD SVG 20010904//EN"
 "http://www.w3.org/TR/2001/REC-SVG-20010904/DTD/svg10.dtd">
<svg version="1.0" xmlns="http://www.w3.org/2000/svg"
 width="428.000000pt" height="395.000000pt" viewBox="0 0 428.000000 395.000000"
 preserveAspectRatio="xMidYMid meet">
<metadata>
Created by potrace 1.16, written by Peter Selinger 2001-2019
</metadata>
<g transform="translate(0.000000,395.000000) scale(0.100000,-0.100000)"
fill="#000000" stroke="none">
<path d="M2753 3843 c-351 -426 -365 -441 -753 -845 -270 -280 -420 -442 -488
-530 -36 -46 -51 -58 -74 -58 -21 0 -28 -5 -28 -20 0 -11 -6 -20 -14 -20 -8 0
-45 -34 -83 -77 -374 -420 -565 -614 -793 -808 -191 -163 -506 -466 -516 -498
-8 -24 40 -74 186 -196 270 -226 557 -437 800 -588 223 -138 344 -203 379
-203 58 0 436 207 646 353 135 94 233 171 475 372 113 94 264 218 335 275 185
148 300 249 545 480 118 112 260 239 315 283 158 126 221 184 328 302 115 126
255 308 263 342 10 39 -98 167 -486 573 -327 343 -512 543 -845 913 -75 83
-84 81 -192 -50z"/>
</g>
</svg>
