<?xml version="1.0" standalone="no"?>
<!DOCTYPE svg PUBLIC "-//W3C//DTD SVG 20010904//EN"
 "http://www.w3.org/TR/2001/REC-SVG-20010904/DTD/svg10.dtd">
<svg version="1.0" xmlns="http://www.w3.org/2000/svg"
 width="152.000000pt" height="334.000000pt" viewBox="0 0 152.000000 334.000000"
 preserveAspectRatio="xMidYMid meet">
<metadata>
Created by potrace 1.16, written by Peter Selinger 2001-2019
</metadata>
<g transform="translate(0.000000,334.000000) scale(0.100000,-0.100000)"
fill="#000000" stroke="none">
<path d="M1282 3212 c-29 -71 -64 -163 -77 -205 -33 -102 -331 -695 -389 -775
-26 -35 -110 -152 -188 -260 -78 -108 -251 -342 -385 -519 -134 -177 -243
-328 -243 -335 0 -16 72 -107 275 -348 81 -96 167 -205 191 -243 24 -37 69
-101 100 -143 31 -42 82 -124 113 -183 72 -136 117 -201 139 -201 13 0 55 76
159 288 78 158 147 305 154 327 6 22 47 128 89 235 43 107 86 231 95 275 10
44 34 143 55 220 70 255 98 379 104 470 4 50 16 157 26 239 25 187 25 358 1
556 -11 85 -23 199 -27 253 -8 121 -100 470 -124 475 -11 1 -30 -35 -68 -126z"/>
</g>
</svg>
