<?xml version="1.0" standalone="no"?>
<!DOCTYPE svg PUBLIC "-//W3C//DTD SVG 20010904//EN"
 "http://www.w3.org/TR/2001/REC-SVG-20010904/DTD/svg10.dtd">
<svg version="1.0" xmlns="http://www.w3.org/2000/svg"
 width="418.000000pt" height="190.000000pt" viewBox="0 0 418.000000 190.000000"
 preserveAspectRatio="xMidYMid meet">
<metadata>
Created by potrace 1.16, written by Peter Selinger 2001-2019
</metadata>
<g transform="translate(0.000000,190.000000) scale(0.100000,-0.100000)"
fill="#000000" stroke="none">
<path d="M1285 1828 c-49 -39 -166 -135 -260 -213 -239 -199 -290 -238 -460
-356 -176 -123 -210 -144 -370 -234 -151 -85 -197 -120 -193 -149 2 -17 72
-56 353 -196 295 -148 397 -193 650 -289 273 -103 334 -122 685 -212 410 -105
465 -115 827 -154 319 -34 490 -33 858 6 287 30 438 56 608 104 131 38 197 65
197 80 0 19 -112 72 -310 145 -196 73 -483 207 -797 372 -258 135 -322 179
-1038 712 -566 421 -615 456 -640 456 -11 0 -60 -33 -110 -72z"/>
</g>
</svg>
