<?xml version="1.0" standalone="no"?>
<!DOCTYPE svg PUBLIC "-//W3C//DTD SVG 20010904//EN"
 "http://www.w3.org/TR/2001/REC-SVG-20010904/DTD/svg10.dtd">
<svg version="1.0" xmlns="http://www.w3.org/2000/svg"
 width="216.000000pt" height="1161.000000pt" viewBox="0 0 216.000000 1161.000000"
 preserveAspectRatio="xMidYMid meet">
<metadata>
Created by potrace 1.16, written by Peter Selinger 2001-2019
</metadata>
<g transform="translate(0.000000,1161.000000) scale(0.100000,-0.100000)"
fill="#000000" stroke="none">
<path d="M4 11596 c-3 -8 -4 -247 -1 -532 3 -426 6 -529 19 -576 14 -53 14
-64 -1 -120 -15 -58 -16 -502 -16 -5213 l0 -5150 1072 -3 1073 -2 -1 27 c0 16
-6 51 -13 78 -9 40 -9 61 2 105 19 75 18 289 -1 358 -13 48 -13 60 1 110 20
73 19 276 -1 354 -12 50 -12 64 0 110 19 69 20 283 1 358 -12 47 -12 63 1 115
19 78 19 272 0 350 -13 52 -13 68 -1 115 19 75 18 289 -1 358 -13 48 -13 60 1
110 20 73 19 276 -1 354 -12 50 -12 64 0 110 19 69 20 283 1 358 -12 47 -12
64 1 115 18 78 19 252 2 338 -11 56 -11 78 0 135 17 83 15 280 -3 348 -12 42
-12 57 0 100 19 67 18 282 -1 356 -12 50 -12 64 0 110 19 69 20 283 1 358 -12
47 -12 63 1 115 19 78 19 272 0 350 -13 52 -13 68 -1 115 19 75 18 289 -1 358
-13 48 -13 60 1 110 20 73 19 276 -1 354 -12 50 -12 64 0 110 19 69 20 283 1
358 -12 47 -12 63 1 115 8 35 14 109 14 175 0 66 -6 140 -14 175 -13 52 -13
68 -1 115 19 75 18 289 -1 358 -12 46 -12 60 1 115 20 81 20 263 0 344 -13 55
-13 69 -1 115 19 69 20 283 1 358 -12 47 -12 63 1 115 19 78 19 272 0 350 -13
52 -13 68 -1 115 19 75 18 289 -1 358 -12 46 -12 60 1 115 20 81 20 263 0 344
-13 55 -13 69 -1 115 19 69 20 284 1 358 -12 47 -12 63 0 110 18 73 18 289 0
360 -11 45 -12 65 -1 110 6 30 13 84 15 120 l3 65 -1073 3 c-910 2 -1073 0
-1078 -12z m408 -113 c-95 -104 -199 -233 -228 -283 -10 -16 -21 -30 -25 -30
-6 0 -73 141 -84 177 -6 23 37 138 75 201 l20 32 166 0 166 0 -90 -97z m508 2
c-88 -75 -115 -93 -128 -85 -9 5 -57 47 -107 94 l-90 85 218 1 219 0 -112 -95z
m580 32 c-101 -96 -407 -357 -419 -357 -11 0 -253 201 -248 206 1 1 58 50 127
108 l125 106 240 0 240 -1 -65 -62z m431 6 c-21 -32 -52 -75 -69 -95 l-29 -37
-87 94 -88 95 157 0 156 0 -40 -57z m199 45 c-1 -78 -45 -237 -93 -333 -36
-74 -36 -74 -48 -52 -6 9 -37 53 -70 96 -32 44 -59 83 -59 89 0 5 6 15 14 22
8 6 42 52 76 101 l61 89 60 0 c40 0 59 -4 59 -12z m-1492 -78 c48 -45 160
-143 249 -218 89 -75 161 -140 160 -143 -1 -3 -56 -52 -121 -107 l-119 -101
-41 32 c-55 44 -350 332 -386 377 l-29 37 95 101 c53 56 98 102 101 102 2 0
44 -36 91 -80z m1043 13 c94 -96 199 -221 255 -303 l48 -70 -47 -67 c-25 -38
-59 -83 -75 -102 l-29 -35 -130 135 c-72 74 -174 172 -226 218 l-96 84 52 46
c29 25 79 72 112 103 33 32 62 58 65 58 3 0 35 -30 71 -67z m-1576 -305 l34
-68 -43 -90 c-40 -81 -44 -87 -51 -62 -3 15 -8 110 -11 212 l-4 185 20 -55
c11 -30 36 -85 55 -122z m1400 7 l80 -75 -70 -66 c-91 -87 -425 -374 -434
-374 -10 0 -236 192 -240 204 -2 4 113 106 255 226 l258 218 36 -28 c19 -16
71 -63 115 -105z m-1075 22 l93 -97 -84 -88 c-94 -97 -201 -227 -245 -296 -16
-25 -32 -46 -35 -46 -13 0 -82 166 -83 198 0 46 99 237 179 345 36 49 69 87
74 85 4 -2 49 -47 101 -101z m1693 -92 c1 -96 -3 -135 -21 -198 -23 -80 -90
-237 -101 -237 -3 0 -23 26 -43 58 -21 31 -53 75 -71 96 l-33 39 65 88 c69 91
134 201 167 281 19 47 19 47 28 20 4 -15 9 -81 9 -147z m-1440 -153 c73 -65
182 -160 242 -211 61 -52 114 -97 118 -101 5 -4 -47 -55 -114 -113 l-124 -105
-59 51 c-92 80 -291 273 -347 338 l-50 58 97 100 c53 56 99 101 101 101 3 0
64 -53 136 -118z m1023 26 c98 -101 190 -214 242 -295 l34 -52 -51 -73 c-28
-40 -61 -86 -73 -101 l-23 -28 -170 169 c-94 92 -195 191 -226 218 l-57 50
112 102 c61 55 114 101 117 101 3 1 46 -41 95 -91z m-1598 -283 l30 -60 -41
-85 c-40 -83 -41 -84 -50 -55 -5 17 -11 109 -13 205 l-4 175 23 -60 c14 -33
38 -87 55 -120z m342 13 l73 -78 -99 -102 c-54 -57 -134 -150 -178 -208 -43
-58 -82 -106 -87 -108 -4 -2 -13 7 -19 19 -19 35 -60 161 -60 184 0 49 129
278 223 396 l22 27 26 -26 c14 -15 58 -62 99 -104z m1029 24 c56 -52 101 -97
101 -102 0 -9 -209 -197 -384 -345 l-116 -97 -118 99 c-64 55 -117 105 -117
112 0 20 506 442 520 433 8 -4 59 -49 114 -100z m644 -97 c1 -95 -3 -136 -20
-196 -26 -91 -89 -232 -101 -227 -10 3 -142 176 -142 184 0 3 32 49 70 102 39
53 94 144 123 203 48 96 53 103 61 80 4 -15 9 -80 9 -146z m-1483 -113 c47
-42 150 -133 230 -201 80 -68 153 -132 163 -141 17 -16 11 -22 -106 -122
l-124 -106 -159 148 c-87 80 -190 181 -227 223 l-68 77 97 100 c53 55 100 100
103 100 3 0 44 -35 91 -78z m1077 -25 c98 -102 202 -231 244 -301 l21 -36 -56
-77 c-30 -43 -64 -89 -74 -102 l-19 -23 -53 56 c-30 31 -59 65 -66 74 -7 10
-82 83 -168 162 -86 79 -155 147 -154 152 4 10 211 198 219 198 4 0 51 -47
106 -103z m-199 -268 l72 -67 -34 -28 c-19 -16 -87 -77 -152 -135 -66 -58
-165 -145 -221 -193 l-103 -87 -120 102 c-66 56 -120 105 -120 110 0 5 68 66
152 136 84 71 199 169 257 219 l106 91 45 -41 c25 -22 78 -71 118 -107z
m-1082 -152 c-104 -114 -190 -218 -234 -284 -19 -29 -38 -53 -42 -53 -7 0 -48
79 -75 147 -17 42 -17 44 10 110 34 86 91 185 169 291 l61 84 96 -104 97 -103
-82 -88z m-338 9 c-21 -44 -39 -87 -39 -95 -1 -9 -7 13 -15 49 -16 81 -17 154
-3 238 l11 64 42 -88 43 -89 -39 -79z m2028 124 c7 -83 -7 -190 -38 -284 -22
-68 -78 -186 -88 -186 -3 0 -30 34 -60 76 -30 43 -61 85 -69 96 -12 17 -11 23
18 61 73 98 151 221 182 292 32 70 34 73 42 47 4 -15 10 -61 13 -102z m-1481
-160 c39 -36 146 -130 238 -209 92 -79 164 -147 160 -152 -4 -4 -59 -50 -121
-103 -90 -76 -117 -94 -130 -86 -30 16 -288 262 -367 349 l-77 83 48 52 c153
161 147 156 163 143 9 -6 48 -41 86 -77z m1196 -158 c33 -41 78 -101 100 -133
l40 -60 -32 -50 c-18 -28 -51 -75 -74 -105 l-42 -54 -92 100 c-50 54 -150 152
-221 216 -72 65 -130 121 -130 124 0 4 51 53 112 110 l113 103 83 -89 c46 -49
110 -122 143 -162z m-1724 -155 l22 -37 -43 -90 c-40 -85 -44 -89 -50 -63 -4
15 -9 111 -12 213 l-5 185 34 -86 c18 -47 43 -102 54 -122z m1408 18 l60 -55
-75 -72 c-102 -100 -416 -368 -429 -368 -6 0 -65 46 -131 102 l-120 102 32 27
c18 15 137 114 263 221 l230 195 55 -48 c30 -27 82 -73 115 -104z m-1096 43
l94 -97 -96 -103 c-98 -105 -213 -246 -244 -299 -10 -16 -20 -29 -24 -29 -6 0
-73 141 -84 177 -8 28 41 146 101 244 57 92 144 211 153 207 3 -2 48 -47 100
-100z m1697 -48 c11 -128 -24 -286 -91 -420 -34 -68 -34 -69 -46 -47 -6 9 -37
53 -70 96 -32 44 -59 82 -59 85 0 3 20 32 44 63 68 88 152 227 178 294 22 56
23 58 30 32 4 -16 11 -62 14 -103z m-1488 -160 c48 -45 160 -143 249 -218 89
-75 161 -140 160 -143 -1 -3 -56 -52 -121 -107 l-119 -101 -41 32 c-55 44
-350 332 -386 377 l-29 37 95 101 c53 56 98 102 101 102 2 0 44 -36 91 -80z
m1043 13 c94 -96 199 -221 255 -303 l48 -70 -47 -67 c-25 -38 -59 -84 -75
-102 l-29 -35 -120 125 c-66 68 -168 166 -226 218 l-105 94 51 46 c29 25 79
72 112 103 33 32 62 58 65 58 3 0 35 -30 71 -67z m-1577 -306 l35 -68 -44 -89
c-39 -81 -43 -87 -50 -62 -3 15 -8 110 -11 212 l-4 185 20 -55 c11 -30 36 -85
54 -123z m1401 8 l80 -75 -70 -66 c-91 -87 -425 -374 -434 -374 -10 0 -236
192 -240 204 -2 4 113 106 255 226 l258 218 36 -28 c19 -16 71 -63 115 -105z
m-1075 22 l93 -97 -84 -88 c-94 -97 -201 -227 -245 -296 -16 -25 -32 -46 -35
-46 -13 0 -82 166 -83 198 0 46 99 237 179 345 36 49 69 87 74 85 4 -2 49 -47
101 -101z m1693 -92 c1 -96 -3 -135 -21 -198 -23 -80 -90 -237 -101 -237 -3 0
-23 26 -43 58 -21 31 -53 75 -71 96 l-34 40 54 70 c63 81 152 230 179 298 19
47 19 47 28 20 4 -15 9 -81 9 -147z m-1475 -123 c53 -48 162 -143 242 -211 80
-68 149 -127 153 -131 5 -4 -47 -55 -114 -113 l-124 -105 -59 51 c-92 80 -291
273 -347 338 l-50 58 97 100 c53 56 98 101 101 101 2 0 48 -39 101 -88z m1058
-4 c97 -101 179 -201 238 -290 l38 -57 -51 -73 c-28 -40 -61 -86 -73 -101
l-23 -28 -170 169 c-94 92 -195 191 -226 218 l-57 50 112 101 c61 56 114 102
117 102 3 1 46 -41 95 -91z m-1597 -286 c25 -49 30 -67 21 -77 -7 -8 -27 -48
-45 -90 -30 -70 -33 -74 -39 -48 -4 15 -9 111 -12 213 l-4 185 23 -60 c14 -33
39 -89 56 -123z m341 16 l73 -78 -99 -102 c-54 -57 -134 -150 -178 -208 -43
-58 -83 -107 -88 -108 -13 -6 -81 148 -82 184 0 59 124 286 227 415 l22 27 26
-26 c14 -15 58 -62 99 -104z m1029 24 c56 -52 101 -97 101 -102 0 -9 -261
-243 -408 -365 -84 -70 -94 -76 -110 -63 -158 134 -222 190 -222 197 0 4 115
105 256 224 168 142 261 214 269 209 8 -4 59 -49 114 -100z m644 -97 c1 -97
-3 -135 -21 -199 -27 -93 -88 -229 -100 -224 -10 3 -142 176 -142 184 0 3 32
49 70 102 39 53 94 144 123 203 48 96 53 103 61 80 4 -15 9 -80 9 -146z
m-1473 -121 c52 -48 156 -138 230 -202 74 -63 143 -123 153 -132 17 -16 11
-22 -106 -122 l-124 -106 -159 148 c-87 80 -190 181 -227 223 l-68 77 97 100
c53 55 100 100 103 100 3 0 49 -39 101 -86z m1067 -17 c98 -102 202 -231 244
-301 l21 -35 -51 -73 c-28 -40 -62 -86 -75 -101 l-23 -29 -53 57 c-30 31 -59
64 -66 73 -7 10 -82 83 -168 162 -86 79 -155 147 -154 152 4 10 211 198 219
198 4 0 51 -47 106 -103z m-1610 -272 l30 -60 -42 -89 -43 -88 -11 64 c-6 36
-11 132 -11 214 l0 149 24 -65 c12 -36 36 -92 53 -125z m1411 4 l72 -67 -34
-28 c-19 -16 -87 -77 -152 -135 -66 -58 -165 -145 -221 -193 l-103 -87 -120
102 c-66 56 -120 105 -120 110 0 4 112 103 249 218 138 116 253 216 256 222 4
6 26 -7 54 -33 25 -24 79 -73 119 -109z m-1082 -152 c-104 -114 -190 -218
-234 -284 -19 -29 -38 -53 -43 -53 -8 0 -44 71 -74 147 -17 42 -17 44 10 110
34 86 91 185 169 291 l61 84 96 -104 97 -103 -82 -88z m1690 133 c7 -83 -7
-190 -38 -284 -24 -72 -77 -186 -87 -186 -4 0 -31 34 -61 76 -30 43 -61 86
-69 96 -12 17 -12 22 7 46 60 77 162 238 193 306 32 71 34 74 42 48 4 -15 10
-61 13 -102z m-1481 -160 c39 -36 146 -130 238 -209 92 -79 164 -147 160 -151
-58 -53 -235 -200 -240 -200 -13 1 -305 278 -383 364 l-72 78 48 52 c153 161
147 156 163 143 9 -6 48 -41 86 -77z m1196 -158 c33 -41 78 -101 100 -133 l40
-60 -32 -50 c-18 -28 -51 -75 -74 -105 l-42 -54 -92 100 c-50 54 -150 152
-221 216 -72 65 -130 121 -130 124 0 4 51 53 112 110 l113 103 83 -89 c46 -49
110 -122 143 -162z m-1724 -155 l22 -37 -43 -90 c-40 -85 -44 -89 -50 -63 -4
15 -9 111 -12 213 l-5 185 34 -86 c18 -47 43 -102 54 -122z m1422 6 l46 -43
-75 -72 c-100 -97 -416 -368 -430 -368 -6 0 -64 46 -130 102 l-120 102 32 27
c18 15 137 114 263 221 l230 195 69 -61 c37 -34 89 -80 115 -103z m-1110 55
l94 -97 -96 -103 c-98 -105 -213 -246 -244 -299 -10 -16 -20 -29 -24 -29 -6 0
-73 141 -84 177 -8 28 41 146 101 244 57 92 144 211 153 207 3 -2 48 -47 100
-100z m1697 -48 c11 -128 -24 -286 -91 -420 -34 -68 -34 -69 -46 -47 -6 9 -37
53 -70 96 -32 44 -59 82 -59 85 0 3 20 32 44 63 68 88 152 227 178 294 22 56
23 58 30 32 4 -16 11 -62 14 -103z m-1488 -160 c48 -45 160 -143 249 -218 89
-75 161 -140 160 -143 -1 -3 -56 -52 -121 -107 l-119 -101 -27 19 c-39 28
-364 344 -399 389 l-30 38 95 101 c53 56 98 102 101 102 2 0 44 -36 91 -80z
m1043 13 c92 -95 195 -217 253 -302 l49 -71 -46 -68 c-25 -37 -59 -83 -75
-101 l-29 -35 -120 125 c-66 68 -168 166 -226 218 l-105 94 51 46 c29 25 79
72 112 103 33 32 62 58 65 58 3 0 35 -30 71 -67z m-1577 -306 l35 -68 -44 -89
c-39 -81 -43 -87 -50 -62 -3 15 -8 110 -11 212 l-4 185 20 -55 c11 -30 36 -85
54 -123z m1401 8 l80 -75 -70 -67 c-89 -84 -425 -373 -435 -373 -9 0 -235 192
-239 204 -2 4 113 106 255 226 l258 218 36 -28 c19 -16 71 -63 115 -105z
m-1076 23 l94 -98 -84 -87 c-94 -98 -201 -228 -245 -297 -16 -25 -32 -46 -35
-46 -13 0 -82 166 -83 198 0 45 99 236 180 345 36 49 68 87 72 85 4 -2 49 -47
101 -100z m1694 -93 c1 -96 -3 -135 -21 -198 -23 -80 -90 -237 -101 -237 -3 0
-18 19 -33 43 -15 23 -47 67 -70 96 l-44 55 66 87 c68 91 133 202 166 281 19
47 19 47 28 20 4 -15 9 -81 9 -147z m-1475 -123 c53 -48 162 -143 242 -211 80
-68 149 -127 153 -131 5 -4 -47 -55 -114 -113 l-124 -105 -59 51 c-92 80 -291
273 -346 337 l-50 58 96 101 c53 56 98 101 101 101 2 0 48 -39 101 -88z m1053
1 c97 -101 189 -213 243 -295 l38 -57 -51 -73 c-28 -40 -61 -86 -73 -101 l-23
-28 -170 169 c-94 92 -195 191 -226 218 l-57 50 112 101 c61 56 114 102 117
102 3 1 44 -38 90 -86z m-1593 -289 l31 -61 -40 -79 c-21 -43 -39 -85 -40 -94
0 -8 -5 -1 -11 15 -5 17 -12 113 -14 215 l-4 185 23 -60 c14 -33 38 -88 55
-121z m1377 32 l100 -95 -82 -76 c-100 -93 -416 -365 -423 -365 -9 0 -240 201
-240 209 0 4 115 105 256 224 203 172 260 215 273 207 9 -5 61 -52 116 -104z
m-1057 4 l94 -101 -99 -102 c-54 -56 -133 -149 -177 -207 -43 -58 -83 -107
-88 -108 -13 -5 -81 148 -81 184 -1 37 74 197 134 286 50 74 109 148 118 148
3 0 48 -45 99 -100z m1695 -95 c1 -95 -3 -136 -20 -196 -26 -91 -89 -232 -101
-227 -10 3 -142 176 -142 184 0 3 32 49 70 102 39 53 94 144 123 203 48 96 53
103 61 80 4 -15 9 -80 9 -146z m-1473 -121 c52 -48 156 -138 230 -202 74 -63
143 -123 153 -132 17 -16 12 -22 -106 -122 l-124 -106 -159 147 c-87 81 -190
182 -227 224 l-68 77 97 100 c53 55 100 100 103 100 3 0 49 -39 101 -86z
m1067 -17 c98 -102 202 -231 244 -301 l21 -35 -51 -73 c-28 -40 -62 -86 -75
-101 l-23 -29 -53 57 c-30 31 -59 64 -66 73 -7 10 -82 83 -168 162 -86 79
-155 147 -154 152 4 10 211 198 219 198 4 0 51 -47 106 -103z m-1610 -272 l30
-59 -38 -80 c-22 -44 -40 -87 -40 -95 -1 -9 -7 13 -15 49 -7 37 -13 131 -13
220 l-1 155 24 -65 c12 -36 36 -92 53 -125z m1410 4 l71 -65 -116 -106 c-65
-58 -179 -158 -254 -222 l-138 -117 -120 101 c-66 56 -120 106 -120 111 0 4
112 103 249 218 138 116 253 216 256 222 4 6 26 -7 54 -33 25 -24 78 -72 118
-109z m-1081 -152 c-104 -114 -190 -218 -234 -284 -19 -29 -38 -53 -43 -53 -8
0 -44 71 -74 147 -17 42 -17 44 10 110 34 86 91 185 169 291 l61 84 96 -104
97 -103 -82 -88z m1690 133 c7 -83 -7 -190 -38 -284 -24 -72 -77 -186 -87
-186 -4 0 -31 34 -61 76 -30 43 -61 86 -69 96 -12 17 -12 22 7 46 58 72 162
238 193 306 32 71 34 74 42 48 4 -15 10 -61 13 -102z m-1479 -161 c39 -37 146
-131 238 -210 91 -78 162 -145 158 -149 -58 -53 -235 -200 -240 -200 -13 1
-305 278 -383 364 l-72 78 48 52 c153 161 147 156 163 143 9 -6 48 -42 88 -78z
m1194 -157 c33 -41 78 -101 100 -133 l40 -60 -32 -50 c-18 -28 -51 -75 -74
-105 l-42 -54 -92 100 c-50 54 -150 152 -221 216 -72 65 -130 121 -130 124 0
4 51 53 112 110 l113 103 83 -89 c46 -49 110 -122 143 -162z m-1724 -155 l22
-37 -43 -90 c-40 -85 -44 -89 -50 -63 -4 15 -9 111 -12 213 l-5 185 34 -86
c18 -47 43 -102 54 -122z m1422 6 l46 -43 -75 -72 c-100 -97 -416 -368 -430
-368 -6 0 -64 46 -130 102 l-121 102 28 22 c16 12 134 112 263 222 l235 199
69 -61 c37 -34 89 -80 115 -103z m-1110 55 l94 -97 -96 -103 c-103 -112 -172
-195 -227 -276 -19 -28 -38 -52 -41 -52 -6 0 -73 141 -84 177 -8 28 41 146
101 244 57 92 144 211 153 207 3 -2 48 -47 100 -100z m1697 -48 c7 -80 -6
-193 -32 -275 -19 -60 -85 -205 -93 -205 -3 0 -12 10 -20 23 -8 12 -38 54 -67
93 -30 40 -54 74 -54 78 0 3 20 32 44 63 68 88 152 227 178 294 22 56 23 58
30 32 4 -16 11 -62 14 -103z m-1452 -192 c68 -62 180 -160 249 -218 69 -58
125 -108 124 -111 -1 -3 -56 -52 -121 -107 l-119 -101 -27 19 c-39 28 -364
344 -399 389 l-30 38 95 101 c53 56 98 102 100 102 3 0 60 -51 128 -112z
m1007 45 c92 -95 195 -217 253 -302 l49 -71 -46 -68 c-25 -37 -59 -83 -75
-102 l-29 -35 -120 125 c-66 69 -168 167 -226 219 l-106 94 52 46 c29 25 79
72 112 103 33 32 62 58 65 58 3 0 35 -30 71 -67z m-1577 -306 l35 -68 -44 -89
c-39 -81 -43 -87 -50 -62 -3 15 -8 110 -11 212 l-4 185 20 -55 c11 -30 36 -85
54 -123z m1401 8 l80 -75 -70 -67 c-89 -84 -425 -373 -435 -373 -9 0 -235 192
-239 204 -2 4 113 106 255 226 l258 218 36 -28 c19 -16 71 -63 115 -105z
m-1076 23 l93 -97 -92 -98 c-91 -96 -213 -246 -247 -304 -10 -16 -20 -29 -24
-29 -13 0 -82 166 -83 198 0 45 99 236 180 345 36 49 68 87 72 85 4 -2 49 -47
101 -100z m1694 -93 c1 -96 -3 -135 -21 -198 -23 -80 -90 -237 -101 -237 -3 0
-18 19 -33 43 -15 23 -47 67 -71 97 l-43 54 62 82 c73 97 133 198 166 277 22
55 23 56 32 29 4 -15 9 -81 9 -147z m-1475 -123 c53 -48 162 -143 242 -211 80
-68 149 -127 153 -131 5 -4 -47 -55 -114 -113 l-124 -105 -45 38 c-74 62 -312
293 -363 353 l-47 55 96 101 c53 56 98 101 101 101 2 0 48 -39 101 -88z m1053
1 c97 -101 189 -213 243 -295 l38 -57 -51 -73 c-28 -40 -61 -86 -73 -101 l-23
-28 -170 169 c-94 92 -195 191 -226 218 l-57 50 112 101 c61 56 114 102 117
102 3 1 44 -38 90 -86z m-1593 -289 l31 -61 -40 -79 c-21 -43 -39 -85 -40 -94
0 -8 -5 -1 -11 15 -5 17 -12 113 -14 215 l-4 185 23 -60 c14 -33 38 -88 55
-121z m1377 32 l100 -95 -86 -80 c-98 -92 -411 -361 -419 -361 -13 0 -241 203
-238 211 2 5 117 106 257 224 201 170 257 213 270 205 9 -5 61 -52 116 -104z
m-1057 4 l94 -101 -99 -102 c-54 -56 -133 -149 -177 -207 -43 -58 -83 -107
-88 -108 -13 -5 -81 148 -81 184 -1 37 74 197 134 286 50 74 109 148 118 148
3 0 48 -45 99 -100z m1695 -95 c1 -95 -3 -136 -20 -196 -26 -91 -89 -232 -101
-227 -10 3 -142 176 -142 184 0 3 32 49 70 102 39 53 94 144 123 203 48 96 53
103 61 80 4 -15 9 -80 9 -146z m-1473 -122 c52 -47 160 -142 240 -210 80 -68
146 -128 148 -132 1 -3 -51 -52 -116 -107 l-119 -101 -100 91 c-55 50 -125
112 -154 137 -30 25 -87 83 -127 127 l-74 81 98 101 c53 55 100 100 103 100 3
0 49 -39 101 -87z m1067 -16 c96 -100 198 -225 241 -297 l21 -33 -50 -71 c-27
-39 -60 -84 -73 -99 l-23 -29 -54 59 c-68 73 -118 121 -268 258 -67 60 -120
113 -119 117 4 10 211 198 219 198 4 0 51 -47 106 -103z m-1622 -246 l38 -80
-39 -85 c-37 -80 -40 -83 -48 -58 -4 15 -10 108 -12 207 -4 163 -3 176 10 138
7 -23 31 -78 51 -122z m1423 -23 l64 -59 -69 -63 c-81 -75 -203 -181 -335
-294 l-98 -83 -120 102 c-66 56 -120 103 -120 105 0 2 112 98 249 213 138 116
253 216 256 222 4 6 28 -9 58 -37 29 -27 80 -74 115 -106z m-1011 -59 c-1 -4
-48 -58 -105 -121 -92 -102 -175 -205 -224 -278 -16 -25 -16 -25 -31 -5 -9 11
-29 54 -47 95 l-31 76 30 73 c37 88 84 169 165 279 l61 84 92 -99 c51 -54 91
-101 90 -104z m1616 6 c1 -76 -4 -130 -16 -175 -20 -77 -72 -207 -94 -235 -15
-20 -15 -20 -31 5 -10 13 -41 56 -69 94 -44 59 -51 73 -40 87 93 125 135 191
179 279 48 96 54 103 62 80 5 -14 9 -74 9 -135z m-1427 -170 c55 -50 154 -137
222 -194 67 -57 121 -107 120 -111 -5 -11 -227 -200 -235 -200 -12 1 -301 274
-378 357 -37 40 -65 77 -63 82 1 5 43 52 91 105 l89 96 28 -22 c15 -13 72 -64
126 -113z m1145 -113 c33 -41 77 -100 99 -132 l39 -58 -50 -72 c-27 -40 -60
-85 -72 -100 l-22 -27 -140 142 c-77 78 -177 176 -223 216 l-83 74 113 104
113 104 83 -89 c46 -49 110 -122 143 -162z m-1725 -153 l20 -34 -42 -88 c-38
-82 -42 -87 -48 -60 -4 15 -9 109 -12 208 l-5 180 34 -86 c18 -47 42 -101 53
-120z m1421 6 l46 -41 -104 -96 c-57 -53 -149 -135 -204 -182 l-100 -85 -94
-1 -93 0 -74 62 -74 62 22 23 c13 12 129 112 258 221 l235 199 68 -61 c38 -34
89 -79 114 -101z m-1110 55 l91 -95 -80 -85 c-87 -91 -224 -259 -254 -309 -10
-17 -22 -31 -25 -31 -7 0 -24 42 -20 48 1 1 -5 9 -13 17 -8 8 -24 40 -35 71
l-21 55 30 73 c45 108 210 363 229 354 3 -2 47 -46 98 -98z m1699 -45 c7 -84
-9 -200 -41 -293 -40 -119 -43 -122 -89 -122 -38 1 -44 5 -89 64 l-48 64 59
78 c70 93 152 233 172 294 l14 43 8 -29 c4 -16 10 -60 14 -99z m-1502 -152
c39 -38 122 -112 184 -165 62 -54 109 -98 105 -99 -4 0 8 -8 28 -17 36 -16
115 -80 108 -86 -2 -2 -58 -49 -123 -104 l-119 -101 -31 22 c-44 32 -416 400
-416 413 0 11 177 204 187 204 3 0 38 -30 77 -67z m1057 0 c79 -81 219 -244
219 -255 0 -4 -44 -9 -97 -10 l-98 -1 113 -10 113 -9 26 -39 26 -40 -46 -67
c-25 -37 -59 -82 -75 -101 l-29 -35 -125 130 c-70 71 -169 167 -222 214 l-96
85 107 102 c60 56 110 102 113 103 3 0 35 -30 71 -67z m-228 -252 c15 -17 33
-31 40 -31 7 0 31 -18 52 -41 l40 -41 -70 -66 c-94 -88 -426 -372 -435 -372
-9 0 -235 192 -239 204 -4 13 355 313 384 320 14 4 48 4 74 0 29 -4 56 -2 67
5 15 8 3 10 -54 11 l-74 0 58 49 58 50 35 -29 c20 -15 48 -42 64 -59z m-969
-71 l40 -39 -85 -88 c-94 -98 -201 -228 -245 -297 -16 -25 -32 -46 -35 -46
-13 0 -82 166 -83 197 0 36 84 212 134 282 l32 44 102 -7 c101 -6 101 -6 140
-46z m1642 24 c10 -41 -4 -181 -26 -263 -32 -116 -110 -274 -110 -223 0 4 -31
48 -68 98 l-68 91 28 34 c35 41 126 176 162 242 21 36 33 47 51 47 18 0 26 -7
31 -26z m-2009 -23 l23 -40 -44 -90 c-51 -104 -51 -104 -62 67 l-7 102 34 0
c29 0 37 -6 56 -39z m531 -159 c53 -48 162 -143 242 -211 80 -68 149 -127 153
-131 5 -4 -47 -55 -114 -113 l-124 -105 -59 51 c-92 80 -291 273 -346 337
l-50 58 96 101 c53 56 98 101 101 101 2 0 48 -39 101 -88z m1053 1 c97 -101
189 -213 243 -295 l38 -57 -51 -73 c-28 -40 -61 -86 -73 -101 l-23 -28 -170
169 c-94 92 -195 191 -226 218 l-57 50 112 101 c61 56 114 102 117 102 3 1 44
-38 90 -86z m-1593 -289 l31 -61 -40 -79 c-21 -43 -39 -85 -40 -94 0 -8 -5 -1
-11 15 -5 17 -12 113 -14 215 l-4 185 23 -60 c14 -33 38 -88 55 -121z m1377
32 l100 -95 -82 -76 c-100 -93 -416 -365 -423 -365 -9 0 -240 201 -240 209 0
4 115 105 256 224 203 172 260 215 273 207 9 -5 61 -52 116 -104z m-1057 4
l94 -101 -99 -102 c-54 -56 -133 -149 -177 -207 -43 -58 -83 -107 -88 -108
-13 -5 -81 148 -81 184 -1 37 74 197 134 286 50 74 109 148 118 148 3 0 48
-45 99 -100z m1695 -95 c1 -95 -3 -136 -20 -196 -26 -91 -89 -232 -101 -227
-10 3 -142 176 -142 184 0 3 32 49 70 102 39 53 94 144 123 203 48 96 53 103
61 80 4 -15 9 -80 9 -146z m-1473 -121 c52 -48 156 -138 230 -202 74 -63 143
-123 153 -132 17 -16 12 -22 -106 -122 l-124 -106 -159 147 c-87 81 -190 182
-227 224 l-68 77 97 100 c53 55 100 100 103 100 3 0 49 -39 101 -86z m1067
-17 c98 -102 202 -231 244 -301 l21 -35 -51 -73 c-28 -40 -62 -86 -75 -101
l-23 -29 -53 57 c-30 31 -59 64 -66 73 -7 10 -82 83 -168 162 -86 79 -155 147
-154 152 4 10 211 198 219 198 4 0 51 -47 106 -103z m-1610 -272 l30 -59 -38
-80 c-22 -44 -40 -87 -40 -95 -1 -9 -7 13 -15 49 -7 37 -13 131 -13 220 l-1
155 24 -65 c12 -36 36 -92 53 -125z m1410 4 l71 -65 -116 -106 c-65 -58 -179
-158 -254 -222 l-138 -117 -120 101 c-66 56 -120 106 -120 111 0 4 112 103
249 218 138 116 253 216 256 222 4 6 26 -7 54 -33 25 -24 78 -72 118 -109z
m-1081 -152 c-104 -114 -190 -218 -234 -284 -19 -29 -38 -53 -43 -53 -8 0 -44
71 -74 147 -17 42 -17 44 10 110 34 86 91 185 169 291 l61 84 96 -104 97 -103
-82 -88z m1690 133 c7 -83 -7 -190 -38 -284 -24 -72 -77 -186 -87 -186 -4 0
-31 34 -61 76 -30 43 -61 86 -69 96 -12 17 -12 22 7 46 58 72 162 238 193 306
32 71 34 74 42 48 4 -15 10 -61 13 -102z m-1479 -161 c39 -37 146 -131 238
-210 91 -78 162 -145 158 -149 -58 -53 -235 -200 -240 -200 -13 1 -305 278
-383 364 l-72 78 48 52 c153 161 147 156 163 143 9 -6 48 -42 88 -78z m1194
-157 c33 -41 78 -101 100 -133 l40 -60 -32 -50 c-18 -28 -51 -75 -74 -105
l-42 -54 -92 100 c-50 54 -150 152 -221 216 -72 65 -130 121 -130 124 0 4 51
53 112 110 l113 103 83 -89 c46 -49 110 -122 143 -162z m-1724 -155 l22 -37
-43 -90 c-40 -85 -44 -89 -50 -63 -4 15 -9 111 -12 213 l-5 185 34 -86 c18
-47 43 -102 54 -122z m1422 6 l46 -43 -75 -72 c-100 -97 -416 -368 -430 -368
-6 0 -64 46 -130 102 l-121 102 28 22 c16 12 134 112 263 222 l235 199 69 -61
c37 -34 89 -80 115 -103z m-1110 55 l94 -97 -96 -103 c-103 -112 -172 -195
-227 -276 -19 -28 -38 -52 -41 -52 -6 0 -73 141 -84 177 -8 28 41 146 101 244
57 92 144 211 153 207 3 -2 48 -47 100 -100z m1697 -48 c7 -80 -6 -193 -32
-275 -19 -60 -85 -205 -93 -205 -3 0 -12 10 -20 23 -8 12 -38 54 -67 93 -30
40 -54 74 -54 78 0 3 20 32 44 63 68 88 152 227 178 294 22 56 23 58 30 32 4
-16 11 -62 14 -103z m-1452 -192 c68 -62 180 -160 249 -218 69 -58 125 -108
124 -111 -1 -3 -56 -52 -121 -107 l-119 -101 -27 19 c-39 28 -364 344 -399
389 l-30 38 95 101 c53 56 98 102 100 102 3 0 60 -51 128 -112z m1007 45 c92
-95 195 -217 253 -302 l49 -71 -46 -68 c-25 -37 -59 -83 -75 -102 l-29 -35
-120 125 c-66 69 -168 167 -226 219 l-106 94 52 46 c29 25 79 72 112 103 33
32 62 58 65 58 3 0 35 -30 71 -67z m-1577 -306 l35 -68 -44 -89 c-39 -81 -43
-87 -50 -62 -3 15 -8 110 -11 212 l-4 185 20 -55 c11 -30 36 -85 54 -123z
m1401 8 l80 -75 -70 -67 c-89 -84 -425 -373 -435 -373 -9 0 -235 192 -239 204
-2 4 113 106 255 226 l258 218 36 -28 c19 -16 71 -63 115 -105z m-1076 23 l93
-97 -92 -98 c-91 -96 -213 -246 -247 -304 -10 -16 -20 -29 -24 -29 -13 0 -82
166 -83 198 0 45 99 236 180 345 36 49 68 87 72 85 4 -2 49 -47 101 -100z
m1694 -93 c1 -96 -3 -135 -21 -198 -23 -80 -90 -237 -101 -237 -3 0 -18 19
-33 43 -15 23 -47 67 -71 97 l-43 54 62 82 c73 97 133 198 166 277 22 55 23
56 32 29 4 -15 9 -81 9 -147z m-1475 -123 c53 -48 162 -143 242 -211 80 -68
149 -127 153 -131 5 -4 -47 -55 -114 -113 l-124 -105 -45 38 c-74 62 -312 293
-363 353 l-47 55 96 101 c53 56 98 101 101 101 2 0 48 -39 101 -88z m1053 1
c97 -101 189 -213 243 -295 l38 -57 -51 -73 c-28 -40 -61 -86 -73 -101 l-23
-28 -170 169 c-94 92 -195 191 -226 218 l-57 50 112 101 c61 56 114 102 117
102 3 1 44 -38 90 -86z m-1593 -289 l31 -61 -40 -79 c-21 -43 -39 -85 -40 -94
0 -8 -5 -1 -11 15 -5 17 -12 113 -14 215 l-4 185 23 -60 c14 -33 38 -88 55
-121z m1377 32 l100 -95 -86 -80 c-98 -92 -411 -361 -419 -361 -13 0 -241 203
-238 211 2 5 117 106 257 224 201 170 257 213 270 205 9 -5 61 -52 116 -104z
m-1057 4 l94 -101 -99 -102 c-54 -56 -133 -149 -177 -207 -43 -58 -83 -107
-88 -108 -13 -5 -81 148 -81 184 -1 37 74 197 134 286 50 74 109 148 118 148
3 0 48 -45 99 -100z m1695 -95 c1 -95 -3 -136 -20 -196 -26 -91 -89 -232 -101
-227 -10 3 -142 176 -142 184 0 3 32 49 70 102 39 53 94 144 123 203 48 96 53
103 61 80 4 -15 9 -80 9 -146z m-1473 -121 c52 -48 156 -138 230 -202 74 -63
143 -123 153 -132 17 -16 11 -22 -106 -122 l-124 -105 -153 141 c-84 77 -187
178 -227 223 l-75 82 98 101 c53 55 100 100 103 100 3 0 49 -39 101 -86z
m1067 -17 c98 -102 202 -231 244 -301 l21 -35 -51 -73 c-28 -40 -62 -86 -75
-101 l-23 -29 -54 57 c-30 31 -57 62 -61 69 -4 7 -79 79 -168 161 -88 82 -159
152 -158 157 4 10 211 198 219 198 4 0 51 -47 106 -103z m-1610 -272 l30 -59
-38 -80 c-22 -44 -40 -87 -40 -95 -1 -9 -7 13 -15 49 -7 37 -13 131 -13 220
l-1 155 24 -65 c12 -36 36 -92 53 -125z m1410 4 l72 -66 -122 -109 c-67 -61
-182 -161 -254 -223 l-133 -113 -120 102 c-66 56 -120 106 -120 111 0 4 112
103 249 218 138 116 253 216 256 222 4 6 26 -7 54 -33 25 -24 78 -73 118 -109z
m-1081 -152 c-104 -114 -190 -218 -234 -284 -19 -29 -38 -53 -43 -53 -8 0 -44
71 -74 147 -17 42 -17 44 10 110 34 86 91 185 169 291 l61 84 96 -104 97 -103
-82 -88z m1690 133 c7 -83 -7 -190 -38 -284 -24 -72 -77 -186 -87 -186 -4 0
-31 34 -61 76 -30 43 -61 86 -69 96 -12 17 -12 22 7 46 58 72 162 238 193 306
32 71 34 74 42 48 4 -15 10 -61 13 -102z m-1473 -168 c38 -35 143 -127 233
-204 134 -114 163 -143 152 -153 -66 -62 -231 -196 -238 -193 -34 12 -433 405
-442 435 -2 6 39 56 91 112 107 117 81 116 204 3z m1188 -150 c33 -41 78 -101
100 -133 l40 -60 -32 -50 c-18 -28 -51 -75 -74 -105 l-42 -54 -92 100 c-50 54
-150 152 -221 216 -72 65 -130 121 -130 124 0 4 51 53 112 110 l113 103 83
-89 c46 -49 110 -122 143 -162z m-1724 -155 l22 -37 -43 -90 c-40 -85 -44 -89
-50 -63 -4 15 -9 111 -12 213 l-5 185 34 -86 c18 -47 43 -102 54 -122z m1421
6 l47 -43 -75 -73 c-41 -40 -131 -121 -200 -180 l-125 -107 -105 0 -105 0 -72
61 -72 61 166 142 c92 77 210 178 263 222 l95 81 68 -61 c38 -33 89 -80 115
-103z m-1109 55 l94 -97 -96 -103 c-100 -108 -207 -237 -207 -251 0 -4 -24 -7
-52 -5 l-53 3 -23 59 -24 59 27 68 c41 106 214 376 234 367 3 -2 48 -47 100
-100z m1694 -93 c1 -126 -10 -189 -55 -303 l-23 -57 -50 -2 -50 -3 -42 59
c-24 33 -43 61 -43 64 0 3 26 41 59 84 69 92 151 232 171 293 l14 43 9 -29 c5
-16 10 -83 10 -149z m-1499 -102 c39 -38 122 -112 184 -165 l113 -98 -230 0
-229 0 -56 62 -56 62 32 35 c60 66 162 171 167 171 2 0 36 -30 75 -67z m1057
0 c79 -81 219 -244 219 -255 0 -4 -86 -8 -191 -8 l-190 0 -68 61 -68 61 111
103 c61 57 113 104 116 104 3 1 35 -29 71 -66z"/>
</g>
</svg>
