<?xml version="1.0" standalone="no"?>
<!DOCTYPE svg PUBLIC "-//W3C//DTD SVG 20010904//EN"
 "http://www.w3.org/TR/2001/REC-SVG-20010904/DTD/svg10.dtd">
<svg version="1.0" xmlns="http://www.w3.org/2000/svg"
 width="1104.000000pt" height="4052.000000pt" viewBox="0 0 1104.000000 4052.000000"
 preserveAspectRatio="xMidYMid meet">
<metadata>
Created by potrace 1.16, written by Peter Selinger 2001-2019
</metadata>
<g transform="translate(0.000000,4052.000000) scale(0.100000,-0.100000)"
fill="#000000" stroke="none">
<path d="M50 40495 c0 -20 -5 -25 -25 -25 l-25 0 0 -20210 0 -20210 25 0 c20
0 25 -5 25 -25 l0 -25 3000 0 c1650 0 3000 4 3000 8 0 4 9 8 20 8 11 0 20 -4
20 -8 0 -4 988 -8 2195 -8 2018 0 2195 1 2195 16 0 13 3 14 13 5 8 -6 17 -8
20 -4 4 3 7 1 7 -5 0 -9 64 -12 240 -12 l240 0 0 25 c0 18 5 25 20 25 20 0 20
7 20 20210 0 20203 0 20210 -20 20210 -15 0 -20 7 -20 25 l0 25 -5475 0 -5475
0 0 -25z m630 -80 c0 -2 -18 -33 -41 -67 -60 -93 -154 -290 -188 -395 -17 -51
-54 -133 -85 -185 -31 -51 -74 -135 -97 -188 -23 -52 -45 -99 -49 -103 -9 -11
-47 186 -60 313 -5 52 -16 131 -25 175 -9 44 -19 164 -22 268 l-6 187 287 0
c157 0 286 -2 286 -5z m1816 -146 c-80 -83 -186 -199 -234 -257 -48 -59 -107
-125 -132 -147 -209 -189 -516 -518 -615 -659 -169 -241 -244 -340 -375 -494
-98 -116 -224 -301 -344 -505 l-22 -38 -71 108 c-83 126 -131 220 -163 318
-13 39 -58 141 -102 229 -43 87 -78 170 -78 185 0 38 -17 95 -57 187 l-34 82
26 68 c15 38 70 157 122 264 52 107 111 244 130 304 43 130 126 298 207 419
l58 87 915 0 915 0 -146 -151z m2844 147 c0 -3 -89 -85 -197 -182 -109 -98
-237 -215 -284 -260 -48 -44 -136 -115 -195 -156 -121 -84 -219 -162 -444
-352 l-152 -129 -146 145 c-195 191 -255 245 -430 386 -170 137 -318 269 -487
434 l-120 117 1228 1 c675 0 1227 -2 1227 -4z m2520 -252 c-180 -180 -298
-289 -400 -369 -197 -155 -282 -225 -442 -371 -75 -68 -172 -151 -216 -184
-44 -33 -136 -113 -204 -178 -67 -65 -177 -163 -243 -217 -66 -54 -158 -135
-205 -179 -47 -44 -183 -158 -303 -253 -120 -96 -243 -196 -273 -224 l-55 -50
-47 39 c-26 21 -173 137 -327 257 -154 120 -333 269 -398 329 -65 61 -155 139
-200 173 -45 34 -142 122 -215 196 l-133 134 76 57 c118 89 328 266 450 380
61 56 142 129 180 161 39 32 174 149 300 260 127 110 255 222 285 248 l55 47
1285 0 1285 0 -255 -256z m2244 204 c-124 -246 -253 -444 -371 -571 -70 -76
-273 -328 -337 -419 l-17 -23 -37 45 c-98 119 -248 277 -601 633 l-385 387
887 0 887 0 -26 -52z m836 25 c0 -16 -9 -102 -20 -193 -10 -91 -22 -208 -26
-260 -4 -52 -17 -129 -30 -170 -13 -41 -48 -171 -78 -287 -30 -117 -59 -221
-65 -230 -5 -10 -21 -63 -36 -118 -15 -55 -38 -125 -52 -155 -13 -30 -38 -104
-54 -163 -16 -59 -41 -131 -55 -160 -62 -123 -269 -485 -275 -479 -13 14 -377
526 -464 652 -78 114 -188 258 -300 396 l-33 41 60 69 c189 216 409 511 574
770 70 109 145 225 167 257 l40 57 323 0 324 0 0 -27z m-7475 -684 c55 -46
170 -144 255 -219 85 -74 185 -160 223 -190 38 -31 67 -61 67 -72 0 -12 7 -18
24 -18 19 0 23 -4 19 -20 -4 -16 4 -24 41 -40 74 -31 156 -92 267 -197 57 -55
158 -144 224 -198 66 -54 170 -146 230 -204 124 -118 309 -276 468 -401 l108
-84 -128 -129 c-70 -70 -169 -159 -218 -197 -50 -37 -149 -124 -220 -192 -72
-68 -189 -172 -262 -231 -73 -59 -135 -112 -138 -117 -3 -5 -36 -29 -73 -53
-37 -24 -114 -80 -171 -125 l-105 -80 -95 85 c-53 47 -118 101 -146 119 -27
18 -111 94 -185 169 -74 76 -169 162 -210 193 -124 92 -192 154 -510 467 -169
165 -376 368 -461 450 -188 182 -397 411 -462 508 -27 39 -92 117 -145 172
-53 56 -103 114 -111 128 -13 25 -13 29 11 55 14 15 94 106 178 202 84 96 187
211 229 255 42 44 114 128 161 185 47 58 163 185 259 283 l175 178 300 -299
c166 -164 346 -336 401 -383z m4930 519 c86 -90 198 -212 248 -273 51 -60 226
-245 390 -410 163 -165 297 -308 297 -318 0 -9 7 -17 16 -17 11 0 15 -6 11
-20 -4 -14 4 -25 29 -40 41 -26 180 -186 255 -294 187 -272 325 -481 412 -626
l99 -165 -75 -150 c-43 -85 -119 -213 -176 -295 -129 -186 -353 -490 -363
-490 -3 0 -41 -41 -84 -91 l-77 -90 -31 38 c-59 73 -131 146 -173 175 -24 16
-87 86 -142 156 -125 160 -804 838 -1126 1124 -121 108 -296 273 -390 368 -93
94 -210 202 -260 239 -49 37 -125 101 -168 142 l-78 74 73 55 c214 161 397
327 758 686 212 211 388 384 392 384 3 0 77 -73 163 -162z m2543 -1096 l-3
-157 -28 90 c-16 50 -37 116 -48 148 l-18 59 47 167 47 167 3 -159 c1 -87 1
-229 0 -315z m-10778 106 c0 -16 5 -28 11 -28 6 0 9 -7 6 -15 -4 -8 -2 -17 3
-20 5 -3 23 -50 40 -105 17 -55 69 -177 116 -272 47 -95 97 -208 111 -253 36
-118 127 -296 199 -392 l63 -83 -50 -66 c-76 -101 -205 -370 -228 -475 -15
-68 -38 -125 -114 -272 -93 -183 -95 -186 -102 -149 -3 20 -15 62 -27 92 -12
35 -23 96 -28 165 -5 73 -14 123 -26 150 -18 38 -19 82 -21 970 l-2 930 24
-75 c14 -41 25 -87 25 -102z m6850 -136 c25 -20 92 -82 150 -138 58 -55 159
-145 224 -199 66 -53 219 -193 340 -310 122 -117 267 -253 324 -301 l102 -88
-307 -309 c-296 -296 -536 -510 -689 -615 -35 -24 -109 -86 -164 -139 -80 -76
-98 -98 -89 -109 9 -11 8 -14 -5 -14 -9 0 -16 -6 -16 -13 0 -7 -50 -47 -111
-91 -131 -92 -563 -451 -699 -580 -107 -102 -304 -269 -452 -382 l-99 -76 -57
38 c-140 96 -525 414 -711 588 -123 114 -362 316 -474 401 -76 57 -77 58 -60
78 10 11 130 122 268 246 137 124 290 264 340 311 49 47 135 122 190 166 55
45 138 116 185 158 47 43 145 116 218 164 103 67 132 90 129 104 -3 10 0 18 8
18 7 0 15 8 18 19 2 10 42 47 88 82 365 276 625 494 829 694 202 197 247 235
410 337 29 18 42 14 110 -40z m-5300 -18 c38 -36 79 -83 91 -103 12 -20 95
-110 184 -201 89 -91 191 -201 226 -245 81 -103 280 -307 387 -397 l83 -71
-193 -196 c-210 -212 -266 -276 -321 -361 -19 -30 -159 -179 -311 -329 -212
-212 -273 -278 -264 -288 8 -10 6 -13 -6 -13 -9 0 -16 -7 -16 -16 0 -9 -35
-55 -78 -102 -127 -140 -365 -447 -479 -617 -33 -49 -99 -157 -148 -238 l-89
-149 -18 24 c-89 111 -165 254 -214 404 -18 56 -64 165 -102 241 -88 175 -162
345 -169 386 -7 47 52 206 165 442 62 131 107 243 132 325 46 156 55 175 139
263 84 89 121 142 121 175 0 16 50 100 134 226 74 111 156 239 182 286 27 47
64 103 84 125 58 68 213 265 249 319 41 62 139 176 152 176 5 0 40 -30 79 -66z
m9133 -241 c3 -54 14 -125 25 -158 11 -33 23 -98 26 -145 4 -47 16 -159 27
-250 27 -208 23 -375 -9 -465 -19 -51 -22 -81 -22 -211 0 -109 -4 -161 -14
-186 -8 -19 -20 -66 -26 -104 -15 -90 -76 -338 -96 -387 -8 -21 -12 -43 -9
-48 4 -5 1 -9 -4 -9 -6 0 -11 -14 -11 -30 0 -17 -33 -115 -74 -218 -41 -103
-88 -232 -105 -286 -29 -92 -184 -405 -268 -539 l-30 -49 -55 74 c-30 40 -101
143 -158 228 -148 223 -354 491 -556 727 l-36 42 77 103 c43 57 98 123 122
148 50 50 182 233 239 331 21 35 70 109 109 164 40 55 91 134 115 174 24 41
76 112 117 158 41 46 71 88 68 93 -3 6 -1 10 4 10 6 0 11 8 11 18 0 10 30 68
66 128 113 188 276 527 302 629 12 50 43 133 68 185 l46 95 22 -62 c15 -40 25
-95 29 -160z m-7913 -1028 c36 -27 155 -137 265 -245 110 -108 247 -236 305
-285 102 -88 192 -171 450 -420 73 -70 255 -222 439 -365 173 -135 347 -274
387 -310 158 -141 561 -509 586 -536 l27 -29 -95 -73 c-141 -108 -326 -265
-434 -368 -128 -122 -560 -482 -687 -573 l-103 -73 -52 43 c-97 79 -221 193
-398 364 -161 156 -410 376 -694 613 -61 51 -112 100 -114 108 -2 8 -10 14
-18 14 -11 0 -13 4 -6 17 8 13 -6 29 -72 82 -120 97 -293 268 -388 384 -45 56
-117 137 -159 182 -42 44 -145 159 -229 255 -84 96 -164 187 -177 201 l-24 26
87 114 c117 154 206 260 349 414 66 72 160 181 208 242 91 117 126 150 287
276 l95 74 50 -42 c28 -23 79 -64 115 -90z m5325 116 c3 -6 51 -46 108 -89
121 -94 308 -283 363 -367 21 -33 122 -146 224 -250 182 -187 266 -284 452
-516 51 -65 156 -192 232 -283 214 -255 306 -390 451 -668 l66 -127 -97 -163
c-53 -90 -124 -203 -157 -253 -86 -128 -311 -423 -423 -555 l-96 -112 -28 28
c-171 178 -301 321 -385 424 -108 132 -404 421 -582 569 -57 46 -103 90 -103
98 0 7 -6 13 -14 13 -9 0 -12 7 -9 18 3 13 -24 41 -104 108 -110 91 -229 203
-528 494 -160 156 -378 345 -542 469 -39 30 -69 59 -66 63 2 5 116 109 251
230 136 122 355 329 487 459 217 215 451 419 482 419 6 0 14 -4 18 -9z m2684
-1133 l0 -323 -50 175 -50 174 22 91 c19 79 65 205 75 205 2 0 4 -145 3 -322z
m-10722 -153 c20 -49 73 -162 119 -250 46 -88 97 -203 114 -255 38 -117 130
-306 205 -423 51 -78 56 -89 44 -106 -98 -133 -129 -182 -174 -276 -29 -60
-63 -141 -75 -180 -12 -38 -66 -163 -121 -276 -54 -113 -99 -211 -99 -217 0
-7 -4 -12 -9 -12 -16 0 -60 249 -61 345 0 28 -10 95 -22 150 -21 98 -22 120
-24 975 l-3 875 35 -130 c19 -71 51 -170 71 -220z m6778 45 c22 -20 141 -116
265 -215 191 -152 275 -229 558 -509 183 -181 331 -333 330 -336 -2 -4 -52
-49 -113 -101 -60 -51 -218 -200 -350 -329 -280 -274 -439 -414 -697 -614 -49
-37 -88 -70 -88 -75 0 -4 5 -12 12 -19 9 -9 7 -12 -9 -12 -11 0 -23 -8 -25
-17 -3 -10 -155 -135 -338 -278 -184 -143 -386 -309 -449 -368 -64 -60 -156
-140 -206 -177 -49 -38 -151 -130 -225 -204 -74 -75 -139 -136 -144 -136 -16
0 -149 112 -266 225 -63 60 -164 150 -225 200 -60 49 -159 135 -220 190 -60
56 -209 180 -330 277 -121 97 -235 190 -254 205 l-33 29 44 40 c177 156 457
411 528 479 47 44 238 200 424 345 187 146 385 307 440 359 138 128 293 261
471 404 83 66 197 164 254 216 137 127 213 191 410 349 138 111 167 130 180
120 9 -7 34 -28 56 -48z m-4731 -614 c50 -60 164 -185 255 -279 l165 -169 -24
-20 c-145 -115 -313 -282 -445 -443 -130 -157 -518 -562 -598 -623 -21 -16
-27 -26 -22 -42 5 -14 2 -20 -9 -20 -9 0 -16 -7 -16 -16 0 -18 -61 -95 -299
-378 -82 -99 -165 -207 -182 -240 -46 -88 -109 -184 -156 -238 -22 -26 -65
-96 -94 -157 -29 -61 -55 -111 -58 -111 -9 1 -136 181 -160 227 -11 23 -34 92
-51 152 -24 88 -54 157 -143 334 -63 122 -125 256 -139 298 l-26 76 38 109
c41 119 91 237 168 390 27 54 59 131 71 169 32 103 102 236 186 355 41 58 94
138 117 178 24 40 98 164 166 275 68 111 136 227 152 257 31 61 91 138 315
403 l149 178 276 -278 c151 -153 315 -327 364 -387z m8528 522 c3 -13 26 -97
50 -188 32 -113 48 -195 52 -260 4 -52 16 -169 26 -260 25 -206 25 -306 1
-490 -11 -80 -22 -190 -26 -245 -7 -97 -63 -341 -130 -565 -14 -47 -30 -114
-36 -150 -6 -38 -42 -146 -88 -260 -43 -107 -86 -220 -96 -250 -15 -45 -277
-584 -292 -600 -9 -10 -64 68 -119 172 -95 180 -271 422 -532 732 l-159 189
281 377 c571 766 556 744 736 1102 88 175 171 352 185 394 32 103 128 333 136
328 4 -2 9 -14 11 -26z m-7604 -1434 c85 -76 193 -172 240 -213 142 -120 257
-225 447 -411 238 -232 608 -541 805 -675 47 -32 129 -100 183 -151 54 -51
132 -118 175 -150 42 -31 141 -120 219 -198 l143 -141 -128 -128 c-101 -102
-140 -134 -188 -157 -88 -40 -166 -95 -269 -191 -49 -46 -117 -107 -150 -134
-33 -28 -150 -129 -260 -225 -110 -96 -231 -202 -268 -234 l-68 -60 -307 306
c-244 243 -336 327 -447 410 -77 58 -158 117 -180 131 -61 39 -693 680 -771
782 -38 50 -149 173 -248 275 -184 190 -376 407 -376 425 1 24 243 324 419
519 195 216 249 272 430 442 l173 162 137 -122 c75 -68 205 -185 289 -262z
m5495 -49 c40 -45 168 -182 286 -306 211 -221 285 -308 533 -630 70 -90 169
-212 220 -271 142 -163 255 -332 348 -518 l82 -164 -63 -130 c-51 -103 -80
-148 -142 -218 -43 -49 -95 -115 -114 -146 -72 -112 -455 -614 -463 -606 -45
51 -389 456 -431 509 -70 87 -201 211 -288 272 -38 27 -285 264 -586 563 -488
485 -535 529 -765 712 -135 108 -255 207 -268 220 l-23 25 68 65 c37 36 142
132 233 213 91 81 239 218 330 304 91 86 226 210 300 276 74 66 170 152 214
192 l78 72 190 -176 c104 -97 221 -213 261 -258z m2256 -672 c0 -208 -4 -367
-9 -353 -4 14 -27 95 -50 180 l-43 155 49 198 c26 108 50 197 51 197 2 0 3
-170 2 -377z m-3911 -182 c117 -108 253 -222 427 -358 89 -69 220 -192 418
-390 l287 -288 -132 -131 c-73 -72 -160 -149 -192 -170 -69 -44 -132 -100
-306 -269 -69 -67 -192 -182 -275 -256 -82 -73 -206 -185 -275 -249 -234 -215
-582 -500 -735 -603 -49 -33 -128 -97 -175 -142 -47 -45 -152 -142 -235 -215
-82 -74 -185 -167 -227 -207 -43 -40 -83 -73 -90 -73 -7 0 -137 109 -288 242
-151 132 -329 284 -395 336 -66 53 -174 139 -240 191 -128 102 -334 280 -375
326 l-25 27 75 71 c88 82 312 271 456 383 181 141 375 306 514 437 74 71 178
160 230 199 52 40 140 115 195 167 55 53 136 123 180 155 44 33 123 101 175
151 53 51 140 125 195 165 120 88 218 169 425 350 260 227 275 239 283 240 5
0 52 -40 105 -89z m-5223 -111 c97 -105 212 -220 256 -258 48 -40 103 -99 136
-147 32 -44 152 -176 274 -300 l218 -221 -137 -135 c-75 -74 -162 -152 -194
-173 -65 -43 -141 -121 -183 -186 -16 -25 -61 -79 -100 -120 -167 -177 -487
-540 -568 -643 -199 -254 -258 -327 -329 -403 -114 -122 -191 -237 -328 -491
l-77 -142 -61 102 c-77 129 -133 247 -168 360 -16 53 -49 126 -82 180 -92 153
-192 390 -192 457 0 67 101 306 197 466 58 95 75 137 123 304 24 84 46 122
148 264 41 55 110 173 158 268 55 109 108 199 148 248 34 44 81 116 105 162
28 53 72 112 119 163 69 73 251 299 318 394 16 22 32 41 36 41 4 0 86 -86 183
-190z m-1523 -60 c27 -58 69 -139 92 -180 29 -49 50 -101 60 -152 21 -96 153
-366 226 -463 l50 -67 -45 -60 c-25 -33 -62 -90 -81 -127 -20 -36 -51 -88 -70
-116 -44 -67 -71 -129 -88 -206 -7 -35 -43 -125 -78 -199 -35 -74 -77 -166
-93 -205 -16 -38 -31 -73 -35 -78 -10 -12 -51 224 -57 327 -3 57 -14 118 -29
163 l-24 71 0 484 c0 482 0 483 22 518 18 29 23 55 28 147 5 97 9 116 28 136
18 19 22 36 23 93 0 59 2 65 11 44 6 -14 33 -72 60 -130z m10543 -25 c21 -77
42 -151 48 -165 6 -14 14 -108 17 -210 5 -151 10 -193 26 -230 16 -39 19 -70
19 -235 0 -173 -2 -195 -23 -245 -19 -47 -22 -74 -22 -188 0 -132 0 -134 -76
-435 -41 -166 -84 -333 -96 -372 -48 -164 -204 -537 -331 -790 l-132 -265 -95
148 c-199 310 -242 371 -357 502 -130 149 -353 432 -353 449 0 6 51 77 114
158 111 144 141 180 274 335 81 94 231 307 267 378 53 106 104 185 155 244 70
80 327 595 435 873 44 112 82 199 86 195 3 -4 23 -70 44 -147z m-7775 -1201
c214 -214 322 -314 433 -401 168 -130 320 -258 452 -382 50 -46 131 -118 180
-160 50 -41 180 -155 290 -251 267 -234 297 -259 460 -385 179 -139 350 -282
451 -379 l79 -76 -65 -61 c-103 -97 -306 -267 -451 -380 -162 -125 -249 -197
-528 -443 -119 -103 -231 -200 -249 -214 l-33 -25 -297 295 c-233 232 -317
309 -392 359 -124 83 -249 189 -438 368 -196 186 -520 525 -631 661 -47 58
-97 114 -111 125 -57 46 -133 118 -208 199 -82 88 -252 301 -252 316 0 4 41
61 92 126 83 107 261 295 394 414 27 25 88 95 134 155 75 97 383 425 399 425
3 0 134 -129 291 -286z m5406 64 c138 -140 240 -251 271 -299 28 -41 63 -83
78 -93 61 -40 273 -237 362 -335 52 -58 217 -268 365 -466 149 -198 288 -378
308 -400 62 -65 145 -188 219 -323 106 -193 103 -160 30 -303 -72 -141 -173
-295 -251 -384 -29 -34 -145 -183 -256 -333 l-204 -271 -56 67 c-31 37 -113
132 -182 212 -69 80 -152 178 -184 218 -33 40 -107 112 -165 160 -140 115
-246 216 -746 713 -328 326 -453 443 -571 536 -148 115 -409 338 -449 383
l-20 22 65 60 c106 98 309 268 446 376 88 68 221 193 419 391 159 160 292 291
296 291 3 0 104 -100 225 -222z m2482 -1090 l-3 -192 -49 192 -49 192 49 192
49 192 3 -192 c1 -106 1 -278 0 -384z m-10702 -47 c25 -62 77 -179 116 -260
38 -80 83 -180 100 -221 44 -112 119 -252 197 -372 l69 -107 -68 -103 c-74
-112 -166 -289 -205 -393 -14 -36 -47 -109 -74 -163 -27 -53 -70 -146 -96
-207 -26 -60 -51 -114 -55 -118 -11 -12 -48 198 -59 333 -6 63 -18 144 -27
180 -16 59 -18 148 -20 955 l-3 890 40 -150 c22 -82 60 -201 85 -264z m6980
-95 c109 -98 235 -214 279 -256 44 -42 129 -117 190 -166 60 -49 191 -169 290
-267 l180 -177 -171 -168 c-94 -92 -217 -205 -274 -252 -57 -47 -162 -139
-234 -205 -72 -66 -198 -181 -281 -255 -82 -73 -188 -170 -235 -214 -47 -45
-155 -140 -240 -213 -85 -72 -225 -193 -310 -268 -85 -75 -181 -155 -213 -178
-293 -211 -403 -299 -532 -428 -77 -76 -145 -139 -151 -139 -16 0 -139 104
-265 224 -128 124 -225 200 -344 271 -44 27 -114 80 -155 119 -41 40 -184 170
-318 290 l-243 219 33 29 c18 16 123 101 233 189 200 160 243 197 705 601 135
117 277 240 316 273 39 33 123 108 187 167 161 147 307 262 477 376 123 82
173 123 330 277 102 100 245 234 319 298 l134 116 47 -42 c25 -23 136 -123
246 -221z m-5335 -32 c108 -120 335 -356 503 -524 l306 -304 -318 -321 c-175
-176 -406 -419 -514 -540 -107 -121 -208 -231 -223 -245 -23 -21 -338 -432
-605 -790 -36 -48 -81 -105 -100 -127 -19 -21 -60 -89 -90 -151 -30 -62 -57
-112 -60 -112 -9 0 -135 180 -158 225 -11 22 -30 73 -42 114 -12 41 -50 128
-85 195 -94 179 -161 335 -196 457 l-31 108 22 68 c13 37 69 158 125 268 56
110 112 232 124 270 50 157 123 305 232 466 31 48 81 129 110 180 86 153 266
414 512 743 l231 309 31 -35 c16 -19 118 -133 226 -254z m8957 -69 c40 -166
56 -260 78 -449 31 -274 30 -377 -5 -676 -27 -232 -154 -770 -238 -1010 -30
-85 -74 -214 -98 -285 -28 -84 -59 -154 -87 -197 -24 -36 -86 -152 -138 -257
-52 -105 -97 -191 -100 -191 -9 0 -85 120 -131 205 -58 108 -91 156 -163 234
-34 36 -89 105 -122 153 -118 175 -171 247 -276 379 -59 74 -108 136 -108 139
0 3 59 75 130 160 234 278 338 412 432 558 51 78 139 214 196 300 57 86 146
240 199 342 53 102 120 226 151 275 51 84 79 156 200 508 9 28 19 42 23 35 3
-7 29 -107 57 -223z m-7163 -1700 c160 -126 329 -268 365 -305 3 -3 41 -32 85
-64 44 -33 132 -110 195 -171 63 -62 169 -156 235 -210 66 -54 181 -156 255
-225 163 -152 229 -207 337 -277 46 -29 121 -87 168 -129 l85 -76 -77 -72
c-43 -40 -148 -135 -233 -211 -85 -77 -203 -185 -263 -241 -59 -57 -141 -125
-183 -151 -183 -116 -214 -140 -304 -228 -102 -99 -215 -196 -251 -215 -20
-11 -34 0 -193 158 -94 93 -216 205 -271 248 -240 188 -470 399 -830 759 -209
209 -414 416 -456 460 -41 44 -101 102 -133 129 -31 27 -100 99 -153 160 -100
117 -302 372 -310 393 -8 22 126 177 401 463 67 69 156 168 199 220 43 52 155
175 249 273 l171 178 356 -354 c302 -301 386 -378 556 -512z m4737 677 c96
-98 216 -230 267 -293 58 -72 167 -184 296 -304 112 -104 231 -221 264 -258
68 -75 504 -653 608 -805 37 -53 93 -135 125 -182 97 -139 126 -185 154 -242
l26 -54 -42 -84 c-120 -238 -297 -519 -386 -610 -29 -30 -75 -83 -101 -116
-177 -227 -239 -304 -245 -304 -4 0 -44 48 -89 108 -59 76 -261 287 -708 736
-667 669 -798 795 -901 862 -36 23 -78 57 -95 74 -26 29 -467 431 -549 502
l-31 26 25 27 c14 15 135 115 270 223 216 172 285 235 585 533 187 186 343
339 346 339 4 0 85 -80 181 -178z m2528 -909 c-1 -303 -2 -325 -16 -293 -24
56 -76 242 -77 275 0 26 83 345 90 345 2 0 3 -147 3 -327z m-10796 22 c53
-198 110 -353 189 -510 54 -109 84 -181 93 -226 14 -73 63 -204 97 -261 12
-20 56 -80 97 -134 41 -54 79 -104 83 -111 5 -9 -15 -50 -56 -116 -101 -161
-177 -324 -212 -457 -7 -27 -38 -87 -69 -135 -65 -99 -114 -193 -131 -250
l-13 -40 -7 60 c-4 33 -18 88 -31 123 -15 39 -24 84 -24 120 0 31 -10 102 -22
157 -21 98 -22 121 -25 995 -2 492 -2 892 0 890 3 -3 17 -50 31 -105z m7006
-343 c58 -58 164 -153 235 -211 72 -58 216 -189 320 -291 105 -103 219 -207
255 -232 36 -25 96 -74 133 -109 l68 -64 -318 -316 c-311 -308 -321 -317 -448
-395 -118 -72 -147 -96 -335 -279 -113 -111 -234 -225 -270 -255 -70 -60 -492
-426 -658 -573 -96 -84 -159 -136 -409 -335 -50 -40 -116 -95 -147 -123 l-55
-50 -328 257 c-180 141 -359 286 -398 321 -38 36 -158 144 -265 240 -206 186
-330 304 -330 313 0 3 32 31 72 61 40 29 102 79 138 109 36 30 101 82 145 115
44 33 125 103 180 155 55 53 145 134 200 180 55 46 174 150 265 230 91 80 208
181 260 225 52 43 129 111 170 150 87 83 147 126 228 162 38 18 92 59 163 126
59 54 140 124 180 154 41 30 155 135 254 232 99 98 245 232 325 298 l145 120
60 -55 c33 -31 107 -103 165 -160z m-5449 131 c34 -38 81 -97 105 -133 23 -36
108 -130 189 -210 80 -80 167 -176 192 -213 63 -95 205 -241 283 -293 36 -23
100 -75 143 -114 l77 -72 -164 -169 c-90 -93 -218 -233 -284 -312 -84 -100
-145 -162 -203 -207 -148 -112 -187 -149 -234 -220 -25 -38 -88 -113 -139
-167 -52 -55 -218 -265 -381 -483 -293 -391 -396 -538 -467 -667 -22 -40 -41
-73 -43 -73 -1 0 -32 44 -68 98 -77 115 -130 218 -168 327 -15 44 -66 162
-113 261 -47 100 -102 231 -123 291 l-37 110 47 92 c26 51 47 105 47 122 0 17
33 94 75 180 42 83 92 198 111 257 48 147 116 285 211 427 44 66 99 156 121
200 40 77 56 98 167 235 28 34 70 98 95 143 25 46 71 114 102 152 146 180 185
229 216 273 91 131 166 232 173 232 4 0 35 -30 70 -67z m9160 -373 c16 -62 23
-131 28 -255 5 -143 9 -176 26 -205 28 -50 32 -240 10 -430 -9 -80 -23 -203
-30 -275 -7 -75 -19 -147 -29 -169 -10 -21 -21 -78 -26 -125 -10 -98 -32 -178
-135 -481 -190 -561 -184 -545 -310 -772 -65 -117 -124 -221 -130 -231 -10
-15 -31 10 -161 190 -82 115 -263 361 -402 547 l-254 339 111 111 c117 117
125 128 388 523 289 434 367 555 415 646 26 48 60 105 76 125 57 72 199 374
237 503 20 67 53 158 73 203 l37 80 27 -120 c15 -65 37 -157 49 -204z m-7336
-1475 c66 -54 141 -118 167 -143 26 -25 107 -93 180 -151 89 -71 134 -113 136
-128 2 -15 10 -23 23 -23 15 0 19 -5 14 -18 -4 -15 8 -28 52 -57 141 -92 564
-442 818 -675 66 -61 200 -175 298 -253 l179 -142 -89 -82 c-392 -363 -573
-520 -881 -763 -189 -148 -348 -270 -354 -270 -5 0 -40 28 -76 63 -37 35 -149
137 -250 228 -256 229 -313 280 -443 393 -113 97 -670 627 -884 841 -183 183
-402 432 -574 654 l-112 144 28 30 c15 16 67 63 115 104 57 48 103 98 131 141
24 37 88 115 143 173 54 57 140 154 189 214 50 61 166 188 259 283 l170 173
320 -319 c177 -176 375 -363 441 -417z m5113 305 c53 -63 176 -196 272 -295
96 -100 188 -199 204 -222 16 -23 71 -76 122 -119 54 -45 94 -86 94 -96 0 -10
7 -18 16 -18 14 0 14 -3 4 -15 -10 -13 -1 -27 56 -88 115 -120 372 -449 490
-627 44 -66 243 -391 252 -412 7 -15 -171 -335 -263 -473 -51 -77 -157 -216
-235 -310 -79 -93 -172 -205 -207 -247 l-64 -77 -108 112 c-59 62 -161 170
-227 241 -254 275 -839 857 -1049 1044 -121 108 -276 250 -345 317 -69 66
-235 220 -370 341 -135 121 -251 228 -259 238 -17 20 -24 15 164 140 136 90
154 107 595 546 l455 452 153 -158 c84 -88 197 -211 250 -274z m2301 -767 l-1
-318 -49 193 -50 194 24 61 c13 34 35 90 48 125 13 34 25 62 26 62 2 0 3 -143
2 -317z m-10779 59 c0 -64 41 -170 172 -442 49 -101 104 -230 123 -286 53
-158 141 -320 227 -419 l35 -39 -32 -46 c-83 -115 -183 -313 -225 -442 -24
-73 -239 -523 -246 -515 -9 10 -47 234 -54 321 -6 61 -18 145 -27 186 -14 66
-17 182 -19 985 l-3 910 24 -79 c14 -44 25 -104 25 -134z m6878 -184 c219
-172 359 -296 614 -544 145 -141 316 -302 381 -358 l118 -101 -348 -346 c-301
-300 -378 -370 -568 -521 -264 -209 -349 -286 -336 -302 14 -17 1 -31 -51 -54
-79 -34 -152 -88 -270 -199 -62 -58 -169 -152 -238 -208 -69 -56 -183 -157
-255 -225 -137 -130 -318 -284 -473 -402 l-93 -71 -67 46 c-143 98 -520 410
-699 579 -57 53 -142 127 -190 164 -49 37 -119 97 -158 134 -56 52 -173 153
-194 167 -8 5 28 40 219 212 107 96 251 227 320 291 221 203 561 483 710 585
65 44 85 63 86 81 1 14 3 26 5 28 2 2 99 77 214 167 391 303 510 402 645 533
161 157 257 242 365 323 119 88 139 102 149 103 4 0 56 -37 114 -82z m-5292
-35 c148 -145 368 -382 486 -523 93 -112 290 -311 396 -400 l53 -45 -181 -190
c-100 -104 -216 -233 -258 -285 -43 -52 -209 -228 -370 -390 -229 -232 -290
-298 -280 -308 9 -9 8 -12 -5 -12 -9 0 -17 -7 -17 -16 0 -9 -28 -46 -61 -82
-34 -37 -80 -94 -103 -128 -49 -72 -204 -269 -262 -334 -57 -62 -154 -206
-264 -390 -51 -85 -96 -159 -100 -164 -11 -12 -104 123 -157 228 -25 49 -60
136 -79 192 -18 56 -66 169 -107 251 -49 98 -76 165 -80 198 -4 28 -25 86 -47
130 l-40 81 24 69 c39 113 63 171 146 346 44 92 91 204 106 250 50 158 140
323 230 419 29 31 44 55 40 65 -3 8 -1 15 4 15 6 0 10 7 10 16 0 9 62 109 138
223 76 113 158 242 182 286 72 132 443 605 475 605 6 0 61 -48 121 -107z
m9092 -198 c32 -129 52 -233 56 -293 4 -51 16 -161 26 -245 25 -191 25 -289 0
-497 -10 -91 -24 -214 -29 -275 -8 -85 -25 -164 -76 -345 -36 -129 -72 -262
-80 -295 -14 -58 -65 -210 -117 -345 -14 -36 -33 -99 -44 -140 -12 -50 -53
-143 -120 -276 -91 -180 -191 -364 -198 -364 -9 0 -116 150 -275 385 -101 149
-213 313 -249 366 -70 100 -231 292 -262 311 -16 10 8 45 219 327 131 174 293
399 361 500 67 101 152 218 187 260 35 42 61 82 58 89 -2 6 0 12 5 12 6 0 10
8 10 18 0 9 27 62 60 117 89 147 255 481 275 550 27 97 129 355 136 347 4 -4
29 -97 57 -207z m-7971 -967 c54 -45 186 -168 293 -273 107 -105 248 -235 312
-288 65 -54 221 -197 347 -318 127 -121 263 -244 302 -273 39 -30 119 -99 178
-153 58 -54 139 -118 179 -141 107 -64 191 -130 342 -272 74 -69 223 -205 330
-302 107 -96 206 -187 220 -202 l25 -28 -26 -18 c-14 -10 -71 -56 -128 -102
-57 -46 -144 -114 -194 -152 -50 -38 -143 -119 -207 -181 -63 -61 -182 -167
-264 -235 -82 -68 -190 -162 -240 -210 -94 -89 -151 -132 -222 -168 l-41 -21
-54 36 c-30 20 -166 147 -304 283 -137 135 -285 272 -329 304 -43 32 -134 111
-201 176 -68 65 -163 148 -212 186 -108 83 -163 134 -163 151 0 7 -7 13 -15
13 -12 0 -14 4 -7 16 8 14 -5 29 -67 78 -99 78 -349 329 -431 431 -35 44 -105
123 -155 176 -50 52 -104 117 -121 144 -16 27 -84 106 -152 175 l-123 127 72
94 c108 141 235 294 319 384 42 44 119 132 172 195 129 155 429 448 460 450 4
0 51 -37 105 -82z m5480 -12 c120 -103 257 -244 348 -358 33 -40 134 -149 225
-243 221 -226 339 -361 536 -611 45 -57 123 -147 173 -201 115 -123 305 -405
430 -638 50 -93 91 -174 91 -180 0 -5 -23 -46 -51 -90 -29 -44 -66 -106 -84
-137 -43 -79 -165 -252 -394 -561 -184 -247 -224 -296 -245 -297 -19 0 -246
253 -366 408 -134 174 -418 453 -628 617 -62 48 -102 86 -102 97 0 10 -6 18
-14 18 -9 0 -12 7 -9 18 3 13 -22 39 -95 100 -119 97 -247 218 -602 566 -206
203 -296 283 -402 361 -75 55 -137 103 -137 107 -1 4 108 105 242 225 133 119
350 323 482 452 215 210 469 441 486 441 4 0 56 -42 116 -94z m2591 -1118 l-3
-163 -34 105 c-18 58 -39 116 -47 130 -11 23 -7 49 34 214 l47 188 3 -155 c1
-86 1 -229 0 -319z m-10750 -8 c16 -52 40 -126 51 -164 12 -38 41 -95 65 -130
59 -82 111 -189 147 -299 40 -122 123 -294 199 -412 l62 -95 -54 -63 c-116
-132 -211 -322 -234 -467 -3 -25 -42 -117 -87 -205 -44 -88 -88 -182 -97 -210
l-17 -50 -7 50 c-4 28 -16 79 -28 114 -13 38 -24 107 -29 170 -4 62 -16 132
-28 169 -21 63 -21 75 -20 960 l1 897 22 -85 c13 -47 37 -128 54 -180z m6881
-124 c102 -103 155 -147 220 -186 152 -90 220 -148 550 -475 l323 -321 -103
-79 c-57 -43 -205 -178 -329 -300 -124 -122 -272 -259 -330 -305 -58 -47 -154
-131 -213 -187 -127 -122 -217 -197 -258 -218 -25 -13 -28 -19 -19 -35 9 -17
7 -20 -10 -20 -11 0 -20 -6 -20 -14 0 -14 -80 -79 -505 -411 -104 -81 -221
-178 -260 -215 -38 -37 -188 -174 -333 -304 l-263 -238 -57 47 c-31 26 -145
124 -252 219 -107 95 -238 208 -290 251 -52 43 -124 106 -160 140 -36 33 -128
110 -205 170 -76 61 -190 153 -253 205 l-114 95 39 35 c249 222 459 414 553
504 128 122 238 207 338 263 39 21 105 72 157 123 50 48 126 115 170 149 115
90 109 85 235 200 121 111 266 233 460 391 63 51 169 142 235 203 66 61 145
126 175 145 30 19 71 49 90 67 50 47 281 235 289 235 3 0 67 -60 140 -134z
m-5364 48 c36 -42 82 -99 101 -128 23 -35 59 -70 105 -101 89 -61 239 -209
354 -350 50 -60 165 -187 257 -281 l168 -171 -126 -99 c-141 -110 -312 -283
-379 -383 -24 -36 -110 -131 -190 -211 -81 -80 -164 -173 -186 -206 -42 -66
-110 -134 -177 -179 -35 -23 -40 -30 -31 -46 8 -16 6 -19 -11 -19 -12 0 -20
-7 -20 -16 0 -20 -28 -56 -195 -254 -304 -360 -414 -518 -555 -799 l-42 -85
-19 25 c-68 89 -181 322 -219 450 -12 41 -65 156 -117 257 -52 101 -110 225
-128 275 l-33 91 39 113 c43 123 100 256 183 422 29 58 65 146 80 194 28 92
58 146 162 287 34 47 91 137 127 200 35 63 107 185 159 270 52 85 114 188 137
229 49 88 196 261 258 305 24 16 53 46 64 66 33 56 153 220 160 220 4 0 37
-34 74 -76z m9139 -240 c3 -38 14 -95 24 -125 11 -30 22 -92 26 -139 3 -47 16
-166 27 -265 27 -229 24 -387 -9 -459 -20 -43 -22 -65 -22 -206 0 -113 -4
-167 -14 -191 -8 -19 -19 -63 -25 -99 -16 -91 -103 -444 -111 -450 -4 -3 -9
-26 -12 -51 -3 -25 -44 -142 -91 -260 -47 -118 -92 -236 -102 -264 -9 -27 -76
-169 -149 -313 l-132 -264 -61 94 c-308 473 -314 482 -622 847 l-130 155 32
40 c17 23 71 86 119 142 48 55 111 136 140 180 96 140 154 228 192 286 20 32
69 95 109 140 40 46 92 119 116 163 23 44 69 114 103 155 46 58 97 149 223
401 100 200 174 360 191 415 15 49 36 101 46 116 11 15 33 58 49 94 l31 67 23
-69 c12 -38 25 -101 29 -140z m-7733 -1187 c31 -21 108 -86 171 -145 63 -59
175 -159 249 -222 73 -63 219 -198 324 -301 256 -250 643 -574 855 -716 41
-28 86 -63 100 -78 14 -15 152 -142 307 -282 l282 -254 -42 -37 c-67 -61 -143
-123 -282 -231 -71 -56 -188 -153 -260 -215 -135 -118 -696 -607 -728 -634
-17 -15 -39 5 -330 295 -239 238 -354 344 -492 454 -251 200 -381 317 -595
535 -184 188 -295 309 -380 414 -24 30 -113 126 -198 214 -148 152 -339 368
-349 393 -5 12 120 181 242 328 86 103 333 372 410 447 33 32 130 125 215 208
l155 150 145 -143 c80 -79 170 -160 201 -180z m5459 5 c55 -37 139 -123 173
-177 14 -22 105 -123 204 -225 235 -244 286 -303 495 -575 97 -126 218 -277
270 -334 152 -169 245 -309 375 -567 l67 -131 -59 -104 c-88 -156 -170 -274
-451 -650 -141 -189 -259 -346 -261 -349 -3 -3 -21 15 -42 40 -20 24 -95 112
-166 195 -72 82 -170 197 -217 255 -77 95 -201 214 -448 430 -47 40 -276 263
-510 495 -426 422 -488 479 -741 678 -75 58 -162 130 -193 158 l-57 52 23 25
c13 13 133 125 268 247 135 122 313 287 396 366 83 79 171 155 195 169 24 14
111 91 194 172 l150 148 145 -144 c80 -79 165 -157 190 -174z m2369 -839 l0
-328 -34 115 c-19 63 -42 146 -51 183 l-17 69 48 144 c27 79 50 144 52 144 2
0 3 -147 2 -327z m-10724 -153 c31 -83 106 -238 168 -345 23 -38 56 -115 74
-170 43 -128 114 -273 196 -399 l64 -98 -83 -124 c-95 -140 -150 -245 -187
-354 -13 -41 -63 -156 -109 -255 -47 -99 -91 -196 -98 -215 -7 -19 -16 -38
-20 -43 -10 -11 -49 213 -60 348 -6 66 -18 152 -27 190 -15 62 -17 170 -19
950 l-3 880 39 -145 c21 -80 50 -179 65 -220z m6799 33 c104 -98 280 -246 426
-358 75 -57 221 -194 418 -389 l302 -301 -29 -25 c-111 -96 -415 -372 -561
-510 -96 -91 -242 -226 -325 -300 -82 -74 -206 -186 -275 -250 -231 -211 -570
-490 -720 -590 -36 -24 -119 -93 -185 -154 -66 -60 -154 -134 -195 -164 -41
-30 -138 -117 -216 -194 l-141 -140 -74 60 c-41 32 -129 111 -194 174 -123
118 -296 264 -529 448 -190 150 -359 293 -446 377 l-75 73 62 59 c101 96 255
226 473 397 113 89 306 250 430 359 124 109 263 230 310 269 47 39 130 113
185 166 109 104 353 309 620 522 94 75 251 207 350 294 205 179 294 254 302
254 3 0 42 -34 87 -77z m-5064 -273 c58 -58 134 -132 170 -165 36 -33 103
-105 148 -160 46 -55 159 -179 252 -276 l168 -176 -126 -116 c-147 -134 -316
-307 -488 -498 -67 -74 -199 -221 -295 -327 -210 -233 -221 -245 -381 -453
-69 -90 -162 -202 -205 -249 -51 -55 -98 -119 -132 -180 -29 -52 -80 -127
-112 -167 -32 -39 -81 -118 -110 -175 -28 -57 -53 -105 -56 -108 -15 -15 -165
212 -185 280 -59 198 -72 232 -124 320 -100 166 -204 412 -204 480 0 64 106
313 197 465 26 44 63 125 81 180 45 137 115 279 203 410 40 61 96 151 124 200
103 180 305 511 340 555 19 25 67 81 106 125 39 44 124 147 187 229 l116 149
110 -119 c61 -65 158 -166 216 -224z m8840 196 c0 -7 21 -84 46 -172 37 -125
49 -189 60 -299 7 -77 20 -198 28 -270 20 -161 20 -299 1 -435 -8 -58 -20
-163 -26 -235 -9 -100 -29 -198 -86 -430 -93 -377 -108 -427 -199 -660 -71
-183 -350 -765 -367 -765 -11 0 -87 121 -130 205 -19 39 -72 122 -117 185 -45
63 -86 124 -92 134 -6 11 -53 67 -105 125 -102 114 -346 424 -351 445 -3 16
197 279 306 401 143 161 187 220 311 415 68 107 152 236 186 285 89 128 345
647 440 892 69 176 95 226 95 179z m-7345 -1695 c135 -90 244 -181 410 -342
82 -80 197 -185 255 -234 58 -49 195 -168 305 -265 110 -96 227 -198 260 -225
33 -27 85 -72 115 -99 30 -27 118 -91 195 -142 115 -76 164 -116 275 -228
l135 -136 -130 -131 c-114 -115 -355 -311 -460 -375 -54 -33 -159 -119 -426
-354 -145 -128 -274 -239 -287 -248 -23 -15 -28 -11 -320 280 -253 252 -305
299 -354 321 -115 51 -176 104 -561 487 -284 281 -414 418 -484 509 -62 78
-135 157 -202 217 -122 109 -241 238 -345 374 -40 52 -76 101 -80 108 -14 24
191 279 336 417 46 44 101 96 123 115 22 20 78 83 125 140 47 58 163 185 259
283 l175 178 295 -295 c228 -227 317 -308 386 -355z m4964 472 c93 -98 214
-231 268 -295 57 -69 137 -150 193 -196 111 -91 247 -224 346 -337 71 -81 570
-741 593 -783 7 -13 50 -64 97 -115 75 -81 95 -111 167 -254 l82 -162 -69
-138 c-87 -174 -134 -248 -227 -348 -41 -44 -166 -203 -278 -353 l-204 -273
-26 33 c-14 18 -100 118 -190 223 -91 104 -187 218 -213 252 -31 39 -76 80
-121 109 -53 35 -226 201 -642 614 -408 405 -601 591 -680 651 -132 101 -334
271 -430 363 l-70 66 55 51 c111 104 269 237 400 339 95 73 229 198 450 417
173 172 318 313 322 313 3 0 83 -80 177 -177z m2529 -1135 l-3 -193 -49 192
c-33 130 -46 201 -42 220 4 15 26 100 49 188 l42 160 3 -187 c1 -103 1 -274 0
-380z m-10706 -37 c23 -58 72 -171 111 -251 38 -80 75 -172 83 -204 17 -71
164 -352 234 -448 l49 -68 -48 -64 c-58 -76 -190 -333 -225 -437 -14 -41 -56
-139 -94 -219 -38 -80 -80 -173 -93 -207 -13 -35 -27 -63 -30 -63 -11 0 -49
220 -56 325 -5 73 -12 113 -30 150 l-23 50 1 920 0 920 40 -149 c22 -81 58
-196 81 -255z m7293 -391 c55 -53 147 -133 205 -178 58 -44 177 -153 265 -241
l160 -161 -209 -209 c-116 -116 -236 -229 -268 -253 -117 -85 -142 -107 -438
-378 -165 -151 -360 -327 -434 -390 -73 -63 -223 -194 -332 -290 -109 -96
-250 -216 -313 -265 -269 -211 -366 -291 -500 -410 -125 -112 -144 -125 -159
-114 -9 8 -87 73 -172 145 -196 165 -324 266 -433 338 -47 31 -91 64 -98 73
-8 9 -148 137 -312 285 l-297 269 57 50 c61 54 101 86 333 271 80 64 188 156
240 204 52 49 142 127 200 174 58 46 164 141 235 209 72 69 165 151 208 183
43 32 128 104 187 159 60 56 151 133 202 172 51 38 110 85 131 104 22 19 98
73 170 120 112 72 160 112 312 262 99 97 243 231 319 298 l139 121 251 -226
c138 -124 296 -269 351 -322z m-5654 264 c108 -120 211 -232 229 -249 17 -16
48 -54 67 -82 19 -29 78 -90 131 -135 54 -45 163 -147 244 -227 l148 -145
-313 -315 c-172 -174 -384 -397 -472 -496 -87 -99 -197 -220 -243 -269 -47
-49 -186 -225 -310 -390 -124 -166 -249 -328 -277 -361 -96 -111 -187 -251
-266 -407 l-31 -62 -19 25 c-48 63 -146 242 -191 347 -27 64 -85 191 -128 282
-90 190 -148 333 -163 405 -14 71 10 139 149 411 90 176 119 243 144 335 36
130 59 176 160 315 42 57 108 170 157 268 73 146 95 181 168 262 46 52 96 116
112 143 15 26 125 177 243 335 l215 287 25 -29 c14 -16 113 -127 221 -248z
m8966 -64 c42 -166 48 -201 54 -340 5 -113 12 -175 28 -230 20 -66 22 -93 18
-235 -3 -133 -7 -170 -25 -220 -18 -49 -22 -81 -22 -187 0 -128 0 -130 -85
-469 -47 -187 -103 -390 -125 -452 -21 -62 -65 -189 -98 -283 -43 -124 -76
-199 -121 -275 -34 -57 -93 -166 -132 -241 -38 -76 -72 -138 -74 -138 -2 0
-63 87 -134 193 -71 105 -154 219 -183 252 -67 74 -479 622 -485 644 -2 10 78
113 198 256 111 132 222 271 247 309 25 38 75 111 112 162 36 50 86 129 110
175 49 95 85 150 148 229 24 30 82 130 128 223 47 93 109 206 138 252 81 125
61 75 224 548 20 60 18 66 79 -173z m-7162 -1717 c99 -78 214 -171 255 -207
41 -36 116 -101 165 -143 50 -43 200 -174 335 -291 135 -118 304 -265 375
-327 72 -63 220 -186 330 -274 110 -88 215 -173 233 -189 l33 -29 -39 -34
c-82 -70 -440 -396 -529 -481 -51 -48 -96 -88 -102 -88 -19 0 -249 -176 -430
-328 -102 -86 -196 -165 -208 -175 l-23 -19 -173 167 c-159 155 -222 210 -508
446 -177 146 -346 308 -849 815 -465 468 -568 581 -744 816 -32 43 -56 83 -53
90 11 27 176 211 358 400 105 109 224 242 266 295 41 54 148 171 236 260 l161
163 366 -363 c303 -302 395 -387 545 -504z m4787 630 c146 -148 241 -253 271
-298 32 -49 90 -112 198 -212 290 -267 345 -329 669 -763 304 -406 430 -587
510 -734 l43 -79 -47 -96 c-122 -246 -257 -450 -399 -608 -51 -55 -144 -169
-207 -251 -63 -83 -117 -151 -120 -151 -3 -1 -57 58 -120 131 -135 155 -834
864 -1166 1183 -128 122 -278 260 -335 306 -57 46 -144 123 -194 170 -76 72
-404 369 -524 475 -36 32 -36 32 -17 53 23 25 140 121 356 292 116 91 243 210
500 466 190 188 347 343 350 343 3 0 108 -102 232 -227z m2477 -910 l-1 -378
-49 190 c-31 119 -48 202 -45 223 5 35 89 342 93 342 2 0 3 -170 2 -377z
m-10772 -8 c42 -148 106 -311 188 -475 34 -69 72 -156 84 -195 36 -114 102
-242 193 -376 l85 -125 -59 -90 c-75 -111 -168 -303 -203 -414 -15 -47 -32
-94 -38 -105 -6 -11 -35 -61 -64 -111 -28 -50 -69 -129 -89 -175 -20 -46 -40
-88 -44 -92 -10 -11 -49 189 -60 310 -5 54 -17 132 -26 173 -16 68 -18 164
-20 970 -2 652 0 886 8 860 6 -19 26 -89 45 -155z m6799 -76 c16 -17 119 -113
229 -212 110 -99 274 -250 365 -336 147 -139 475 -437 567 -515 l35 -29 -284
-284 c-193 -195 -324 -317 -413 -386 -189 -148 -350 -283 -462 -389 -54 -51
-141 -129 -193 -172 -52 -44 -185 -159 -295 -256 -110 -96 -229 -200 -265
-230 -36 -30 -96 -84 -135 -120 -95 -90 -169 -144 -246 -179 -53 -24 -88 -54
-204 -170 -77 -78 -142 -141 -146 -141 -14 0 -141 104 -234 191 -55 52 -132
114 -171 137 -110 64 -218 149 -349 273 -66 63 -190 177 -275 253 -217 194
-292 268 -283 276 4 3 51 40 103 80 134 104 330 271 430 366 47 44 130 118
185 164 55 46 174 150 265 230 91 80 210 184 265 230 55 46 132 112 170 148
81 75 202 169 440 343 131 95 223 174 405 348 221 211 444 411 459 411 4 0 20
-14 37 -31z m-5130 -211 c419 -470 501 -557 706 -745 l147 -136 -161 -166
c-88 -91 -201 -215 -252 -276 -50 -60 -118 -134 -151 -165 -96 -88 -290 -284
-426 -430 -142 -153 -551 -690 -630 -828 -54 -93 -97 -145 -142 -168 -20 -11
-44 -48 -88 -135 l-60 -121 -58 79 c-86 118 -137 210 -161 293 -12 41 -44 118
-70 170 -110 220 -220 490 -220 542 0 28 59 168 157 368 46 96 100 222 119
278 46 141 117 284 211 427 44 66 97 149 118 185 21 36 80 124 131 197 51 72
116 171 145 220 47 78 463 643 474 643 2 0 97 -105 211 -232z m9002 -113 c34
-141 54 -251 61 -335 7 -69 18 -172 26 -230 19 -137 19 -274 -1 -435 -8 -72
-21 -195 -29 -275 -8 -85 -22 -172 -35 -210 -12 -36 -50 -176 -85 -312 -36
-136 -85 -302 -110 -370 -25 -68 -68 -189 -95 -270 -51 -154 -111 -282 -168
-356 -18 -23 -58 -94 -90 -157 -31 -63 -60 -115 -64 -115 -11 0 -81 106 -117
178 -17 34 -66 100 -109 147 -43 47 -95 113 -114 147 -67 116 -212 319 -283
396 -39 43 -94 110 -123 149 l-53 72 100 118 c155 183 351 442 464 616 56 87
144 222 196 300 52 78 127 201 166 272 40 72 111 199 158 284 48 85 93 179
102 210 27 98 140 400 146 393 3 -4 29 -101 57 -217z m-7238 -1661 c111 -96
345 -284 386 -310 13 -9 24 -25 24 -35 0 -12 7 -19 19 -19 14 0 18 -5 14 -19
-4 -15 23 -37 139 -114 78 -52 179 -128 223 -169 44 -40 130 -114 190 -163 61
-49 166 -144 235 -210 69 -66 161 -147 205 -180 44 -33 122 -100 174 -148 52
-49 112 -100 133 -115 21 -15 38 -30 38 -34 0 -4 -69 -69 -152 -145 -84 -76
-226 -205 -315 -288 -198 -182 -480 -424 -548 -469 -27 -19 -90 -65 -140 -102
-49 -38 -105 -80 -122 -92 l-33 -23 -85 81 c-47 44 -112 97 -143 117 -31 20
-138 116 -237 212 -99 97 -245 232 -325 301 -79 69 -293 271 -475 450 -181
179 -347 338 -367 353 -21 15 -76 71 -123 125 -47 53 -133 149 -191 212 -98
106 -220 253 -337 407 l-48 63 178 202 c98 112 210 237 248 278 39 41 115 129
169 194 55 65 173 195 264 288 l165 169 366 -364 c201 -200 413 -404 471 -453z
m5038 386 c48 -58 223 -242 390 -410 166 -168 302 -313 302 -323 0 -9 7 -17
16 -17 14 0 14 -3 4 -16 -12 -13 -1 -28 77 -107 146 -148 507 -647 624 -862
39 -71 78 -138 86 -147 14 -16 8 -31 -70 -176 -178 -332 -396 -646 -573 -827
l-120 -123 -66 77 c-36 43 -92 97 -124 122 -34 26 -96 93 -151 164 -125 160
-1036 1076 -1135 1140 -37 24 -133 108 -215 187 -81 79 -238 224 -348 322
-110 99 -228 206 -262 239 l-61 60 96 75 c269 210 490 411 892 817 l235 236
158 -163 c86 -90 196 -210 245 -268z m2302 -672 l-1 -323 -25 57 c-13 32 -36
98 -50 148 l-26 90 46 162 c25 90 46 169 46 176 0 6 2 12 5 12 3 0 5 -145 5
-322z m-10780 -55 c0 -13 5 -23 11 -23 5 0 7 -4 4 -10 -10 -17 72 -225 157
-393 60 -120 86 -184 99 -247 27 -120 159 -388 227 -458 l49 -50 -49 -73 c-70
-106 -174 -319 -207 -426 -16 -50 -74 -180 -129 -288 -99 -195 -101 -197 -107
-159 -3 22 -11 50 -17 64 -23 55 -30 90 -38 200 -5 63 -17 151 -26 195 -16 72
-18 171 -20 965 l-3 885 24 -79 c14 -44 25 -90 25 -103z m6883 -180 c61 -48
139 -112 172 -143 33 -31 114 -101 180 -155 66 -54 244 -220 395 -369 151
-149 292 -282 312 -296 21 -14 38 -27 38 -30 0 -3 -150 -154 -332 -336 -313
-310 -529 -503 -669 -596 -31 -21 -101 -79 -153 -129 -77 -73 -94 -94 -85
-105 9 -11 8 -14 -5 -14 -9 0 -16 -7 -16 -15 0 -8 -28 -33 -62 -56 -103 -70
-212 -155 -387 -302 -91 -77 -191 -161 -221 -186 -30 -25 -99 -88 -155 -140
-116 -109 -310 -272 -442 -373 l-92 -70 -53 33 c-115 74 -503 393 -717 591
-156 143 -281 250 -429 365 l-124 96 129 129 c70 71 169 160 218 198 50 38
142 117 205 177 203 190 550 477 703 581 76 52 96 70 91 84 -3 12 0 18 10 18
9 0 16 6 16 13 0 7 10 18 23 26 80 48 327 243 419 329 61 57 144 128 186 159
43 31 163 141 267 243 156 154 208 198 290 248 55 34 115 72 134 87 19 14 36
25 38 25 2 0 54 -39 116 -87z m-5337 15 c40 -34 88 -82 105 -107 18 -26 102
-118 189 -206 86 -88 179 -191 205 -230 53 -76 337 -366 422 -429 l52 -40
-172 -175 c-95 -97 -212 -226 -261 -286 -49 -61 -220 -241 -379 -401 -170
-172 -287 -296 -283 -303 4 -6 2 -11 -3 -11 -6 0 -11 -7 -11 -16 0 -9 -33 -53
-73 -98 -200 -223 -451 -563 -601 -811 l-119 -198 -24 29 c-85 104 -164 256
-211 405 -16 52 -70 175 -119 274 -49 100 -104 218 -122 263 l-33 81 36 85
c20 47 42 111 47 143 7 35 42 124 90 223 44 91 92 208 109 260 48 156 141 320
238 422 22 23 32 42 29 52 -4 9 -2 16 3 16 6 0 10 7 10 15 0 8 15 36 34 62 18
27 54 86 80 133 26 47 73 118 105 158 32 40 77 110 101 155 24 45 62 103 84
128 23 25 86 103 141 174 88 112 243 293 254 295 1 0 36 -28 77 -62z m9107
-133 c14 -55 30 -130 36 -168 7 -37 17 -80 24 -95 7 -15 14 -101 17 -202 5
-136 10 -185 25 -220 30 -76 31 -231 1 -490 -14 -124 -26 -241 -26 -261 0 -20
-9 -62 -21 -95 -12 -35 -23 -98 -26 -154 -3 -52 -12 -108 -20 -123 -21 -43
-93 -264 -93 -288 0 -12 -36 -112 -79 -223 -44 -110 -89 -235 -101 -276 -27
-92 -276 -580 -296 -580 -8 0 -140 184 -226 315 -133 203 -397 547 -524 684
l-55 60 66 83 c37 46 86 106 109 133 24 28 74 95 111 150 165 241 224 328 308
455 107 161 166 240 220 297 34 36 38 44 27 58 -10 12 -10 15 4 15 9 0 16 6
16 14 0 7 20 43 44 78 60 90 282 535 301 605 38 137 58 192 92 260 20 40 38
72 39 70 1 -1 14 -47 27 -102z m-7908 -1101 c50 -43 182 -168 295 -279 113
-110 266 -250 340 -310 74 -60 227 -199 340 -310 170 -166 258 -242 519 -445
173 -135 371 -297 440 -360 70 -64 214 -195 321 -291 107 -97 203 -185 212
-195 16 -19 13 -23 -106 -116 -156 -122 -317 -260 -426 -363 -47 -45 -130
-119 -185 -165 -55 -46 -172 -148 -260 -226 -204 -180 -315 -274 -323 -274 -4
0 -131 124 -282 276 -151 151 -329 321 -395 377 -66 56 -192 165 -280 242 -88
77 -193 166 -232 199 -40 32 -73 64 -73 72 0 8 -7 14 -16 14 -13 0 -14 3 -5
14 9 11 -10 31 -96 104 -125 104 -311 292 -402 407 -35 44 -99 116 -141 160
-72 75 -336 371 -389 437 l-23 29 27 41 c15 23 67 83 115 132 48 50 104 117
124 150 21 32 79 102 130 155 51 53 121 132 156 176 85 107 274 300 383 391
l88 74 27 -19 c15 -10 68 -54 117 -97z m5411 49 c112 -94 295 -281 391 -398
45 -55 143 -161 218 -235 75 -74 159 -168 186 -208 28 -40 91 -116 142 -170
51 -53 118 -128 148 -167 31 -38 114 -137 184 -220 243 -287 364 -463 509
-746 l58 -114 -121 -199 c-149 -244 -116 -196 -409 -589 l-245 -329 -26 34
c-14 18 -75 89 -134 158 -60 69 -147 172 -195 230 -109 133 -482 506 -629 629
-62 52 -113 100 -113 108 0 7 -6 13 -14 13 -9 0 -12 7 -9 18 3 14 -19 37 -87
91 -97 78 -212 185 -515 481 -183 179 -405 372 -569 496 l-79 59 74 68 c41 38
110 97 154 130 44 33 229 207 411 387 284 280 565 539 585 540 3 0 42 -30 85
-67z m2623 -1090 l0 -318 -49 170 -49 170 19 60 c10 33 30 99 45 148 14 48 28
87 30 87 3 0 5 -143 4 -317z m-10779 37 c0 -56 60 -207 161 -405 58 -115 116
-244 128 -285 32 -105 128 -302 205 -419 l64 -99 -25 -24 c-35 -32 -123 -168
-167 -256 -21 -41 -53 -120 -71 -176 -19 -56 -68 -171 -109 -256 -40 -85 -84
-183 -97 -217 -13 -35 -27 -63 -30 -63 -11 0 -48 219 -59 345 -5 66 -17 154
-26 195 -15 66 -17 179 -20 985 l-3 910 24 -105 c13 -58 24 -116 25 -130z
m7085 -345 c169 -133 254 -212 553 -509 l352 -351 -112 -95 c-61 -52 -220
-201 -352 -330 -133 -130 -351 -335 -486 -456 -135 -121 -252 -229 -260 -239
-8 -9 -96 -78 -195 -151 -99 -73 -197 -146 -217 -161 -74 -55 -354 -291 -383
-323 -16 -18 -164 -154 -328 -302 l-298 -270 -32 25 c-18 14 -133 114 -257
222 -124 109 -263 230 -310 269 -47 38 -130 113 -185 166 -99 95 -221 191
-332 262 -32 20 -93 70 -137 109 l-79 73 36 31 c97 84 442 398 512 466 44 42
123 106 176 141 156 106 493 382 723 594 156 143 250 224 471 403 99 80 225
188 279 239 88 83 283 246 476 399 l65 51 60 -52 c33 -29 150 -124 260 -211z
m-4990 -400 c50 -60 166 -188 260 -283 l170 -174 -50 -42 c-139 -116 -310
-287 -415 -416 -24 -30 -87 -102 -140 -160 -52 -58 -151 -168 -220 -245 -68
-77 -158 -176 -200 -220 -42 -44 -97 -111 -122 -150 -26 -38 -89 -115 -140
-170 -82 -88 -134 -150 -314 -378 -59 -75 -167 -252 -242 -396 -75 -143 -60
-143 -149 8 -64 108 -122 237 -153 342 -12 41 -57 144 -100 229 -42 85 -80
170 -83 188 -4 18 -26 74 -49 123 l-42 91 28 86 c31 95 113 287 182 424 24 48
55 116 68 150 40 107 121 260 204 384 43 66 92 142 107 169 15 28 85 145 155
260 70 116 145 242 167 280 23 39 94 133 158 210 65 77 157 186 204 243 l86
102 270 -272 c149 -150 311 -322 360 -383z m8583 340 c35 -132 53 -219 57
-285 4 -52 15 -167 26 -255 24 -203 24 -302 -1 -492 -10 -84 -22 -194 -26
-245 -4 -65 -29 -183 -80 -388 -79 -320 -126 -473 -178 -578 -19 -37 -46 -114
-62 -172 -22 -83 -58 -165 -172 -395 l-144 -289 -19 24 c-10 14 -56 84 -101
155 -70 111 -167 257 -403 605 -24 36 -52 73 -63 84 -112 106 -173 167 -196
199 l-28 37 205 273 c112 151 242 319 288 374 46 55 150 199 230 319 125 187
169 264 301 529 85 171 158 324 162 340 13 54 141 364 147 357 4 -4 29 -92 57
-197z m-7614 -1310 c356 -293 414 -344 681 -604 77 -75 175 -163 217 -194 42
-31 136 -113 208 -182 139 -133 249 -220 364 -287 39 -23 107 -76 151 -118 71
-68 413 -378 518 -469 l39 -34 -129 -129 c-107 -108 -140 -135 -201 -165 -96
-47 -164 -98 -292 -219 -58 -55 -154 -140 -215 -189 -60 -49 -162 -139 -225
-200 -117 -113 -250 -225 -266 -225 -5 0 -140 131 -299 291 -236 236 -318 311
-440 403 -82 62 -168 125 -190 138 -56 36 -702 691 -805 817 -47 57 -131 154
-188 214 -57 61 -121 138 -144 173 -30 45 -61 76 -110 109 -58 40 -97 79 -156
156 -11 14 3 37 94 155 173 225 260 321 603 666 l325 327 175 -172 c97 -95
225 -212 285 -262z m5472 -37 c278 -279 504 -516 570 -596 206 -251 314 -387
364 -459 28 -40 83 -107 123 -150 106 -114 243 -330 362 -573 l37 -76 -67
-134 c-51 -102 -85 -154 -139 -217 -76 -86 -94 -111 -169 -233 -25 -41 -112
-158 -193 -260 -80 -102 -158 -202 -173 -222 -14 -21 -30 -36 -34 -35 -11 3
-220 248 -360 422 -119 147 -279 304 -375 368 -33 22 -320 301 -682 662 -562
561 -631 627 -684 650 -67 30 -149 85 -221 148 l-50 45 20 22 c11 13 110 104
220 204 110 99 254 230 321 291 67 60 168 149 225 197 57 48 178 159 269 247
91 88 167 160 171 160 3 1 212 -207 465 -461z m2244 -585 c0 -294 -1 -316 -16
-295 -9 13 -31 69 -50 125 l-34 102 47 193 c26 105 49 192 50 192 2 0 3 -143
3 -317z m-10759 -133 c22 -74 47 -157 56 -184 19 -65 106 -238 150 -300 19
-27 52 -99 75 -165 45 -132 112 -267 193 -390 30 -46 55 -86 55 -89 0 -3 -17
-28 -39 -57 -21 -28 -62 -94 -92 -146 -29 -51 -60 -103 -70 -114 -29 -33 -69
-130 -82 -197 -8 -42 -39 -119 -96 -233 -46 -93 -89 -188 -96 -210 l-12 -40
-7 55 c-4 30 -17 82 -28 115 -12 37 -22 97 -25 155 -3 63 -13 119 -29 167
l-24 71 1 904 c1 803 2 897 15 848 8 -30 33 -116 55 -190z m7109 -361 c69 -57
137 -104 220 -153 48 -29 142 -115 357 -330 l293 -291 -128 -128 c-70 -71
-157 -148 -193 -172 -36 -23 -124 -98 -195 -165 -71 -68 -187 -170 -259 -228
-71 -59 -220 -194 -330 -302 -255 -250 -603 -546 -795 -675 -47 -31 -132 -101
-190 -154 -58 -53 -172 -157 -255 -230 -82 -74 -182 -166 -222 -204 l-72 -70
-63 54 c-34 30 -173 151 -308 269 -136 118 -316 269 -401 335 -209 163 -367
295 -469 393 l-85 82 70 66 c94 87 340 294 445 374 47 35 117 91 155 125 39
34 117 100 175 147 58 47 162 140 232 206 70 66 165 149 210 183 46 34 119 97
163 138 163 155 561 484 688 570 44 29 134 105 201 169 67 65 182 167 256 228
l135 111 155 -151 c85 -83 180 -172 210 -197z m-5590 264 c34 -37 82 -98 106
-135 52 -78 199 -219 294 -283 36 -24 81 -65 101 -92 52 -70 187 -220 348
-385 l140 -144 -137 -135 c-75 -75 -155 -147 -177 -161 -69 -44 -135 -109
-190 -187 -30 -42 -117 -139 -195 -216 -78 -77 -161 -170 -186 -207 -25 -37
-86 -111 -137 -165 -51 -54 -131 -147 -177 -208 -133 -173 -231 -293 -315
-385 -94 -102 -215 -282 -322 -482 l-79 -147 -51 82 c-74 118 -127 229 -172
359 -21 62 -60 149 -86 193 -64 107 -126 240 -165 352 l-32 93 27 97 c29 107
106 277 183 406 56 94 62 109 97 236 33 118 54 158 155 301 45 63 95 141 111
173 16 32 80 140 141 240 62 100 133 219 158 264 30 53 61 93 90 115 47 35
183 187 227 253 69 103 167 235 174 235 4 0 35 -30 69 -67z m9140 -251 c5 -65
16 -118 28 -145 13 -28 23 -83 31 -167 6 -69 18 -183 27 -255 22 -181 15 -390
-14 -465 -18 -46 -22 -75 -22 -180 0 -96 -5 -140 -20 -187 -10 -34 -22 -86
-26 -115 -10 -81 -128 -531 -167 -638 -87 -239 -164 -415 -289 -664 l-135
-269 -113 179 c-174 275 -226 350 -297 427 -91 99 -182 209 -297 360 -88 115
-97 130 -84 146 40 57 179 230 188 236 5 3 30 38 55 76 25 39 77 103 114 143
37 40 74 83 81 96 7 14 50 77 95 140 45 63 103 156 130 205 45 86 100 168 164
245 40 48 376 721 397 795 9 33 37 103 61 155 l45 95 20 -55 c11 -30 23 -101
28 -158z m-7400 -1507 c133 -89 261 -197 430 -360 85 -83 184 -175 220 -205
36 -30 183 -158 327 -283 144 -126 338 -288 430 -360 188 -146 373 -301 478
-401 l70 -66 -75 -72 c-92 -88 -330 -287 -468 -391 -120 -92 -246 -197 -472
-397 -200 -176 -299 -260 -308 -260 -4 0 -135 129 -292 286 -211 212 -306 300
-365 338 -109 72 -243 177 -345 271 -242 223 -609 602 -758 781 -49 60 -129
142 -176 183 -90 77 -203 202 -326 360 -84 109 -88 83 34 241 96 124 256 292
341 360 34 27 100 98 146 157 46 60 162 188 259 286 l175 177 295 -294 c218
-217 317 -309 380 -351z m5282 129 c33 -50 76 -94 145 -151 125 -103 274 -251
369 -367 41 -50 183 -235 316 -411 133 -176 265 -346 294 -379 30 -32 79 -97
110 -143 59 -89 194 -336 194 -355 0 -18 -138 -267 -195 -353 -30 -44 -76
-105 -103 -135 -27 -30 -144 -183 -261 -339 l-213 -283 -31 38 c-18 21 -79 93
-136 159 -57 66 -154 181 -216 255 -62 74 -128 146 -145 159 -106 78 -301 261
-740 696 -377 374 -526 515 -624 590 -141 109 -390 321 -446 380 l-35 37 55
50 c144 130 299 260 450 378 129 101 226 190 445 410 l280 281 220 -223 c132
-134 239 -251 267 -294z m2216 -816 l-3 -173 -48 187 -47 187 19 63 c11 35 32
104 48 153 l28 90 3 -167 c1 -92 1 -245 0 -340z m-10774 192 c41 -151 86 -268
178 -460 39 -80 86 -183 104 -229 52 -125 136 -286 208 -395 l63 -96 -63 -96
c-72 -109 -156 -270 -208 -395 -18 -46 -65 -149 -103 -229 -38 -80 -80 -172
-93 -205 -13 -33 -26 -63 -30 -68 -10 -11 -50 218 -60 345 -5 62 -17 142 -27
178 -15 59 -17 147 -19 955 -2 589 1 878 7 855 5 -19 25 -91 43 -160z m7219
-471 c92 -85 203 -183 245 -217 132 -109 292 -256 412 -377 l115 -116 -176
-172 c-96 -95 -222 -210 -279 -257 -57 -47 -142 -121 -189 -165 -142 -133
-587 -535 -674 -610 -45 -38 -197 -171 -337 -293 -140 -123 -281 -243 -313
-265 -288 -208 -422 -315 -541 -435 l-129 -131 -61 47 c-34 26 -133 114 -221
195 -103 97 -195 173 -262 216 -56 36 -116 75 -132 86 -27 18 -456 404 -591
532 l-55 52 25 27 c14 14 124 105 245 202 121 96 258 209 305 251 47 42 114
101 150 132 140 119 563 489 715 624 88 79 187 165 220 193 86 71 283 213 357
258 39 23 133 106 248 218 102 100 248 236 324 303 l139 121 146 -132 c80 -73
222 -202 314 -287z m-5697 339 c34 -35 133 -144 220 -243 87 -99 298 -321 468
-492 l309 -313 -304 -307 c-167 -170 -380 -393 -473 -498 -93 -104 -210 -235
-261 -290 -50 -55 -221 -273 -380 -485 -159 -212 -306 -404 -327 -427 -21 -23
-64 -94 -95 -158 -32 -63 -60 -115 -64 -115 -6 0 -110 141 -142 193 -10 16
-32 71 -49 121 -16 50 -76 186 -133 301 -109 220 -174 383 -182 450 -7 55 36
163 153 390 51 99 108 228 127 286 46 137 117 278 215 426 43 65 100 156 127
203 79 140 263 407 498 722 122 163 224 297 227 298 3 0 33 -28 66 -62z m9152
-283 c96 -399 118 -739 74 -1120 -20 -171 -36 -252 -113 -563 -66 -266 -107
-410 -153 -536 -35 -94 -75 -209 -90 -254 -14 -45 -43 -108 -65 -139 -21 -32
-83 -147 -137 -255 -54 -109 -102 -198 -105 -198 -10 0 -80 112 -138 218 -49
92 -124 194 -176 242 -43 39 -479 623 -479 642 -1 9 62 91 139 183 249 298
303 367 417 543 62 95 150 227 195 295 45 67 128 210 184 317 56 107 131 244
167 303 38 66 75 143 91 195 48 152 124 353 131 345 4 -5 30 -102 58 -218z
m-7798 -1121 c203 -204 319 -311 445 -412 219 -175 325 -264 459 -387 60 -55
141 -127 180 -159 39 -33 175 -150 301 -261 127 -110 251 -219 276 -240 26
-22 100 -89 165 -149 120 -111 222 -190 304 -238 25 -15 87 -64 138 -109 l93
-82 -128 -130 c-70 -71 -169 -159 -219 -197 -50 -37 -136 -111 -190 -162 -55
-52 -140 -122 -189 -155 -109 -73 -197 -142 -410 -322 -88 -74 -168 -141 -177
-149 -16 -13 -32 0 -179 142 -202 195 -320 298 -479 416 -103 76 -205 173
-575 544 -247 248 -479 483 -515 521 -36 39 -99 99 -139 135 -130 114 -471
535 -455 562 24 41 143 176 294 333 95 99 215 231 268 294 97 116 439 481 451
481 3 0 130 -124 281 -276z m5361 108 c90 -92 204 -217 254 -277 49 -61 148
-166 220 -235 366 -350 409 -398 663 -736 132 -177 257 -348 278 -379 31 -50
85 -127 229 -330 19 -27 52 -81 72 -120 l36 -70 -83 -165 c-94 -188 -208 -356
-353 -523 -54 -61 -153 -182 -219 -268 l-121 -156 -75 91 c-41 50 -406 422
-811 827 -552 551 -754 747 -806 781 -38 25 -81 58 -95 73 -14 15 -150 140
-302 277 -153 138 -278 254 -278 258 0 12 106 102 325 274 168 133 255 213
545 502 190 189 348 344 351 344 4 0 80 -75 170 -168z m2538 -969 l-1 -378
-50 199 -51 198 49 179 c27 98 50 179 51 179 2 0 3 -170 2 -377z m-10763 -38
c45 -151 68 -210 164 -415 47 -99 82 -190 89 -227 11 -60 45 -152 82 -225 10
-20 59 -90 108 -155 75 -99 88 -121 78 -134 -71 -97 -110 -162 -167 -278 -67
-136 -93 -202 -105 -275 -3 -21 -30 -80 -59 -130 -29 -50 -72 -134 -96 -186
-23 -52 -46 -99 -50 -103 -9 -10 -50 194 -57 286 -3 40 -16 107 -29 150 l-24
78 1 917 c1 816 3 911 15 867 8 -27 31 -104 50 -170z m7065 -301 c134 -121
339 -312 454 -425 116 -112 229 -217 252 -231 23 -15 80 -62 128 -104 l86 -77
-288 -289 c-193 -194 -328 -320 -409 -383 -178 -137 -356 -288 -469 -395 -55
-53 -125 -116 -155 -140 -30 -25 -163 -139 -295 -255 -132 -115 -267 -232
-300 -260 -33 -27 -94 -81 -135 -119 -41 -38 -155 -132 -253 -209 -97 -76
-213 -171 -258 -209 l-80 -69 -132 103 c-73 57 -224 176 -337 264 -113 87
-248 200 -300 249 -87 83 -450 413 -524 477 -17 14 -29 28 -26 31 3 2 50 40
105 82 155 120 314 256 453 387 70 66 183 167 252 223 69 56 176 150 239 209
105 99 211 174 269 191 19 5 23 12 19 31 -3 18 0 24 14 24 11 0 19 6 19 13 0
34 180 182 278 228 47 23 100 62 178 134 61 57 146 129 190 161 43 32 169 146
279 253 110 108 251 240 314 293 l113 98 38 -33 c21 -17 147 -131 281 -253z
m-5383 19 c126 -142 240 -267 252 -278 12 -11 43 -51 69 -90 61 -93 218 -255
300 -310 36 -24 99 -74 139 -111 l73 -66 -228 -232 c-126 -127 -248 -260 -271
-296 -25 -37 -82 -99 -135 -145 -50 -44 -173 -168 -274 -275 -155 -165 -230
-257 -485 -595 -296 -394 -409 -554 -482 -688 -21 -37 -39 -67 -41 -67 -9 0
-136 201 -169 266 -20 38 -49 108 -65 155 -16 46 -63 154 -104 239 -74 154
-135 305 -159 394 -11 43 -10 50 21 128 19 46 81 180 138 298 74 154 113 246
134 323 43 157 87 234 212 364 34 36 38 44 27 58 -10 12 -10 15 4 15 9 0 16 8
16 18 0 29 105 209 157 268 73 84 118 148 164 233 33 61 463 651 474 651 2 0
107 -116 233 -257z m8981 -85 c50 -205 51 -210 51 -363 0 -142 2 -159 23 -198
20 -39 22 -54 22 -222 0 -163 -2 -185 -23 -235 -20 -49 -22 -73 -22 -215 0
-143 -3 -168 -25 -238 -14 -43 -54 -190 -89 -325 -36 -136 -86 -305 -111 -377
-26 -71 -69 -193 -95 -271 -27 -77 -62 -167 -78 -200 -24 -47 -196 -356 -230
-413 -6 -10 -39 30 -122 145 -62 87 -244 333 -403 546 l-289 388 95 110 c116
134 297 368 364 470 28 41 76 111 107 155 32 44 81 122 109 174 48 89 124 183
156 193 11 3 12 8 2 26 -10 19 -9 22 9 22 11 0 20 7 20 15 0 23 63 143 114
218 61 89 192 353 217 436 36 119 134 380 140 373 3 -4 29 -100 58 -214z
m-8010 -930 c31 -23 200 -184 376 -358 302 -298 501 -476 712 -635 54 -41 93
-77 93 -87 0 -11 8 -18 21 -18 16 0 19 -4 14 -19 -5 -16 7 -28 57 -62 169
-114 545 -424 828 -684 69 -63 200 -175 292 -248 160 -127 166 -133 150 -151
-9 -10 -107 -100 -217 -199 -110 -100 -252 -229 -315 -287 -286 -263 -731
-620 -772 -620 -20 1 -191 151 -429 379 -118 113 -265 248 -325 299 -111 95
-648 607 -894 852 -214 214 -409 436 -587 667 l-94 122 183 208 c101 114 221
249 269 298 47 50 129 144 181 210 126 159 351 374 392 375 5 0 34 -19 65 -42z
m5472 -4 c90 -65 367 -349 422 -431 29 -42 151 -173 326 -348 155 -154 281
-288 281 -297 0 -10 7 -18 16 -18 13 0 14 -3 4 -15 -10 -12 2 -29 69 -102 193
-210 444 -551 615 -836 l118 -196 -73 -138 c-83 -158 -161 -289 -227 -383
-128 -182 -446 -579 -471 -588 -13 -4 -280 276 -377 395 -118 145 -804 830
-1029 1028 -99 88 -236 213 -305 280 -69 66 -215 201 -325 299 -110 99 -230
208 -267 244 l-66 65 96 75 c257 199 373 303 722 648 260 256 378 364 400 364
4 0 36 -21 71 -46z m2638 -1066 l-1 -373 -50 197 -50 197 46 161 c25 89 46
168 46 176 0 8 2 14 5 14 3 0 5 -168 4 -372z m-10776 -21 c7 -57 81 -233 182
-437 40 -80 89 -194 109 -255 44 -131 118 -275 189 -369 29 -38 56 -75 61 -81
7 -9 -10 -43 -53 -109 -77 -118 -160 -290 -200 -411 -16 -49 -59 -153 -96
-230 -37 -77 -83 -174 -103 -215 l-35 -75 -18 75 c-11 41 -23 125 -29 185 -6
61 -15 142 -21 180 -38 251 -39 255 -38 1105 l0 835 23 -75 c13 -41 26 -97 29
-123z m6927 -193 c212 -169 327 -271 590 -528 134 -132 294 -282 355 -334 60
-51 111 -97 113 -101 5 -14 -678 -681 -830 -812 -80 -68 -206 -172 -281 -229
-117 -90 -136 -108 -132 -128 4 -15 1 -22 -10 -22 -8 0 -15 -6 -15 -12 0 -7
-21 -26 -46 -42 -108 -68 -270 -192 -361 -277 -124 -116 -200 -177 -337 -273
l-108 -76 -530 0 -529 0 -99 70 c-113 80 -206 163 -262 234 -23 29 -88 83
-162 135 -155 107 -246 178 -246 191 0 15 586 544 748 675 138 112 583 462
606 477 6 4 5 12 -3 22 -11 13 -11 16 3 16 9 0 16 6 16 14 0 7 57 58 128 112
346 267 581 461 722 597 245 237 486 426 519 407 9 -4 77 -57 151 -116z
m-5377 39 c91 -84 420 -437 508 -543 116 -142 257 -284 414 -417 l49 -42 -170
-173 c-93 -95 -209 -222 -259 -283 -160 -194 -530 -584 -630 -663 -35 -29 -38
-34 -27 -52 11 -17 10 -20 -8 -20 -11 0 -20 -5 -20 -11 0 -6 -39 -52 -86 -102
-47 -51 -111 -130 -141 -177 -84 -127 -138 -195 -237 -297 l-89 -93 -228 0
-229 0 -39 78 c-21 42 -55 122 -76 176 -20 55 -68 163 -107 240 -53 107 -69
146 -64 167 11 59 81 231 158 389 44 91 93 205 109 254 40 120 103 238 204
378 59 83 79 120 72 127 -8 8 -8 11 1 11 7 0 12 7 12 15 0 8 60 104 133 213
72 109 152 235 177 281 65 120 454 621 482 621 4 0 45 -35 91 -77z m9125 -233
c33 -128 52 -227 56 -288 4 -51 16 -161 26 -245 26 -197 25 -286 -5 -547 -14
-118 -25 -235 -25 -259 0 -43 -88 -396 -131 -529 -12 -34 -18 -69 -15 -77 3
-8 2 -15 -3 -15 -5 0 -11 -15 -14 -32 -8 -52 -70 -255 -106 -348 -46 -117 -82
-187 -130 -248 l-41 -52 -238 0 -238 0 -41 43 c-76 80 -137 162 -169 232 -28
59 -54 91 -174 210 -77 77 -138 145 -136 152 3 7 106 146 228 310 123 164 273
366 332 448 60 83 149 205 198 273 54 73 88 129 84 137 -3 8 -1 15 4 15 6 0
10 7 10 16 0 8 28 63 63 122 108 183 244 454 267 532 33 114 132 362 141 353
4 -4 30 -96 57 -203z m-8034 -927 c23 -21 123 -110 222 -197 98 -88 235 -214
304 -280 69 -67 215 -202 325 -300 110 -98 238 -216 285 -261 47 -45 123 -108
170 -140 134 -92 227 -172 283 -242 38 -48 88 -90 187 -159 74 -52 146 -103
160 -114 25 -20 22 -20 -1200 -20 l-1225 0 -103 113 c-57 62 -123 142 -148
178 -25 35 -107 127 -184 204 l-140 140 90 117 c115 152 214 270 320 384 47
50 113 124 148 165 51 59 447 446 460 448 2 1 23 -16 46 -36z m5588 -109 c87
-81 203 -194 256 -252 53 -57 180 -190 281 -296 101 -105 223 -238 273 -296
49 -58 133 -154 186 -213 109 -123 151 -182 187 -262 17 -40 54 -88 125 -162
55 -58 100 -109 100 -114 0 -5 -405 -9 -1009 -9 l-1010 0 -78 59 c-43 32 -136
114 -208 183 -71 68 -157 143 -190 168 -33 24 -113 86 -177 136 l-117 92 237
213 c130 117 296 270 367 339 72 69 229 213 350 321 121 108 229 206 239 217
11 12 21 22 24 22 2 0 76 -66 164 -146z m2547 -926 c0 -337 -1 -342 -18 -303
-10 22 -24 65 -31 95 -7 30 -22 80 -32 110 l-19 55 48 193 c26 105 49 192 50
192 2 0 3 -154 2 -342z m-10716 -198 c64 -136 93 -217 102 -283 4 -27 24 -82
45 -123 l38 -74 -149 0 -149 0 1 403 1 402 28 -105 c16 -58 53 -157 83 -220z
m6857 -51 c69 -57 164 -140 211 -185 48 -45 130 -117 184 -160 l99 -79 -327
-3 c-179 -1 -475 -1 -657 0 l-332 3 104 81 c57 44 119 91 138 104 19 13 92 79
161 146 69 66 157 144 194 173 59 44 70 49 84 38 9 -8 72 -60 141 -118z
m-5382 41 c40 -43 101 -116 135 -162 51 -68 138 -157 287 -294 12 -12 -60 -14
-459 -14 l-472 0 19 27 c11 16 60 71 110 123 49 52 120 142 157 200 72 112
136 200 145 200 3 0 38 -36 78 -80z m9157 -325 c10 -50 20 -102 23 -117 l4
-28 -136 0 c-75 0 -136 2 -136 4 0 3 29 63 64 134 43 87 71 161 87 226 l23 97
27 -113 c14 -62 34 -153 44 -203z"/>
</g>
</svg>
