<svg xmlns="http://www.w3.org/2000/svg" version="1.1" width="64.000000pt" height="239.000000pt"
      style="shape-rendering:geometricPrecision; text-rendering:geometricPrecision; image-rendering:optimizeQuality; fill-rule:evenodd; clip-rule:evenodd"
      xmlns:xlink="http://www.w3.org/1999/xlink">
      <g>
        <path style="opacity:0.973" fill="#000000"
          d="M 1.5,-0.5 C 2.83333,-0.5 4.16667,-0.5 5.5,-0.5C 9.10917,16.2728 14.1092,32.6061 20.5,48.5C 20.5,129.167 20.5,209.833 20.5,290.5C 19.9837,293.548 18.4837,295.882 16,297.5C 13.7168,295.006 12.3834,292.006 12,288.5C 8.71079,262.841 5.37745,237.174 2,211.5C 0.228684,140.775 0.0620178,70.1082 1.5,-0.5 Z" />
      </g>
      <g>
        <path style="opacity:0.986" fill="#fefffe"
          d="M 20.5,48.5 C 24.2331,55.5112 28.0665,62.5112 32,69.5C 34.5701,76.3037 37.4035,82.9704 40.5,89.5C 40.5,142.5 40.5,195.5 40.5,248.5C 34.8883,263.055 28.2216,277.055 20.5,290.5C 20.5,209.833 20.5,129.167 20.5,48.5 Z" />
      </g>
      <g>
        <path style="opacity:0.972" fill="#000000"
          d="M 40.5,89.5 C 46.758,105.254 53.4247,120.92 60.5,136.5C 60.5,158.5 60.5,180.5 60.5,202.5C 53.2469,217.664 46.5802,232.997 40.5,248.5C 40.5,195.5 40.5,142.5 40.5,89.5 Z" />
      </g>
      <g>
        <path style="opacity:0.931" fill="#fefffe"
          d="M 60.5,136.5 C 66.4366,147.097 72.7699,157.431 79.5,167.5C 79.5,170.167 79.5,172.833 79.5,175.5C 72.4286,183.974 66.0953,192.974 60.5,202.5C 60.5,180.5 60.5,158.5 60.5,136.5 Z" />
      </g>
    </svg>