<svg xmlns="http://www.w3.org/2000/svg" version="1.1" x="40" y="-140" width="245.000000pt" height="342.000000pt">
<g><path style="opacity:1" fill="#fefffe" d="M 30.5,216.5 C 30.5,265.833 30.5,315.167 30.5,364.5C 19.9732,342.251 9.63987,319.918 -0.5,297.5C -0.5,294.5 -0.5,291.5 -0.5,288.5C 8.66524,264.007 18.9986,240.007 30.5,216.5 Z"/></g>
<g><path style="opacity:0.988" fill="#000000" d="M 60.5,157.5 C 60.5,246.5 60.5,335.5 60.5,424.5C 46.8291,406.492 36.8291,386.492 30.5,364.5C 30.5,315.167 30.5,265.833 30.5,216.5C 34.3583,207.091 37.525,197.424 40,187.5C 44.3222,175.696 51.1556,165.696 60.5,157.5 Z"/></g>
<g><path style="opacity:1" fill="#fefffe" d="M 91.5,106.5 C 91.5,200.167 91.5,293.833 91.5,387.5C 83.9848,401.348 75.6515,414.681 66.5,427.5C 65.5,427.5 64.5,427.5 63.5,427.5C 62.3065,426.728 61.3065,425.728 60.5,424.5C 60.5,335.5 60.5,246.5 60.5,157.5C 62.4482,154.379 64.6148,151.379 67,148.5C 73.3375,133.354 81.5042,119.354 91.5,106.5 Z"/></g>
<g><path style="opacity:0.992" fill="#000000" d="M 120.5,62.5 C 120.5,157.167 120.5,251.833 120.5,346.5C 111.076,360.351 101.41,374.017 91.5,387.5C 91.5,293.833 91.5,200.167 91.5,106.5C 98.8381,94.9829 106.005,83.3162 113,71.5C 115.364,68.3098 117.864,65.3098 120.5,62.5 Z"/></g>
<g><path style="opacity:1" fill="#fefffe" d="M 151.5,22.5 C 151.5,117.833 151.5,213.167 151.5,308.5C 141.137,321.191 130.803,333.858 120.5,346.5C 120.5,251.833 120.5,157.167 120.5,62.5C 130.836,49.158 141.169,35.8247 151.5,22.5 Z"/></g>
<g><path style="opacity:0.993" fill="#000000" d="M 169.5,-0.5 C 170.833,-0.5 172.167,-0.5 173.5,-0.5C 177.064,1.46186 180.064,4.12852 182.5,7.5C 182.5,94.8333 182.5,182.167 182.5,269.5C 174.613,277.207 168.113,285.874 163,295.5C 159.301,300.027 155.468,304.361 151.5,308.5C 151.5,213.167 151.5,117.833 151.5,22.5C 156.737,14.26 162.737,6.59336 169.5,-0.5 Z"/></g>
<g><path style="opacity:1" fill="#fefffe" d="M 182.5,7.5 C 188.924,12.4233 194.09,18.4233 198,25.5C 203.004,31.3365 208.171,37.0031 213.5,42.5C 213.5,107.5 213.5,172.5 213.5,237.5C 203.866,248.801 193.533,259.468 182.5,269.5C 182.5,182.167 182.5,94.8333 182.5,7.5 Z"/></g>
<g><path style="opacity:0.989" fill="#000000" d="M 213.5,42.5 C 224.172,53.172 234.505,64.172 244.5,75.5C 244.5,118.167 244.5,160.833 244.5,203.5C 235.615,216.057 225.281,227.39 213.5,237.5C 213.5,172.5 213.5,107.5 213.5,42.5 Z"/></g>
<g><path style="opacity:1" fill="#fefffe" d="M 244.5,75.5 C 254.805,86.8075 265.138,98.1408 275.5,109.5C 275.5,129.5 275.5,149.5 275.5,169.5C 265.138,180.859 254.805,192.193 244.5,203.5C 244.5,160.833 244.5,118.167 244.5,75.5 Z"/></g>
<g><path style="opacity:0.944" fill="#000000" d="M 275.5,109.5 C 285.205,118.54 295.205,127.207 305.5,135.5C 305.5,136.833 305.5,138.167 305.5,139.5C 295.86,149.806 285.86,159.806 275.5,169.5C 275.5,149.5 275.5,129.5 275.5,109.5 Z"/></g>
</svg>
