 <svg xmlns="http://www.w3.org/2000/svg" version="1.1" width="369.000000pt" height="343.000000pt">
      <g>
        <path style="opacity:1" fill="#fefffe"
          d="M 45.5,83.5 C 45.5,120.5 45.5,157.5 45.5,194.5C 30.1667,177.5 14.8333,160.5 -0.5,143.5C -0.5,142.5 -0.5,141.5 -0.5,140.5C 13.3162,120.343 28.6496,101.343 45.5,83.5 Z" />
      </g>
      <g>
        <path style="opacity:0.988" fill="#000000"
          d="M 91.5,30.5 C 91.5,102.167 91.5,173.833 91.5,245.5C 75.4552,229.123 60.1219,212.123 45.5,194.5C 45.5,157.5 45.5,120.5 45.5,83.5C 60.8624,65.8081 76.1958,48.1414 91.5,30.5 Z" />
      </g>
      <g>
        <path style="opacity:1" fill="#fefffe"
          d="M 127.5,-0.5 C 128.833,-0.5 130.167,-0.5 131.5,-0.5C 133.5,1.16667 135.5,2.83333 137.5,4.5C 137.5,100.5 137.5,196.5 137.5,292.5C 135.466,291.452 134.133,289.786 133.5,287.5C 132.311,286.571 130.978,286.238 129.5,286.5C 129.702,284.011 129.202,281.677 128,279.5C 114.733,269.402 102.566,258.068 91.5,245.5C 91.5,173.833 91.5,102.167 91.5,30.5C 102.91,19.4187 114.91,9.08534 127.5,-0.5 Z" />
      </g>
      <g>
        <path style="opacity:0.994" fill="#000000"
          d="M 137.5,4.5 C 154.384,17.0454 170.05,31.0454 184.5,46.5C 184.5,141.833 184.5,237.167 184.5,332.5C 168.607,319.394 152.941,306.06 137.5,292.5C 137.5,196.5 137.5,100.5 137.5,4.5 Z" />
      </g>
      <g>
        <path style="opacity:1" fill="#fefffe"
          d="M 184.5,46.5 C 200.159,60.1595 215.492,74.1595 230.5,88.5C 230.5,183.833 230.5,279.167 230.5,374.5C 215.44,360.103 200.107,346.103 184.5,332.5C 184.5,237.167 184.5,141.833 184.5,46.5 Z" />
      </g>
      <g>
        <path style="opacity:0.994" fill="#000000"
          d="M 230.5,88.5 C 246.462,102.128 261.796,116.461 276.5,131.5C 276.5,226.5 276.5,321.5 276.5,416.5C 260.867,402.869 245.534,388.869 230.5,374.5C 230.5,279.167 230.5,183.833 230.5,88.5 Z" />
      </g>
      <g>
        <path style="opacity:1" fill="#fefffe"
          d="M 276.5,131.5 C 291.502,144.985 306.835,157.985 322.5,170.5C 322.5,250.167 322.5,329.833 322.5,409.5C 313.754,416.255 304.754,422.588 295.5,428.5C 293.833,428.5 292.167,428.5 290.5,428.5C 285.539,424.874 280.872,420.874 276.5,416.5C 276.5,321.5 276.5,226.5 276.5,131.5 Z" />
      </g>
      <g>
        <path style="opacity:0.991" fill="#000000"
          d="M 322.5,170.5 C 338.436,182.105 353.769,194.438 368.5,207.5C 368.5,261.833 368.5,316.167 368.5,370.5C 353.207,383.49 337.873,396.49 322.5,409.5C 322.5,329.833 322.5,250.167 322.5,170.5 Z" />
      </g>
      <g>
        <path style="opacity:1" fill="#fefffe"
          d="M 368.5,207.5 C 384.726,219.72 400.059,233.054 414.5,247.5C 414.5,274.833 414.5,302.167 414.5,329.5C 399.788,343.88 384.454,357.547 368.5,370.5C 368.5,316.167 368.5,261.833 368.5,207.5 Z" />
      </g>
      <g>
        <path style="opacity:0.961" fill="#000000"
          d="M 414.5,247.5 C 430.133,261.131 445.466,275.131 460.5,289.5C 460.5,290.833 460.5,292.167 460.5,293.5C 444.861,305.142 429.528,317.142 414.5,329.5C 414.5,302.167 414.5,274.833 414.5,247.5 Z" />
      </g>
    </svg>