<svg xmlns="http://www.w3.org/2000/svg" version="1.1" width="399.000000pt" height="349.000000pt">
      <g>
        <path style="opacity:1" fill="#fefffe"
          d="M 49.5,244.5 C 49.5,274.833 49.5,305.167 49.5,335.5C 32.2519,322.589 15.5852,308.923 -0.5,294.5C -0.5,293.167 -0.5,291.833 -0.5,290.5C 15.8665,274.798 32.5332,259.465 49.5,244.5 Z" />
      </g>
      <g>
        <path style="opacity:0.987" fill="#000000"
          d="M 99.5,201.5 C 99.5,260.5 99.5,319.5 99.5,378.5C 82.8082,364.137 66.1415,349.804 49.5,335.5C 49.5,305.167 49.5,274.833 49.5,244.5C 65.3807,229.23 82.0474,214.897 99.5,201.5 Z" />
      </g>
      <g>
        <path style="opacity:1" fill="#fefffe"
          d="M 149.5,161.5 C 149.5,248.833 149.5,336.167 149.5,423.5C 132.808,408.471 116.141,393.471 99.5,378.5C 99.5,319.5 99.5,260.5 99.5,201.5C 115.854,187.817 132.52,174.484 149.5,161.5 Z" />
      </g>
      <g>
        <path style="opacity:0.994" fill="#000000"
          d="M 199.5,118.5 C 199.5,213.833 199.5,309.167 199.5,404.5C 189.473,415.194 179.14,425.527 168.5,435.5C 167.167,435.5 165.833,435.5 164.5,435.5C 159.357,431.751 154.357,427.751 149.5,423.5C 149.5,336.167 149.5,248.833 149.5,161.5C 166.141,147.196 182.808,132.863 199.5,118.5 Z" />
      </g>
      <g>
        <path style="opacity:1" fill="#fefffe"
          d="M 249.5,77.5 C 249.5,172.5 249.5,267.5 249.5,362.5C 233.717,377.622 217.051,391.622 199.5,404.5C 199.5,309.167 199.5,213.833 199.5,118.5C 215.58,104.084 232.246,90.4174 249.5,77.5 Z" />
      </g>
      <g>
        <path style="opacity:0.994" fill="#000000"
          d="M 298.5,34.5 C 298.5,130.5 298.5,226.5 298.5,322.5C 282.191,335.803 265.858,349.137 249.5,362.5C 249.5,267.5 249.5,172.5 249.5,77.5C 260.271,67.9007 270.937,58.0674 281.5,48C 287.197,43.4915 292.864,38.9915 298.5,34.5 Z" />
      </g>
      <g>
        <path style="opacity:1" fill="#fefffe"
          d="M 340.5,-0.5 C 341.833,-0.5 343.167,-0.5 344.5,-0.5C 345.833,0.833333 347.167,2.16667 348.5,3.5C 348.5,94.8333 348.5,186.167 348.5,277.5C 344.741,279.683 343.075,283.017 343.5,287.5C 342.127,287.343 340.793,287.51 339.5,288C 338.23,291.203 336.23,293.87 333.5,296C 321.957,305.05 310.29,313.883 298.5,322.5C 298.5,226.5 298.5,130.5 298.5,34.5C 312.5,22.8333 326.5,11.1667 340.5,-0.5 Z" />
      </g>
      <g>
        <path style="opacity:0.993" fill="#000000"
          d="M 348.5,3.5 C 365.206,17.1772 381.873,30.8439 398.5,44.5C 398.5,108.167 398.5,171.833 398.5,235.5C 382.737,250.599 366.07,264.599 348.5,277.5C 348.5,186.167 348.5,94.8333 348.5,3.5 Z" />
      </g>
      <g>
        <path style="opacity:1" fill="#fefffe"
          d="M 398.5,44.5 C 416.4,58.7295 433.067,74.3962 448.5,91.5C 448.5,123.833 448.5,156.167 448.5,188.5C 436.395,200.104 424.395,211.937 412.5,224C 407.94,228.069 403.274,231.902 398.5,235.5C 398.5,171.833 398.5,108.167 398.5,44.5 Z" />
      </g>
      <g>
        <path style="opacity:0.965" fill="#000000"
          d="M 448.5,91.5 C 465.167,107.833 481.833,124.167 498.5,140.5C 498.5,141.5 498.5,142.5 498.5,143.5C 481.885,158.443 465.218,173.443 448.5,188.5C 448.5,156.167 448.5,123.833 448.5,91.5 Z" />
      </g>
    </svg>