<svg xmlns="http://www.w3.org/2000/svg" version="1.1" x="932" y="-298" width="316.000000pt" height="342.000000pt">
<g><path style="opacity:1" fill="#fefffe" d="M 39.5,102.5 C 39.5,126.833 39.5,151.167 39.5,175.5C 25.897,165.237 12.5637,154.57 -0.5,143.5C -0.5,141.833 -0.5,140.167 -0.5,138.5C 12.4835,126.187 25.8168,114.187 39.5,102.5 Z"/></g>
<g><path style="opacity:0.984" fill="#000000" d="M 78.5,66.5 C 78.5,114.833 78.5,163.167 78.5,211.5C 65.474,199.472 52.474,187.472 39.5,175.5C 39.5,151.167 39.5,126.833 39.5,102.5C 51.8886,89.8113 64.8886,77.8113 78.5,66.5 Z"/></g>
<g><path style="opacity:1" fill="#fefffe" d="M 118.5,27.5 C 118.5,101.5 118.5,175.5 118.5,249.5C 104.838,237.171 91.5044,224.504 78.5,211.5C 78.5,163.167 78.5,114.833 78.5,66.5C 91.791,53.5088 105.124,40.5088 118.5,27.5 Z"/></g>
<g><path style="opacity:0.994" fill="#000000" d="M 150.5,-0.5 C 151.833,-0.5 153.167,-0.5 154.5,-0.5C 155.29,0.40128 156.29,1.06795 157.5,1.5C 157.5,96.5 157.5,191.5 157.5,286.5C 156.167,286.5 154.833,286.5 153.5,286.5C 153.662,284.473 153.495,282.473 153,280.5C 140.709,271.042 129.209,260.708 118.5,249.5C 118.5,175.5 118.5,101.5 118.5,27.5C 128.896,17.7651 139.563,8.43174 150.5,-0.5 Z"/></g>
<g><path style="opacity:1" fill="#fefffe" d="M 157.5,1.5 C 171.74,11.7375 185.073,23.0708 197.5,35.5C 197.5,131.833 197.5,228.167 197.5,324.5C 184.205,313.041 171.038,301.375 158,289.5C 157.517,288.552 157.351,287.552 157.5,286.5C 157.5,191.5 157.5,96.5 157.5,1.5 Z"/></g>
<g><path style="opacity:0.994" fill="#000000" d="M 197.5,35.5 C 202.214,39.8997 206.714,44.5664 211,49.5C 218.579,60.58 227.079,70.9133 236.5,80.5C 236.5,174.833 236.5,269.167 236.5,363.5C 223.833,350.167 210.833,337.167 197.5,324.5C 197.5,228.167 197.5,131.833 197.5,35.5 Z"/></g>
<g><path style="opacity:1" fill="#fefffe" d="M 236.5,80.5 C 250.54,94.2052 263.873,108.539 276.5,123.5C 276.5,218.5 276.5,313.5 276.5,408.5C 261.71,394.715 248.377,379.715 236.5,363.5C 236.5,269.167 236.5,174.833 236.5,80.5 Z"/></g>
<g><path style="opacity:0.993" fill="#000000" d="M 276.5,123.5 C 289.968,139.094 302.968,155.094 315.5,171.5C 315.5,250.167 315.5,328.833 315.5,407.5C 310.606,414.735 304.94,421.401 298.5,427.5C 297.5,427.5 296.5,427.5 295.5,427.5C 288.86,421.527 282.527,415.194 276.5,408.5C 276.5,313.5 276.5,218.5 276.5,123.5 Z"/></g>
<g><path style="opacity:1" fill="#fefffe" d="M 315.5,171.5 C 329.966,187.295 343.3,203.962 355.5,221.5C 355.5,266.5 355.5,311.5 355.5,356.5C 347.884,367.289 340.051,377.955 332,388.5C 326.954,395.279 321.454,401.612 315.5,407.5C 315.5,328.833 315.5,250.167 315.5,171.5 Z"/></g>
<g><path style="opacity:0.965" fill="#000000" d="M 355.5,221.5 C 370.529,242.214 383.529,264.214 394.5,287.5C 394.5,289.833 394.5,292.167 394.5,294.5C 382.5,315.841 369.5,336.508 355.5,356.5C 355.5,311.5 355.5,266.5 355.5,221.5 Z"/></g>
</svg>
