<svg xmlns="http://www.w3.org/2000/svg" version="1.1" x="1255" y="-126"  width="152.000000pt" height="334.000000pt" style="shape-rendering:geometricPrecision; text-rendering:geometricPrecision; image-rendering:optimizeQuality; fill-rule:evenodd; clip-rule:evenodd" xmlns:xlink="http://www.w3.org/1999/xlink">
<g><path style="opacity:0.966" fill="#000000" d="M 166.5,-0.5 C 167.5,-0.5 168.5,-0.5 169.5,-0.5C 175.554,15.7147 180.054,32.3813 183,49.5C 184.926,68.0088 187.093,86.3422 189.5,104.5C 189.5,118.5 189.5,132.5 189.5,146.5C 186.945,166.348 184.445,186.348 182,206.5C 177.097,228.116 171.597,249.45 165.5,270.5C 165.5,181.167 165.5,91.8333 165.5,2.5C 166.11,1.60895 166.443,0.608953 166.5,-0.5 Z"/></g>
<g><path style="opacity:1" fill="#fefffe" d="M 165.5,2.5 C 165.5,91.8333 165.5,181.167 165.5,270.5C 164.257,278.732 162.09,286.732 159,294.5C 153.39,309.368 147.556,324.034 141.5,338.5C 141.5,245.833 141.5,153.167 141.5,60.5C 147.621,45.6419 153.454,30.6419 159,15.5C 160.706,10.8435 162.873,6.51017 165.5,2.5 Z"/></g>
<g><path style="opacity:0.99" fill="#000000" d="M 141.5,60.5 C 141.5,153.167 141.5,245.833 141.5,338.5C 135.168,355.495 127.502,371.828 118.5,387.5C 118.5,294.167 118.5,200.833 118.5,107.5C 125.93,91.641 133.597,75.9743 141.5,60.5 Z"/></g>
<g><path style="opacity:1" fill="#fefffe" d="M 118.5,107.5 C 118.5,200.833 118.5,294.167 118.5,387.5C 114.025,397.783 109.025,407.783 103.5,417.5C 102.167,417.5 100.833,417.5 99.5,417.5C 97.5879,415.343 95.9213,413.009 94.5,410.5C 94.5,322.833 94.5,235.167 94.5,147.5C 103.018,134.462 111.018,121.129 118.5,107.5 Z"/></g>
<g><path style="opacity:0.99" fill="#000000" d="M 94.5,147.5 C 94.5,235.167 94.5,322.833 94.5,410.5C 86.9327,396.927 78.9327,383.594 70.5,370.5C 70.5,307.167 70.5,243.833 70.5,180.5C 78.2674,169.285 86.2674,158.285 94.5,147.5 Z"/></g>
<g><path style="opacity:1" fill="#fefffe" d="M 70.5,180.5 C 70.5,243.833 70.5,307.167 70.5,370.5C 62.5028,359.175 54.5028,347.842 46.5,336.5C 46.5,295.167 46.5,253.833 46.5,212.5C 54.1467,201.527 62.1467,190.86 70.5,180.5 Z"/></g>
<g><path style="opacity:0.978" fill="#000000" d="M 46.5,212.5 C 46.5,253.833 46.5,295.167 46.5,336.5C 38.4878,327.819 30.8211,318.819 23.5,309.5C 23.5,287.5 23.5,265.5 23.5,243.5C 30.9346,232.95 38.6013,222.617 46.5,212.5 Z"/></g>
<g><path style="opacity:1" fill="#fefffe" d="M 23.5,243.5 C 23.5,265.5 23.5,287.5 23.5,309.5C 15.5,299.833 7.5,290.167 -0.5,280.5C -0.5,278.833 -0.5,277.167 -0.5,275.5C 7.11529,264.55 15.1153,253.884 23.5,243.5 Z"/></g>
</svg>
