<svg id="svg" version="1.1" xmlns="http://www.w3.org/2000/svg" xmlns:xlink="http://www.w3.org/1999/xlink" width="400" height="1449.4117647058822" viewBox="0, 0, 400,1449.4117647058822"><g id="svgg"><path id="path0" d="M109.695 261.775 C 108.221 265.303,108.572 1383.151,110.047 1384.626 C 110.956 1385.535,111.209 1385.257,113.370 1380.979 C 118.498 1370.828,119.971 1368.060,120.698 1367.215 C 121.115 1366.730,121.840 1365.059,122.309 1363.502 C 122.777 1361.945,123.858 1359.757,124.710 1358.640 C 125.561 1357.524,126.818 1355.114,127.502 1353.285 C 128.187 1351.456,129.102 1349.664,129.537 1349.303 C 129.971 1348.943,130.823 1347.490,131.430 1346.076 C 132.809 1342.861,138.654 1330.730,139.802 1328.701 C 141.541 1325.626,146.224 1315.689,146.224 1315.073 C 146.224 1314.723,147.078 1313.091,148.122 1311.448 C 149.166 1309.804,150.426 1307.236,150.923 1305.740 C 151.419 1304.245,152.298 1302.477,152.876 1301.813 C 154.351 1300.117,155.064 1298.542,155.534 1295.939 C 155.757 1294.703,156.617 1292.886,157.445 1291.902 C 158.273 1290.917,159.510 1288.394,160.194 1286.295 C 160.878 1284.195,161.952 1281.921,162.582 1281.240 C 163.212 1280.560,164.245 1278.520,164.878 1276.708 C 165.511 1274.896,166.875 1271.823,167.909 1269.878 C 168.943 1267.934,169.789 1265.867,169.789 1265.286 C 169.789 1264.705,170.599 1263.034,171.590 1261.571 C 172.581 1260.109,173.840 1257.553,174.387 1255.891 C 174.934 1254.230,175.746 1252.451,176.190 1251.939 C 176.635 1251.426,177.705 1249.115,178.568 1246.803 C 179.432 1244.490,180.771 1241.647,181.544 1240.483 C 182.317 1239.320,183.427 1236.873,184.011 1235.045 C 184.595 1233.218,185.577 1231.073,186.193 1230.279 C 186.810 1229.486,187.855 1227.084,188.517 1224.942 C 189.179 1222.799,190.252 1220.371,190.902 1219.544 C 191.552 1218.718,192.494 1216.633,192.995 1214.912 C 193.496 1213.191,194.564 1210.891,195.369 1209.801 C 196.173 1208.711,197.190 1206.541,197.627 1204.978 C 198.065 1203.416,199.321 1200.413,200.420 1198.306 L 202.417 1194.474 202.417 822.208 L 202.417 449.941 199.960 444.759 C 198.609 441.909,196.691 438.007,195.698 436.087 C 194.705 434.168,193.489 431.449,192.994 430.045 C 192.500 428.641,191.456 426.541,190.675 425.378 C 189.894 424.215,188.928 421.840,188.528 420.101 C 188.127 418.362,187.007 415.941,186.037 414.721 C 185.068 413.501,184.105 411.443,183.898 410.146 C 183.690 408.850,182.884 406.920,182.106 405.858 C 180.314 403.414,179.793 402.294,178.541 398.200 C 177.984 396.379,177.036 394.197,176.434 393.352 C 175.833 392.508,174.887 390.256,174.332 388.348 C 173.778 386.441,172.638 384.065,171.799 383.068 C 170.961 382.072,169.873 379.719,169.383 377.840 C 168.892 375.962,167.840 373.571,167.044 372.528 C 166.248 371.485,165.291 369.205,164.917 367.461 C 164.542 365.710,163.586 363.588,162.782 362.721 C 161.982 361.857,160.772 359.288,160.094 357.011 C 158.975 353.252,158.559 352.642,155.572 350.387 C 152.846 348.329,152.060 347.294,150.985 344.344 C 150.271 342.386,149.044 340.037,148.257 339.123 C 147.471 338.210,146.269 335.783,145.585 333.732 C 144.902 331.680,143.961 329.684,143.493 329.296 C 143.026 328.908,142.079 327.082,141.389 325.237 C 140.699 323.392,139.612 321.219,138.974 320.408 C 138.336 319.597,137.238 317.392,136.534 315.509 C 135.831 313.625,134.903 311.677,134.473 311.178 C 134.043 310.680,133.095 308.640,132.367 306.647 C 131.639 304.653,130.396 302.069,129.605 300.906 C 128.814 299.743,127.712 297.442,127.157 295.792 C 126.602 294.143,125.525 291.967,124.764 290.958 C 124.002 289.949,122.957 287.686,122.440 285.929 C 121.924 284.171,120.963 282.049,120.305 281.212 C 119.646 280.375,118.651 278.278,118.094 276.552 C 117.536 274.826,116.325 272.190,115.401 270.695 C 114.478 269.199,113.289 266.480,112.758 264.653 C 111.283 259.571,110.804 259.121,109.695 261.775 M297.619 678.481 C 296.773 680.116,296.677 695.035,296.677 823.867 C 296.677 952.700,296.773 967.618,297.619 969.253 C 298.825 971.585,299.613 971.283,300.898 967.997 C 301.466 966.544,302.559 964.653,303.327 963.795 C 304.095 962.937,305.216 961.128,305.817 959.775 C 306.418 958.421,307.741 956.269,308.756 954.992 C 309.771 953.715,310.766 951.967,310.967 951.108 C 311.168 950.249,312.249 948.347,313.370 946.880 C 314.491 945.413,315.408 943.859,315.408 943.426 C 315.408 942.994,316.186 941.747,317.137 940.655 C 318.088 939.564,319.347 937.732,319.934 936.585 C 321.023 934.461,324.920 928.415,326.965 925.680 C 327.585 924.849,328.785 922.865,329.630 921.271 C 330.475 919.677,331.574 918.216,332.071 918.025 C 332.569 917.834,333.351 916.780,333.810 915.682 C 334.601 913.788,337.477 909.716,341.209 905.207 C 342.139 904.083,343.308 902.425,343.807 901.524 C 344.305 900.623,345.345 899.096,346.116 898.130 C 346.888 897.165,348.318 895.151,349.293 893.656 C 350.268 892.160,351.879 889.849,352.872 888.520 C 354.730 886.035,359.061 879.878,361.585 876.133 C 362.369 874.970,363.680 873.338,364.498 872.508 C 365.316 871.677,366.549 869.891,367.238 868.540 C 367.928 867.188,368.937 865.712,369.482 865.260 C 370.027 864.808,370.846 863.717,371.302 862.834 C 371.758 861.952,373.139 860.029,374.371 858.561 C 375.603 857.092,376.982 855.008,377.437 853.927 C 377.892 852.847,378.527 851.964,378.848 851.964 C 379.169 851.964,380.015 850.820,380.729 849.421 C 381.442 848.023,382.965 845.513,384.114 843.843 L 386.202 840.808 386.001 831.016 C 385.804 821.388,385.774 821.197,384.204 819.525 C 383.326 818.590,381.903 816.417,381.043 814.695 C 380.183 812.974,379.210 811.399,378.881 811.196 C 378.551 810.993,377.716 809.546,377.024 807.981 C 376.332 806.416,375.132 804.456,374.357 803.625 C 373.582 802.795,372.491 801.210,371.933 800.104 C 371.374 798.998,369.984 796.870,368.842 795.375 C 367.701 793.880,366.767 792.374,366.767 792.029 C 366.767 791.683,365.816 790.104,364.653 788.520 C 363.489 786.935,362.538 785.352,362.538 785.001 C 362.538 784.650,361.518 783.151,360.272 781.669 C 359.026 780.186,356.782 776.740,355.287 774.009 C 353.792 771.278,351.818 768.154,350.901 767.065 C 349.985 765.977,348.673 763.817,347.987 762.265 C 347.301 760.714,346.373 759.304,345.924 759.132 C 345.476 758.960,344.679 757.744,344.153 756.431 C 343.628 755.118,342.315 752.726,341.236 751.117 C 340.158 749.508,338.799 747.408,338.217 746.452 C 337.635 745.496,336.471 743.777,335.631 742.634 C 334.791 741.491,333.941 739.859,333.742 739.009 C 333.542 738.158,332.766 736.782,332.017 735.952 C 331.268 735.121,330.069 733.092,329.353 731.442 C 328.637 729.793,327.585 727.936,327.016 727.317 C 326.017 726.228,324.564 723.609,321.083 716.616 C 320.173 714.789,318.692 712.341,317.792 711.178 C 316.892 710.015,315.684 707.785,315.107 706.223 C 314.530 704.661,313.545 702.918,312.918 702.351 C 312.290 701.783,311.503 700.299,311.167 699.053 C 310.832 697.808,309.656 695.472,308.555 693.862 C 307.454 692.253,306.233 690.009,305.842 688.876 C 305.451 687.742,304.458 685.932,303.635 684.853 C 302.812 683.774,301.626 681.587,301.000 679.992 C 299.609 676.451,298.845 676.110,297.619 678.481 " stroke="none" fill="#fcf9f9" fill-rule="evenodd"></path><path id="path1" d="M7.985 7.967 C 7.581 8.371,7.251 9.462,7.251 10.393 C 7.251 11.913,7.043 12.085,5.201 12.085 C 2.576 12.085,2.417 12.555,2.417 20.291 C 2.417 26.183,2.340 26.586,1.208 26.586 C 0.001 26.586,0.000 26.989,0.000 479.456 C 0.000 931.923,0.001 932.326,1.208 932.326 C 2.405 932.326,2.417 932.745,2.466 974.471 C 2.518 1019.719,2.620 1021.379,5.438 1022.775 L 6.949 1023.524 7.251 1048.528 C 7.571 1075.057,7.592 1075.234,10.467 1075.643 C 11.776 1075.830,11.784 1075.921,12.085 1093.413 C 12.408 1112.235,12.539 1112.991,15.482 1112.991 L 16.918 1112.991 16.918 1125.847 C 16.918 1139.870,17.247 1141.390,20.276 1141.390 L 21.752 1141.390 21.761 1153.323 C 21.771 1165.955,22.099 1167.753,24.597 1168.859 C 25.888 1169.430,25.913 1169.698,26.097 1184.930 C 26.297 1201.513,26.466 1202.417,29.355 1202.417 L 30.768 1202.417 30.943 1236.493 C 31.134 1273.627,31.083 1273.112,34.535 1273.112 C 35.592 1273.112,35.650 1273.987,35.650 1289.991 C 35.650 1308.270,35.856 1309.683,38.667 1310.663 L 40.483 1311.296 40.492 1323.473 C 40.501 1337.612,40.614 1338.304,42.979 1338.777 L 44.713 1339.124 44.773 1349.169 C 44.845 1361.188,45.016 1362.002,47.602 1362.673 L 49.547 1363.177 49.607 1372.978 C 49.679 1384.740,49.856 1385.569,52.436 1386.238 L 54.381 1386.742 54.381 1395.140 C 54.381 1404.260,54.766 1405.438,57.747 1405.438 L 59.215 1405.438 59.215 1412.387 L 59.215 1419.335 61.631 1419.335 L 64.048 1419.335 64.057 1424.622 C 64.067 1431.520,64.388 1432.606,66.544 1433.037 C 68.016 1433.331,68.278 1433.673,68.278 1435.302 C 68.278 1438.109,69.206 1438.671,73.837 1438.671 L 77.946 1438.671 77.946 1440.801 L 77.946 1442.932 87.160 1442.765 L 96.375 1442.598 96.562 1440.660 L 96.749 1438.722 101.094 1438.545 L 105.438 1438.369 105.626 1436.103 C 105.785 1434.178,106.028 1433.837,107.238 1433.837 C 110.286 1433.837,110.574 1433.392,110.574 1428.673 L 110.574 1424.242 112.840 1424.055 C 114.983 1423.877,115.116 1423.744,115.293 1421.601 C 115.408 1420.214,115.792 1419.335,116.284 1419.335 C 118.271 1419.335,119.695 1417.225,120.053 1413.746 C 120.341 1410.953,120.621 1410.272,121.485 1410.272 C 124.326 1410.272,124.471 1409.902,124.471 1402.654 L 124.471 1395.770 126.888 1395.770 L 129.305 1395.770 129.305 1391.239 L 129.305 1386.707 131.355 1386.707 C 133.836 1386.707,134.139 1386.081,134.139 1380.954 L 134.139 1377.112 136.405 1376.925 L 138.671 1376.737 138.848 1372.356 C 139.024 1368.021,139.043 1367.976,140.691 1367.976 C 143.232 1367.976,143.807 1366.951,143.807 1362.417 L 143.807 1358.308 145.921 1358.308 L 148.036 1358.308 148.036 1353.474 L 148.036 1348.640 150.453 1348.640 L 152.870 1348.640 152.870 1344.109 L 152.870 1339.577 154.562 1339.577 C 157.126 1339.577,157.704 1338.561,157.704 1334.055 L 157.704 1329.982 159.970 1329.795 L 162.236 1329.607 162.412 1325.263 L 162.589 1320.919 164.527 1320.731 L 166.465 1320.544 166.641 1315.896 L 166.817 1311.248 169.058 1311.062 L 171.299 1310.876 171.477 1306.495 C 171.645 1302.337,171.727 1302.115,173.089 1302.115 C 176.152 1302.115,176.435 1301.676,176.435 1296.914 C 176.435 1292.587,176.481 1292.447,177.902 1292.447 C 180.381 1292.447,181.269 1290.955,181.269 1286.789 C 181.269 1283.077,181.294 1283.022,183.214 1282.451 C 185.583 1281.747,185.961 1280.599,186.042 1273.867 L 186.103 1268.882 188.218 1268.882 L 190.332 1268.882 190.332 1264.048 L 190.332 1259.215 192.749 1259.215 L 195.166 1259.215 195.166 1254.719 L 195.166 1250.224 197.432 1250.036 L 199.698 1249.849 199.874 1245.166 L 200.051 1240.483 202.076 1240.483 C 204.501 1240.483,204.834 1239.827,204.834 1235.044 C 204.834 1231.600,204.878 1231.506,206.683 1231.110 C 208.996 1230.602,209.668 1228.964,209.668 1223.832 C 209.668 1219.845,211.120 1216.918,213.100 1216.918 C 213.689 1216.918,213.897 1215.743,213.897 1212.423 L 213.897 1207.928 216.163 1207.740 L 218.429 1207.553 218.605 1202.870 L 218.782 1198.187 220.807 1198.187 C 223.256 1198.187,223.565 1197.547,223.565 1192.473 C 223.565 1188.748,223.601 1188.663,225.343 1188.315 C 227.558 1187.872,228.391 1185.343,228.395 1179.039 L 228.399 1174.695 230.665 1174.508 L 232.931 1174.320 233.106 1170.058 C 233.279 1165.835,233.299 1165.790,235.220 1165.224 L 237.160 1164.653 237.331 1157.855 L 237.502 1151.057 239.899 1151.057 L 242.296 1151.057 242.296 1146.593 L 242.296 1142.128 244.344 1141.744 C 246.862 1141.272,247.111 1140.499,247.122 1133.118 L 247.130 1127.565 249.396 1127.378 L 251.662 1127.190 251.832 1120.430 L 252.003 1113.669 253.947 1113.481 L 255.891 1113.293 256.068 1108.610 C 256.237 1104.127,256.306 1103.927,257.686 1103.927 C 260.448 1103.927,261.027 1102.558,261.027 1096.029 C 261.027 1090.087,261.041 1090.030,262.488 1090.030 C 265.583 1090.030,265.861 1089.600,265.861 1084.815 C 265.861 1080.567,265.942 1080.302,267.401 1079.747 C 269.540 1078.934,270.695 1075.767,270.695 1070.714 L 270.695 1066.465 272.387 1066.465 C 274.950 1066.465,275.529 1065.449,275.529 1060.945 L 275.529 1056.874 277.492 1056.685 L 279.456 1056.495 279.633 1052.157 L 279.810 1047.819 281.748 1047.398 C 284.298 1046.845,284.572 1046.310,284.583 1041.854 C 284.591 1038.363,284.700 1038.062,286.078 1037.717 C 288.249 1037.172,288.779 1036.239,289.199 1032.217 C 289.538 1028.971,289.747 1028.543,291.266 1027.969 C 293.059 1027.292,294.250 1024.454,294.256 1020.838 C 294.259 1019.552,294.648 1018.843,295.583 1018.421 C 297.398 1017.603,298.996 1014.645,299.049 1012.007 C 299.086 1010.176,299.383 1009.694,300.849 1009.087 C 302.767 1008.293,303.302 1007.031,303.315 1003.279 C 303.323 1000.939,303.435 1000.790,305.589 1000.258 L 307.855 999.698 308.033 995.317 L 308.210 990.937 310.234 990.937 C 312.662 990.937,312.991 990.283,312.991 985.449 C 312.991 981.935,313.020 981.873,314.683 981.873 C 317.251 981.873,317.825 980.859,317.825 976.314 L 317.825 972.205 319.940 972.205 C 322.004 972.205,322.054 972.148,322.054 969.789 C 322.054 967.544,322.175 967.372,323.746 967.372 C 326.273 967.372,326.888 966.342,326.888 962.115 C 326.888 958.492,326.959 958.308,328.349 958.308 C 331.438 958.308,331.722 957.874,331.722 953.144 L 331.722 948.713 333.988 948.526 C 336.131 948.349,336.264 948.215,336.441 946.073 C 336.617 943.945,336.752 943.807,338.643 943.807 C 341.057 943.807,341.390 943.146,341.390 938.357 L 341.390 934.820 343.353 934.630 C 345.146 934.458,345.334 934.244,345.505 932.175 C 345.664 930.251,345.907 929.909,347.117 929.909 C 350.170 929.909,350.453 929.467,350.453 924.709 L 350.453 920.242 352.870 920.242 C 355.229 920.242,355.287 920.191,355.287 918.127 C 355.287 916.213,355.448 916.012,356.979 916.012 C 359.207 916.012,360.121 915.006,360.121 912.553 C 360.121 910.990,360.442 910.422,361.568 909.994 C 363.344 909.319,364.955 906.246,364.955 903.533 C 364.955 901.625,365.074 901.511,367.069 901.511 C 369.129 901.511,369.184 901.448,369.184 899.130 C 369.184 896.816,369.247 896.744,371.450 896.562 L 373.716 896.375 373.893 892.029 L 374.070 887.683 376.310 887.497 C 378.423 887.322,378.560 887.183,378.737 885.045 C 378.913 882.918,379.048 882.779,380.939 882.779 C 383.113 882.779,383.686 882.027,383.686 879.170 C 383.686 877.864,384.034 877.385,385.193 877.094 C 386.870 876.673,388.520 873.483,388.520 870.659 C 388.520 869.182,388.778 868.934,390.483 868.769 C 392.276 868.597,392.463 868.383,392.635 866.314 C 392.794 864.390,393.037 864.048,394.247 864.048 C 397.299 864.048,397.583 863.606,397.583 858.848 C 397.583 854.783,397.692 854.381,398.792 854.381 C 399.979 854.381,400.000 853.978,400.000 831.118 C 400.000 808.258,399.979 807.855,398.792 807.855 C 397.810 807.855,397.583 807.452,397.583 805.710 C 397.583 802.847,396.087 800.102,394.280 799.649 C 393.025 799.334,392.784 798.871,392.629 796.468 C 392.455 793.781,392.360 793.647,390.483 793.466 L 388.520 793.277 388.520 789.739 C 388.520 784.934,388.191 784.290,385.736 784.290 C 383.893 784.290,383.686 784.119,383.686 782.598 C 383.686 780.451,382.691 779.456,380.544 779.456 C 378.881 779.456,378.852 779.394,378.852 775.880 C 378.852 771.035,378.526 770.393,376.068 770.393 C 374.079 770.393,374.018 770.321,374.018 767.976 L 374.018 765.559 371.601 765.559 L 369.184 765.559 369.184 761.092 C 369.184 756.418,368.874 755.891,366.114 755.891 C 365.218 755.891,364.945 755.445,364.911 753.927 C 364.856 751.505,363.201 748.534,361.472 747.754 C 360.515 747.322,360.131 746.536,359.998 744.733 C 359.826 742.391,359.731 742.289,357.553 742.109 L 355.287 741.921 355.287 737.490 C 355.287 732.771,354.999 732.326,351.951 732.326 C 350.741 732.326,350.498 731.985,350.339 730.060 C 350.161 727.918,350.028 727.784,347.885 727.607 L 345.619 727.419 345.619 722.924 L 345.619 718.429 343.505 718.429 L 341.390 718.429 341.390 714.320 C 341.390 709.776,340.816 708.761,338.248 708.761 C 336.585 708.761,336.556 708.699,336.556 705.185 C 336.556 700.340,336.230 699.698,333.772 699.698 C 331.841 699.698,331.722 699.578,331.722 697.632 C 331.722 695.000,329.996 691.910,328.278 691.466 C 327.186 691.184,326.917 690.622,326.768 688.311 C 326.588 685.535,326.557 685.496,324.320 685.311 L 322.054 685.123 322.054 680.628 L 322.054 676.133 319.940 676.133 L 317.825 676.133 317.825 672.024 C 317.825 667.480,317.251 666.465,314.683 666.465 C 312.996 666.465,312.991 666.454,312.991 662.356 C 312.991 657.812,312.418 656.798,309.849 656.798 L 308.157 656.798 308.157 652.266 L 308.157 647.734 305.766 647.734 L 303.374 647.734 303.198 643.051 L 303.021 638.369 301.083 638.181 L 299.145 637.994 298.968 633.649 L 298.792 629.305 296.526 629.118 L 294.260 628.930 294.260 624.858 C 294.260 620.362,293.680 619.335,291.144 619.335 C 289.496 619.335,289.477 619.290,289.301 614.955 L 289.124 610.574 286.858 610.386 L 284.592 610.199 284.592 605.683 C 284.592 601.222,282.693 597.583,280.365 597.583 C 280.057 597.583,279.727 595.204,279.631 592.296 L 279.456 587.009 277.492 586.820 L 275.529 586.630 275.529 582.202 C 275.529 577.481,275.242 577.039,272.181 577.039 C 270.809 577.039,270.738 576.834,270.569 572.356 L 270.393 567.674 268.127 567.486 L 265.861 567.299 265.861 560.753 C 265.861 553.722,265.746 553.474,262.488 553.474 C 261.065 553.474,261.027 553.350,261.027 548.640 C 261.027 544.363,260.900 543.807,259.924 543.807 C 257.386 543.807,256.256 541.412,256.068 535.638 L 255.891 530.211 253.947 530.024 L 252.003 529.836 251.832 523.075 L 251.662 516.314 249.396 516.127 L 247.130 515.939 247.130 509.450 C 247.130 502.392,246.781 501.511,243.988 501.511 L 242.296 501.511 242.296 495.770 C 242.296 489.594,241.416 487.613,238.671 487.613 C 237.571 487.613,237.462 487.210,237.462 483.146 C 237.462 478.481,237.149 477.946,234.418 477.946 C 233.431 477.946,233.263 477.382,233.108 473.565 L 232.931 469.184 230.744 469.001 L 228.557 468.819 228.269 462.831 C 227.960 456.420,227.363 454.985,225.002 454.985 C 223.638 454.985,223.565 454.787,223.565 451.107 C 223.565 445.953,223.262 445.317,220.807 445.317 L 218.782 445.317 218.605 440.634 L 218.429 435.952 216.163 435.764 L 213.897 435.577 213.897 431.081 L 213.897 426.586 211.808 426.586 L 209.719 426.586 209.542 421.903 L 209.366 417.221 207.169 417.037 L 204.972 416.854 204.733 410.914 C 204.476 404.513,203.853 403.021,201.437 403.021 C 200.054 403.021,200.000 402.855,200.000 398.554 C 200.000 393.785,199.720 393.353,196.627 393.353 C 195.212 393.353,195.166 393.212,195.166 388.822 L 195.166 384.290 192.749 384.290 L 190.332 384.290 190.332 379.456 L 190.332 374.622 188.291 374.622 L 186.251 374.622 185.992 369.210 C 185.718 363.476,184.735 361.329,182.384 361.329 C 181.413 361.329,181.269 360.815,181.269 357.362 C 181.269 352.445,180.599 351.057,178.226 351.057 L 176.435 351.057 176.435 346.590 C 176.435 341.829,176.152 341.390,173.089 341.390 C 171.727 341.390,171.645 341.167,171.477 337.009 L 171.299 332.628 169.069 332.443 C 167.055 332.276,166.821 332.073,166.652 330.347 C 166.498 328.775,166.118 328.338,164.502 327.877 C 162.637 327.346,162.538 327.171,162.538 324.423 C 162.538 320.334,161.742 318.616,159.633 318.152 C 157.941 317.781,157.851 317.593,157.546 313.791 C 157.214 309.666,156.639 308.787,154.256 308.771 C 153.021 308.762,152.910 308.438,152.746 304.381 L 152.568 300.000 150.327 299.446 L 148.085 298.892 147.910 294.612 L 147.734 290.332 145.770 290.143 L 143.807 289.954 143.807 286.108 C 143.807 281.863,142.934 280.363,140.467 280.363 C 139.097 280.363,139.017 280.146,138.848 275.982 L 138.671 271.601 136.430 271.415 L 134.189 271.229 134.013 266.581 L 133.837 261.934 131.596 261.747 L 129.355 261.561 129.179 256.914 L 129.003 252.266 126.737 252.078 L 124.471 251.891 124.471 247.396 L 124.471 242.900 122.356 242.900 L 120.242 242.900 120.242 238.792 C 120.242 234.247,119.668 233.233,117.100 233.233 L 115.408 233.233 115.408 228.701 C 115.408 226.208,115.165 224.169,114.869 224.169 C 114.573 224.169,114.157 223.480,113.946 222.638 C 113.735 221.796,112.890 220.801,112.068 220.426 C 110.666 219.788,110.574 219.457,110.574 215.073 C 110.574 210.082,110.316 209.668,107.201 209.668 C 105.751 209.668,105.740 209.624,105.740 203.444 C 105.740 196.668,105.373 195.770,102.598 195.770 C 100.909 195.770,100.906 195.763,100.906 191.616 C 100.906 185.524,100.398 183.683,98.402 182.548 C 96.785 181.628,96.684 181.335,96.681 177.541 C 96.676 173.118,95.537 170.353,93.204 169.104 C 91.964 168.441,91.837 167.914,91.771 163.191 C 91.667 155.653,91.322 154.494,88.973 153.803 L 87.009 153.224 87.009 146.724 C 87.009 139.748,86.650 138.973,83.423 138.973 C 82.239 138.973,82.175 138.640,82.175 132.416 C 82.175 124.990,81.471 122.216,79.382 121.422 C 77.996 120.895,77.946 120.654,77.946 114.566 C 77.946 106.813,77.787 106.344,75.162 106.344 L 73.112 106.344 73.112 97.935 C 73.112 89.410,72.876 87.613,71.757 87.613 C 69.256 87.613,68.278 84.659,68.278 77.109 L 68.278 69.689 65.861 67.746 L 63.444 65.804 63.444 58.112 C 63.444 50.278,62.091 46.526,59.268 46.526 C 58.890 46.526,58.582 43.759,58.478 39.426 L 58.308 32.326 56.369 31.472 C 54.478 30.640,54.425 30.512,54.254 26.337 L 54.079 22.054 51.837 21.868 L 49.596 21.682 49.421 17.034 L 49.245 12.387 47.013 12.201 C 44.917 12.027,44.771 11.881,44.596 9.784 L 44.411 7.553 26.565 7.393 C 13.190 7.273,8.535 7.417,7.985 7.967 M32.325 24.924 C 35.554 29.489,36.932 32.268,37.780 35.925 C 38.306 38.193,39.419 41.395,40.252 43.040 C 41.086 44.685,42.150 48.208,42.618 50.870 C 43.086 53.532,44.145 57.926,44.971 60.634 C 45.796 63.343,46.895 68.090,47.411 71.184 C 47.928 74.278,48.883 77.853,49.534 79.129 C 50.185 80.404,51.269 84.579,51.944 88.406 C 52.618 92.233,53.677 96.545,54.295 97.988 C 54.914 99.432,55.769 103.058,56.196 106.046 C 56.623 109.035,57.741 113.520,58.681 116.012 C 59.621 118.505,60.913 123.152,61.553 126.339 C 62.194 129.526,63.297 133.271,64.007 134.661 C 64.716 136.051,65.651 139.561,66.086 142.461 C 66.520 145.361,67.480 148.911,68.218 150.350 C 68.956 151.789,70.046 155.188,70.640 157.903 C 71.235 160.618,72.306 163.984,73.020 165.383 C 73.735 166.782,74.847 170.181,75.491 172.936 C 76.136 175.691,77.218 179.195,77.896 180.723 C 78.574 182.250,79.539 185.269,80.040 187.431 C 80.541 189.592,81.614 192.557,82.424 194.019 C 83.234 195.481,84.345 198.444,84.893 200.604 C 85.441 202.764,86.448 205.483,87.131 206.647 C 87.814 207.810,88.735 210.477,89.177 212.573 C 89.620 214.669,90.785 217.796,91.768 219.522 C 92.750 221.247,93.954 224.206,94.444 226.097 C 94.934 227.988,95.878 230.299,96.541 231.233 C 97.205 232.167,98.336 234.910,99.056 237.329 C 99.775 239.748,100.896 242.629,101.547 243.732 C 102.197 244.834,103.157 247.177,103.680 248.938 C 104.203 250.698,105.356 253.235,106.243 254.575 L 107.855 257.011 108.007 826.671 L 108.159 1396.330 106.455 1398.316 C 105.518 1399.408,104.386 1401.254,103.941 1402.417 C 103.495 1403.580,102.490 1405.403,101.707 1406.468 C 100.924 1407.532,99.735 1409.681,99.066 1411.242 C 98.397 1412.803,97.110 1414.951,96.206 1416.014 C 95.302 1417.078,94.097 1418.807,93.529 1419.856 C 92.962 1420.905,91.874 1422.030,91.113 1422.356 C 90.351 1422.682,89.184 1423.347,88.519 1423.835 C 86.950 1424.985,81.368 1421.040,80.697 1418.306 C 80.469 1417.377,79.349 1414.271,78.207 1411.405 C 77.066 1408.538,75.753 1404.019,75.289 1401.361 C 74.825 1398.704,73.858 1395.203,73.140 1393.582 C 72.422 1391.961,71.329 1387.351,70.713 1383.338 C 70.096 1379.324,68.915 1373.750,68.089 1370.951 C 67.263 1368.151,66.301 1362.988,65.952 1359.476 C 65.601 1355.948,64.625 1350.972,63.771 1348.356 C 62.910 1345.719,61.817 1340.124,61.303 1335.724 C 60.795 1331.381,59.721 1325.291,58.915 1322.192 C 58.110 1319.092,57.022 1312.287,56.499 1307.070 C 55.975 1301.852,55.018 1294.728,54.372 1291.239 C 52.944 1283.522,52.214 1275.982,51.361 1260.121 C 50.628 1246.493,49.957 1236.785,48.625 1220.544 C 48.120 1214.396,47.438 1205.287,47.108 1200.302 C 46.779 1195.317,45.832 1187.524,45.004 1182.984 C 44.177 1178.445,43.103 1170.781,42.618 1165.953 C 42.119 1160.994,41.074 1154.860,40.214 1151.851 C 39.377 1148.922,38.276 1142.719,37.767 1138.066 C 37.257 1133.414,36.164 1127.120,35.337 1124.080 C 34.476 1120.917,33.565 1115.256,33.207 1110.846 C 32.863 1106.607,32.058 1100.394,31.418 1097.038 C 29.580 1087.397,29.111 1083.732,28.398 1073.414 C 28.030 1068.097,27.221 1060.347,26.599 1056.193 C 25.051 1045.842,24.285 1037.080,23.565 1021.450 C 22.483 997.981,21.814 985.967,21.196 978.852 C 20.123 966.520,19.354 945.469,18.723 911.178 C 18.384 892.734,17.709 865.952,17.223 851.662 C 14.903 783.366,14.804 765.868,14.804 424.169 C 14.804 77.730,14.782 80.968,17.249 51.964 C 17.744 46.148,18.426 38.022,18.765 33.905 C 19.614 23.600,19.441 23.807,27.313 23.647 C 30.877 23.575,31.479 23.728,32.325 24.924 M112.758 264.653 C 113.289 266.480,114.478 269.199,115.401 270.695 C 116.325 272.190,117.536 274.826,118.094 276.552 C 118.651 278.278,119.646 280.375,120.305 281.212 C 120.963 282.049,121.924 284.171,122.440 285.929 C 122.957 287.686,124.002 289.949,124.764 290.958 C 125.525 291.967,126.602 294.143,127.157 295.792 C 127.712 297.442,128.814 299.743,129.605 300.906 C 130.396 302.069,131.639 304.653,132.367 306.647 C 133.095 308.640,134.043 310.680,134.473 311.178 C 134.903 311.677,135.831 313.625,136.534 315.509 C 137.238 317.392,138.336 319.597,138.974 320.408 C 139.612 321.219,140.699 323.392,141.389 325.237 C 142.079 327.082,143.026 328.908,143.493 329.296 C 143.961 329.684,144.902 331.680,145.585 333.732 C 146.269 335.783,147.471 338.210,148.257 339.123 C 149.044 340.037,150.271 342.386,150.985 344.344 C 152.060 347.294,152.846 348.329,155.572 350.387 C 158.559 352.642,158.975 353.252,160.094 357.011 C 160.772 359.288,161.982 361.857,162.782 362.721 C 163.586 363.588,164.542 365.710,164.917 367.461 C 165.291 369.205,166.248 371.485,167.044 372.528 C 167.840 373.571,168.892 375.962,169.383 377.840 C 169.873 379.719,170.961 382.072,171.799 383.068 C 172.638 384.065,173.778 386.441,174.332 388.348 C 174.887 390.256,175.833 392.508,176.434 393.352 C 177.036 394.197,177.984 396.379,178.541 398.200 C 179.793 402.294,180.314 403.414,182.106 405.858 C 182.884 406.920,183.690 408.850,183.898 410.146 C 184.105 411.443,185.068 413.501,186.037 414.721 C 187.007 415.941,188.127 418.362,188.528 420.101 C 188.928 421.840,189.894 424.215,190.675 425.378 C 191.456 426.541,192.500 428.641,192.994 430.045 C 193.489 431.449,194.705 434.168,195.698 436.087 C 201.874 448.028,202.413 449.581,202.479 455.635 C 202.524 459.829,202.666 460.797,203.018 459.310 C 204.054 454.929,205.593 455.313,206.991 460.303 C 207.521 462.197,208.503 464.518,209.172 465.462 C 209.841 466.406,210.875 468.880,211.470 470.960 C 212.065 473.041,213.259 475.813,214.125 477.120 C 214.990 478.427,216.118 480.913,216.632 482.644 C 217.146 484.375,218.347 487.085,219.301 488.666 C 220.255 490.247,221.370 493.011,221.779 494.809 C 222.188 496.606,223.113 498.947,223.835 500.010 C 224.557 501.074,225.503 503.534,225.938 505.477 C 226.373 507.421,227.384 510.049,228.184 511.316 C 228.984 512.584,230.056 515.251,230.567 517.243 C 231.077 519.234,232.154 522.356,232.961 524.180 C 233.768 526.004,234.865 529.467,235.400 531.875 C 235.935 534.283,236.899 537.169,237.543 538.288 C 238.186 539.407,239.282 542.395,239.977 544.928 C 240.671 547.461,241.993 550.896,242.913 552.561 C 243.833 554.227,244.762 556.845,244.977 558.381 C 245.192 559.916,246.132 562.378,247.066 563.851 C 248.001 565.324,249.108 568.010,249.528 569.820 C 249.947 571.631,251.046 574.335,251.970 575.831 C 252.893 577.326,254.109 580.168,254.671 582.147 C 255.234 584.125,256.201 586.387,256.820 587.174 C 257.439 587.961,258.387 590.149,258.927 592.037 C 259.466 593.924,260.580 596.452,261.400 597.654 C 262.221 598.856,263.177 600.895,263.524 602.186 C 264.141 604.484,265.774 608.115,271.097 619.033 C 272.556 622.024,273.741 624.719,273.732 625.023 C 273.723 625.326,274.509 626.821,275.478 628.346 C 276.447 629.870,277.535 632.236,277.896 633.603 C 278.256 634.970,279.198 637.040,279.987 638.204 C 280.777 639.367,281.768 641.376,282.189 642.667 C 282.610 643.958,283.742 646.168,284.704 647.576 C 285.666 648.985,286.838 651.226,287.307 652.556 C 287.776 653.885,288.844 656.141,289.680 657.567 C 290.516 658.993,291.606 661.311,292.102 662.718 C 292.598 664.125,293.758 666.264,294.679 667.472 C 296.121 669.362,296.397 670.387,296.666 674.844 C 296.955 679.623,297.038 679.891,297.743 678.332 C 298.765 676.070,299.633 676.513,301.000 679.992 C 301.626 681.587,302.812 683.774,303.635 684.853 C 304.458 685.932,305.451 687.742,305.842 688.876 C 306.233 690.009,307.454 692.253,308.555 693.862 C 309.656 695.472,310.832 697.808,311.167 699.053 C 311.503 700.299,312.290 701.783,312.918 702.351 C 313.545 702.918,314.530 704.661,315.107 706.223 C 315.684 707.785,316.892 710.015,317.792 711.178 C 318.692 712.341,320.173 714.789,321.083 716.616 C 324.564 723.609,326.017 726.228,327.016 727.317 C 327.585 727.936,328.637 729.793,329.353 731.442 C 330.069 733.092,331.268 735.121,332.017 735.952 C 332.766 736.782,333.542 738.158,333.742 739.009 C 333.941 739.859,334.791 741.491,335.631 742.634 C 336.471 743.777,337.635 745.496,338.217 746.452 C 338.799 747.408,340.158 749.508,341.236 751.117 C 342.315 752.726,343.628 755.118,344.153 756.431 C 344.679 757.744,345.476 758.960,345.924 759.132 C 346.373 759.304,347.301 760.714,347.987 762.265 C 348.673 763.817,349.985 765.977,350.901 767.065 C 351.818 768.154,353.792 771.278,355.287 774.009 C 356.782 776.740,359.026 780.186,360.272 781.669 C 361.518 783.151,362.538 784.650,362.538 785.001 C 362.538 785.352,363.489 786.935,364.653 788.520 C 365.816 790.104,366.767 791.683,366.767 792.029 C 366.767 792.374,367.701 793.880,368.842 795.375 C 369.984 796.870,371.374 798.998,371.933 800.104 C 372.491 801.210,373.582 802.795,374.357 803.625 C 375.132 804.456,376.332 806.416,377.024 807.981 C 377.716 809.546,378.551 810.993,378.881 811.196 C 379.210 811.399,380.183 812.974,381.043 814.695 C 381.903 816.417,383.326 818.590,384.204 819.525 C 385.774 821.197,385.804 821.388,386.001 831.016 L 386.202 840.808 384.114 843.843 C 382.965 845.513,381.442 848.023,380.729 849.421 C 380.015 850.820,379.169 851.964,378.848 851.964 C 378.527 851.964,377.892 852.847,377.437 853.927 C 376.982 855.008,375.603 857.092,374.371 858.561 C 373.139 860.029,371.758 861.952,371.302 862.834 C 370.846 863.717,370.027 864.808,369.482 865.260 C 368.937 865.712,367.928 867.188,367.238 868.540 C 366.549 869.891,365.316 871.677,364.498 872.508 C 363.680 873.338,362.369 874.970,361.585 876.133 C 359.061 879.878,354.730 886.035,352.872 888.520 C 351.879 889.849,350.268 892.160,349.293 893.656 C 348.318 895.151,346.888 897.165,346.116 898.130 C 345.345 899.096,344.305 900.623,343.807 901.524 C 343.308 902.425,342.139 904.083,341.209 905.207 C 337.477 909.716,334.601 913.788,333.810 915.682 C 333.351 916.780,332.569 917.834,332.071 918.025 C 331.574 918.216,330.475 919.677,329.630 921.271 C 328.785 922.865,327.585 924.849,326.965 925.680 C 324.920 928.415,321.023 934.461,319.934 936.585 C 319.347 937.732,318.088 939.564,317.137 940.655 C 316.186 941.747,315.408 942.994,315.408 943.426 C 315.408 943.859,314.491 945.413,313.370 946.880 C 312.249 948.347,311.168 950.249,310.967 951.108 C 310.766 951.967,309.771 953.715,308.756 954.992 C 307.741 956.269,306.418 958.421,305.817 959.775 C 305.216 961.128,304.095 962.937,303.327 963.795 C 302.559 964.653,301.466 966.544,300.898 967.997 C 299.640 971.215,298.834 971.581,297.714 969.443 C 296.901 967.892,296.844 968.051,296.520 972.789 C 296.225 977.080,295.939 978.066,294.433 979.969 C 293.474 981.183,292.212 983.445,291.630 984.998 C 291.047 986.550,290.205 988.124,289.757 988.496 C 289.309 988.867,288.330 990.724,287.580 992.622 C 286.831 994.520,285.585 996.761,284.813 997.603 C 284.041 998.445,282.867 1000.707,282.206 1002.630 C 281.544 1004.554,280.315 1006.945,279.474 1007.944 C 278.633 1008.943,277.946 1010.294,277.946 1010.947 C 277.946 1012.269,275.864 1016.640,274.972 1017.191 C 274.657 1017.386,273.825 1019.079,273.123 1020.954 C 272.422 1022.829,271.306 1025.124,270.643 1026.055 C 269.980 1026.986,268.910 1029.281,268.265 1031.156 C 267.620 1033.030,266.536 1035.464,265.855 1036.565 C 265.175 1037.666,264.219 1039.912,263.730 1041.557 C 263.242 1043.201,262.287 1045.252,261.609 1046.115 C 260.931 1046.977,259.848 1049.217,259.202 1051.093 C 258.557 1052.968,257.504 1055.359,256.863 1056.405 C 256.221 1057.452,255.225 1059.940,254.650 1061.934 C 254.075 1063.927,252.692 1067.281,251.576 1069.386 C 250.460 1071.490,249.547 1073.683,249.547 1074.259 C 249.547 1074.835,248.459 1077.445,247.130 1080.060 C 245.801 1082.675,244.713 1085.542,244.713 1086.431 C 244.713 1087.320,243.914 1089.544,242.938 1091.373 C 241.962 1093.202,240.718 1096.416,240.175 1098.515 C 239.631 1100.614,238.546 1103.593,237.764 1105.136 C 236.982 1106.679,235.903 1109.640,235.364 1111.717 C 234.826 1113.793,233.745 1116.901,232.961 1118.622 C 232.177 1120.344,231.219 1122.976,230.831 1124.471 C 230.443 1125.967,229.343 1128.718,228.385 1130.584 C 227.427 1132.451,226.325 1135.306,225.936 1136.929 C 225.546 1138.551,224.584 1141.011,223.797 1142.395 C 223.011 1143.778,221.974 1146.593,221.494 1148.650 C 221.015 1150.707,219.945 1153.382,219.117 1154.594 C 218.289 1155.806,217.169 1158.344,216.629 1160.235 C 216.088 1162.125,214.999 1164.626,214.208 1165.791 C 213.417 1166.957,212.295 1169.624,211.714 1171.719 C 211.133 1173.815,210.048 1176.480,209.302 1177.644 C 208.556 1178.807,207.636 1180.939,207.258 1182.382 C 205.515 1189.031,204.134 1189.343,202.823 1183.384 C 202.677 1182.719,202.526 1184.942,202.487 1188.325 C 202.422 1194.039,202.276 1194.745,200.420 1198.306 C 199.321 1200.413,198.065 1203.416,197.627 1204.978 C 197.190 1206.541,196.173 1208.711,195.369 1209.801 C 194.564 1210.891,193.496 1213.191,192.995 1214.912 C 192.494 1216.633,191.552 1218.718,190.902 1219.544 C 190.252 1220.371,189.179 1222.799,188.517 1224.942 C 187.855 1227.084,186.810 1229.486,186.193 1230.279 C 185.577 1231.073,184.595 1233.218,184.011 1235.045 C 183.427 1236.873,182.317 1239.320,181.544 1240.483 C 180.771 1241.647,179.432 1244.490,178.568 1246.803 C 177.705 1249.115,176.635 1251.426,176.190 1251.939 C 175.746 1252.451,174.934 1254.230,174.387 1255.891 C 173.840 1257.553,172.581 1260.109,171.590 1261.571 C 170.599 1263.034,169.789 1264.705,169.789 1265.286 C 169.789 1265.867,168.943 1267.934,167.909 1269.878 C 166.875 1271.823,165.511 1274.896,164.878 1276.708 C 164.245 1278.520,163.212 1280.560,162.582 1281.240 C 161.952 1281.921,160.878 1284.195,160.194 1286.295 C 159.510 1288.394,158.273 1290.917,157.445 1291.902 C 156.617 1292.886,155.757 1294.703,155.534 1295.939 C 155.064 1298.542,154.351 1300.117,152.876 1301.813 C 152.298 1302.477,151.419 1304.245,150.923 1305.740 C 150.426 1307.236,149.166 1309.804,148.122 1311.448 C 147.078 1313.091,146.224 1314.723,146.224 1315.073 C 146.224 1315.689,141.541 1325.626,139.802 1328.701 C 138.654 1330.730,132.809 1342.861,131.430 1346.076 C 130.823 1347.490,129.971 1348.943,129.537 1349.303 C 129.102 1349.664,128.187 1351.456,127.502 1353.285 C 126.818 1355.114,125.561 1357.524,124.710 1358.640 C 123.858 1359.757,122.777 1361.945,122.309 1363.502 C 121.840 1365.059,121.115 1366.730,120.698 1367.215 C 119.971 1368.060,118.498 1370.828,113.370 1380.979 C 111.209 1385.257,110.956 1385.535,110.047 1384.626 C 108.572 1383.151,108.221 265.303,109.695 261.775 C 110.804 259.121,111.283 259.571,112.758 264.653 " stroke="none" fill="#f80404" fill-rule="evenodd"></path><path id="path2" d="M21.902 23.992 C 19.862 24.384,19.439 25.721,18.765 33.905 C 18.426 38.022,17.744 46.148,17.249 51.964 C 14.782 80.968,14.804 77.730,14.804 424.169 C 14.804 765.868,14.903 783.366,17.223 851.662 C 17.709 865.952,18.384 892.734,18.723 911.178 C 19.354 945.469,20.123 966.520,21.196 978.852 C 21.814 985.967,22.483 997.981,23.565 1021.450 C 24.285 1037.080,25.051 1045.842,26.599 1056.193 C 27.221 1060.347,28.030 1068.097,28.398 1073.414 C 29.111 1083.732,29.580 1087.397,31.418 1097.038 C 32.058 1100.394,32.863 1106.607,33.207 1110.846 C 33.565 1115.256,34.476 1120.917,35.337 1124.080 C 36.164 1127.120,37.257 1133.414,37.767 1138.066 C 38.276 1142.719,39.377 1148.922,40.214 1151.851 C 41.074 1154.860,42.119 1160.994,42.618 1165.953 C 43.103 1170.781,44.177 1178.445,45.004 1182.984 C 45.832 1187.524,46.779 1195.317,47.108 1200.302 C 47.438 1205.287,48.120 1214.396,48.625 1220.544 C 49.957 1236.785,50.628 1246.493,51.361 1260.121 C 52.214 1275.982,52.944 1283.522,54.372 1291.239 C 55.018 1294.728,55.975 1301.852,56.499 1307.070 C 57.022 1312.287,58.110 1319.092,58.915 1322.192 C 59.721 1325.291,60.795 1331.381,61.303 1335.724 C 61.817 1340.124,62.910 1345.719,63.771 1348.356 C 64.625 1350.972,65.601 1355.948,65.952 1359.476 C 66.301 1362.988,67.263 1368.151,68.089 1370.951 C 68.915 1373.750,70.096 1379.324,70.713 1383.338 C 71.329 1387.351,72.422 1391.961,73.140 1393.582 C 73.858 1395.203,74.825 1398.704,75.289 1401.361 C 75.753 1404.019,77.066 1408.538,78.207 1411.405 C 79.349 1414.271,80.469 1417.377,80.697 1418.306 C 81.368 1421.040,86.950 1424.985,88.519 1423.835 C 89.184 1423.347,90.351 1422.682,91.113 1422.356 C 91.874 1422.030,92.962 1420.905,93.529 1419.856 C 94.097 1418.807,95.302 1417.078,96.206 1416.014 C 97.110 1414.951,98.397 1412.803,99.066 1411.242 C 99.735 1409.681,100.924 1407.532,101.707 1406.468 C 102.490 1405.403,103.495 1403.580,103.941 1402.417 C 104.386 1401.254,105.518 1399.408,106.455 1398.316 L 108.159 1396.330 108.007 826.671 L 107.855 257.011 106.243 254.575 C 105.356 253.235,104.203 250.698,103.680 248.938 C 103.157 247.177,102.197 244.834,101.547 243.732 C 100.896 242.629,99.775 239.748,99.056 237.329 C 98.336 234.910,97.205 232.167,96.541 231.233 C 95.878 230.299,94.934 227.988,94.444 226.097 C 93.954 224.206,92.750 221.247,91.768 219.522 C 90.785 217.796,89.620 214.669,89.177 212.573 C 88.735 210.477,87.814 207.810,87.131 206.647 C 86.448 205.483,85.441 202.764,84.893 200.604 C 84.345 198.444,83.234 195.481,82.424 194.019 C 81.614 192.557,80.541 189.592,80.040 187.431 C 79.539 185.269,78.574 182.250,77.896 180.723 C 77.218 179.195,76.136 175.691,75.491 172.936 C 74.847 170.181,73.735 166.782,73.020 165.383 C 72.306 163.984,71.235 160.618,70.640 157.903 C 70.046 155.188,68.956 151.789,68.218 150.350 C 67.480 148.911,66.520 145.361,66.086 142.461 C 65.651 139.561,64.716 136.051,64.007 134.661 C 63.297 133.271,62.194 129.526,61.553 126.339 C 60.913 123.152,59.621 118.505,58.681 116.012 C 57.741 113.520,56.623 109.035,56.196 106.046 C 55.769 103.058,54.914 99.432,54.295 97.988 C 53.677 96.545,52.618 92.233,51.944 88.406 C 51.269 84.579,50.185 80.404,49.534 79.129 C 48.883 77.853,47.928 74.278,47.411 71.184 C 46.895 68.090,45.796 63.343,44.971 60.634 C 44.145 57.926,43.086 53.532,42.618 50.870 C 42.150 48.208,41.086 44.685,40.252 43.040 C 39.419 41.395,38.306 38.193,37.780 35.925 C 36.932 32.268,35.554 29.489,32.325 24.924 C 31.368 23.572,26.394 23.127,21.902 23.992 M203.515 457.516 C 202.302 459.643,202.335 1183.077,203.548 1185.952 C 204.841 1189.018,205.747 1188.147,207.258 1182.382 C 207.636 1180.939,208.556 1178.807,209.302 1177.644 C 210.048 1176.480,211.133 1173.815,211.714 1171.719 C 212.295 1169.624,213.417 1166.957,214.208 1165.791 C 214.999 1164.626,216.088 1162.125,216.629 1160.235 C 217.169 1158.344,218.289 1155.806,219.117 1154.594 C 219.945 1153.382,221.015 1150.707,221.494 1148.650 C 221.974 1146.593,223.011 1143.778,223.797 1142.395 C 224.584 1141.011,225.546 1138.551,225.936 1136.929 C 226.325 1135.306,227.427 1132.451,228.385 1130.584 C 229.343 1128.718,230.443 1125.967,230.831 1124.471 C 231.219 1122.976,232.177 1120.344,232.961 1118.622 C 233.745 1116.901,234.826 1113.793,235.364 1111.717 C 235.903 1109.640,236.982 1106.679,237.764 1105.136 C 238.546 1103.593,239.631 1100.614,240.175 1098.515 C 240.718 1096.416,241.962 1093.202,242.938 1091.373 C 243.914 1089.544,244.713 1087.320,244.713 1086.431 C 244.713 1085.542,245.801 1082.675,247.130 1080.060 C 248.459 1077.445,249.547 1074.835,249.547 1074.259 C 249.547 1073.683,250.460 1071.490,251.576 1069.386 C 252.692 1067.281,254.075 1063.927,254.650 1061.934 C 255.225 1059.940,256.221 1057.452,256.863 1056.405 C 257.504 1055.359,258.557 1052.968,259.202 1051.093 C 259.848 1049.217,260.931 1046.977,261.609 1046.115 C 262.287 1045.252,263.242 1043.201,263.730 1041.557 C 264.219 1039.912,265.175 1037.666,265.855 1036.565 C 266.536 1035.464,267.620 1033.030,268.265 1031.156 C 268.910 1029.281,269.980 1026.986,270.643 1026.055 C 271.306 1025.124,272.422 1022.829,273.123 1020.954 C 273.825 1019.079,274.657 1017.386,274.972 1017.191 C 275.864 1016.640,277.946 1012.269,277.946 1010.947 C 277.946 1010.294,278.633 1008.943,279.474 1007.944 C 280.315 1006.945,281.544 1004.554,282.206 1002.630 C 282.867 1000.707,284.041 998.445,284.813 997.603 C 285.585 996.761,286.831 994.520,287.580 992.622 C 288.330 990.724,289.309 988.867,289.757 988.496 C 290.205 988.124,291.047 986.550,291.630 984.998 C 292.212 983.445,293.518 981.128,294.531 979.847 L 296.375 977.519 296.375 823.607 L 296.375 669.694 294.690 667.485 C 293.763 666.270,292.598 664.125,292.102 662.718 C 291.606 661.311,290.516 658.993,289.680 657.567 C 288.844 656.141,287.776 653.885,287.307 652.556 C 286.838 651.226,285.666 648.985,284.704 647.576 C 283.742 646.168,282.610 643.958,282.189 642.667 C 281.768 641.376,280.777 639.367,279.987 638.204 C 279.198 637.040,278.256 634.970,277.896 633.603 C 277.535 632.236,276.447 629.870,275.478 628.346 C 274.509 626.821,273.723 625.326,273.732 625.023 C 273.741 624.719,272.556 622.024,271.097 619.033 C 265.774 608.115,264.141 604.484,263.524 602.186 C 263.177 600.895,262.221 598.856,261.400 597.654 C 260.580 596.452,259.466 593.924,258.927 592.037 C 258.387 590.149,257.439 587.961,256.820 587.174 C 256.201 586.387,255.234 584.125,254.671 582.147 C 254.109 580.168,252.893 577.326,251.970 575.831 C 251.046 574.335,249.947 571.631,249.528 569.820 C 249.108 568.010,248.001 565.324,247.066 563.851 C 246.132 562.378,245.192 559.916,244.977 558.381 C 244.762 556.845,243.833 554.227,242.913 552.561 C 241.993 550.896,240.671 547.461,239.977 544.928 C 239.282 542.395,238.186 539.407,237.543 538.288 C 236.899 537.169,235.935 534.283,235.400 531.875 C 234.865 529.467,233.768 526.004,232.961 524.180 C 232.154 522.356,231.077 519.234,230.567 517.243 C 230.056 515.251,228.984 512.584,228.184 511.316 C 227.384 510.049,226.373 507.421,225.938 505.477 C 225.503 503.534,224.557 501.074,223.835 500.010 C 223.113 498.947,222.188 496.606,221.779 494.809 C 221.370 493.011,220.255 490.247,219.301 488.666 C 218.347 487.085,217.146 484.375,216.632 482.644 C 216.118 480.913,214.990 478.427,214.125 477.120 C 213.259 475.813,212.047 472.979,211.431 470.824 C 210.814 468.668,209.891 466.442,209.379 465.876 C 208.867 465.310,207.839 462.985,207.094 460.710 C 205.610 456.175,204.729 455.388,203.515 457.516 " stroke="none" fill="#040404" fill-rule="evenodd"></path></g></svg>