<svg id="svg" version="1.1" xmlns="http://www.w3.org/2000/svg" xmlns:xlink="http://www.w3.org/1999/xlink" width="400" height="556.7398119122257" viewBox="0, 0, 400,556.7398119122257"><g id="svgg"><path id="path0" d="M238.643 20.290 C 238.288 20.645,238.345 348.401,238.700 348.397 C 239.292 348.390,262.000 325.338,262.000 324.743 C 262.000 324.409,265.420 320.706,269.600 316.514 L 277.200 308.894 277.200 186.142 L 277.200 63.391 270.800 57.000 C 267.280 53.485,264.400 50.329,264.400 49.985 C 264.400 49.642,262.780 47.727,260.800 45.730 C 258.820 43.733,257.200 41.842,257.200 41.528 C 257.200 41.214,256.570 40.346,255.800 39.600 C 255.030 38.854,254.400 37.915,254.400 37.515 C 254.400 37.114,253.590 36.010,252.600 35.062 C 251.610 34.113,250.800 33.034,250.800 32.662 C 250.800 31.901,239.021 19.912,238.643 20.290 M197.500 40.188 C 197.115 40.717,196.800 41.395,196.800 41.694 C 196.800 41.993,196.268 42.679,195.617 43.219 C 194.966 43.758,194.426 44.566,194.417 45.013 C 194.408 45.460,193.322 46.892,192.000 48.200 C 190.680 49.506,189.600 50.857,189.600 51.203 C 189.600 51.548,188.700 52.717,187.600 53.800 C 186.500 54.883,185.600 56.079,185.600 56.457 C 185.600 56.834,184.520 58.173,183.200 59.433 C 181.880 60.692,180.800 62.044,180.800 62.437 C 180.800 62.830,179.630 64.310,178.200 65.726 C 176.770 67.142,175.600 68.603,175.600 68.973 C 175.600 69.342,174.520 70.704,173.200 72.000 C 171.880 73.296,170.800 74.642,170.800 74.992 C 170.800 75.341,169.630 76.792,168.200 78.215 C 166.770 79.638,165.600 81.086,165.600 81.434 C 165.600 81.781,164.430 83.253,163.000 84.704 L 160.400 87.343 160.400 265.848 C 160.400 388.581,160.530 444.433,160.814 444.609 C 161.342 444.935,164.400 441.906,164.400 441.058 C 164.400 440.707,165.210 439.611,166.200 438.621 C 167.190 437.631,168.000 436.515,168.000 436.142 C 168.000 435.768,168.810 434.687,169.800 433.738 C 170.790 432.790,171.600 431.685,171.600 431.283 C 171.600 430.881,172.770 429.444,174.200 428.090 C 175.630 426.736,176.805 425.306,176.811 424.914 C 176.818 424.521,177.987 423.030,179.410 421.600 C 180.833 420.170,181.998 418.724,181.999 418.387 C 181.999 418.051,183.080 416.706,184.400 415.400 C 185.720 414.094,186.800 412.745,186.800 412.403 C 186.800 412.061,188.240 410.350,190.000 408.600 C 191.760 406.850,193.200 405.125,193.200 404.766 C 193.200 404.407,194.550 402.791,196.200 401.174 L 199.200 398.233 199.200 218.717 C 199.200 75.363,199.099 39.203,198.700 39.213 C 198.425 39.219,197.885 39.658,197.500 40.188 M316.252 105.482 C 315.831 105.902,315.956 265.126,316.377 265.386 C 316.900 265.709,319.600 262.933,319.600 262.073 C 319.600 261.687,321.580 259.445,324.000 257.090 C 326.420 254.734,328.401 252.491,328.402 252.104 C 328.402 251.717,332.632 247.183,337.802 242.029 C 342.971 236.876,347.200 232.372,347.200 232.022 C 347.200 231.671,348.910 229.681,351.000 227.600 L 354.800 223.816 354.800 185.509 L 354.800 147.202 348.000 140.412 C 344.260 136.677,341.200 133.329,341.200 132.971 C 341.200 132.614,338.050 129.174,334.200 125.327 C 330.350 121.480,327.200 118.064,327.200 117.735 C 327.200 117.407,325.490 115.414,323.400 113.307 C 321.310 111.200,319.600 109.181,319.600 108.821 C 319.600 108.065,316.630 105.104,316.252 105.482 M123.067 144.667 C 122.920 144.813,122.800 145.230,122.800 145.592 C 122.800 145.954,122.260 146.768,121.600 147.400 C 120.940 148.032,120.400 148.842,120.400 149.200 C 120.400 149.558,119.860 150.368,119.200 151.000 C 118.540 151.632,118.000 152.442,118.000 152.800 C 118.000 153.158,117.460 153.968,116.800 154.600 C 116.140 155.232,115.600 156.072,115.600 156.465 C 115.600 156.859,114.970 157.754,114.200 158.455 C 113.430 159.155,112.792 160.105,112.783 160.564 C 112.774 161.024,112.234 161.842,111.583 162.381 C 110.932 162.921,110.400 163.739,110.400 164.200 C 110.400 164.661,109.868 165.479,109.217 166.019 C 108.566 166.558,108.026 167.368,108.017 167.819 C 108.008 168.269,107.468 169.079,106.817 169.619 C 106.166 170.158,105.626 170.986,105.617 171.459 C 105.608 171.931,104.970 172.870,104.200 173.546 C 103.430 174.222,102.800 175.119,102.800 175.539 C 102.800 175.959,102.530 176.526,102.200 176.800 C 101.870 177.074,101.600 177.602,101.600 177.974 C 101.600 178.346,101.060 179.168,100.400 179.800 C 99.740 180.432,99.200 181.254,99.200 181.626 C 99.200 181.998,98.930 182.526,98.600 182.800 C 98.254 183.087,98.000 183.960,98.000 184.862 C 98.000 185.882,97.792 186.505,97.400 186.655 C 97.015 186.803,96.800 187.421,96.800 188.381 C 96.800 189.368,96.528 190.122,96.000 190.600 C 95.515 191.039,95.200 191.832,95.200 192.613 C 95.200 193.322,94.930 194.126,94.600 194.400 C 94.270 194.674,94.000 195.202,94.000 195.574 C 94.000 195.946,93.460 196.768,92.800 197.400 C 92.140 198.032,91.600 198.853,91.600 199.225 C 91.600 199.596,90.790 200.684,89.800 201.644 C 88.810 202.603,88.000 203.697,88.000 204.075 C 88.000 204.452,87.370 205.373,86.600 206.121 L 85.200 207.481 85.200 375.157 L 85.200 542.832 86.075 544.016 C 86.612 544.742,87.313 545.200,87.888 545.200 C 88.403 545.200,88.929 545.470,89.055 545.800 C 89.849 547.867,98.000 542.568,98.000 539.985 C 98.000 539.636,98.540 538.832,99.200 538.200 C 99.860 537.568,100.400 536.758,100.400 536.400 C 100.400 536.042,100.940 535.232,101.600 534.600 C 102.260 533.968,102.800 533.053,102.800 532.568 C 102.800 532.083,103.070 531.582,103.400 531.455 C 103.730 531.329,104.000 530.812,104.000 530.308 C 104.000 529.776,104.504 528.975,105.200 528.400 C 105.885 527.834,106.400 527.022,106.400 526.508 C 106.400 526.012,106.760 525.382,107.200 525.107 C 107.640 524.832,108.005 524.246,108.011 523.804 C 108.017 523.362,108.557 522.475,109.211 521.833 C 109.865 521.192,110.400 520.359,110.400 519.982 C 110.400 519.606,110.670 519.074,111.000 518.800 C 111.330 518.526,111.600 517.998,111.600 517.626 C 111.600 517.254,112.140 516.432,112.800 515.800 C 113.460 515.168,114.000 514.346,114.000 513.974 C 114.000 513.602,114.270 513.074,114.600 512.800 C 114.930 512.526,115.200 511.968,115.200 511.561 C 115.200 511.153,115.830 510.246,116.600 509.545 C 117.370 508.845,118.008 507.895,118.017 507.436 C 118.026 506.976,118.566 506.158,119.217 505.619 C 119.908 505.046,120.400 504.250,120.400 503.706 C 120.400 503.194,120.670 502.671,121.000 502.545 C 121.330 502.418,121.600 501.920,121.600 501.438 C 121.600 500.956,122.131 500.122,122.783 499.581 L 123.966 498.600 123.983 321.500 C 123.992 224.095,123.850 144.400,123.667 144.400 C 123.483 144.400,123.213 144.520,123.067 144.667 M46.667 282.267 C 46.520 282.413,46.400 283.204,46.400 284.024 C 46.400 284.980,46.185 285.597,45.800 285.745 C 45.470 285.871,45.200 286.436,45.200 287.000 C 45.200 287.564,44.930 288.129,44.600 288.255 C 44.270 288.382,44.000 288.922,44.000 289.455 C 44.000 289.989,43.730 290.529,43.400 290.655 C 43.013 290.804,42.800 291.422,42.800 292.394 C 42.800 293.246,42.539 294.118,42.200 294.400 C 41.870 294.674,41.600 295.214,41.600 295.600 C 41.600 295.986,41.330 296.526,41.000 296.800 C 40.670 297.074,40.400 297.638,40.400 298.053 C 40.400 298.468,40.040 299.116,39.600 299.493 C 39.160 299.870,38.800 300.569,38.800 301.046 C 38.800 301.524,38.530 302.018,38.200 302.145 C 37.870 302.271,37.600 302.811,37.600 303.345 C 37.600 303.878,37.330 304.418,37.000 304.545 C 36.670 304.671,36.400 305.236,36.400 305.800 C 36.400 306.364,36.130 306.929,35.800 307.055 C 35.470 307.182,35.200 307.722,35.200 308.255 C 35.200 308.789,34.930 309.329,34.600 309.455 C 34.213 309.604,34.000 310.222,34.000 311.194 C 34.000 312.046,33.739 312.918,33.400 313.200 C 33.070 313.474,32.800 314.014,32.800 314.400 C 32.800 314.786,32.530 315.326,32.200 315.600 C 31.870 315.874,31.600 316.438,31.600 316.853 C 31.600 317.268,31.240 317.916,30.800 318.293 C 30.360 318.670,30.000 319.369,30.000 319.846 C 30.000 320.324,29.730 320.818,29.400 320.945 C 29.070 321.071,28.800 321.611,28.800 322.145 C 28.800 322.678,28.530 323.218,28.200 323.345 C 27.803 323.497,27.600 324.124,27.600 325.200 C 27.600 326.276,27.397 326.903,27.000 327.055 C 26.670 327.182,26.400 327.694,26.400 328.194 C 26.400 328.693,26.130 329.326,25.800 329.600 C 25.470 329.874,25.200 330.414,25.200 330.800 C 25.200 331.186,24.930 331.726,24.600 332.000 C 24.270 332.274,24.000 332.814,24.000 333.200 C 24.000 333.586,23.730 334.126,23.400 334.400 C 23.057 334.685,22.800 335.557,22.800 336.435 C 22.800 337.562,22.587 338.086,22.000 338.400 C 21.550 338.641,21.200 339.238,21.200 339.765 C 21.200 340.280,20.930 340.926,20.600 341.200 C 20.270 341.474,20.000 342.284,20.000 343.000 C 20.000 343.716,19.730 344.526,19.400 344.800 C 19.070 345.074,18.800 345.614,18.800 346.000 C 18.800 346.386,18.530 346.926,18.200 347.200 C 17.870 347.474,17.600 348.284,17.600 349.000 C 17.600 349.716,17.330 350.526,17.000 350.800 C 16.654 351.087,16.400 351.960,16.400 352.862 C 16.400 353.882,16.192 354.505,15.800 354.655 C 15.470 354.782,15.200 355.322,15.200 355.855 C 15.200 356.389,14.930 356.929,14.600 357.055 C 14.213 357.204,14.000 357.822,14.000 358.794 C 14.000 359.646,13.739 360.518,13.400 360.800 C 13.070 361.074,12.800 361.878,12.800 362.587 C 12.800 363.368,12.485 364.161,12.000 364.600 C 11.472 365.078,11.200 365.832,11.200 366.819 C 11.200 367.779,10.985 368.397,10.600 368.545 C 10.203 368.697,10.000 369.324,10.000 370.400 C 10.000 371.476,9.797 372.103,9.400 372.255 C 8.908 372.444,8.800 373.451,8.800 377.855 C 8.800 382.259,8.908 383.267,9.400 383.455 C 9.730 383.582,10.000 384.094,10.000 384.594 C 10.000 385.093,10.270 385.726,10.600 386.000 C 10.930 386.274,11.200 387.078,11.200 387.787 C 11.200 388.568,11.515 389.361,12.000 389.800 C 12.440 390.198,12.800 390.834,12.800 391.213 C 12.800 391.592,13.070 392.126,13.400 392.400 C 13.730 392.674,14.000 393.307,14.000 393.806 C 14.000 394.306,14.270 394.818,14.600 394.945 C 14.992 395.095,15.200 395.718,15.200 396.745 C 15.200 397.771,15.408 398.394,15.800 398.545 C 16.130 398.671,16.400 399.209,16.400 399.738 C 16.400 400.268,16.670 400.926,17.000 401.200 C 17.330 401.474,17.600 402.014,17.600 402.400 C 17.600 402.786,17.870 403.326,18.200 403.600 C 18.530 403.874,18.800 404.684,18.800 405.400 C 18.800 406.116,19.070 406.926,19.400 407.200 C 19.730 407.474,20.000 408.014,20.000 408.400 C 20.000 408.786,20.270 409.326,20.600 409.600 C 20.930 409.874,21.200 410.520,21.200 411.035 C 21.200 411.562,21.550 412.159,22.000 412.400 C 22.453 412.642,22.800 413.238,22.800 413.771 C 22.800 414.290,23.070 414.818,23.400 414.945 C 23.730 415.071,24.000 415.553,24.000 416.016 C 24.000 416.479,24.270 417.127,24.600 417.457 C 24.930 417.787,25.200 418.410,25.200 418.841 C 25.200 419.272,25.470 419.729,25.800 419.855 C 26.130 419.982,26.400 420.494,26.400 420.994 C 26.400 421.493,26.670 422.126,27.000 422.400 C 27.330 422.674,27.600 423.484,27.600 424.200 C 27.600 424.916,27.870 425.726,28.200 426.000 C 28.530 426.274,28.800 426.907,28.800 427.406 C 28.800 427.906,29.070 428.418,29.400 428.545 C 29.730 428.671,30.000 429.224,30.000 429.773 C 30.000 430.362,30.328 430.947,30.800 431.200 C 31.253 431.442,31.600 432.038,31.600 432.571 C 31.600 433.090,31.870 433.618,32.200 433.745 C 32.530 433.871,32.800 434.409,32.800 434.938 C 32.800 435.468,33.070 436.126,33.400 436.400 C 33.730 436.674,34.000 437.242,34.000 437.662 C 34.000 438.081,34.270 438.529,34.600 438.655 C 34.930 438.782,35.200 439.294,35.200 439.794 C 35.200 440.293,35.470 440.926,35.800 441.200 C 36.130 441.474,36.400 442.014,36.400 442.400 C 36.400 442.786,36.670 443.326,37.000 443.600 C 37.339 443.882,37.600 444.754,37.600 445.606 C 37.600 446.578,37.813 447.196,38.200 447.345 C 38.530 447.471,38.800 448.024,38.800 448.573 C 38.800 449.162,39.128 449.747,39.600 450.000 C 40.040 450.235,40.400 450.795,40.400 451.243 C 40.400 451.691,40.670 452.327,41.000 452.657 C 41.330 452.987,41.600 453.582,41.600 453.980 C 41.600 454.377,41.870 454.926,42.200 455.200 C 42.530 455.474,42.800 456.284,42.800 457.000 C 42.800 457.716,43.070 458.526,43.400 458.800 C 43.730 459.074,44.000 459.614,44.000 460.000 C 44.000 460.386,44.270 460.926,44.600 461.200 C 44.930 461.474,45.200 462.107,45.200 462.606 C 45.200 463.106,45.459 463.614,45.776 463.735 C 46.123 463.869,46.401 464.641,46.476 465.678 C 46.544 466.625,46.780 467.400,47.000 467.400 C 47.265 467.400,47.434 436.166,47.501 374.700 C 47.556 323.715,47.451 282.000,47.268 282.000 C 47.084 282.000,46.813 282.120,46.667 282.267 " stroke="none" fill="#fcfcfc" fill-rule="evenodd"></path><path id="path1" d="M221.345 2.600 C 221.188 3.007,220.550 3.200,219.357 3.200 C 218.062 3.200,217.600 3.358,217.600 3.800 C 217.600 4.130,217.330 4.400,217.000 4.400 C 216.670 4.400,216.400 4.670,216.400 5.000 C 216.400 5.330,216.130 5.600,215.800 5.600 C 215.470 5.600,215.200 5.870,215.200 6.200 C 215.200 6.530,214.930 6.800,214.600 6.800 C 214.267 6.800,214.000 7.156,214.000 7.600 C 214.000 8.044,213.733 8.400,213.400 8.400 C 213.070 8.400,212.800 8.670,212.800 9.000 C 212.800 9.333,212.444 9.600,212.000 9.600 C 211.556 9.600,211.200 9.867,211.200 10.200 C 211.200 10.530,210.930 10.800,210.600 10.800 C 210.270 10.800,210.000 11.070,210.000 11.400 C 210.000 11.730,209.730 12.000,209.400 12.000 C 209.070 12.000,208.800 12.270,208.800 12.600 C 208.800 12.930,208.530 13.200,208.200 13.200 C 207.870 13.200,207.600 13.470,207.600 13.800 C 207.600 14.130,207.330 14.400,207.000 14.400 C 206.600 14.400,206.400 14.800,206.400 15.600 C 206.400 16.400,206.200 16.800,205.800 16.800 C 205.467 16.800,205.200 17.156,205.200 17.600 C 205.200 18.044,204.933 18.400,204.600 18.400 C 204.270 18.400,204.000 18.670,204.000 19.000 C 204.000 19.333,203.644 19.600,203.200 19.600 C 202.760 19.600,202.400 19.851,202.400 20.157 C 202.400 20.464,202.130 20.818,201.800 20.945 C 201.470 21.071,201.200 21.631,201.200 22.187 C 201.200 22.821,200.975 23.200,200.600 23.200 C 200.270 23.200,200.000 23.470,200.000 23.800 C 200.000 24.130,199.730 24.400,199.400 24.400 C 199.070 24.400,198.800 24.651,198.800 24.957 C 198.800 25.264,198.530 25.618,198.200 25.745 C 197.849 25.879,197.600 26.479,197.600 27.187 C 197.600 27.999,197.401 28.400,197.000 28.400 C 196.670 28.400,196.400 28.670,196.400 29.000 C 196.400 29.330,196.130 29.600,195.800 29.600 C 195.470 29.600,195.200 29.870,195.200 30.200 C 195.200 30.530,194.930 30.800,194.600 30.800 C 194.270 30.800,194.000 31.070,194.000 31.400 C 194.000 31.733,193.644 32.000,193.200 32.000 C 192.756 32.000,192.400 32.267,192.400 32.600 C 192.400 32.930,192.130 33.200,191.800 33.200 C 191.470 33.200,191.200 33.470,191.200 33.800 C 191.200 34.130,190.930 34.400,190.600 34.400 C 190.270 34.400,190.000 34.651,190.000 34.957 C 190.000 35.264,189.730 35.618,189.400 35.745 C 189.049 35.879,188.800 36.479,188.800 37.187 C 188.800 37.999,188.601 38.400,188.200 38.400 C 187.870 38.400,187.600 38.670,187.600 39.000 C 187.600 39.330,187.330 39.600,187.000 39.600 C 186.600 39.600,186.400 40.000,186.400 40.800 C 186.400 41.600,186.200 42.000,185.800 42.000 C 185.470 42.000,185.200 42.270,185.200 42.600 C 185.200 42.933,184.844 43.200,184.400 43.200 C 183.960 43.200,183.600 43.451,183.600 43.757 C 183.600 44.064,183.330 44.418,183.000 44.545 C 182.670 44.671,182.400 45.051,182.400 45.387 C 182.400 45.724,182.130 46.000,181.800 46.000 C 181.400 46.000,181.200 46.400,181.200 47.200 C 181.200 48.000,181.000 48.400,180.600 48.400 C 180.270 48.400,180.000 48.670,180.000 49.000 C 180.000 49.330,179.730 49.600,179.400 49.600 C 179.070 49.600,178.800 49.870,178.800 50.200 C 178.800 50.530,178.530 50.800,178.200 50.800 C 177.800 50.800,177.600 51.200,177.600 52.000 C 177.600 52.800,177.400 53.200,177.000 53.200 C 176.670 53.200,176.400 53.470,176.400 53.800 C 176.400 54.130,176.113 54.400,175.763 54.400 C 175.412 54.400,175.031 54.760,174.916 55.200 C 174.801 55.640,174.458 56.000,174.153 56.000 C 173.849 56.000,173.600 56.270,173.600 56.600 C 173.600 56.930,173.330 57.200,173.000 57.200 C 172.600 57.200,172.400 57.600,172.400 58.400 C 172.400 59.200,172.200 59.600,171.800 59.600 C 171.470 59.600,171.200 59.870,171.200 60.200 C 171.200 60.530,170.930 60.800,170.600 60.800 C 170.270 60.800,170.000 61.070,170.000 61.400 C 170.000 61.730,169.730 62.000,169.400 62.000 C 169.070 62.000,168.800 62.270,168.800 62.600 C 168.800 62.930,168.530 63.200,168.200 63.200 C 167.781 63.200,167.600 63.622,167.600 64.600 C 167.600 65.578,167.419 66.000,167.000 66.000 C 166.670 66.000,166.400 66.270,166.400 66.600 C 166.400 66.933,166.044 67.200,165.600 67.200 C 165.156 67.200,164.800 67.467,164.800 67.800 C 164.800 68.130,164.530 68.400,164.200 68.400 C 163.870 68.400,163.600 68.670,163.600 69.000 C 163.600 69.330,163.330 69.600,163.000 69.600 C 162.600 69.600,162.400 70.000,162.400 70.800 C 162.400 71.600,162.200 72.000,161.800 72.000 C 161.470 72.000,161.200 72.270,161.200 72.600 C 161.200 72.930,160.930 73.200,160.600 73.200 C 160.267 73.200,160.000 73.556,160.000 74.000 C 160.000 74.444,159.733 74.800,159.400 74.800 C 159.070 74.800,158.800 75.070,158.800 75.400 C 158.800 75.730,158.530 76.000,158.200 76.000 C 157.800 76.000,157.600 76.400,157.600 77.200 C 157.600 78.133,157.422 78.400,156.800 78.400 C 156.356 78.400,156.000 78.667,156.000 79.000 C 156.000 79.330,155.730 79.600,155.400 79.600 C 155.070 79.600,154.800 79.870,154.800 80.200 C 154.800 80.530,154.530 80.800,154.200 80.800 C 153.870 80.800,153.600 81.051,153.600 81.357 C 153.600 81.664,153.330 82.018,153.000 82.145 C 152.589 82.302,152.400 82.945,152.400 84.187 C 152.400 85.532,152.245 86.000,151.800 86.000 C 151.470 86.000,151.200 86.270,151.200 86.600 C 151.200 86.930,150.930 87.200,150.600 87.200 C 150.200 87.200,150.000 87.600,150.000 88.400 C 150.000 89.200,149.800 89.600,149.400 89.600 C 149.070 89.600,148.800 89.870,148.800 90.200 C 148.800 90.530,148.530 90.800,148.200 90.800 C 147.870 90.800,147.600 91.027,147.600 91.304 C 147.600 91.581,147.240 92.032,146.800 92.307 C 146.348 92.590,146.000 93.240,146.000 93.803 C 146.000 94.423,145.773 94.800,145.400 94.800 C 145.070 94.800,144.800 95.051,144.800 95.357 C 144.800 95.664,144.530 96.018,144.200 96.145 C 143.870 96.271,143.600 96.831,143.600 97.387 C 143.600 98.021,143.375 98.400,143.000 98.400 C 142.600 98.400,142.400 98.800,142.400 99.600 C 142.400 100.400,142.200 100.800,141.800 100.800 C 141.467 100.800,141.200 101.156,141.200 101.600 C 141.200 102.044,140.933 102.400,140.600 102.400 C 140.200 102.400,140.000 102.800,140.000 103.600 C 140.000 104.400,139.800 104.800,139.400 104.800 C 139.000 104.800,138.800 105.200,138.800 106.000 C 138.800 106.933,138.622 107.200,138.000 107.200 C 137.560 107.200,137.200 107.451,137.200 107.757 C 137.200 108.064,136.930 108.418,136.600 108.545 C 136.270 108.671,136.000 109.211,136.000 109.745 C 136.000 110.278,135.730 110.818,135.400 110.945 C 135.049 111.079,134.800 111.679,134.800 112.387 C 134.800 113.199,134.601 113.600,134.200 113.600 C 133.870 113.600,133.600 113.870,133.600 114.200 C 133.600 114.530,133.330 114.800,133.000 114.800 C 132.600 114.800,132.400 115.200,132.400 116.000 C 132.400 116.800,132.200 117.200,131.800 117.200 C 131.470 117.200,131.200 117.470,131.200 117.800 C 131.200 118.130,130.930 118.400,130.600 118.400 C 130.181 118.400,130.000 118.822,130.000 119.800 C 130.000 120.778,129.819 121.200,129.400 121.200 C 129.000 121.200,128.800 121.600,128.800 122.400 C 128.800 123.333,128.622 123.600,128.000 123.600 C 127.556 123.600,127.200 123.867,127.200 124.200 C 127.200 124.530,126.930 124.800,126.600 124.800 C 126.200 124.800,126.000 125.200,126.000 126.000 C 126.000 126.800,125.800 127.200,125.400 127.200 C 125.070 127.200,124.800 127.451,124.800 127.757 C 124.800 128.064,124.530 128.418,124.200 128.545 C 123.849 128.679,123.600 129.279,123.600 129.987 C 123.600 130.799,123.401 131.200,123.000 131.200 C 122.670 131.200,122.400 131.470,122.400 131.800 C 122.400 132.130,122.130 132.400,121.800 132.400 C 121.400 132.400,121.200 132.800,121.200 133.600 C 121.200 134.400,121.000 134.800,120.600 134.800 C 120.270 134.800,120.000 135.070,120.000 135.400 C 120.000 135.730,119.724 136.000,119.387 136.000 C 119.051 136.000,118.671 136.270,118.545 136.600 C 118.418 136.930,118.064 137.200,117.757 137.200 C 117.451 137.200,117.200 137.470,117.200 137.800 C 117.200 138.130,116.930 138.400,116.600 138.400 C 116.267 138.400,116.000 138.756,116.000 139.200 C 116.000 139.644,115.733 140.000,115.400 140.000 C 115.000 140.000,114.800 140.400,114.800 141.200 C 114.800 142.000,114.600 142.400,114.200 142.400 C 113.870 142.400,113.600 142.670,113.600 143.000 C 113.600 143.330,113.330 143.600,113.000 143.600 C 112.600 143.600,112.400 144.000,112.400 144.800 C 112.400 145.600,112.200 146.000,111.800 146.000 C 111.470 146.000,111.200 146.249,111.200 146.553 C 111.200 146.858,110.840 147.201,110.400 147.316 C 109.817 147.468,109.600 147.862,109.600 148.763 C 109.600 149.596,109.404 150.000,109.000 150.000 C 108.670 150.000,108.400 150.270,108.400 150.600 C 108.400 150.930,108.130 151.200,107.800 151.200 C 107.400 151.200,107.200 151.600,107.200 152.400 C 107.200 153.200,107.000 153.600,106.600 153.600 C 106.270 153.600,106.000 153.870,106.000 154.200 C 106.000 154.530,105.730 154.800,105.400 154.800 C 105.000 154.800,104.800 155.200,104.800 156.000 C 104.800 156.800,104.600 157.200,104.200 157.200 C 103.867 157.200,103.600 157.556,103.600 158.000 C 103.600 158.444,103.333 158.800,103.000 158.800 C 102.600 158.800,102.400 159.200,102.400 160.000 C 102.400 160.800,102.200 161.200,101.800 161.200 C 101.470 161.200,101.200 161.470,101.200 161.800 C 101.200 162.133,100.844 162.400,100.400 162.400 C 99.778 162.400,99.600 162.667,99.600 163.600 C 99.600 164.400,99.400 164.800,99.000 164.800 C 98.670 164.800,98.400 165.070,98.400 165.400 C 98.400 165.730,98.130 166.000,97.800 166.000 C 97.381 166.000,97.200 166.422,97.200 167.400 C 97.200 168.378,97.019 168.800,96.600 168.800 C 96.270 168.800,96.000 169.070,96.000 169.400 C 96.000 169.730,95.730 170.000,95.400 170.000 C 95.000 170.000,94.800 170.400,94.800 171.200 C 94.800 172.000,94.600 172.400,94.200 172.400 C 93.800 172.400,93.600 172.800,93.600 173.600 C 93.600 174.400,93.400 174.800,93.000 174.800 C 92.670 174.800,92.400 175.049,92.400 175.353 C 92.400 175.658,92.040 176.001,91.600 176.116 C 91.017 176.268,90.800 176.662,90.800 177.563 C 90.800 178.396,90.604 178.800,90.200 178.800 C 89.756 178.800,89.600 179.267,89.600 180.600 C 89.600 181.933,89.444 182.400,89.000 182.400 C 88.558 182.400,88.400 182.862,88.400 184.157 C 88.400 185.350,88.207 185.988,87.800 186.145 C 87.389 186.302,87.200 186.945,87.200 188.187 C 87.200 189.532,87.045 190.000,86.600 190.000 C 86.200 190.000,86.000 190.400,86.000 191.200 C 86.000 192.000,85.800 192.400,85.400 192.400 C 85.070 192.400,84.800 192.670,84.800 193.000 C 84.800 193.330,84.530 193.600,84.200 193.600 C 83.800 193.600,83.600 194.000,83.600 194.800 C 83.600 195.600,83.400 196.000,83.000 196.000 C 82.667 196.000,82.400 196.356,82.400 196.800 C 82.400 197.333,82.133 197.600,81.600 197.600 C 81.156 197.600,80.800 197.867,80.800 198.200 C 80.800 198.530,80.530 198.800,80.200 198.800 C 79.800 198.800,79.600 199.200,79.600 200.000 C 79.600 200.800,79.400 201.200,79.000 201.200 C 78.670 201.200,78.400 201.470,78.400 201.800 C 78.400 202.130,78.130 202.400,77.800 202.400 C 77.400 202.400,77.200 202.800,77.200 203.600 C 77.200 204.400,77.000 204.800,76.600 204.800 C 76.267 204.800,76.000 205.156,76.000 205.600 C 76.000 206.044,75.733 206.400,75.400 206.400 C 75.070 206.400,74.800 206.670,74.800 207.000 C 74.800 207.330,74.530 207.600,74.200 207.600 C 73.870 207.600,73.600 207.849,73.600 208.153 C 73.600 208.458,73.240 208.801,72.800 208.916 C 72.259 209.057,72.000 209.462,72.000 210.163 C 72.000 210.818,71.779 211.200,71.400 211.200 C 71.070 211.200,70.800 211.470,70.800 211.800 C 70.800 212.130,70.530 212.400,70.200 212.400 C 69.870 212.400,69.600 212.670,69.600 213.000 C 69.600 213.330,69.330 213.600,69.000 213.600 C 68.670 213.600,68.400 213.870,68.400 214.200 C 68.400 214.530,68.130 214.800,67.800 214.800 C 67.467 214.800,67.200 215.156,67.200 215.600 C 67.200 216.044,66.933 216.400,66.600 216.400 C 66.270 216.400,66.000 216.670,66.000 217.000 C 66.000 217.330,65.730 217.600,65.400 217.600 C 65.000 217.600,64.800 218.000,64.800 218.800 C 64.800 219.600,64.600 220.000,64.200 220.000 C 63.870 220.000,63.600 220.249,63.600 220.553 C 63.600 220.858,63.240 221.201,62.800 221.316 C 62.271 221.454,62.000 221.862,62.000 222.520 C 62.000 223.067,61.730 223.618,61.400 223.745 C 61.070 223.871,60.800 224.251,60.800 224.587 C 60.800 224.924,60.530 225.200,60.200 225.200 C 59.800 225.200,59.600 225.600,59.600 226.400 C 59.600 227.200,59.400 227.600,59.000 227.600 C 58.670 227.600,58.400 227.851,58.400 228.157 C 58.400 228.464,58.130 228.818,57.800 228.945 C 57.456 229.077,57.200 229.674,57.200 230.345 C 57.200 231.015,56.944 231.613,56.600 231.745 C 56.204 231.897,56.000 232.523,56.000 233.587 C 56.000 234.754,55.834 235.200,55.400 235.200 C 55.005 235.200,54.800 235.595,54.800 236.353 C 54.800 237.170,54.567 237.568,54.000 237.716 C 53.369 237.881,53.200 238.262,53.200 239.520 C 53.200 240.568,52.994 241.193,52.600 241.345 C 52.189 241.502,52.000 242.145,52.000 243.387 C 52.000 244.732,51.845 245.200,51.400 245.200 C 50.954 245.200,50.800 245.670,50.800 247.029 C 50.800 248.121,50.558 249.099,50.200 249.457 C 49.829 249.828,49.600 250.810,49.600 252.029 C 49.600 253.514,49.452 254.000,49.000 254.000 C 48.558 254.000,48.400 254.462,48.400 255.757 C 48.400 256.950,48.207 257.588,47.800 257.745 C 47.392 257.901,47.200 258.541,47.200 259.745 C 47.200 260.949,47.008 261.588,46.600 261.745 C 46.204 261.897,46.000 262.523,46.000 263.587 C 46.000 264.699,45.827 265.200,45.443 265.200 C 44.775 265.200,44.400 266.060,44.400 267.590 C 44.400 268.220,44.136 268.816,43.800 268.945 C 43.456 269.077,43.200 269.674,43.200 270.345 C 43.200 271.015,42.944 271.613,42.600 271.745 C 42.204 271.897,42.000 272.523,42.000 273.587 C 42.000 274.754,41.834 275.200,41.400 275.200 C 41.070 275.200,40.800 275.470,40.800 275.800 C 40.800 276.130,40.530 276.400,40.200 276.400 C 39.870 276.400,39.600 276.670,39.600 277.000 C 39.600 277.330,39.330 277.600,39.000 277.600 C 38.547 277.600,38.400 278.089,38.400 279.600 C 38.400 281.111,38.253 281.600,37.800 281.600 C 37.400 281.600,37.200 282.000,37.200 282.800 C 37.200 283.600,37.000 284.000,36.600 284.000 C 36.205 284.000,36.000 284.395,36.000 285.153 C 36.000 285.970,35.767 286.368,35.200 286.516 C 34.569 286.681,34.400 287.062,34.400 288.320 C 34.400 289.368,34.194 289.993,33.800 290.145 C 33.449 290.279,33.200 290.879,33.200 291.587 C 33.200 292.399,33.001 292.800,32.600 292.800 C 32.200 292.800,32.000 293.200,32.000 294.000 C 32.000 294.800,31.800 295.200,31.400 295.200 C 31.000 295.200,30.800 295.600,30.800 296.400 C 30.800 297.200,30.600 297.600,30.200 297.600 C 29.781 297.600,29.600 298.022,29.600 299.000 C 29.600 299.978,29.419 300.400,29.000 300.400 C 28.600 300.400,28.400 300.800,28.400 301.600 C 28.400 302.400,28.200 302.800,27.800 302.800 C 27.405 302.800,27.200 303.195,27.200 303.953 C 27.200 304.770,26.967 305.168,26.400 305.316 C 25.769 305.481,25.600 305.862,25.600 307.120 C 25.600 308.168,25.394 308.793,25.000 308.945 C 24.649 309.079,24.400 309.679,24.400 310.387 C 24.400 311.199,24.201 311.600,23.800 311.600 C 23.400 311.600,23.200 312.000,23.200 312.800 C 23.200 313.600,23.000 314.000,22.600 314.000 C 22.200 314.000,22.000 314.400,22.000 315.200 C 22.000 316.000,21.800 316.400,21.400 316.400 C 20.981 316.400,20.800 316.822,20.800 317.800 C 20.800 318.778,20.619 319.200,20.200 319.200 C 19.756 319.200,19.600 319.667,19.600 321.000 C 19.600 322.333,19.444 322.800,19.000 322.800 C 18.600 322.800,18.400 323.200,18.400 324.000 C 18.400 324.800,18.200 325.200,17.800 325.200 C 17.405 325.200,17.200 325.595,17.200 326.353 C 17.200 327.170,16.967 327.568,16.400 327.716 C 15.817 327.868,15.600 328.262,15.600 329.163 C 15.600 329.996,15.404 330.400,15.000 330.400 C 14.556 330.400,14.400 330.867,14.400 332.200 C 14.400 333.533,14.244 334.000,13.800 334.000 C 13.405 334.000,13.200 334.395,13.200 335.157 C 13.200 335.817,12.942 336.413,12.600 336.545 C 12.189 336.702,12.000 337.345,12.000 338.587 C 12.000 339.932,11.845 340.400,11.400 340.400 C 11.000 340.400,10.800 340.800,10.800 341.600 C 10.800 342.400,10.600 342.800,10.200 342.800 C 9.756 342.800,9.600 343.267,9.600 344.600 C 9.600 345.933,9.444 346.400,9.000 346.400 C 8.547 346.400,8.400 346.889,8.400 348.400 C 8.400 350.133,8.293 350.400,7.600 350.400 C 6.978 350.400,6.800 350.667,6.800 351.600 C 6.800 352.400,6.600 352.800,6.200 352.800 C 5.747 352.800,5.600 353.289,5.600 354.800 C 5.600 356.311,5.453 356.800,5.000 356.800 C 4.556 356.800,4.400 357.267,4.400 358.600 C 4.400 359.933,4.244 360.400,3.800 360.400 C 3.356 360.400,3.200 360.867,3.200 362.200 C 3.200 363.533,3.044 364.000,2.600 364.000 C 2.147 364.000,2.000 364.489,2.000 366.000 C 2.000 367.511,1.853 368.000,1.400 368.000 C 0.933 368.000,0.800 368.533,0.800 370.400 C 0.800 371.733,0.622 372.800,0.400 372.800 C 0.155 372.800,0.000 374.733,0.000 377.800 C 0.000 380.867,0.155 382.800,0.400 382.800 C 0.626 382.800,0.800 383.933,0.800 385.400 C 0.800 387.444,0.928 388.000,1.400 388.000 C 1.800 388.000,2.000 388.400,2.000 389.200 C 2.000 390.000,2.200 390.400,2.600 390.400 C 3.044 390.400,3.200 390.867,3.200 392.200 C 3.200 393.533,3.356 394.000,3.800 394.000 C 4.201 394.000,4.400 394.401,4.400 395.213 C 4.400 395.921,4.649 396.521,5.000 396.655 C 5.342 396.787,5.600 397.383,5.600 398.043 C 5.600 398.805,5.805 399.200,6.200 399.200 C 6.644 399.200,6.800 399.667,6.800 401.000 C 6.800 402.533,6.919 402.800,7.600 402.800 C 8.222 402.800,8.400 403.067,8.400 404.000 C 8.400 404.800,8.600 405.200,9.000 405.200 C 9.419 405.200,9.600 405.622,9.600 406.600 C 9.600 407.578,9.781 408.000,10.200 408.000 C 10.644 408.000,10.800 408.467,10.800 409.800 C 10.800 411.133,10.956 411.600,11.400 411.600 C 11.800 411.600,12.000 412.000,12.000 412.800 C 12.000 413.600,12.200 414.000,12.600 414.000 C 13.001 414.000,13.200 414.401,13.200 415.213 C 13.200 415.921,13.449 416.521,13.800 416.655 C 14.142 416.787,14.400 417.383,14.400 418.043 C 14.400 418.805,14.605 419.200,15.000 419.200 C 15.400 419.200,15.600 419.600,15.600 420.400 C 15.600 421.333,15.778 421.600,16.400 421.600 C 17.022 421.600,17.200 421.867,17.200 422.800 C 17.200 423.600,17.400 424.000,17.800 424.000 C 18.219 424.000,18.400 424.422,18.400 425.400 C 18.400 426.378,18.581 426.800,19.000 426.800 C 19.444 426.800,19.600 427.267,19.600 428.600 C 19.600 429.933,19.756 430.400,20.200 430.400 C 20.600 430.400,20.800 430.800,20.800 431.600 C 20.800 432.400,21.000 432.800,21.400 432.800 C 21.801 432.800,22.000 433.201,22.000 434.013 C 22.000 434.721,22.249 435.321,22.600 435.455 C 22.942 435.587,23.200 436.183,23.200 436.843 C 23.200 437.605,23.405 438.000,23.800 438.000 C 24.200 438.000,24.400 438.400,24.400 439.200 C 24.400 440.000,24.600 440.400,25.000 440.400 C 25.400 440.400,25.600 440.800,25.600 441.600 C 25.600 442.533,25.778 442.800,26.400 442.800 C 27.048 442.800,27.200 443.067,27.200 444.200 C 27.200 445.178,27.381 445.600,27.800 445.600 C 28.200 445.600,28.400 446.000,28.400 446.800 C 28.400 447.600,28.600 448.000,29.000 448.000 C 29.444 448.000,29.600 448.467,29.600 449.800 C 29.600 451.133,29.756 451.600,30.200 451.600 C 30.601 451.600,30.800 452.001,30.800 452.813 C 30.800 453.521,31.049 454.121,31.400 454.255 C 31.742 454.387,32.000 454.983,32.000 455.643 C 32.000 456.405,32.205 456.800,32.600 456.800 C 33.000 456.800,33.200 457.200,33.200 458.000 C 33.200 458.800,33.400 459.200,33.800 459.200 C 34.246 459.200,34.400 459.671,34.400 461.037 C 34.400 462.538,34.546 462.913,35.200 463.084 C 35.767 463.232,36.000 463.630,36.000 464.447 C 36.000 465.205,36.205 465.600,36.600 465.600 C 37.000 465.600,37.200 466.000,37.200 466.800 C 37.200 467.600,37.400 468.000,37.800 468.000 C 38.253 468.000,38.400 468.489,38.400 470.000 C 38.400 471.511,38.547 472.000,39.000 472.000 C 39.330 472.000,39.600 472.270,39.600 472.600 C 39.600 472.930,39.870 473.200,40.200 473.200 C 40.530 473.200,40.800 473.470,40.800 473.800 C 40.800 474.130,41.070 474.400,41.400 474.400 C 41.834 474.400,42.000 474.846,42.000 476.013 C 42.000 477.077,42.204 477.703,42.600 477.855 C 42.942 477.987,43.200 478.583,43.200 479.243 C 43.200 480.005,43.405 480.400,43.800 480.400 C 44.246 480.400,44.400 480.871,44.400 482.237 C 44.400 483.738,44.546 484.113,45.200 484.284 C 45.847 484.453,46.000 484.830,46.000 486.247 C 46.000 487.539,46.158 488.000,46.600 488.000 C 47.042 488.000,47.200 488.462,47.200 489.757 C 47.200 490.950,47.393 491.588,47.800 491.745 C 48.151 491.879,48.400 492.479,48.400 493.187 C 48.400 493.999,48.599 494.400,49.000 494.400 C 49.444 494.400,49.600 494.867,49.600 496.200 C 49.600 497.533,49.756 498.000,50.200 498.000 C 50.601 498.000,50.800 498.401,50.800 499.213 C 50.800 499.921,51.049 500.521,51.400 500.655 C 51.742 500.787,52.000 501.383,52.000 502.043 C 52.000 502.805,52.205 503.200,52.600 503.200 C 52.954 503.200,53.202 503.569,53.205 504.100 C 53.215 505.627,53.667 506.800,54.247 506.800 C 54.596 506.800,54.800 507.247,54.800 508.013 C 54.800 508.721,55.049 509.321,55.400 509.455 C 55.742 509.587,56.000 510.183,56.000 510.843 C 56.000 511.605,56.205 512.000,56.600 512.000 C 57.000 512.000,57.200 512.400,57.200 513.200 C 57.200 514.000,57.400 514.400,57.800 514.400 C 58.200 514.400,58.400 514.800,58.400 515.600 C 58.400 516.400,58.600 516.800,59.000 516.800 C 59.401 516.800,59.600 517.201,59.600 518.013 C 59.600 518.721,59.849 519.321,60.200 519.455 C 60.530 519.582,60.800 519.923,60.800 520.214 C 60.800 520.505,61.035 520.981,61.322 521.271 C 61.610 521.562,61.964 522.115,62.110 522.500 C 62.256 522.885,62.651 523.200,62.987 523.200 C 63.401 523.200,63.600 523.589,63.600 524.400 C 63.600 525.200,63.800 525.600,64.200 525.600 C 64.619 525.600,64.800 526.022,64.800 527.000 C 64.800 527.978,64.981 528.400,65.400 528.400 C 65.800 528.400,66.000 528.800,66.000 529.600 C 66.000 530.400,66.200 530.800,66.600 530.800 C 66.930 530.800,67.200 531.070,67.200 531.400 C 67.200 531.730,67.470 532.000,67.800 532.000 C 68.200 532.000,68.400 532.400,68.400 533.200 C 68.400 534.000,68.600 534.400,69.000 534.400 C 69.330 534.400,69.600 534.670,69.600 535.000 C 69.600 535.330,69.870 535.600,70.200 535.600 C 70.580 535.600,70.800 535.983,70.800 536.644 C 70.800 537.735,72.240 539.581,73.100 539.593 C 73.387 539.597,73.600 540.110,73.600 540.800 C 73.600 541.600,73.800 542.000,74.200 542.000 C 74.530 542.000,74.800 542.270,74.800 542.600 C 74.800 542.930,75.070 543.200,75.400 543.200 C 75.730 543.200,76.000 543.470,76.000 543.800 C 76.000 544.130,76.270 544.400,76.600 544.400 C 77.045 544.400,77.200 544.868,77.200 546.213 C 77.200 547.455,77.389 548.098,77.800 548.255 C 78.130 548.382,78.400 548.736,78.400 549.043 C 78.400 549.349,78.670 549.600,79.000 549.600 C 79.330 549.600,79.600 549.870,79.600 550.200 C 79.600 550.530,79.870 550.800,80.200 550.800 C 80.530 550.800,80.800 551.070,80.800 551.400 C 80.800 551.733,81.156 552.000,81.600 552.000 C 82.044 552.000,82.400 552.267,82.400 552.600 C 82.400 553.000,82.800 553.200,83.600 553.200 C 84.400 553.200,84.800 553.400,84.800 553.800 C 84.800 554.308,85.756 554.400,91.000 554.400 C 96.244 554.400,97.200 554.308,97.200 553.800 C 97.200 553.470,97.470 553.200,97.800 553.200 C 98.130 553.200,98.400 552.930,98.400 552.600 C 98.400 552.270,98.670 552.000,99.000 552.000 C 99.330 552.000,99.600 551.730,99.600 551.400 C 99.600 551.070,99.870 550.800,100.200 550.800 C 100.530 550.800,100.800 550.530,100.800 550.200 C 100.800 549.870,101.070 549.600,101.400 549.600 C 101.730 549.600,102.000 549.330,102.000 549.000 C 102.000 548.670,102.276 548.400,102.613 548.400 C 102.949 548.400,103.329 548.130,103.455 547.800 C 103.582 547.470,103.936 547.200,104.243 547.200 C 104.549 547.200,104.800 546.840,104.800 546.400 C 104.800 545.956,105.067 545.600,105.400 545.600 C 105.800 545.600,106.000 545.200,106.000 544.400 C 106.000 543.600,106.200 543.200,106.600 543.200 C 106.930 543.200,107.200 542.930,107.200 542.600 C 107.200 542.270,107.470 542.000,107.800 542.000 C 108.200 542.000,108.400 541.600,108.400 540.800 C 108.400 540.000,108.600 539.600,109.000 539.600 C 109.330 539.600,109.600 539.330,109.600 539.000 C 109.600 538.670,109.870 538.400,110.200 538.400 C 110.619 538.400,110.800 537.978,110.800 537.000 C 110.800 535.867,110.952 535.600,111.600 535.600 C 112.222 535.600,112.400 535.333,112.400 534.400 C 112.400 533.600,112.600 533.200,113.000 533.200 C 113.330 533.200,113.600 532.930,113.600 532.600 C 113.600 532.270,113.870 532.000,114.200 532.000 C 114.595 532.000,114.800 531.605,114.800 530.843 C 114.800 530.183,115.058 529.587,115.400 529.455 C 115.751 529.321,116.000 528.721,116.000 528.013 C 116.000 527.201,116.199 526.800,116.600 526.800 C 116.930 526.800,117.200 526.530,117.200 526.200 C 117.200 525.870,117.470 525.600,117.800 525.600 C 118.200 525.600,118.400 525.200,118.400 524.400 C 118.400 523.600,118.600 523.200,119.000 523.200 C 119.400 523.200,119.600 522.800,119.600 522.000 C 119.600 521.067,119.778 520.800,120.400 520.800 C 120.840 520.800,121.200 520.549,121.200 520.243 C 121.200 519.936,121.470 519.582,121.800 519.455 C 122.151 519.321,122.400 518.721,122.400 518.013 C 122.400 517.201,122.599 516.800,123.000 516.800 C 123.400 516.800,123.600 516.400,123.600 515.600 C 123.600 514.800,123.800 514.400,124.200 514.400 C 124.530 514.400,124.800 514.130,124.800 513.800 C 124.800 513.470,125.070 513.200,125.400 513.200 C 125.800 513.200,126.000 512.800,126.000 512.000 C 126.000 511.200,126.200 510.800,126.600 510.800 C 126.930 510.800,127.200 510.530,127.200 510.200 C 127.200 509.870,127.470 509.600,127.800 509.600 C 128.219 509.600,128.400 509.178,128.400 508.200 C 128.400 507.222,128.581 506.800,129.000 506.800 C 129.400 506.800,129.600 506.400,129.600 505.600 C 129.600 504.667,129.778 504.400,130.400 504.400 C 130.844 504.400,131.200 504.133,131.200 503.800 C 131.200 503.470,131.470 503.200,131.800 503.200 C 132.253 503.200,132.400 502.711,132.400 501.200 C 132.400 499.689,132.547 499.200,133.000 499.200 C 133.400 499.200,133.600 498.800,133.600 498.000 C 133.600 497.200,133.800 496.800,134.200 496.800 C 134.530 496.800,134.800 496.530,134.800 496.200 C 134.800 495.870,135.070 495.600,135.400 495.600 C 135.800 495.600,136.000 495.200,136.000 494.400 C 136.000 493.600,136.200 493.200,136.600 493.200 C 136.930 493.200,137.200 492.949,137.200 492.643 C 137.200 492.336,137.470 491.982,137.800 491.855 C 138.151 491.721,138.400 491.121,138.400 490.413 C 138.400 489.467,138.576 489.200,139.200 489.200 C 139.640 489.200,140.000 488.949,140.000 488.643 C 140.000 488.336,140.270 487.982,140.600 487.855 C 140.930 487.729,141.200 487.169,141.200 486.613 C 141.200 485.979,141.425 485.600,141.800 485.600 C 142.130 485.600,142.400 485.330,142.400 485.000 C 142.400 484.670,142.670 484.400,143.000 484.400 C 143.400 484.400,143.600 484.000,143.600 483.200 C 143.600 482.400,143.800 482.000,144.200 482.000 C 144.533 482.000,144.800 481.644,144.800 481.200 C 144.800 480.756,145.067 480.400,145.400 480.400 C 145.730 480.400,146.000 480.130,146.000 479.800 C 146.000 479.470,146.270 479.200,146.600 479.200 C 147.000 479.200,147.200 478.800,147.200 478.000 C 147.200 477.200,147.400 476.800,147.800 476.800 C 148.130 476.800,148.400 476.551,148.400 476.247 C 148.400 475.942,148.760 475.599,149.200 475.484 C 149.705 475.352,150.006 474.930,150.017 474.337 C 150.027 473.801,150.540 472.980,151.217 472.419 C 151.868 471.879,152.400 471.204,152.400 470.919 C 152.400 470.633,152.670 470.400,153.000 470.400 C 153.400 470.400,153.600 470.000,153.600 469.200 C 153.600 468.400,153.800 468.000,154.200 468.000 C 154.530 468.000,154.800 467.730,154.800 467.400 C 154.800 467.070,155.070 466.800,155.400 466.800 C 155.800 466.800,156.000 466.400,156.000 465.600 C 156.000 464.800,156.200 464.400,156.600 464.400 C 156.930 464.400,157.200 464.130,157.200 463.800 C 157.200 463.470,157.476 463.200,157.813 463.200 C 158.149 463.200,158.541 462.885,158.682 462.500 C 158.824 462.115,159.178 461.656,159.470 461.480 C 159.761 461.304,160.000 460.719,160.000 460.180 C 160.000 459.576,160.230 459.200,160.600 459.200 C 160.930 459.200,161.200 458.930,161.200 458.600 C 161.200 458.270,161.470 458.000,161.800 458.000 C 162.130 458.000,162.400 457.730,162.400 457.400 C 162.400 457.070,162.670 456.800,163.000 456.800 C 163.400 456.800,163.600 456.400,163.600 455.600 C 163.600 454.800,163.800 454.400,164.200 454.400 C 164.530 454.400,164.800 454.130,164.800 453.800 C 164.800 453.470,165.070 453.200,165.400 453.200 C 165.733 453.200,166.000 452.844,166.000 452.400 C 166.000 451.956,166.267 451.600,166.600 451.600 C 166.930 451.600,167.200 451.330,167.200 451.000 C 167.200 450.667,167.556 450.400,168.000 450.400 C 168.444 450.400,168.800 450.133,168.800 449.800 C 168.800 449.470,169.070 449.200,169.400 449.200 C 169.730 449.200,170.000 448.930,170.000 448.600 C 170.000 448.270,170.270 448.000,170.600 448.000 C 170.930 448.000,171.200 447.730,171.200 447.400 C 171.200 447.070,171.470 446.800,171.800 446.800 C 172.200 446.800,172.400 446.400,172.400 445.600 C 172.400 444.800,172.600 444.400,173.000 444.400 C 173.333 444.400,173.600 444.044,173.600 443.600 C 173.600 443.156,173.867 442.800,174.200 442.800 C 174.530 442.800,174.800 442.530,174.800 442.200 C 174.800 441.870,175.070 441.600,175.400 441.600 C 175.800 441.600,176.000 441.200,176.000 440.400 C 176.000 439.467,176.178 439.200,176.800 439.200 C 177.244 439.200,177.600 438.933,177.600 438.600 C 177.600 438.270,177.870 438.000,178.200 438.000 C 178.530 438.000,178.800 437.730,178.800 437.400 C 178.800 437.070,179.070 436.800,179.400 436.800 C 179.800 436.800,180.000 436.400,180.000 435.600 C 180.000 434.800,180.200 434.400,180.600 434.400 C 180.933 434.400,181.200 434.044,181.200 433.600 C 181.200 433.156,181.467 432.800,181.800 432.800 C 182.130 432.800,182.400 432.530,182.400 432.200 C 182.400 431.870,182.670 431.600,183.000 431.600 C 183.330 431.600,183.600 431.330,183.600 431.000 C 183.600 430.670,183.870 430.400,184.200 430.400 C 184.600 430.400,184.800 430.000,184.800 429.200 C 184.800 428.267,184.978 428.000,185.600 428.000 C 186.044 428.000,186.400 427.733,186.400 427.400 C 186.400 427.070,186.670 426.800,187.000 426.800 C 187.330 426.800,187.600 426.530,187.600 426.200 C 187.600 425.870,187.870 425.600,188.200 425.600 C 188.533 425.600,188.800 425.244,188.800 424.800 C 188.800 424.356,189.067 424.000,189.400 424.000 C 189.800 424.000,190.000 423.600,190.000 422.800 C 190.000 422.000,190.200 421.600,190.600 421.600 C 190.930 421.600,191.200 421.330,191.200 421.000 C 191.200 420.670,191.470 420.400,191.800 420.400 C 192.130 420.400,192.400 420.130,192.400 419.800 C 192.400 419.470,192.670 419.200,193.000 419.200 C 193.330 419.200,193.600 418.930,193.600 418.600 C 193.600 418.270,193.870 418.000,194.200 418.000 C 194.600 418.000,194.800 417.600,194.800 416.800 C 194.800 415.969,194.996 415.600,195.437 415.600 C 195.788 415.600,196.169 415.240,196.284 414.800 C 196.399 414.360,196.742 414.000,197.047 414.000 C 197.351 414.000,197.600 413.730,197.600 413.400 C 197.600 413.070,197.870 412.800,198.200 412.800 C 198.530 412.800,198.800 412.530,198.800 412.200 C 198.800 411.870,199.070 411.600,199.400 411.600 C 199.730 411.600,200.000 411.330,200.000 411.000 C 200.000 410.670,200.270 410.400,200.600 410.400 C 201.000 410.400,201.200 410.000,201.200 409.200 C 201.200 408.400,201.400 408.000,201.800 408.000 C 202.130 408.000,202.400 407.730,202.400 407.400 C 202.400 407.070,202.670 406.800,203.000 406.800 C 203.333 406.800,203.600 406.444,203.600 406.000 C 203.600 405.467,203.867 405.200,204.400 405.200 C 204.844 405.200,205.200 404.933,205.200 404.600 C 205.200 404.270,205.470 404.000,205.800 404.000 C 206.130 404.000,206.400 403.730,206.400 403.400 C 206.400 403.070,206.670 402.800,207.000 402.800 C 207.444 402.800,207.600 402.333,207.600 401.000 C 207.600 399.667,207.756 399.200,208.200 399.200 C 208.530 399.200,208.800 398.930,208.800 398.600 C 208.800 398.270,209.070 398.000,209.400 398.000 C 209.730 398.000,210.000 397.730,210.000 397.400 C 210.000 397.070,210.270 396.800,210.600 396.800 C 210.933 396.800,211.200 396.444,211.200 396.000 C 211.200 395.556,211.467 395.200,211.800 395.200 C 212.130 395.200,212.400 394.930,212.400 394.600 C 212.400 394.270,212.670 394.000,213.000 394.000 C 213.330 394.000,213.600 393.730,213.600 393.400 C 213.600 393.067,213.956 392.800,214.400 392.800 C 214.844 392.800,215.200 392.533,215.200 392.200 C 215.200 391.870,215.470 391.600,215.800 391.600 C 216.130 391.600,216.400 391.349,216.400 391.043 C 216.400 390.736,216.670 390.382,217.000 390.255 C 217.330 390.129,217.600 389.569,217.600 389.013 C 217.600 388.379,217.825 388.000,218.200 388.000 C 218.533 388.000,218.800 387.644,218.800 387.200 C 218.800 386.756,219.067 386.400,219.400 386.400 C 219.730 386.400,220.000 386.130,220.000 385.800 C 220.000 385.470,220.270 385.200,220.600 385.200 C 221.000 385.200,221.200 384.800,221.200 384.000 C 221.200 383.200,221.400 382.800,221.800 382.800 C 222.130 382.800,222.400 382.551,222.400 382.247 C 222.400 381.942,222.760 381.599,223.200 381.484 C 223.705 381.352,224.006 380.930,224.017 380.337 C 224.027 379.801,224.540 378.980,225.217 378.419 C 225.868 377.879,226.400 377.204,226.400 376.919 C 226.400 376.633,226.670 376.400,227.000 376.400 C 227.330 376.400,227.600 376.130,227.600 375.800 C 227.600 375.470,227.870 375.200,228.200 375.200 C 228.600 375.200,228.800 374.800,228.800 374.000 C 228.800 373.200,229.000 372.800,229.400 372.800 C 229.844 372.800,230.000 372.333,230.000 371.000 C 230.000 369.667,230.156 369.200,230.600 369.200 C 230.930 369.200,231.200 368.973,231.200 368.696 C 231.200 368.419,231.560 367.968,232.000 367.693 C 232.452 367.410,232.800 366.760,232.800 366.197 C 232.800 365.577,233.027 365.200,233.400 365.200 C 233.730 365.200,234.000 364.930,234.000 364.600 C 234.000 364.270,234.270 364.000,234.600 364.000 C 234.930 364.000,235.200 363.730,235.200 363.400 C 235.200 363.070,235.470 362.800,235.800 362.800 C 236.130 362.800,236.400 362.530,236.400 362.200 C 236.400 361.870,236.670 361.600,237.000 361.600 C 237.330 361.600,237.600 361.330,237.600 361.000 C 237.600 360.670,237.870 360.400,238.200 360.400 C 238.530 360.400,238.800 360.130,238.800 359.800 C 238.800 359.470,239.070 359.200,239.400 359.200 C 239.733 359.200,240.000 358.844,240.000 358.400 C 240.000 357.956,240.267 357.600,240.600 357.600 C 240.930 357.600,241.200 357.330,241.200 357.000 C 241.200 356.581,241.622 356.400,242.600 356.400 C 243.578 356.400,244.000 356.219,244.000 355.800 C 244.000 355.470,244.270 355.200,244.600 355.200 C 244.930 355.200,245.200 354.930,245.200 354.600 C 245.200 354.270,245.470 354.000,245.800 354.000 C 246.130 354.000,246.400 353.730,246.400 353.400 C 246.400 353.070,246.670 352.800,247.000 352.800 C 247.330 352.800,247.600 352.530,247.600 352.200 C 247.600 351.870,247.870 351.600,248.200 351.600 C 248.530 351.600,248.800 351.330,248.800 351.000 C 248.800 350.670,249.070 350.400,249.400 350.400 C 249.730 350.400,250.000 350.151,250.000 349.847 C 250.000 349.542,250.360 349.199,250.800 349.084 C 251.240 348.969,251.600 348.588,251.600 348.237 C 251.600 347.887,251.870 347.600,252.200 347.600 C 252.530 347.600,252.800 347.330,252.800 347.000 C 252.800 346.670,253.070 346.400,253.400 346.400 C 253.730 346.400,254.000 346.130,254.000 345.800 C 254.000 345.470,254.270 345.200,254.600 345.200 C 254.930 345.200,255.200 344.930,255.200 344.600 C 255.200 344.270,255.470 344.000,255.800 344.000 C 256.130 344.000,256.400 343.730,256.400 343.400 C 256.400 343.070,256.670 342.800,257.000 342.800 C 257.330 342.800,257.600 342.530,257.600 342.200 C 257.600 341.870,257.870 341.600,258.200 341.600 C 258.530 341.600,258.800 341.330,258.800 341.000 C 258.800 340.670,259.070 340.400,259.400 340.400 C 259.733 340.400,260.000 340.044,260.000 339.600 C 260.000 339.067,260.267 338.800,260.800 338.800 C 261.244 338.800,261.600 338.533,261.600 338.200 C 261.600 337.870,261.870 337.600,262.200 337.600 C 262.530 337.600,262.800 337.330,262.800 337.000 C 262.800 336.670,263.070 336.400,263.400 336.400 C 263.730 336.400,264.000 336.130,264.000 335.800 C 264.000 335.470,264.270 335.200,264.600 335.200 C 264.930 335.200,265.200 334.930,265.200 334.600 C 265.200 334.270,265.470 334.000,265.800 334.000 C 266.130 334.000,266.400 333.730,266.400 333.400 C 266.400 333.070,266.670 332.800,267.000 332.800 C 267.330 332.800,267.600 332.530,267.600 332.200 C 267.600 331.870,267.870 331.600,268.200 331.600 C 268.530 331.600,268.800 331.351,268.800 331.047 C 268.800 330.742,269.160 330.399,269.600 330.284 C 270.183 330.132,270.400 329.738,270.400 328.837 C 270.400 328.004,270.596 327.600,271.000 327.600 C 271.330 327.600,271.600 327.330,271.600 327.000 C 271.600 326.670,271.870 326.400,272.200 326.400 C 272.530 326.400,272.800 326.130,272.800 325.800 C 272.800 325.470,273.070 325.200,273.400 325.200 C 273.730 325.200,274.000 324.930,274.000 324.600 C 274.000 324.270,274.270 324.000,274.600 324.000 C 274.930 324.000,275.200 323.730,275.200 323.400 C 275.200 323.070,275.470 322.800,275.800 322.800 C 276.130 322.800,276.400 322.530,276.400 322.200 C 276.400 321.870,276.670 321.600,277.000 321.600 C 277.333 321.600,277.600 321.244,277.600 320.800 C 277.600 320.356,277.867 320.000,278.200 320.000 C 278.530 320.000,278.800 319.730,278.800 319.400 C 278.800 319.067,279.156 318.800,279.600 318.800 C 280.044 318.800,280.400 318.533,280.400 318.200 C 280.400 317.870,280.670 317.600,281.000 317.600 C 281.330 317.600,281.600 317.330,281.600 317.000 C 281.600 316.670,281.870 316.400,282.200 316.400 C 282.530 316.400,282.800 316.130,282.800 315.800 C 282.800 315.470,283.070 315.200,283.400 315.200 C 283.730 315.200,284.000 314.930,284.000 314.600 C 284.000 314.270,284.270 314.000,284.600 314.000 C 285.000 314.000,285.200 313.600,285.200 312.800 C 285.200 312.000,285.400 311.600,285.800 311.600 C 286.133 311.600,286.400 311.244,286.400 310.800 C 286.400 310.356,286.667 310.000,287.000 310.000 C 287.330 310.000,287.600 309.730,287.600 309.400 C 287.600 309.067,287.956 308.800,288.400 308.800 C 288.844 308.800,289.200 308.533,289.200 308.200 C 289.200 307.870,289.470 307.600,289.800 307.600 C 290.130 307.600,290.400 307.330,290.400 307.000 C 290.400 306.670,290.670 306.400,291.000 306.400 C 291.330 306.400,291.600 306.130,291.600 305.800 C 291.600 305.470,291.870 305.200,292.200 305.200 C 292.530 305.200,292.800 304.930,292.800 304.600 C 292.800 304.270,293.070 304.000,293.400 304.000 C 293.730 304.000,294.000 303.730,294.000 303.400 C 294.000 303.070,294.270 302.800,294.600 302.800 C 294.933 302.800,295.200 302.444,295.200 302.000 C 295.200 301.556,295.467 301.200,295.800 301.200 C 296.130 301.200,296.400 300.930,296.400 300.600 C 296.400 300.267,296.756 300.000,297.200 300.000 C 297.644 300.000,298.000 299.733,298.000 299.400 C 298.000 299.070,298.270 298.800,298.600 298.800 C 298.930 298.800,299.200 298.530,299.200 298.200 C 299.200 297.870,299.470 297.600,299.800 297.600 C 300.130 297.600,300.400 297.330,300.400 297.000 C 300.400 296.670,300.670 296.400,301.000 296.400 C 301.330 296.400,301.600 296.130,301.600 295.800 C 301.600 295.470,301.870 295.200,302.200 295.200 C 302.530 295.200,302.800 294.930,302.800 294.600 C 302.800 294.270,303.070 294.000,303.400 294.000 C 303.730 294.000,304.000 293.730,304.000 293.400 C 304.000 293.070,304.270 292.800,304.600 292.800 C 304.933 292.800,305.200 292.444,305.200 292.000 C 305.200 291.556,305.467 291.200,305.800 291.200 C 306.130 291.200,306.400 290.951,306.400 290.647 C 306.400 290.342,306.760 289.999,307.200 289.884 C 307.741 289.743,308.000 289.338,308.000 288.637 C 308.000 287.982,308.221 287.600,308.600 287.600 C 308.930 287.600,309.200 287.330,309.200 287.000 C 309.200 286.670,309.470 286.400,309.800 286.400 C 310.130 286.400,310.400 286.130,310.400 285.800 C 310.400 285.470,310.670 285.200,311.000 285.200 C 311.330 285.200,311.600 284.930,311.600 284.600 C 311.600 284.270,311.870 284.000,312.200 284.000 C 312.533 284.000,312.800 283.644,312.800 283.200 C 312.800 282.756,313.067 282.400,313.400 282.400 C 313.730 282.400,314.000 282.130,314.000 281.800 C 314.000 281.470,314.270 281.200,314.600 281.200 C 314.930 281.200,315.200 280.930,315.200 280.600 C 315.200 280.267,315.556 280.000,316.000 280.000 C 316.440 280.000,316.800 279.749,316.800 279.443 C 316.800 279.136,317.070 278.782,317.400 278.655 C 317.730 278.529,318.000 277.969,318.000 277.413 C 318.000 276.779,318.225 276.400,318.600 276.400 C 318.930 276.400,319.200 276.130,319.200 275.800 C 319.200 275.470,319.470 275.200,319.800 275.200 C 320.130 275.200,320.400 274.949,320.400 274.643 C 320.400 274.336,320.670 273.982,321.000 273.855 C 321.330 273.729,321.600 273.349,321.600 273.013 C 321.600 272.676,321.870 272.400,322.200 272.400 C 322.530 272.400,322.800 272.130,322.800 271.800 C 322.800 271.470,323.070 271.200,323.400 271.200 C 323.730 271.200,324.000 270.930,324.000 270.600 C 324.000 270.270,324.270 270.000,324.600 270.000 C 324.930 270.000,325.200 269.730,325.200 269.400 C 325.200 269.067,325.556 268.800,326.000 268.800 C 326.444 268.800,326.800 268.533,326.800 268.200 C 326.800 267.870,327.070 267.600,327.400 267.600 C 327.800 267.600,328.000 267.200,328.000 266.400 C 328.000 265.600,328.200 265.200,328.600 265.200 C 328.933 265.200,329.200 264.844,329.200 264.400 C 329.200 263.956,329.467 263.600,329.800 263.600 C 330.130 263.600,330.400 263.330,330.400 263.000 C 330.400 262.670,330.670 262.400,331.000 262.400 C 331.330 262.400,331.600 262.130,331.600 261.800 C 331.600 261.470,331.870 261.200,332.200 261.200 C 332.530 261.200,332.800 260.930,332.800 260.600 C 332.800 260.270,333.070 260.000,333.400 260.000 C 333.730 260.000,334.000 259.730,334.000 259.400 C 334.000 259.067,334.356 258.800,334.800 258.800 C 335.240 258.800,335.600 258.549,335.600 258.243 C 335.600 257.936,335.870 257.582,336.200 257.455 C 336.530 257.329,336.800 256.769,336.800 256.213 C 336.800 255.579,337.025 255.200,337.400 255.200 C 337.733 255.200,338.000 254.844,338.000 254.400 C 338.000 253.956,338.267 253.600,338.600 253.600 C 338.930 253.600,339.200 253.330,339.200 253.000 C 339.200 252.670,339.470 252.400,339.800 252.400 C 340.130 252.400,340.400 252.130,340.400 251.800 C 340.400 251.470,340.670 251.200,341.000 251.200 C 341.330 251.200,341.600 250.930,341.600 250.600 C 341.600 250.270,341.870 250.000,342.200 250.000 C 342.530 250.000,342.800 249.730,342.800 249.400 C 342.800 249.067,343.156 248.800,343.600 248.800 C 344.044 248.800,344.400 248.533,344.400 248.200 C 344.400 247.870,344.670 247.600,345.000 247.600 C 345.330 247.600,345.600 247.330,345.600 247.000 C 345.600 246.670,345.870 246.400,346.200 246.400 C 346.533 246.400,346.800 246.044,346.800 245.600 C 346.800 245.156,347.067 244.800,347.400 244.800 C 347.730 244.800,348.000 244.530,348.000 244.200 C 348.000 243.870,348.270 243.600,348.600 243.600 C 348.930 243.600,349.200 243.330,349.200 243.000 C 349.200 242.670,349.470 242.400,349.800 242.400 C 350.130 242.400,350.400 242.130,350.400 241.800 C 350.400 241.470,350.670 241.200,351.000 241.200 C 351.330 241.200,351.600 240.930,351.600 240.600 C 351.600 240.270,351.870 240.000,352.200 240.000 C 352.530 240.000,352.800 239.730,352.800 239.400 C 352.800 239.067,353.156 238.800,353.600 238.800 C 354.040 238.800,354.400 238.549,354.400 238.243 C 354.400 237.936,354.670 237.582,355.000 237.455 C 355.351 237.321,355.600 236.721,355.600 236.013 C 355.600 235.201,355.799 234.800,356.200 234.800 C 356.530 234.800,356.800 234.530,356.800 234.200 C 356.800 233.870,357.070 233.600,357.400 233.600 C 357.730 233.600,358.000 233.330,358.000 233.000 C 358.000 232.670,358.270 232.400,358.600 232.400 C 358.930 232.400,359.200 232.130,359.200 231.800 C 359.200 231.470,359.470 231.200,359.800 231.200 C 360.130 231.200,360.400 230.930,360.400 230.600 C 360.400 230.270,360.670 230.000,361.000 230.000 C 361.330 230.000,361.600 229.751,361.600 229.447 C 361.600 229.142,361.960 228.799,362.400 228.684 C 362.983 228.532,363.200 228.138,363.200 227.237 C 363.200 226.404,363.396 226.000,363.800 226.000 C 364.130 226.000,364.400 225.730,364.400 225.400 C 364.400 225.070,364.670 224.800,365.000 224.800 C 365.330 224.800,365.600 224.530,365.600 224.200 C 365.600 223.870,365.870 223.600,366.200 223.600 C 366.530 223.600,366.800 223.330,366.800 223.000 C 366.800 222.670,367.070 222.400,367.400 222.400 C 367.730 222.400,368.000 222.130,368.000 221.800 C 368.000 221.470,368.270 221.200,368.600 221.200 C 368.930 221.200,369.200 220.930,369.200 220.600 C 369.200 220.270,369.470 220.000,369.800 220.000 C 370.130 220.000,370.400 219.730,370.400 219.400 C 370.400 219.070,370.670 218.800,371.000 218.800 C 371.330 218.800,371.600 218.530,371.600 218.200 C 371.600 217.870,371.887 217.600,372.237 217.600 C 372.588 217.600,372.969 217.240,373.084 216.800 C 373.199 216.360,373.542 216.000,373.847 216.000 C 374.151 216.000,374.400 215.730,374.400 215.400 C 374.400 215.070,374.670 214.800,375.000 214.800 C 375.330 214.800,375.600 214.530,375.600 214.200 C 375.600 213.870,375.870 213.600,376.200 213.600 C 376.530 213.600,376.800 213.330,376.800 213.000 C 376.800 212.670,377.070 212.400,377.400 212.400 C 377.730 212.400,378.000 212.130,378.000 211.800 C 378.000 211.470,378.270 211.200,378.600 211.200 C 378.930 211.200,379.200 210.930,379.200 210.600 C 379.200 210.270,379.470 210.000,379.800 210.000 C 380.130 210.000,380.400 209.730,380.400 209.400 C 380.400 209.070,380.687 208.800,381.037 208.800 C 381.388 208.800,381.769 208.440,381.884 208.000 C 381.999 207.560,382.342 207.200,382.647 207.200 C 382.951 207.200,383.200 206.930,383.200 206.600 C 383.200 206.270,383.470 206.000,383.800 206.000 C 384.130 206.000,384.400 205.730,384.400 205.400 C 384.400 205.070,384.670 204.800,385.000 204.800 C 385.330 204.800,385.600 204.530,385.600 204.200 C 385.600 203.870,385.870 203.600,386.200 203.600 C 386.530 203.600,386.800 203.330,386.800 203.000 C 386.800 202.670,387.070 202.400,387.400 202.400 C 387.730 202.400,388.000 202.130,388.000 201.800 C 388.000 201.470,388.270 201.200,388.600 201.200 C 388.930 201.200,389.200 200.930,389.200 200.600 C 389.200 200.270,389.470 200.000,389.800 200.000 C 390.130 200.000,390.400 199.839,390.400 199.642 C 390.400 199.446,390.942 198.705,391.604 197.996 C 392.266 197.287,392.916 196.278,393.047 195.753 C 393.179 195.229,393.537 194.800,393.843 194.800 C 394.150 194.800,394.400 194.530,394.400 194.200 C 394.400 193.870,394.670 193.600,395.000 193.600 C 395.330 193.600,395.600 193.330,395.600 193.000 C 395.600 192.670,395.870 192.400,396.200 192.400 C 396.530 192.400,396.800 192.130,396.800 191.800 C 396.800 191.470,397.070 191.200,397.400 191.200 C 397.730 191.200,398.000 190.930,398.000 190.600 C 398.000 190.270,398.270 190.000,398.600 190.000 C 398.933 190.000,399.200 189.644,399.200 189.200 C 399.200 188.760,399.380 188.400,399.600 188.400 C 399.844 188.400,400.000 186.533,400.000 183.600 C 400.000 180.667,399.844 178.800,399.600 178.800 C 399.380 178.800,399.200 178.254,399.200 177.587 C 399.200 176.879,398.951 176.279,398.600 176.145 C 398.270 176.018,398.000 175.664,398.000 175.357 C 398.000 175.051,397.730 174.800,397.400 174.800 C 397.070 174.800,396.800 174.530,396.800 174.200 C 396.800 173.870,396.530 173.600,396.200 173.600 C 395.870 173.600,395.600 173.330,395.600 173.000 C 395.600 172.670,395.330 172.400,395.000 172.400 C 394.670 172.400,394.400 172.130,394.400 171.800 C 394.400 171.470,394.130 171.200,393.800 171.200 C 393.470 171.200,393.200 170.930,393.200 170.600 C 393.200 170.181,392.778 170.000,391.800 170.000 C 390.822 170.000,390.400 169.819,390.400 169.400 C 390.400 169.070,390.130 168.800,389.800 168.800 C 389.467 168.800,389.200 168.444,389.200 168.000 C 389.200 167.556,388.933 167.200,388.600 167.200 C 388.270 167.200,388.000 166.930,388.000 166.600 C 388.000 166.270,387.730 166.000,387.400 166.000 C 387.070 166.000,386.800 165.730,386.800 165.400 C 386.800 165.070,386.530 164.800,386.200 164.800 C 385.870 164.800,385.600 164.530,385.600 164.200 C 385.600 163.870,385.330 163.600,385.000 163.600 C 384.670 163.600,384.400 163.330,384.400 163.000 C 384.400 162.670,384.149 162.400,383.843 162.400 C 383.536 162.400,383.182 162.130,383.055 161.800 C 382.921 161.449,382.321 161.200,381.613 161.200 C 380.801 161.200,380.400 161.001,380.400 160.600 C 380.400 160.270,380.130 160.000,379.800 160.000 C 379.470 160.000,379.200 159.730,379.200 159.400 C 379.200 159.070,378.930 158.800,378.600 158.800 C 378.267 158.800,378.000 158.444,378.000 158.000 C 378.000 157.556,377.733 157.200,377.400 157.200 C 377.070 157.200,376.800 156.930,376.800 156.600 C 376.800 156.270,376.530 156.000,376.200 156.000 C 375.870 156.000,375.600 155.730,375.600 155.400 C 375.600 155.070,375.330 154.800,375.000 154.800 C 374.670 154.800,374.400 154.530,374.400 154.200 C 374.400 153.870,374.130 153.600,373.800 153.600 C 373.470 153.600,373.200 153.330,373.200 153.000 C 373.200 152.667,372.844 152.400,372.400 152.400 C 371.956 152.400,371.600 152.133,371.600 151.800 C 371.600 151.470,371.330 151.200,371.000 151.200 C 370.670 151.200,370.400 150.930,370.400 150.600 C 370.400 150.270,370.130 150.000,369.800 150.000 C 369.470 150.000,369.200 149.770,369.200 149.489 C 369.200 148.959,367.822 147.600,367.284 147.600 C 367.116 147.600,366.670 147.240,366.293 146.800 C 365.916 146.360,365.336 146.000,365.004 146.000 C 364.672 146.000,364.400 145.730,364.400 145.400 C 364.400 145.070,364.130 144.800,363.800 144.800 C 363.400 144.800,363.200 144.400,363.200 143.600 C 363.200 142.667,363.022 142.400,362.400 142.400 C 361.956 142.400,361.600 142.133,361.600 141.800 C 361.600 141.470,361.330 141.200,361.000 141.200 C 360.670 141.200,360.400 140.930,360.400 140.600 C 360.400 140.270,360.130 140.000,359.800 140.000 C 359.467 140.000,359.200 139.644,359.200 139.200 C 359.200 138.756,358.933 138.400,358.600 138.400 C 358.270 138.400,358.000 138.130,358.000 137.800 C 358.000 137.470,357.730 137.200,357.400 137.200 C 357.070 137.200,356.800 136.930,356.800 136.600 C 356.800 136.270,356.530 136.000,356.200 136.000 C 355.870 136.000,355.600 135.730,355.600 135.400 C 355.600 135.070,355.330 134.800,355.000 134.800 C 354.670 134.800,354.400 134.530,354.400 134.200 C 354.400 133.867,354.044 133.600,353.600 133.600 C 353.156 133.600,352.800 133.333,352.800 133.000 C 352.800 132.670,352.530 132.400,352.200 132.400 C 351.870 132.400,351.600 132.130,351.600 131.800 C 351.600 131.470,351.330 131.200,351.000 131.200 C 350.667 131.200,350.400 130.844,350.400 130.400 C 350.400 129.956,350.133 129.600,349.800 129.600 C 349.400 129.600,349.200 129.200,349.200 128.400 C 349.200 127.600,349.000 127.200,348.600 127.200 C 348.270 127.200,348.000 126.930,348.000 126.600 C 348.000 126.270,347.730 126.000,347.400 126.000 C 347.070 126.000,346.800 125.730,346.800 125.400 C 346.800 125.070,346.530 124.800,346.200 124.800 C 345.870 124.800,345.600 124.530,345.600 124.200 C 345.600 123.870,345.330 123.600,345.000 123.600 C 344.670 123.600,344.400 123.330,344.400 123.000 C 344.400 122.667,344.044 122.400,343.600 122.400 C 343.156 122.400,342.800 122.133,342.800 121.800 C 342.800 121.470,342.530 121.200,342.200 121.200 C 341.867 121.200,341.600 120.844,341.600 120.400 C 341.600 119.956,341.333 119.600,341.000 119.600 C 340.670 119.600,340.400 119.330,340.400 119.000 C 340.400 118.670,340.130 118.400,339.800 118.400 C 339.470 118.400,339.200 118.130,339.200 117.800 C 339.200 117.470,338.930 117.200,338.600 117.200 C 338.270 117.200,338.000 116.930,338.000 116.600 C 338.000 116.270,337.730 116.000,337.400 116.000 C 337.070 116.000,336.800 115.730,336.800 115.400 C 336.800 115.070,336.530 114.800,336.200 114.800 C 335.800 114.800,335.600 114.400,335.600 113.600 C 335.600 112.667,335.422 112.400,334.800 112.400 C 334.267 112.400,334.000 112.133,334.000 111.600 C 334.000 111.156,333.733 110.800,333.400 110.800 C 333.070 110.800,332.800 110.530,332.800 110.200 C 332.800 109.870,332.530 109.600,332.200 109.600 C 331.870 109.600,331.600 109.330,331.600 109.000 C 331.600 108.670,331.330 108.400,331.000 108.400 C 330.670 108.400,330.400 108.130,330.400 107.800 C 330.400 107.470,330.130 107.200,329.800 107.200 C 329.470 107.200,329.200 106.930,329.200 106.600 C 329.200 106.270,328.930 106.000,328.600 106.000 C 328.200 106.000,328.000 105.600,328.000 104.800 C 328.000 104.000,327.800 103.600,327.400 103.600 C 327.070 103.600,326.800 103.330,326.800 103.000 C 326.800 102.667,326.444 102.400,326.000 102.400 C 325.467 102.400,325.200 102.133,325.200 101.600 C 325.200 101.156,324.933 100.800,324.600 100.800 C 324.270 100.800,324.000 100.530,324.000 100.200 C 324.000 99.870,323.730 99.600,323.400 99.600 C 323.070 99.600,322.800 99.330,322.800 99.000 C 322.800 98.670,322.530 98.400,322.200 98.400 C 321.870 98.400,321.600 98.130,321.600 97.800 C 321.600 97.400,321.200 97.200,320.400 97.200 C 319.600 97.200,319.200 97.000,319.200 96.600 C 319.200 96.270,318.930 96.000,318.600 96.000 C 318.270 96.000,318.000 95.730,318.000 95.400 C 318.000 95.070,317.730 94.800,317.400 94.800 C 317.070 94.800,316.800 94.530,316.800 94.200 C 316.800 93.867,316.444 93.600,316.000 93.600 C 315.376 93.600,315.200 93.333,315.200 92.387 C 315.200 91.679,314.951 91.079,314.600 90.945 C 314.270 90.818,314.000 90.464,314.000 90.157 C 314.000 89.851,313.730 89.600,313.400 89.600 C 313.070 89.600,312.800 89.330,312.800 89.000 C 312.800 88.670,312.530 88.400,312.200 88.400 C 311.870 88.400,311.600 88.130,311.600 87.800 C 311.600 87.470,311.330 87.200,311.000 87.200 C 310.670 87.200,310.400 86.930,310.400 86.600 C 310.400 86.270,310.130 86.000,309.800 86.000 C 309.470 86.000,309.200 85.730,309.200 85.400 C 309.200 85.070,308.930 84.800,308.600 84.800 C 308.270 84.800,308.000 84.530,308.000 84.200 C 308.000 83.867,307.644 83.600,307.200 83.600 C 306.667 83.600,306.400 83.333,306.400 82.800 C 306.400 82.356,306.133 82.000,305.800 82.000 C 305.470 82.000,305.200 81.730,305.200 81.400 C 305.200 81.070,304.930 80.800,304.600 80.800 C 304.270 80.800,304.000 80.530,304.000 80.200 C 304.000 79.870,303.730 79.600,303.400 79.600 C 303.070 79.600,302.800 79.330,302.800 79.000 C 302.800 78.670,302.530 78.400,302.200 78.400 C 301.870 78.400,301.600 78.130,301.600 77.800 C 301.600 77.470,301.330 77.200,301.000 77.200 C 300.670 77.200,300.400 76.930,300.400 76.600 C 300.400 76.270,300.130 76.000,299.800 76.000 C 299.470 76.000,299.200 75.730,299.200 75.400 C 299.200 75.070,298.951 74.800,298.647 74.800 C 298.342 74.800,297.999 74.440,297.884 74.000 C 297.769 73.560,297.388 73.200,297.037 73.200 C 296.687 73.200,296.400 72.930,296.400 72.600 C 296.400 72.270,296.130 72.000,295.800 72.000 C 295.470 72.000,295.200 71.730,295.200 71.400 C 295.200 71.070,294.930 70.800,294.600 70.800 C 294.270 70.800,294.000 70.530,294.000 70.200 C 294.000 69.870,293.730 69.600,293.400 69.600 C 293.070 69.600,292.800 69.330,292.800 69.000 C 292.800 68.670,292.530 68.400,292.200 68.400 C 291.870 68.400,291.600 68.130,291.600 67.800 C 291.600 67.470,291.330 67.200,291.000 67.200 C 290.669 67.200,290.400 66.845,290.400 66.407 C 290.400 65.971,289.770 64.966,289.000 64.173 C 288.230 63.380,287.600 62.567,287.600 62.366 C 287.600 62.165,287.330 62.000,287.000 62.000 C 286.670 62.000,286.400 61.730,286.400 61.400 C 286.400 61.070,286.130 60.800,285.800 60.800 C 285.400 60.800,285.200 60.400,285.200 59.600 C 285.200 58.800,285.000 58.400,284.600 58.400 C 284.270 58.400,284.000 58.130,284.000 57.800 C 284.000 57.470,283.730 57.200,283.400 57.200 C 283.070 57.200,282.800 56.930,282.800 56.600 C 282.800 56.270,282.530 56.000,282.200 56.000 C 281.867 56.000,281.600 55.644,281.600 55.200 C 281.600 54.760,281.349 54.400,281.043 54.400 C 280.736 54.400,280.382 54.130,280.255 53.800 C 280.129 53.470,279.749 53.200,279.413 53.200 C 279.076 53.200,278.800 52.930,278.800 52.600 C 278.800 52.270,278.530 52.000,278.200 52.000 C 277.870 52.000,277.600 51.730,277.600 51.400 C 277.600 51.070,277.330 50.800,277.000 50.800 C 276.670 50.800,276.400 50.530,276.400 50.200 C 276.400 49.870,276.130 49.600,275.800 49.600 C 275.470 49.600,275.200 49.330,275.200 49.000 C 275.200 48.670,274.930 48.400,274.600 48.400 C 274.270 48.400,274.000 48.130,274.000 47.800 C 274.000 47.470,273.730 47.200,273.400 47.200 C 272.999 47.200,272.800 46.799,272.800 45.987 C 272.800 45.279,272.551 44.679,272.200 44.545 C 271.870 44.418,271.600 44.064,271.600 43.757 C 271.600 43.451,271.330 43.200,271.000 43.200 C 270.670 43.200,270.400 42.930,270.400 42.600 C 270.400 42.267,270.044 42.000,269.600 42.000 C 269.156 42.000,268.800 41.733,268.800 41.400 C 268.800 41.070,268.530 40.800,268.200 40.800 C 267.870 40.800,267.600 40.530,267.600 40.200 C 267.600 39.870,267.330 39.600,267.000 39.600 C 266.670 39.600,266.400 39.330,266.400 39.000 C 266.400 38.670,266.130 38.400,265.800 38.400 C 265.399 38.400,265.200 37.999,265.200 37.187 C 265.200 36.479,264.951 35.879,264.600 35.745 C 264.270 35.618,264.000 35.264,264.000 34.957 C 264.000 34.651,263.730 34.400,263.400 34.400 C 263.000 34.400,262.800 34.000,262.800 33.200 C 262.800 32.400,262.600 32.000,262.200 32.000 C 261.870 32.000,261.600 31.730,261.600 31.400 C 261.600 31.067,261.244 30.800,260.800 30.800 C 260.356 30.800,260.000 30.533,260.000 30.200 C 260.000 29.870,259.730 29.600,259.400 29.600 C 259.000 29.600,258.800 29.200,258.800 28.400 C 258.800 27.600,258.600 27.200,258.200 27.200 C 257.867 27.200,257.600 26.844,257.600 26.400 C 257.600 25.956,257.333 25.600,257.000 25.600 C 256.670 25.600,256.400 25.330,256.400 25.000 C 256.400 24.670,256.130 24.400,255.800 24.400 C 255.470 24.400,255.200 24.130,255.200 23.800 C 255.200 23.470,254.930 23.200,254.600 23.200 C 254.270 23.200,254.000 22.930,254.000 22.600 C 254.000 22.270,253.730 22.000,253.400 22.000 C 253.070 22.000,252.800 21.730,252.800 21.400 C 252.800 21.070,252.530 20.800,252.200 20.800 C 251.870 20.800,251.600 20.530,251.600 20.200 C 251.600 19.867,251.244 19.600,250.800 19.600 C 250.356 19.600,250.000 19.333,250.000 19.000 C 250.000 18.670,249.730 18.400,249.400 18.400 C 249.067 18.400,248.800 18.044,248.800 17.600 C 248.800 17.156,248.533 16.800,248.200 16.800 C 247.870 16.800,247.600 16.530,247.600 16.200 C 247.600 15.870,247.330 15.600,247.000 15.600 C 246.670 15.600,246.400 15.330,246.400 15.000 C 246.400 14.670,246.130 14.400,245.800 14.400 C 245.470 14.400,245.200 14.130,245.200 13.800 C 245.200 13.470,244.930 13.200,244.600 13.200 C 244.270 13.200,244.000 12.930,244.000 12.600 C 244.000 12.181,243.578 12.000,242.600 12.000 C 241.622 12.000,241.200 11.819,241.200 11.400 C 241.200 11.070,240.930 10.800,240.600 10.800 C 240.270 10.800,240.000 10.530,240.000 10.200 C 240.000 9.870,239.730 9.600,239.400 9.600 C 239.070 9.600,238.800 9.330,238.800 9.000 C 238.800 8.670,238.551 8.400,238.247 8.400 C 237.942 8.400,237.599 8.040,237.484 7.600 C 237.343 7.059,236.938 6.800,236.237 6.800 C 235.582 6.800,235.200 6.579,235.200 6.200 C 235.200 5.870,234.949 5.600,234.643 5.600 C 234.336 5.600,233.982 5.330,233.855 5.000 C 233.721 4.649,233.121 4.400,232.413 4.400 C 231.601 4.400,231.200 4.201,231.200 3.800 C 231.200 3.356,230.733 3.200,229.400 3.200 C 228.067 3.200,227.600 3.044,227.600 2.600 C 227.600 2.120,226.999 2.000,224.587 2.000 C 222.279 2.000,221.521 2.140,221.345 2.600 M229.271 12.992 C 230.777 13.993,233.439 16.072,235.186 17.612 C 236.934 19.152,238.510 20.364,238.689 20.306 C 239.232 20.129,250.800 31.926,250.800 32.657 C 250.800 33.031,251.610 34.113,252.600 35.062 C 253.590 36.010,254.400 37.114,254.400 37.515 C 254.400 37.915,255.030 38.854,255.800 39.600 C 256.570 40.346,257.200 41.214,257.200 41.528 C 257.200 41.842,258.820 43.733,260.800 45.730 C 262.780 47.727,264.400 49.642,264.400 49.985 C 264.400 50.329,267.280 53.485,270.800 57.000 C 276.499 62.690,277.200 63.536,277.200 64.719 C 277.200 65.449,277.355 65.951,277.545 65.834 C 277.734 65.717,279.039 66.832,280.445 68.313 C 282.625 70.609,294.152 82.690,300.000 88.807 C 304.144 93.142,307.648 96.861,311.582 101.099 C 313.879 103.574,315.949 105.555,316.182 105.501 C 316.825 105.354,319.600 108.034,319.600 108.802 C 319.600 109.173,321.310 111.200,323.400 113.307 C 325.490 115.414,327.200 117.407,327.200 117.735 C 327.200 118.064,330.350 121.480,334.200 125.327 C 338.050 129.174,341.200 132.614,341.200 132.971 C 341.200 133.329,344.260 136.677,348.000 140.412 C 353.995 146.398,354.801 147.355,354.806 148.501 C 354.811 149.454,354.911 149.644,355.183 149.214 C 355.486 148.735,355.801 148.881,356.914 150.014 C 357.663 150.776,360.948 153.920,364.215 157.000 C 367.481 160.080,370.438 162.870,370.786 163.200 C 371.371 163.756,382.020 173.055,385.200 175.787 C 388.289 178.441,392.400 182.691,392.398 183.229 C 392.392 184.577,356.252 222.182,355.310 221.821 C 354.973 221.692,354.800 221.998,354.800 222.720 C 354.800 223.572,353.954 224.659,351.000 227.600 C 348.910 229.681,347.200 231.671,347.200 232.022 C 347.200 232.372,342.971 236.876,337.802 242.029 C 332.632 247.183,328.402 251.717,328.402 252.104 C 328.401 252.491,326.420 254.734,324.000 257.090 C 321.580 259.445,319.600 261.687,319.600 262.073 C 319.600 262.908,316.907 265.713,316.404 265.402 C 316.211 265.283,314.427 267.304,312.440 269.893 C 310.453 272.482,308.089 275.410,307.187 276.400 C 306.285 277.390,304.254 279.635,302.673 281.388 C 297.316 287.333,295.671 289.117,293.197 291.661 C 291.839 293.057,287.843 297.212,284.317 300.894 C 280.790 304.576,277.747 307.491,277.553 307.371 C 277.359 307.251,277.200 307.544,277.200 308.023 C 277.200 308.619,274.804 311.297,269.600 316.514 C 265.420 320.706,262.000 324.409,262.000 324.743 C 262.000 325.338,239.292 348.390,238.700 348.397 C 238.535 348.399,238.400 348.129,238.400 347.799 C 238.400 347.456,237.755 347.921,236.900 348.880 C 236.075 349.805,233.940 352.101,232.155 353.981 C 226.633 359.799,225.592 360.963,224.899 362.100 C 224.530 362.705,224.094 363.200,223.931 363.200 C 223.360 363.200,221.600 366.681,221.587 367.835 C 221.571 369.351,220.909 370.176,219.110 370.928 C 217.921 371.425,217.564 371.846,217.205 373.180 C 216.320 376.469,213.298 380.669,205.988 388.774 C 203.891 391.098,201.706 393.575,201.132 394.278 C 200.558 394.981,199.979 395.446,199.844 395.311 C 199.710 395.177,199.600 314.991,199.600 217.121 L 199.600 39.175 204.470 32.688 C 213.898 20.127,220.055 13.006,223.000 11.259 C 224.302 10.486,226.357 11.054,229.271 12.992 M199.200 218.717 L 199.200 398.233 196.200 401.174 C 194.550 402.791,193.200 404.407,193.200 404.766 C 193.200 405.125,191.760 406.850,190.000 408.600 C 188.240 410.350,186.800 412.061,186.800 412.403 C 186.800 412.745,185.720 414.094,184.400 415.400 C 183.080 416.706,181.999 418.051,181.999 418.387 C 181.998 418.724,180.833 420.170,179.410 421.600 C 177.987 423.030,176.818 424.521,176.811 424.914 C 176.805 425.306,175.630 426.736,174.200 428.090 C 172.770 429.444,171.600 430.881,171.600 431.283 C 171.600 431.685,170.790 432.790,169.800 433.738 C 168.810 434.687,168.000 435.768,168.000 436.142 C 168.000 436.515,167.190 437.631,166.200 438.621 C 165.210 439.611,164.400 440.707,164.400 441.058 C 164.400 441.786,161.302 445.035,160.946 444.680 C 160.818 444.551,159.481 446.100,157.976 448.123 C 156.472 450.145,154.771 452.430,154.198 453.200 C 151.533 456.779,146.372 463.901,144.200 466.998 C 141.447 470.923,141.277 471.160,139.439 473.625 C 138.115 475.400,132.855 483.107,127.716 490.800 C 126.320 492.890,125.003 494.660,124.789 494.733 C 124.537 494.820,124.400 432.996,124.400 319.839 L 124.400 144.812 125.584 142.887 C 126.236 141.829,128.981 137.608,131.684 133.508 C 134.388 129.408,137.500 124.595,138.600 122.813 C 139.700 121.031,141.378 118.364,142.330 116.886 C 143.281 115.409,144.234 113.840,144.447 113.400 C 144.869 112.529,145.282 111.837,146.837 109.400 C 147.399 108.520,147.979 107.530,148.127 107.200 C 148.434 106.512,148.881 105.805,150.700 103.124 C 151.415 102.070,152.000 101.041,152.000 100.837 C 152.000 100.634,152.135 100.407,152.300 100.333 C 152.465 100.260,153.316 99.120,154.191 97.800 C 156.826 93.824,159.657 90.194,160.040 90.300 C 160.238 90.355,160.400 89.712,160.400 88.872 C 160.400 87.528,160.714 87.024,163.000 84.704 C 164.430 83.253,165.600 81.781,165.600 81.434 C 165.600 81.086,166.770 79.638,168.200 78.215 C 169.630 76.792,170.800 75.341,170.800 74.992 C 170.800 74.642,171.880 73.296,173.200 72.000 C 174.520 70.704,175.600 69.342,175.600 68.973 C 175.600 68.603,176.770 67.142,178.200 65.726 C 179.630 64.310,180.800 62.830,180.800 62.437 C 180.800 62.044,181.880 60.692,183.200 59.433 C 184.520 58.173,185.600 56.834,185.600 56.457 C 185.600 56.079,186.500 54.883,187.600 53.800 C 188.700 52.717,189.600 51.548,189.600 51.203 C 189.600 50.857,190.680 49.506,192.000 48.200 C 193.322 46.892,194.408 45.460,194.417 45.013 C 194.426 44.566,194.966 43.758,195.617 43.219 C 196.268 42.679,196.800 41.993,196.800 41.694 C 196.800 40.927,198.101 39.228,198.700 39.213 C 199.099 39.203,199.200 75.363,199.200 218.717 M123.983 321.500 L 123.966 498.600 122.783 499.581 C 122.131 500.122,121.600 500.956,121.600 501.438 C 121.600 501.920,121.330 502.418,121.000 502.545 C 120.670 502.671,120.400 503.194,120.400 503.706 C 120.400 504.250,119.908 505.046,119.217 505.619 C 118.566 506.158,118.026 506.976,118.017 507.436 C 118.008 507.895,117.370 508.845,116.600 509.545 C 115.830 510.246,115.200 511.153,115.200 511.561 C 115.200 511.968,114.930 512.526,114.600 512.800 C 114.270 513.074,114.000 513.602,114.000 513.974 C 114.000 514.346,113.460 515.168,112.800 515.800 C 112.140 516.432,111.600 517.254,111.600 517.626 C 111.600 517.998,111.330 518.526,111.000 518.800 C 110.670 519.074,110.400 519.606,110.400 519.982 C 110.400 520.359,109.865 521.192,109.211 521.833 C 108.557 522.475,108.017 523.362,108.011 523.804 C 108.005 524.246,107.640 524.832,107.200 525.107 C 106.760 525.382,106.400 526.012,106.400 526.508 C 106.400 527.022,105.885 527.834,105.200 528.400 C 104.504 528.975,104.000 529.776,104.000 530.308 C 104.000 530.812,103.730 531.329,103.400 531.455 C 103.070 531.582,102.800 532.083,102.800 532.568 C 102.800 533.053,102.260 533.968,101.600 534.600 C 100.940 535.232,100.400 536.042,100.400 536.400 C 100.400 536.758,99.860 537.568,99.200 538.200 C 98.540 538.832,98.000 539.636,98.000 539.985 C 98.000 542.568,89.849 547.867,89.055 545.800 C 88.929 545.470,88.403 545.200,87.888 545.200 C 86.673 545.200,85.200 543.224,85.200 541.593 C 85.200 540.911,85.051 540.445,84.868 540.558 C 84.246 540.943,79.376 534.028,74.054 525.200 C 69.594 517.802,60.000 499.155,60.000 497.884 C 60.000 497.759,59.445 496.428,58.768 494.928 C 58.090 493.428,57.280 491.633,56.968 490.940 C 56.655 490.246,56.400 489.402,56.400 489.063 C 56.400 488.724,56.234 488.345,56.031 488.219 C 55.828 488.094,55.534 487.409,55.377 486.697 C 55.221 485.985,54.862 484.862,54.580 484.202 C 54.298 483.541,53.219 480.660,52.182 477.800 C 49.267 469.759,47.818 466.523,47.421 467.166 C 46.916 467.983,46.400 467.174,46.400 465.564 C 46.400 464.520,46.194 463.896,45.800 463.745 C 45.470 463.618,45.200 463.106,45.200 462.606 C 45.200 462.107,44.930 461.474,44.600 461.200 C 44.270 460.926,44.000 460.386,44.000 460.000 C 44.000 459.614,43.730 459.074,43.400 458.800 C 43.070 458.526,42.800 457.716,42.800 457.000 C 42.800 456.284,42.530 455.474,42.200 455.200 C 41.870 454.926,41.600 454.377,41.600 453.980 C 41.600 453.582,41.330 452.987,41.000 452.657 C 40.670 452.327,40.400 451.691,40.400 451.243 C 40.400 450.795,40.040 450.235,39.600 450.000 C 39.128 449.747,38.800 449.162,38.800 448.573 C 38.800 448.024,38.530 447.471,38.200 447.345 C 37.813 447.196,37.600 446.578,37.600 445.606 C 37.600 444.754,37.339 443.882,37.000 443.600 C 36.670 443.326,36.400 442.786,36.400 442.400 C 36.400 442.014,36.130 441.474,35.800 441.200 C 35.470 440.926,35.200 440.293,35.200 439.794 C 35.200 439.294,34.930 438.782,34.600 438.655 C 34.270 438.529,34.000 438.081,34.000 437.662 C 34.000 437.242,33.730 436.674,33.400 436.400 C 33.070 436.126,32.800 435.468,32.800 434.938 C 32.800 434.409,32.530 433.871,32.200 433.745 C 31.870 433.618,31.600 433.090,31.600 432.571 C 31.600 432.038,31.253 431.442,30.800 431.200 C 30.328 430.947,30.000 430.362,30.000 429.773 C 30.000 429.224,29.730 428.671,29.400 428.545 C 29.070 428.418,28.800 427.906,28.800 427.406 C 28.800 426.907,28.530 426.274,28.200 426.000 C 27.870 425.726,27.600 424.916,27.600 424.200 C 27.600 423.484,27.330 422.674,27.000 422.400 C 26.670 422.126,26.400 421.493,26.400 420.994 C 26.400 420.494,26.130 419.982,25.800 419.855 C 25.470 419.729,25.200 419.272,25.200 418.841 C 25.200 418.410,24.930 417.787,24.600 417.457 C 24.270 417.127,24.000 416.479,24.000 416.016 C 24.000 415.553,23.730 415.071,23.400 414.945 C 23.070 414.818,22.800 414.290,22.800 413.771 C 22.800 413.238,22.453 412.642,22.000 412.400 C 21.550 412.159,21.200 411.562,21.200 411.035 C 21.200 410.520,20.930 409.874,20.600 409.600 C 20.270 409.326,20.000 408.786,20.000 408.400 C 20.000 408.014,19.730 407.474,19.400 407.200 C 19.070 406.926,18.800 406.116,18.800 405.400 C 18.800 404.684,18.530 403.874,18.200 403.600 C 17.870 403.326,17.600 402.786,17.600 402.400 C 17.600 402.014,17.330 401.474,17.000 401.200 C 16.670 400.926,16.400 400.268,16.400 399.738 C 16.400 399.209,16.130 398.671,15.800 398.545 C 15.408 398.394,15.200 397.771,15.200 396.745 C 15.200 395.718,14.992 395.095,14.600 394.945 C 14.270 394.818,14.000 394.306,14.000 393.806 C 14.000 393.307,13.730 392.674,13.400 392.400 C 13.070 392.126,12.800 391.592,12.800 391.213 C 12.800 390.834,12.440 390.198,12.000 389.800 C 11.515 389.361,11.200 388.568,11.200 387.787 C 11.200 387.078,10.930 386.274,10.600 386.000 C 10.270 385.726,10.000 385.093,10.000 384.594 C 10.000 384.094,9.730 383.582,9.400 383.455 C 8.511 383.114,8.511 372.596,9.400 372.255 C 9.797 372.103,10.000 371.476,10.000 370.400 C 10.000 369.324,10.203 368.697,10.600 368.545 C 10.985 368.397,11.200 367.779,11.200 366.819 C 11.200 365.832,11.472 365.078,12.000 364.600 C 12.485 364.161,12.800 363.368,12.800 362.587 C 12.800 361.878,13.070 361.074,13.400 360.800 C 13.739 360.518,14.000 359.646,14.000 358.794 C 14.000 357.822,14.213 357.204,14.600 357.055 C 14.930 356.929,15.200 356.389,15.200 355.855 C 15.200 355.322,15.470 354.782,15.800 354.655 C 16.192 354.505,16.400 353.882,16.400 352.862 C 16.400 351.960,16.654 351.087,17.000 350.800 C 17.330 350.526,17.600 349.716,17.600 349.000 C 17.600 348.284,17.870 347.474,18.200 347.200 C 18.530 346.926,18.800 346.386,18.800 346.000 C 18.800 345.614,19.070 345.074,19.400 344.800 C 19.730 344.526,20.000 343.716,20.000 343.000 C 20.000 342.284,20.270 341.474,20.600 341.200 C 20.930 340.926,21.200 340.280,21.200 339.765 C 21.200 339.238,21.550 338.641,22.000 338.400 C 22.587 338.086,22.800 337.562,22.800 336.435 C 22.800 335.557,23.057 334.685,23.400 334.400 C 23.730 334.126,24.000 333.586,24.000 333.200 C 24.000 332.814,24.270 332.274,24.600 332.000 C 24.930 331.726,25.200 331.186,25.200 330.800 C 25.200 330.414,25.470 329.874,25.800 329.600 C 26.130 329.326,26.400 328.693,26.400 328.194 C 26.400 327.694,26.670 327.182,27.000 327.055 C 27.397 326.903,27.600 326.276,27.600 325.200 C 27.600 324.124,27.803 323.497,28.200 323.345 C 28.530 323.218,28.800 322.678,28.800 322.145 C 28.800 321.611,29.070 321.071,29.400 320.945 C 29.730 320.818,30.000 320.324,30.000 319.846 C 30.000 319.369,30.360 318.670,30.800 318.293 C 31.240 317.916,31.600 317.268,31.600 316.853 C 31.600 316.438,31.870 315.874,32.200 315.600 C 32.530 315.326,32.800 314.786,32.800 314.400 C 32.800 314.014,33.070 313.474,33.400 313.200 C 33.739 312.918,34.000 312.046,34.000 311.194 C 34.000 310.222,34.213 309.604,34.600 309.455 C 34.930 309.329,35.200 308.789,35.200 308.255 C 35.200 307.722,35.470 307.182,35.800 307.055 C 36.130 306.929,36.400 306.364,36.400 305.800 C 36.400 305.236,36.670 304.671,37.000 304.545 C 37.330 304.418,37.600 303.878,37.600 303.345 C 37.600 302.811,37.870 302.271,38.200 302.145 C 38.530 302.018,38.800 301.524,38.800 301.046 C 38.800 300.569,39.160 299.870,39.600 299.493 C 40.040 299.116,40.400 298.468,40.400 298.053 C 40.400 297.638,40.670 297.074,41.000 296.800 C 41.330 296.526,41.600 295.986,41.600 295.600 C 41.600 295.214,41.870 294.674,42.200 294.400 C 42.539 294.118,42.800 293.246,42.800 292.394 C 42.800 291.422,43.013 290.804,43.400 290.655 C 43.730 290.529,44.000 289.989,44.000 289.455 C 44.000 288.922,44.270 288.382,44.600 288.255 C 44.930 288.129,45.200 287.578,45.200 287.032 C 45.200 286.486,45.457 285.896,45.770 285.720 C 46.084 285.544,46.399 284.694,46.470 283.831 C 46.600 282.260,47.572 281.286,47.632 282.667 C 47.655 283.212,47.714 283.246,47.861 282.800 C 47.970 282.470,48.216 281.840,48.407 281.400 C 50.203 277.284,52.957 270.180,54.535 265.600 C 55.188 263.702,57.006 257.705,58.353 253.000 C 60.703 244.797,61.853 241.557,64.103 236.800 C 65.360 234.143,69.136 227.561,69.611 227.200 C 69.756 227.090,70.563 226.010,71.405 224.800 C 72.246 223.590,73.337 222.150,73.829 221.600 C 74.320 221.050,76.585 218.443,78.861 215.807 C 83.725 210.174,84.499 209.366,84.900 209.500 C 85.065 209.555,85.200 209.123,85.200 208.540 C 85.200 207.855,85.695 207.001,86.600 206.121 C 87.370 205.373,88.000 204.452,88.000 204.075 C 88.000 203.697,88.810 202.603,89.800 201.644 C 90.790 200.684,91.600 199.596,91.600 199.225 C 91.600 198.853,92.140 198.032,92.800 197.400 C 93.460 196.768,94.000 195.946,94.000 195.574 C 94.000 195.202,94.270 194.674,94.600 194.400 C 94.930 194.126,95.200 193.322,95.200 192.613 C 95.200 191.832,95.515 191.039,96.000 190.600 C 96.528 190.122,96.800 189.368,96.800 188.381 C 96.800 187.421,97.015 186.803,97.400 186.655 C 97.792 186.505,98.000 185.882,98.000 184.862 C 98.000 183.960,98.254 183.087,98.600 182.800 C 98.930 182.526,99.200 181.998,99.200 181.626 C 99.200 181.254,99.740 180.432,100.400 179.800 C 101.060 179.168,101.600 178.346,101.600 177.974 C 101.600 177.602,101.870 177.074,102.200 176.800 C 102.530 176.526,102.800 175.959,102.800 175.539 C 102.800 175.119,103.430 174.222,104.200 173.546 C 104.970 172.870,105.608 171.931,105.617 171.459 C 105.626 170.986,106.166 170.158,106.817 169.619 C 107.468 169.079,108.008 168.269,108.017 167.819 C 108.026 167.368,108.566 166.558,109.217 166.019 C 109.868 165.479,110.400 164.661,110.400 164.200 C 110.400 163.739,110.932 162.921,111.583 162.381 C 112.234 161.842,112.774 161.024,112.783 160.564 C 112.792 160.105,113.430 159.155,114.200 158.455 C 114.970 157.754,115.600 156.859,115.600 156.465 C 115.600 156.072,116.140 155.232,116.800 154.600 C 117.460 153.968,118.000 153.158,118.000 152.800 C 118.000 152.442,118.540 151.632,119.200 151.000 C 119.860 150.368,120.400 149.558,120.400 149.200 C 120.400 148.842,120.940 148.032,121.600 147.400 C 122.260 146.768,122.800 145.954,122.800 145.592 C 122.800 144.873,123.144 144.400,123.667 144.400 C 123.850 144.400,123.992 224.095,123.983 321.500 " stroke="none" fill="#f90404" fill-rule="evenodd"></path><path id="path2" d="M223.000 11.259 C 220.055 13.006,213.898 20.127,204.470 32.688 L 199.600 39.175 199.600 217.121 C 199.600 314.991,199.710 395.177,199.844 395.311 C 199.979 395.446,200.558 394.981,201.132 394.278 C 201.706 393.575,203.891 391.098,205.988 388.774 C 213.298 380.669,216.320 376.469,217.205 373.180 C 217.564 371.846,217.921 371.425,219.110 370.928 C 220.909 370.176,221.571 369.351,221.587 367.835 C 221.600 366.681,223.360 363.200,223.931 363.200 C 224.094 363.200,224.530 362.705,224.899 362.100 C 225.592 360.963,226.633 359.799,232.155 353.981 C 233.940 352.101,236.075 349.805,236.900 348.880 L 238.400 347.198 238.400 183.821 L 238.400 20.444 235.204 17.628 C 229.058 12.212,224.980 10.084,223.000 11.259 M277.492 65.841 C 277.068 66.266,277.128 307.108,277.553 307.371 C 277.747 307.491,280.790 304.576,284.317 300.894 C 287.843 297.212,291.839 293.057,293.197 291.661 C 295.671 289.117,297.316 287.333,302.673 281.388 C 304.254 279.635,306.285 277.390,307.187 276.400 C 308.089 275.410,310.441 272.497,312.413 269.928 L 316.000 265.255 315.995 185.528 L 315.991 105.800 313.695 103.372 C 312.433 102.037,309.483 98.887,307.139 96.372 C 304.795 93.857,301.758 90.630,300.389 89.200 C 299.021 87.770,294.549 83.090,290.452 78.800 C 286.355 74.510,281.829 69.773,280.394 68.274 C 278.959 66.775,277.653 65.680,277.492 65.841 M157.767 92.722 C 156.679 94.195,155.071 96.480,154.194 97.800 C 153.317 99.120,152.465 100.260,152.300 100.333 C 152.135 100.407,152.000 100.634,152.000 100.837 C 152.000 101.041,151.415 102.070,150.700 103.124 C 148.881 105.805,148.434 106.512,148.127 107.200 C 147.979 107.530,147.399 108.520,146.837 109.400 C 145.282 111.837,144.869 112.529,144.447 113.400 C 144.234 113.840,143.281 115.409,142.330 116.886 C 141.378 118.364,139.700 121.031,138.600 122.813 C 137.500 124.595,134.388 129.408,131.684 133.508 C 128.981 137.608,126.236 141.829,125.584 142.887 L 124.400 144.812 124.400 319.839 C 124.400 432.996,124.537 494.820,124.789 494.733 C 125.003 494.660,126.320 492.890,127.716 490.800 C 132.855 483.107,138.115 475.400,139.439 473.625 C 141.277 471.160,141.447 470.923,144.200 466.998 C 147.501 462.290,152.641 455.252,157.815 448.354 L 160.400 444.908 160.400 267.678 C 160.400 170.201,160.253 90.356,160.073 90.245 C 159.894 90.134,158.856 91.249,157.767 92.722 M355.043 149.433 C 354.550 150.716,354.770 221.534,355.267 221.842 C 356.109 222.362,392.392 184.630,392.398 183.229 C 392.400 182.691,388.289 178.441,385.200 175.787 C 382.020 173.055,371.371 163.756,370.786 163.200 C 370.438 162.870,367.481 160.080,364.215 157.000 C 360.948 153.920,357.700 150.815,356.997 150.100 C 355.538 148.616,355.377 148.561,355.043 149.433 M83.631 210.333 C 83.108 210.920,80.889 213.470,78.701 216.000 C 76.513 218.530,74.320 221.050,73.829 221.600 C 73.337 222.150,72.246 223.590,71.405 224.800 C 70.563 226.010,69.756 227.090,69.611 227.200 C 69.136 227.561,65.360 234.143,64.103 236.800 C 61.853 241.557,60.703 244.797,58.353 253.000 C 57.006 257.705,55.188 263.702,54.535 265.600 C 52.511 271.478,49.147 279.982,48.286 281.400 C 47.909 282.020,47.777 302.899,47.697 374.315 L 47.593 466.429 48.426 468.315 C 48.883 469.352,49.493 470.740,49.781 471.400 C 50.068 472.060,51.151 474.940,52.186 477.800 C 53.221 480.660,54.298 483.541,54.580 484.202 C 54.862 484.862,55.221 485.985,55.377 486.697 C 55.534 487.409,55.828 488.094,56.031 488.219 C 56.234 488.345,56.400 488.724,56.400 489.063 C 56.400 489.402,56.655 490.246,56.968 490.940 C 57.280 491.633,58.090 493.428,58.768 494.928 C 59.445 496.428,60.000 497.759,60.000 497.884 C 60.000 499.155,69.594 517.802,74.054 525.200 C 79.376 534.028,84.246 540.943,84.868 540.558 C 85.287 540.299,85.310 209.715,84.892 209.457 C 84.722 209.352,84.155 209.746,83.631 210.333 " stroke="none" fill="#040404" fill-rule="evenodd"></path></g></svg>