<svg id="svg" version="1.1" xmlns="http://www.w3.org/2000/svg" xmlns:xlink="http://www.w3.org/1999/xlink" width="400" height="375.52742616033754" viewBox="0, 0, 400,375.52742616033754"><g id="svgg"><path id="path0" d="M113.491 7.317 C 113.009 7.582,112.071 8.326,111.407 8.970 C 110.743 9.614,109.984 10.141,109.722 10.141 C 109.460 10.141,108.687 10.732,108.006 11.455 C 107.324 12.178,106.532 12.773,106.247 12.776 C 105.961 12.780,104.996 13.540,104.101 14.466 C 103.207 15.392,102.272 16.150,102.023 16.150 C 101.774 16.150,100.653 17.080,99.531 18.216 C 98.408 19.352,97.312 20.282,97.094 20.282 C 96.876 20.282,95.184 21.803,93.333 23.662 C 91.483 25.521,89.757 27.042,89.499 27.042 C 89.241 27.042,87.843 28.245,86.393 29.716 L 83.756 32.389 83.756 123.710 L 83.756 215.030 91.365 222.633 C 95.550 226.814,99.145 230.235,99.355 230.235 C 99.564 230.235,101.080 231.587,102.723 233.239 C 104.366 234.892,105.944 236.244,106.229 236.244 C 106.514 236.244,107.648 237.174,108.748 238.310 C 109.849 239.446,110.971 240.377,111.243 240.378 C 111.953 240.382,114.930 243.515,114.930 244.257 C 114.930 244.601,115.099 244.883,115.305 244.883 C 115.512 244.883,115.681 245.812,115.681 246.948 L 115.681 249.014 117.371 249.014 C 118.630 249.014,119.061 249.159,119.061 249.583 C 119.061 250.637,121.384 253.897,122.136 253.897 C 122.873 253.897,122.492 10.679,121.754 10.011 C 121.377 9.669,120.896 9.390,120.686 9.390 C 120.476 9.390,119.997 9.050,119.622 8.636 C 118.044 6.892,115.323 6.307,113.491 7.317 M162.254 167.574 L 162.254 288.582 164.164 290.394 C 165.214 291.391,166.275 292.207,166.521 292.207 C 166.766 292.207,168.226 293.474,169.765 295.023 C 171.304 296.573,172.740 297.840,172.956 297.840 C 173.172 297.840,174.863 299.362,176.714 301.221 C 178.564 303.080,180.254 304.601,180.468 304.601 C 180.682 304.601,182.795 306.545,185.164 308.920 C 187.533 311.296,189.697 313.239,189.972 313.239 C 190.248 313.239,192.725 315.511,195.478 318.288 C 198.230 321.064,200.585 323.233,200.711 323.108 C 200.836 322.982,200.939 268.597,200.939 202.252 L 200.939 81.625 199.050 79.686 C 198.011 78.619,196.951 77.746,196.694 77.746 C 196.437 77.746,194.882 76.394,193.239 74.742 C 191.597 73.089,190.077 71.737,189.862 71.737 C 189.647 71.737,187.617 69.878,185.352 67.606 C 183.087 65.333,181.053 63.474,180.833 63.474 C 180.613 63.474,176.976 60.015,172.751 55.787 C 168.527 51.559,164.775 48.094,164.413 48.087 C 164.052 48.081,163.756 47.947,163.756 47.790 C 163.756 47.633,163.418 47.294,163.005 47.036 C 162.254 46.567,162.254 46.660,162.254 167.574 M42.347 79.586 C 41.366 80.587,40.563 81.623,40.563 81.888 C 40.563 82.153,39.465 83.447,38.122 84.764 C 36.779 86.080,35.681 87.368,35.681 87.626 C 35.681 87.884,34.498 89.269,33.052 90.704 C 31.606 92.139,30.423 93.493,30.423 93.712 C 30.423 93.931,29.493 95.028,28.357 96.150 C 27.221 97.272,26.291 98.406,26.291 98.669 C 26.291 98.932,25.531 99.864,24.601 100.738 C 23.671 101.613,22.911 102.601,22.911 102.934 C 22.911 103.267,22.155 104.201,21.231 105.009 C 20.307 105.818,19.546 106.741,19.541 107.062 C 19.535 107.383,18.939 108.219,18.216 108.920 C 17.493 109.621,16.901 110.382,16.901 110.610 C 16.901 110.839,16.310 111.600,15.587 112.300 C 14.864 113.001,14.272 113.770,14.272 114.009 C 14.272 114.247,13.765 114.973,13.146 115.622 C 12.526 116.270,12.019 117.032,12.019 117.315 C 12.019 117.598,11.596 118.146,11.080 118.534 C 10.563 118.922,10.141 119.511,10.141 119.843 C 10.141 120.175,9.803 120.753,9.390 121.127 C 8.977 121.501,8.638 122.004,8.638 122.246 C 8.638 122.488,8.216 123.083,7.700 123.568 C 7.183 124.053,6.761 124.759,6.761 125.136 C 6.761 125.513,6.592 125.822,6.385 125.822 C 5.459 125.822,6.057 127.974,7.324 129.202 C 8.047 129.903,8.638 130.702,8.638 130.978 C 8.638 131.254,9.906 132.731,11.455 134.260 C 13.005 135.790,14.272 137.249,14.272 137.504 C 14.272 137.759,15.793 139.477,17.653 141.322 C 19.512 143.167,21.033 144.874,21.033 145.116 C 21.033 145.358,22.554 147.070,24.413 148.920 C 26.272 150.771,27.793 152.461,27.793 152.676 C 27.793 152.891,29.315 154.581,31.174 156.432 C 33.033 158.282,34.554 159.998,34.554 160.245 C 34.554 160.492,36.244 162.393,38.310 164.470 C 40.376 166.548,42.066 168.476,42.066 168.756 C 42.066 169.220,44.053 171.268,44.504 171.268 C 44.609 171.268,44.695 150.225,44.695 124.507 C 44.695 98.789,44.568 77.751,44.413 77.756 C 44.258 77.761,43.329 78.585,42.347 79.586 M239.624 238.730 L 239.624 359.149 241.083 360.608 C 241.885 361.410,242.794 362.066,243.104 362.066 C 243.413 362.066,244.347 362.826,245.179 363.756 C 246.011 364.685,246.931 365.446,247.224 365.446 C 247.517 365.446,248.153 365.869,248.638 366.385 C 249.124 366.901,249.718 367.324,249.960 367.324 C 250.202 367.324,250.706 367.662,251.080 368.075 C 251.812 368.884,255.775 369.201,255.775 368.451 C 255.775 368.244,256.002 368.075,256.280 368.075 C 257.059 368.075,258.956 367.040,259.716 366.200 C 260.091 365.785,260.599 365.446,260.845 365.446 C 261.091 365.446,261.598 365.108,261.972 364.695 C 262.346 364.282,262.849 363.944,263.091 363.944 C 263.333 363.944,263.928 363.521,264.413 363.005 C 264.898 362.488,265.604 362.066,265.981 362.066 C 266.358 362.066,266.667 361.916,266.667 361.733 C 266.667 361.550,267.216 361.139,267.887 360.820 C 268.559 360.501,269.604 359.721,270.211 359.087 C 270.818 358.453,271.503 357.934,271.734 357.934 C 271.964 357.934,272.726 357.343,273.427 356.620 C 274.128 355.897,274.938 355.305,275.228 355.305 C 275.518 355.305,276.326 354.671,277.023 353.897 L 278.292 352.488 278.301 251.437 C 278.310 146.919,278.346 149.484,276.883 149.484 C 276.594 149.484,275.639 148.723,274.761 147.793 C 273.883 146.864,272.906 146.103,272.589 146.103 C 272.273 146.103,271.334 145.343,270.502 144.413 C 269.670 143.484,268.755 142.723,268.469 142.723 C 268.184 142.723,267.203 141.962,266.291 141.033 C 265.379 140.103,264.450 139.343,264.228 139.343 C 264.006 139.343,262.906 138.413,261.784 137.277 C 260.662 136.141,259.555 135.211,259.324 135.211 C 259.093 135.211,257.905 134.202,256.682 132.968 C 255.460 131.734,254.237 130.720,253.965 130.715 C 253.693 130.709,251.926 129.183,250.039 127.324 C 248.151 125.465,246.426 123.944,246.205 123.944 C 245.984 123.944,244.544 122.676,243.005 121.127 C 241.466 119.577,240.076 118.310,239.916 118.310 C 239.755 118.310,239.624 172.499,239.624 238.730 M317.371 251.080 C 317.371 288.779,317.506 319.624,317.671 319.624 C 317.836 319.624,318.892 318.697,320.018 317.564 C 321.144 316.431,322.285 315.501,322.552 315.498 C 322.820 315.495,324.116 314.394,325.432 313.052 C 326.749 311.709,328.055 310.610,328.334 310.610 C 328.613 310.610,330.356 309.089,332.207 307.230 C 334.057 305.371,335.747 303.850,335.962 303.850 C 336.178 303.850,337.868 302.329,339.718 300.469 C 341.569 298.610,343.259 297.089,343.475 297.089 C 343.691 297.089,345.212 295.737,346.854 294.085 C 348.497 292.432,350.058 291.080,350.322 291.080 C 350.587 291.080,351.985 289.896,353.430 288.448 L 356.056 285.816 356.056 250.687 L 356.056 215.557 354.539 214.070 C 353.704 213.252,352.842 212.582,352.622 212.582 C 352.402 212.582,350.346 210.723,348.052 208.451 C 345.758 206.178,343.702 204.319,343.484 204.319 C 343.265 204.319,341.148 202.376,338.779 200.000 C 336.410 197.624,334.296 195.681,334.080 195.681 C 333.864 195.681,332.598 194.582,331.268 193.239 C 329.937 191.897,328.636 190.798,328.376 190.798 C 328.116 190.798,326.974 189.869,325.838 188.732 C 324.702 187.596,323.556 186.667,323.292 186.667 C 323.027 186.667,321.899 185.737,320.785 184.601 C 316.975 180.717,317.371 173.013,317.371 251.080 " stroke="none" fill="#fcfcfc" fill-rule="evenodd"></path><path id="path1" d="M112.770 1.390 C 111.892 1.476,111.174 1.705,111.174 1.900 C 111.174 2.094,110.819 2.254,110.385 2.254 C 109.952 2.254,109.124 2.761,108.545 3.380 C 107.966 4.000,107.262 4.507,106.982 4.507 C 106.701 4.507,105.966 5.095,105.349 5.813 C 104.731 6.532,103.918 7.124,103.541 7.128 C 102.879 7.136,101.784 7.960,101.784 8.451 C 101.784 8.841,100.746 9.765,100.309 9.765 C 100.087 9.765,99.906 9.934,99.906 10.141 C 99.906 10.347,99.641 10.516,99.316 10.516 C 98.641 10.516,97.653 11.394,97.653 11.992 C 97.653 12.213,97.467 12.394,97.240 12.394 C 97.013 12.394,96.354 12.901,95.775 13.521 C 95.196 14.141,94.520 14.648,94.274 14.648 C 94.027 14.648,92.327 16.169,90.496 18.028 C 88.665 19.887,86.947 21.408,86.679 21.408 C 86.410 21.408,85.685 21.996,85.067 22.715 C 84.449 23.433,83.805 24.025,83.635 24.029 C 83.272 24.039,82.254 25.007,82.254 25.342 C 82.254 25.644,80.480 27.418,80.178 27.418 C 79.796 27.418,78.873 28.461,78.873 28.893 C 78.873 29.115,78.704 29.296,78.498 29.296 C 78.291 29.296,78.122 29.557,78.122 29.876 C 78.122 30.194,77.700 30.911,77.183 31.468 C 76.667 32.025,76.244 32.626,76.244 32.803 C 76.244 32.981,75.737 33.600,75.117 34.178 C 74.498 34.757,73.991 35.417,73.991 35.644 C 73.991 35.871,73.802 36.056,73.572 36.056 C 72.997 36.056,70.610 38.710,70.610 39.349 C 70.610 39.877,69.732 40.939,69.296 40.939 C 68.906 40.939,67.981 41.977,67.981 42.414 C 67.981 42.636,67.812 42.817,67.606 42.817 C 67.399 42.817,67.230 43.074,67.230 43.389 C 67.230 43.703,66.300 44.875,65.164 45.993 C 63.984 47.155,63.099 48.358,63.099 48.802 C 63.099 49.228,62.924 49.577,62.710 49.577 C 62.497 49.577,61.736 50.163,61.020 50.879 C 60.304 51.596,59.718 52.356,59.718 52.570 C 59.718 52.783,59.465 52.958,59.155 52.958 C 58.845 52.958,58.592 53.258,58.592 53.626 C 58.592 53.994,58.254 54.538,57.840 54.836 C 57.427 55.133,57.089 55.521,57.089 55.697 C 57.089 56.065,56.129 57.089,55.784 57.089 C 55.396 57.089,53.709 58.907,53.709 59.326 C 53.709 59.542,53.540 59.718,53.333 59.718 C 53.127 59.718,52.958 60.056,52.958 60.469 C 52.958 60.883,52.777 61.221,52.555 61.221 C 52.123 61.221,51.080 62.143,51.080 62.525 C 51.080 62.653,50.665 63.172,50.158 63.679 C 49.651 64.186,49.132 64.601,49.004 64.601 C 48.704 64.601,47.700 65.605,47.700 65.906 C 47.700 66.261,45.899 67.981,45.527 67.981 C 45.345 67.981,44.971 68.404,44.695 68.920 C 44.418 69.437,44.052 69.859,43.880 69.859 C 43.709 69.859,43.568 70.125,43.568 70.449 C 43.568 71.278,42.639 72.113,41.717 72.113 C 41.289 72.113,40.939 72.289,40.939 72.505 C 40.939 72.924,39.252 74.742,38.863 74.742 C 38.563 74.742,37.559 75.746,37.559 76.047 C 37.559 76.435,35.741 78.122,35.322 78.122 C 35.106 78.122,34.930 78.460,34.930 78.873 C 34.930 79.286,34.761 79.624,34.554 79.624 C 34.347 79.624,34.178 79.801,34.178 80.017 C 34.178 80.436,32.492 82.254,32.103 82.254 C 31.721 82.254,30.798 83.297,30.798 83.729 C 30.798 83.950,30.629 84.131,30.423 84.131 C 30.216 84.131,30.047 84.391,30.047 84.708 C 30.047 85.025,28.864 86.444,27.418 87.862 C 25.972 89.279,24.789 90.642,24.789 90.890 C 24.789 91.139,24.282 91.815,23.662 92.394 C 23.042 92.973,22.535 93.633,22.535 93.860 C 22.535 94.087,22.354 94.272,22.133 94.272 C 21.534 94.272,20.657 95.261,20.657 95.936 C 20.657 96.260,20.488 96.526,20.282 96.526 C 20.075 96.526,19.906 96.707,19.906 96.928 C 19.906 97.366,18.982 98.404,18.592 98.404 C 18.123 98.404,17.277 99.485,17.277 100.084 C 17.277 100.678,15.685 102.535,15.176 102.535 C 14.774 102.535,13.923 103.788,13.901 104.413 C 13.890 104.723,13.293 105.482,12.574 106.100 C 11.856 106.717,11.268 107.452,11.268 107.733 C 11.268 108.014,10.761 108.717,10.141 109.296 C 9.521 109.875,9.014 110.703,9.014 111.137 C 9.014 111.570,8.837 111.925,8.621 111.925 C 7.974 111.925,6.385 113.718,6.385 114.448 C 6.385 114.821,5.962 115.444,5.446 115.832 C 4.930 116.220,4.507 116.814,4.507 117.153 C 4.507 117.491,4.169 118.012,3.756 118.310 C 3.343 118.608,3.005 119.152,3.005 119.520 C 3.005 119.887,2.836 120.188,2.629 120.188 C 2.423 120.188,2.254 120.441,2.254 120.751 C 2.254 121.061,2.085 121.315,1.878 121.315 C 1.671 121.315,1.502 121.653,1.502 122.066 C 1.502 122.479,1.272 122.817,0.991 122.817 C 0.642 122.817,0.418 123.501,0.285 124.977 C 0.006 128.072,0.352 131.080,0.987 131.080 C 1.270 131.080,1.502 131.296,1.502 131.560 C 1.502 131.825,1.840 132.284,2.254 132.582 C 2.667 132.880,3.005 133.424,3.005 133.792 C 3.005 134.159,3.174 134.460,3.380 134.460 C 3.587 134.460,3.756 134.641,3.756 134.863 C 3.756 135.295,4.678 136.338,5.061 136.338 C 5.362 136.338,7.136 138.112,7.136 138.414 C 7.136 138.796,8.179 139.718,8.612 139.718 C 8.833 139.718,9.014 140.056,9.014 140.469 C 9.014 140.883,9.183 141.221,9.390 141.221 C 9.596 141.221,9.765 141.397,9.765 141.613 C 9.765 142.032,11.452 143.850,11.841 143.850 C 12.142 143.850,13.146 144.854,13.146 145.155 C 13.146 145.543,14.963 147.230,15.382 147.230 C 15.598 147.230,15.775 147.574,15.775 147.994 C 15.775 148.777,18.071 151.362,18.767 151.362 C 18.980 151.362,19.155 151.536,19.155 151.750 C 19.155 152.255,21.642 154.742,22.147 154.742 C 22.361 154.742,22.535 155.087,22.535 155.510 C 22.535 155.976,23.860 157.597,25.915 159.645 C 27.775 161.497,29.296 163.227,29.296 163.489 C 29.296 163.751,29.634 164.209,30.047 164.507 C 30.460 164.805,30.798 165.192,30.798 165.368 C 30.798 165.736,31.758 166.761,32.103 166.761 C 32.405 166.761,34.178 168.534,34.178 168.836 C 34.178 169.142,35.185 170.141,35.493 170.141 C 35.962 170.141,36.808 171.222,36.808 171.821 C 36.808 172.399,38.394 174.272,38.883 174.272 C 39.189 174.272,40.188 175.279,40.188 175.587 C 40.188 176.056,41.269 176.901,41.868 176.901 C 42.427 176.901,44.319 178.481,44.319 178.947 C 44.319 179.142,45.509 180.614,46.479 181.619 C 46.737 181.887,46.948 182.210,46.948 182.338 C 46.948 182.639,48.722 184.413,49.024 184.413 C 49.359 184.413,50.327 185.432,50.337 185.795 C 50.341 185.964,50.933 186.609,51.651 187.226 C 52.370 187.844,52.958 188.563,52.958 188.823 C 52.958 189.083,53.127 189.296,53.333 189.296 C 53.540 189.296,53.709 189.472,53.709 189.688 C 53.709 190.107,55.396 191.925,55.784 191.925 C 56.167 191.925,57.089 192.968,57.089 193.400 C 57.089 193.622,57.258 193.803,57.465 193.803 C 57.671 193.803,57.840 194.068,57.840 194.393 C 57.840 195.068,58.718 196.056,59.316 196.056 C 59.537 196.056,59.718 196.231,59.718 196.444 C 59.718 196.949,62.206 199.437,62.710 199.437 C 62.924 199.437,63.099 199.791,63.099 200.225 C 63.099 200.658,63.606 201.487,64.225 202.066 C 64.845 202.645,65.352 203.304,65.352 203.531 C 65.352 203.758,65.529 203.944,65.745 203.944 C 66.360 203.944,67.787 205.525,68.378 206.861 C 68.674 207.529,69.051 208.075,69.217 208.075 C 69.563 208.075,71.362 209.808,71.362 210.141 C 71.362 210.435,73.141 212.207,73.437 212.207 C 73.738 212.207,74.742 213.211,74.742 213.511 C 74.742 213.813,76.516 215.587,76.817 215.587 C 77.278 215.587,78.122 216.674,78.122 217.267 C 78.122 217.941,79.743 219.718,80.359 219.718 C 80.574 219.718,80.751 219.893,80.751 220.106 C 80.751 220.611,83.238 223.099,83.743 223.099 C 83.957 223.099,84.131 223.273,84.131 223.487 C 84.131 223.992,86.619 226.479,87.124 226.479 C 87.337 226.479,87.512 226.654,87.512 226.867 C 87.512 227.372,89.999 229.859,90.504 229.859 C 90.717 229.859,90.892 230.034,90.892 230.247 C 90.892 230.752,93.379 233.239,93.884 233.239 C 94.098 233.239,94.272 233.416,94.272 233.632 C 94.272 234.247,96.049 235.869,96.723 235.869 C 97.317 235.869,98.404 236.713,98.404 237.173 C 98.404 237.475,100.178 239.249,100.479 239.249 C 100.785 239.249,101.784 240.255,101.784 240.563 C 101.784 241.032,102.865 241.878,103.464 241.878 C 104.042 241.878,105.915 243.464,105.915 243.953 C 105.915 244.336,106.959 245.258,107.391 245.258 C 107.612 245.258,107.793 245.427,107.793 245.634 C 107.793 245.840,108.131 246.009,108.545 246.009 C 109.095 246.009,109.296 246.260,109.296 246.948 C 109.296 247.465,109.465 247.887,109.671 247.887 C 109.878 247.887,110.047 248.817,110.047 249.953 C 110.047 251.351,110.199 252.021,110.516 252.027 C 110.775 252.031,111.491 252.623,112.109 253.341 C 112.727 254.060,113.451 254.648,113.718 254.648 C 114.294 254.648,116.808 257.082,116.808 257.640 C 116.808 257.854,117.024 258.028,117.288 258.028 C 117.552 258.028,118.012 258.366,118.310 258.779 C 118.608 259.192,119.152 259.531,119.520 259.531 C 119.887 259.531,120.188 259.700,120.188 259.906 C 120.188 260.113,120.441 260.282,120.751 260.282 C 121.061 260.282,121.315 260.463,121.315 260.684 C 121.315 261.282,122.303 262.160,122.978 262.160 C 123.302 262.160,123.568 262.329,123.568 262.535 C 123.568 262.742,123.745 262.911,123.961 262.911 C 124.471 262.911,126.197 264.637,126.197 265.147 C 126.197 265.363,126.541 265.540,126.961 265.540 C 127.744 265.540,130.329 267.836,130.329 268.532 C 130.329 268.746,130.545 268.920,130.809 268.920 C 131.073 268.920,131.533 269.258,131.831 269.671 C 132.129 270.085,132.673 270.423,133.041 270.423 C 133.408 270.423,133.709 270.592,133.709 270.798 C 133.709 271.005,133.962 271.174,134.272 271.174 C 134.582 271.174,134.836 271.342,134.836 271.547 C 134.836 272.084,138.430 275.681,138.967 275.681 C 139.214 275.681,139.891 276.188,140.469 276.808 C 141.048 277.427,141.708 277.934,141.935 277.934 C 142.162 277.934,142.347 278.111,142.347 278.327 C 142.347 278.942,144.124 280.563,144.798 280.563 C 145.392 280.563,146.479 281.407,146.479 281.868 C 146.479 282.170,148.253 283.944,148.554 283.944 C 148.937 283.944,149.859 284.987,149.859 285.419 C 149.859 285.641,150.197 285.822,150.610 285.822 C 151.023 285.822,151.362 285.991,151.362 286.197 C 151.362 286.404,151.538 286.573,151.754 286.573 C 152.173 286.573,153.991 288.260,153.991 288.648 C 153.991 288.949,154.995 289.953,155.295 289.953 C 155.597 289.953,157.371 291.727,157.371 292.029 C 157.371 292.329,158.375 293.333,158.676 293.333 C 158.977 293.333,160.751 295.107,160.751 295.409 C 160.751 295.791,161.795 296.714,162.227 296.714 C 162.448 296.714,162.629 296.883,162.629 297.089 C 162.629 297.296,162.886 297.465,163.199 297.465 C 163.513 297.465,165.105 298.817,166.738 300.469 C 168.371 302.122,169.936 303.474,170.216 303.474 C 170.497 303.474,170.970 303.812,171.268 304.225 C 171.565 304.638,172.025 304.977,172.289 304.977 C 172.554 304.977,172.770 305.151,172.770 305.365 C 172.770 305.870,175.257 308.357,175.762 308.357 C 175.976 308.357,176.150 308.538,176.150 308.759 C 176.150 309.358,177.139 310.235,177.814 310.235 C 178.138 310.235,178.404 310.404,178.404 310.610 C 178.404 310.817,178.585 310.986,178.806 310.986 C 179.238 310.986,180.282 311.909,180.282 312.291 C 180.282 312.592,182.055 314.366,182.357 314.366 C 182.658 314.366,183.662 315.370,183.662 315.671 C 183.662 316.060,185.480 317.746,185.898 317.746 C 186.114 317.746,186.291 317.915,186.291 318.122 C 186.291 318.329,186.629 318.498,187.042 318.498 C 187.455 318.498,187.793 318.679,187.793 318.900 C 187.793 319.332,188.716 320.376,189.098 320.376 C 189.400 320.376,191.174 322.149,191.174 322.451 C 191.174 322.752,192.178 323.756,192.479 323.756 C 192.780 323.756,194.554 325.530,194.554 325.831 C 194.554 326.176,195.579 327.136,195.947 327.136 C 196.122 327.136,196.510 327.474,196.808 327.887 C 197.160 328.376,197.780 328.638,198.581 328.638 C 199.258 328.638,199.812 328.813,199.812 329.027 C 199.812 329.532,202.299 332.019,202.804 332.019 C 203.018 332.019,203.192 332.192,203.192 332.405 C 203.192 332.908,209.815 339.531,210.318 339.531 C 210.531 339.531,210.704 339.712,210.704 339.933 C 210.704 340.531,211.693 341.408,212.368 341.408 C 212.692 341.408,212.958 341.577,212.958 341.784 C 212.958 341.991,213.139 342.160,213.360 342.160 C 213.792 342.160,214.836 343.082,214.836 343.464 C 214.836 343.766,216.609 345.540,216.911 345.540 C 217.212 345.540,218.216 346.544,218.216 346.845 C 218.216 347.146,219.990 348.920,220.291 348.920 C 220.592 348.920,221.596 349.924,221.596 350.225 C 221.596 350.527,223.370 352.300,223.672 352.300 C 224.054 352.300,224.977 353.344,224.977 353.776 C 224.977 353.997,225.315 354.178,225.728 354.178 C 226.141 354.178,226.479 354.347,226.479 354.554 C 226.479 354.761,226.656 354.930,226.872 354.930 C 227.290 354.930,229.108 356.616,229.108 357.005 C 229.108 357.340,230.127 358.308,230.490 358.318 C 230.659 358.322,231.304 358.914,231.921 359.633 C 232.539 360.351,233.342 360.939,233.705 360.939 C 234.088 360.939,234.366 361.220,234.366 361.607 C 234.366 361.975,234.704 362.519,235.117 362.817 C 235.531 363.115,235.869 363.502,235.869 363.678 C 235.869 364.046,236.829 365.070,237.173 365.070 C 237.562 365.070,239.249 366.888,239.249 367.307 C 239.249 367.523,239.604 367.700,240.037 367.700 C 240.485 367.700,241.516 368.430,242.422 369.390 C 243.300 370.319,244.260 371.080,244.555 371.080 C 244.851 371.080,245.336 371.418,245.634 371.831 C 245.932 372.244,246.488 372.582,246.870 372.582 C 247.632 372.582,248.638 373.422,248.638 374.058 C 248.638 374.751,258.376 374.594,258.644 373.897 C 258.762 373.587,259.180 373.333,259.571 373.333 C 259.962 373.333,260.282 373.164,260.282 372.958 C 260.282 372.751,260.667 372.582,261.138 372.582 C 261.609 372.582,262.237 372.244,262.535 371.831 C 262.833 371.418,263.377 371.080,263.745 371.080 C 264.112 371.080,264.413 370.826,264.413 370.516 C 264.413 370.207,264.667 369.953,264.977 369.953 C 265.286 369.953,265.540 369.784,265.540 369.577 C 265.540 369.371,265.841 369.202,266.208 369.202 C 266.576 369.202,267.120 368.864,267.418 368.451 C 267.716 368.038,268.344 367.700,268.815 367.700 C 269.286 367.700,269.671 367.518,269.671 367.297 C 269.671 366.692,270.663 365.822,271.352 365.822 C 272.026 365.822,273.803 364.200,273.803 363.585 C 273.803 363.369,274.158 363.192,274.591 363.192 C 275.025 363.192,275.853 362.685,276.432 362.066 C 277.011 361.446,277.696 360.939,277.954 360.939 C 278.212 360.939,279.141 360.178,280.019 359.249 C 280.897 358.319,281.801 357.559,282.029 357.559 C 282.256 357.559,282.441 357.384,282.441 357.171 C 282.441 356.666,284.929 354.178,285.433 354.178 C 285.647 354.178,285.822 353.925,285.822 353.615 C 285.822 353.305,286.122 353.052,286.490 353.052 C 286.857 353.052,287.402 352.714,287.700 352.300 C 287.997 351.887,288.385 351.549,288.560 351.549 C 289.013 351.549,289.953 350.553,289.953 350.074 C 289.953 349.852,290.291 349.671,290.704 349.671 C 291.117 349.671,291.455 349.502,291.455 349.296 C 291.455 349.089,291.632 348.920,291.848 348.920 C 292.267 348.920,294.085 347.233,294.085 346.845 C 294.085 346.384,295.171 345.540,295.765 345.540 C 296.439 345.540,298.216 343.919,298.216 343.303 C 298.216 343.087,298.402 342.911,298.629 342.911 C 298.856 342.911,299.515 342.404,300.094 341.784 C 300.673 341.164,301.417 340.657,301.747 340.657 C 302.077 340.657,302.347 340.404,302.347 340.094 C 302.347 339.784,302.530 339.531,302.752 339.531 C 302.975 339.531,303.807 338.854,304.601 338.028 C 305.395 337.202,306.271 336.526,306.547 336.526 C 306.823 336.526,307.555 335.938,308.173 335.219 C 308.790 334.501,309.435 333.909,309.604 333.905 C 309.973 333.895,310.986 332.925,310.986 332.582 C 310.986 332.113,312.067 331.268,312.666 331.268 C 313.244 331.268,315.117 329.681,315.117 329.192 C 315.117 328.847,316.142 327.887,316.510 327.887 C 316.686 327.887,317.073 327.549,317.371 327.136 C 317.669 326.723,318.134 326.385,318.405 326.385 C 318.675 326.385,318.994 326.131,319.113 325.822 C 319.232 325.512,319.666 325.258,320.077 325.258 C 320.489 325.258,321.299 324.751,321.878 324.131 C 322.457 323.512,323.116 323.005,323.343 323.005 C 323.570 323.005,323.756 322.824,323.756 322.602 C 323.756 322.004,324.745 321.127,325.419 321.127 C 325.744 321.127,326.009 320.958,326.009 320.751 C 326.009 320.545,326.190 320.376,326.412 320.376 C 326.844 320.376,327.887 319.453,327.887 319.071 C 327.887 318.682,329.705 316.995,330.124 316.995 C 330.340 316.995,330.516 316.826,330.516 316.620 C 330.516 316.413,330.854 316.244,331.268 316.244 C 331.681 316.244,332.019 316.063,332.019 315.842 C 332.019 315.410,332.941 314.366,333.324 314.366 C 333.625 314.366,335.399 312.592,335.399 312.291 C 335.399 311.946,336.424 310.986,336.792 310.986 C 336.967 310.986,337.355 310.648,337.653 310.235 C 337.950 309.822,338.495 309.484,338.862 309.484 C 339.230 309.484,339.531 309.230,339.531 308.920 C 339.531 308.610,339.705 308.357,339.919 308.357 C 340.424 308.357,342.911 305.870,342.911 305.365 C 342.911 305.151,343.097 304.977,343.323 304.977 C 343.550 304.977,344.210 304.469,344.789 303.850 C 345.368 303.230,346.044 302.723,346.291 302.723 C 346.539 302.723,348.070 301.371,349.694 299.718 C 351.318 298.066,352.864 296.708,353.131 296.702 C 353.690 296.688,354.930 295.815,354.930 295.434 C 354.930 295.114,356.689 293.333,357.005 293.333 C 357.306 293.333,358.310 292.329,358.310 292.029 C 358.310 291.727,360.084 289.953,360.385 289.953 C 360.686 289.953,361.690 288.949,361.690 288.648 C 361.690 288.260,363.508 286.573,363.927 286.573 C 364.143 286.573,364.319 286.404,364.319 286.197 C 364.319 285.991,364.657 285.822,365.070 285.822 C 365.484 285.822,365.822 285.645,365.822 285.429 C 365.822 285.010,367.508 283.192,367.897 283.192 C 368.279 283.192,369.202 282.149,369.202 281.717 C 369.202 281.496,369.540 281.315,369.953 281.315 C 370.366 281.315,370.704 281.146,370.704 280.939 C 370.704 280.732,370.881 280.563,371.097 280.563 C 371.516 280.563,373.333 278.877,373.333 278.488 C 373.333 278.027,374.420 277.183,375.014 277.183 C 375.688 277.183,377.465 275.562,377.465 274.947 C 377.465 274.731,377.718 274.554,378.028 274.554 C 378.338 274.554,378.592 274.385,378.592 274.178 C 378.592 273.972,378.892 273.803,379.260 273.803 C 379.627 273.803,380.172 273.465,380.469 273.052 C 380.767 272.638,381.227 272.300,381.491 272.300 C 381.756 272.300,381.972 272.124,381.972 271.908 C 381.972 271.293,383.749 269.671,384.423 269.671 C 385.016 269.671,386.103 268.827,386.103 268.367 C 386.103 267.877,387.976 266.291,388.554 266.291 C 389.154 266.291,390.235 265.445,390.235 264.977 C 390.235 264.587,391.273 263.662,391.710 263.662 C 391.932 263.662,392.113 263.493,392.113 263.286 C 392.113 263.080,392.413 262.911,392.781 262.911 C 393.148 262.911,393.693 262.573,393.991 262.160 C 394.288 261.746,394.756 261.408,395.029 261.408 C 395.302 261.408,396.486 260.471,397.660 259.324 L 399.795 257.240 399.934 253.409 C 400.076 249.502,399.560 247.887,398.172 247.887 C 397.938 247.887,397.746 247.714,397.746 247.502 C 397.746 246.910,395.438 244.507,394.869 244.507 C 394.593 244.507,394.366 244.332,394.366 244.119 C 394.366 243.905,393.780 243.145,393.064 242.429 C 392.348 241.713,391.587 241.127,391.374 241.127 C 391.161 241.127,390.986 240.952,390.986 240.739 C 390.986 240.234,388.499 237.746,387.994 237.746 C 387.780 237.746,387.606 237.572,387.606 237.358 C 387.606 236.876,385.129 234.366,384.654 234.366 C 384.462 234.366,384.208 234.113,384.090 233.803 C 383.971 233.493,383.652 233.239,383.381 233.239 C 383.110 233.239,382.645 232.901,382.347 232.488 C 382.050 232.075,381.662 231.737,381.487 231.737 C 381.119 231.737,380.094 230.777,380.094 230.432 C 380.094 230.136,378.323 228.357,378.028 228.357 C 377.734 228.357,375.962 226.577,375.962 226.281 C 375.962 225.899,374.919 224.977,374.487 224.977 C 374.266 224.977,374.085 224.808,374.085 224.601 C 374.085 224.394,373.819 224.225,373.494 224.225 C 372.820 224.225,371.831 223.348,371.831 222.750 C 371.831 222.529,371.656 222.347,371.443 222.347 C 371.229 222.347,370.469 221.762,369.753 221.045 C 369.037 220.329,368.451 219.569,368.451 219.355 C 368.451 219.142,368.265 218.967,368.038 218.967 C 367.811 218.967,366.907 218.207,366.029 217.277 C 365.151 216.347,364.230 215.587,363.983 215.587 C 363.323 215.587,361.690 213.841,361.690 213.136 C 361.690 212.542,360.846 211.455,360.385 211.455 C 360.084 211.455,358.310 209.682,358.310 209.380 C 358.310 208.998,357.267 208.075,356.834 208.075 C 356.613 208.075,356.432 207.906,356.432 207.700 C 356.432 207.493,356.166 207.324,355.842 207.324 C 355.167 207.324,354.178 206.447,354.178 205.848 C 354.178 205.627,354.004 205.446,353.790 205.446 C 353.577 205.446,352.816 204.860,352.100 204.144 C 351.384 203.428,350.798 202.667,350.798 202.454 C 350.798 202.240,350.612 202.066,350.385 202.066 C 350.158 202.066,349.254 201.305,348.376 200.376 C 347.498 199.446,346.568 198.685,346.310 198.685 C 346.052 198.685,345.368 198.178,344.789 197.559 C 344.210 196.939,343.550 196.432,343.323 196.432 C 343.097 196.432,342.911 196.257,342.911 196.044 C 342.911 195.830,342.325 195.070,341.609 194.354 C 340.893 193.638,340.132 193.052,339.919 193.052 C 339.705 193.052,339.531 192.875,339.531 192.659 C 339.531 192.044,337.754 190.423,337.079 190.423 C 336.486 190.423,335.399 189.579,335.399 189.118 C 335.399 188.816,333.625 187.042,333.324 187.042 C 332.941 187.042,332.019 185.999,332.019 185.567 C 332.019 185.345,331.681 185.164,331.268 185.164 C 330.854 185.164,330.516 184.995,330.516 184.789 C 330.516 184.582,330.340 184.413,330.124 184.413 C 329.705 184.413,327.887 182.726,327.887 182.338 C 327.887 181.877,326.800 181.033,326.207 181.033 C 325.533 181.033,323.756 179.412,323.756 178.796 C 323.756 178.580,323.540 178.404,323.275 178.404 C 323.011 178.404,322.551 178.066,322.254 177.653 C 321.930 177.204,321.281 176.901,320.641 176.901 C 319.666 176.901,318.498 176.185,318.498 175.587 C 318.498 175.118,317.417 174.272,316.817 174.272 C 316.223 174.272,314.366 172.680,314.366 172.171 C 314.366 171.790,313.126 170.918,312.566 170.904 C 312.299 170.897,311.172 169.962,310.063 168.826 C 308.954 167.690,307.778 166.761,307.450 166.761 C 307.123 166.761,306.854 166.592,306.854 166.385 C 306.854 166.178,306.601 166.009,306.291 166.009 C 305.981 166.009,305.728 165.833,305.728 165.617 C 305.728 165.002,303.951 163.380,303.277 163.380 C 302.677 163.380,301.596 162.535,301.596 162.066 C 301.596 161.603,300.519 160.751,299.933 160.751 C 299.608 160.751,299.343 160.582,299.343 160.376 C 299.343 160.169,299.162 160.000,298.940 160.000 C 298.488 160.000,297.465 159.070,297.465 158.660 C 297.465 158.251,296.220 157.398,295.587 157.373 C 295.277 157.360,294.362 156.594,293.554 155.671 C 292.746 154.747,291.842 153.991,291.545 153.991 C 291.248 153.991,290.532 153.484,289.953 152.864 C 289.374 152.244,288.715 151.737,288.488 151.737 C 288.261 151.737,288.075 151.484,288.075 151.174 C 288.075 150.864,287.774 150.610,287.407 150.610 C 287.039 150.610,286.495 150.272,286.197 149.859 C 285.899 149.446,285.512 149.108,285.336 149.108 C 284.968 149.108,283.944 148.148,283.944 147.803 C 283.944 147.502,282.170 145.728,281.868 145.728 C 281.486 145.728,280.563 144.684,280.563 144.252 C 280.563 144.031,280.225 143.850,279.812 143.850 C 279.399 143.850,279.061 143.681,279.061 143.474 C 279.061 143.268,278.884 143.099,278.668 143.099 C 278.159 143.099,276.432 141.372,276.432 140.862 C 276.432 140.646,276.077 140.469,275.644 140.469 C 275.196 140.469,274.165 139.739,273.259 138.779 C 272.381 137.850,271.451 137.089,271.193 137.089 C 270.935 137.089,270.250 136.582,269.671 135.962 C 269.092 135.343,268.433 134.836,268.206 134.836 C 267.979 134.836,267.793 134.582,267.793 134.272 C 267.793 133.962,267.493 133.709,267.125 133.709 C 266.758 133.709,266.213 133.371,265.915 132.958 C 265.618 132.545,265.230 132.207,265.055 132.207 C 264.681 132.207,263.662 131.244,263.662 130.892 C 263.662 130.423,262.581 129.577,261.982 129.577 C 261.404 129.577,259.531 127.991,259.531 127.502 C 259.531 127.120,258.487 126.197,258.055 126.197 C 257.834 126.197,257.653 126.028,257.653 125.822 C 257.653 125.615,257.387 125.446,257.062 125.446 C 256.388 125.446,255.399 124.569,255.399 123.970 C 255.399 123.749,255.224 123.568,255.011 123.568 C 254.506 123.568,252.019 121.081,252.019 120.576 C 252.019 120.362,251.803 120.188,251.538 120.188 C 251.274 120.188,250.814 119.850,250.516 119.437 C 250.219 119.023,249.674 118.685,249.307 118.685 C 248.939 118.685,248.638 118.516,248.638 118.310 C 248.638 118.103,248.385 117.934,248.075 117.934 C 247.765 117.934,247.512 117.760,247.512 117.546 C 247.512 117.041,245.025 114.554,244.520 114.554 C 244.306 114.554,244.131 114.373,244.131 114.152 C 244.131 113.553,243.143 112.676,242.468 112.676 C 242.144 112.676,241.878 112.507,241.878 112.300 C 241.878 112.094,241.697 111.925,241.476 111.925 C 241.043 111.925,240.000 111.002,240.000 110.620 C 240.000 110.318,238.226 108.545,237.925 108.545 C 237.624 108.545,236.620 107.541,236.620 107.240 C 236.620 106.944,234.849 105.164,234.554 105.164 C 234.432 105.164,233.919 104.784,233.414 104.319 C 231.086 102.176,230.622 101.784,230.409 101.784 C 230.111 101.784,229.108 100.778,229.108 100.479 C 229.108 100.178,227.334 98.404,227.032 98.404 C 226.732 98.404,225.728 97.400,225.728 97.099 C 225.728 96.797,223.954 95.023,223.652 95.023 C 223.351 95.023,222.347 94.019,222.347 93.719 C 222.347 93.417,220.574 91.643,220.272 91.643 C 219.966 91.643,218.967 90.637,218.967 90.329 C 218.967 89.939,217.929 89.014,217.492 89.014 C 217.270 89.014,217.089 88.845,217.089 88.638 C 217.089 88.432,216.824 88.263,216.499 88.263 C 215.913 88.263,214.836 87.411,214.836 86.948 C 214.836 86.640,213.837 85.634,213.531 85.634 C 213.142 85.634,211.455 83.816,211.455 83.397 C 211.455 83.181,211.302 83.005,211.114 83.005 C 210.622 83.005,203.944 76.390,203.944 75.902 C 203.944 75.677,203.758 75.493,203.531 75.493 C 203.304 75.493,202.400 74.732,201.522 73.803 C 200.643 72.873,199.714 72.113,199.456 72.113 C 199.198 72.113,198.513 71.606,197.934 70.986 C 197.355 70.366,196.696 69.859,196.469 69.859 C 196.242 69.859,196.056 69.685,196.056 69.471 C 196.056 68.775,193.472 66.479,192.689 66.479 C 192.269 66.479,191.925 66.302,191.925 66.086 C 191.925 65.667,190.238 63.850,189.849 63.850 C 189.549 63.850,188.545 62.846,188.545 62.545 C 188.545 62.243,186.771 60.469,186.469 60.469 C 186.163 60.469,185.164 59.463,185.164 59.155 C 185.164 58.686,184.083 57.840,183.484 57.840 C 182.906 57.840,181.033 56.254,181.033 55.765 C 181.033 55.464,180.029 54.460,179.728 54.460 C 179.426 54.460,177.653 52.686,177.653 52.385 C 177.653 52.084,176.649 51.080,176.348 51.080 C 176.046 51.080,174.272 49.306,174.272 49.004 C 174.272 48.704,173.268 47.700,172.968 47.700 C 172.666 47.700,170.892 45.926,170.892 45.624 C 170.892 45.279,169.867 44.319,169.499 44.319 C 169.324 44.319,168.936 43.981,168.638 43.568 C 168.341 43.155,167.796 42.817,167.429 42.817 C 167.061 42.817,166.761 42.624,166.761 42.389 C 166.761 41.876,165.635 40.968,164.978 40.951 C 164.721 40.944,161.338 37.759,157.461 33.873 C 153.583 29.987,149.864 26.565,149.196 26.270 C 148.528 25.974,147.981 25.599,147.981 25.436 C 147.981 24.998,145.441 22.535,144.989 22.535 C 144.776 22.535,144.601 22.347,144.601 22.116 C 144.601 21.466,141.906 19.155,141.147 19.155 C 140.774 19.155,140.469 18.978,140.469 18.762 C 140.469 18.343,138.783 16.526,138.394 16.526 C 138.088 16.526,137.089 15.519,137.089 15.211 C 137.089 14.742,136.008 13.897,135.409 13.897 C 134.771 13.897,132.958 12.289,132.958 11.724 C 132.958 11.543,132.535 11.168,132.019 10.892 C 131.502 10.616,131.080 10.249,131.080 10.077 C 131.080 9.906,130.829 9.765,130.523 9.765 C 129.901 9.765,125.446 5.488,125.446 4.890 C 125.446 4.679,125.192 4.507,124.883 4.507 C 124.573 4.507,124.319 4.338,124.319 4.131 C 124.319 3.925,124.019 3.756,123.651 3.756 C 123.283 3.756,122.739 3.418,122.441 3.005 C 122.144 2.592,121.529 2.254,121.075 2.254 C 120.622 2.254,120.194 2.106,120.125 1.926 C 119.975 1.533,115.016 1.172,112.770 1.390 M117.658 7.230 C 118.120 7.488,118.872 8.019,119.329 8.409 C 119.786 8.799,120.546 9.309,121.019 9.542 C 121.491 9.776,122.045 10.344,122.249 10.805 C 122.453 11.266,122.719 11.643,122.840 11.643 C 123.493 11.643,134.254 20.603,141.596 27.260 C 148.688 33.690,153.320 37.999,157.276 41.846 L 161.878 46.321 161.878 166.854 L 161.878 287.387 160.469 286.262 C 159.695 285.643,158.723 284.826,158.310 284.446 C 157.897 284.066,156.376 282.743,154.930 281.504 C 153.484 280.266,150.864 278.003,149.108 276.477 C 147.352 274.951,145.493 273.343,144.977 272.903 C 144.460 272.464,140.995 269.511,137.277 266.340 C 133.559 263.170,130.174 260.299,129.756 259.959 C 129.338 259.620,127.531 258.117,125.741 256.620 C 123.951 255.122,122.339 253.897,122.158 253.897 C 121.388 253.897,119.061 250.656,119.061 249.583 C 119.061 249.159,118.630 249.014,117.371 249.014 L 115.681 249.014 115.681 246.948 C 115.681 245.812,115.512 244.883,115.305 244.883 C 115.099 244.883,114.930 244.601,114.930 244.257 C 114.930 243.515,111.953 240.382,111.243 240.378 C 110.971 240.377,109.849 239.446,108.748 238.310 C 107.648 237.174,106.514 236.244,106.229 236.244 C 105.944 236.244,104.366 234.892,102.723 233.239 C 101.080 231.587,99.564 230.235,99.355 230.235 C 99.145 230.235,95.550 226.814,91.365 222.633 L 83.756 215.030 83.756 123.710 L 83.756 32.389 86.393 29.716 C 87.843 28.245,89.241 27.042,89.499 27.042 C 89.757 27.042,91.483 25.521,93.333 23.662 C 95.184 21.803,96.876 20.282,97.094 20.282 C 97.312 20.282,98.408 19.352,99.531 18.216 C 100.653 17.080,101.774 16.150,102.023 16.150 C 102.272 16.150,103.207 15.392,104.101 14.466 C 104.996 13.540,105.961 12.780,106.247 12.776 C 106.532 12.773,107.324 12.178,108.006 11.455 C 108.687 10.732,109.460 10.141,109.722 10.141 C 109.984 10.141,110.743 9.614,111.407 8.970 C 113.617 6.828,115.834 6.211,117.658 7.230 M83.371 124.038 L 83.361 213.897 79.709 210.120 C 74.677 204.916,70.916 200.714,64.601 193.239 C 60.307 188.157,54.096 181.045,52.958 179.906 C 52.854 179.803,52.094 178.953,51.268 178.017 C 46.204 172.281,44.920 170.941,44.648 171.108 C 44.234 171.365,42.066 169.390,42.066 168.756 C 42.066 168.476,40.376 166.548,38.310 164.470 C 36.244 162.393,34.554 160.492,34.554 160.245 C 34.554 159.998,33.033 158.282,31.174 156.432 C 29.315 154.581,27.793 152.891,27.793 152.676 C 27.793 152.461,26.272 150.771,24.413 148.920 C 22.554 147.070,21.033 145.358,21.033 145.116 C 21.033 144.874,19.512 143.167,17.653 141.322 C 15.793 139.477,14.272 137.759,14.272 137.504 C 14.272 137.249,13.005 135.790,11.455 134.260 C 9.906 132.731,8.638 131.254,8.638 130.978 C 8.638 130.702,8.047 129.903,7.324 129.202 C 6.057 127.974,5.459 125.822,6.385 125.822 C 6.592 125.822,6.761 125.513,6.761 125.136 C 6.761 124.759,7.183 124.053,7.700 123.568 C 8.216 123.083,8.638 122.488,8.638 122.246 C 8.638 122.004,8.977 121.501,9.390 121.127 C 9.803 120.753,10.141 120.175,10.141 119.843 C 10.141 119.511,10.563 118.922,11.080 118.534 C 11.596 118.146,12.019 117.598,12.019 117.315 C 12.019 117.032,12.526 116.270,13.146 115.622 C 13.765 114.973,14.272 114.247,14.272 114.009 C 14.272 113.770,14.864 113.001,15.587 112.300 C 16.310 111.600,16.901 110.839,16.901 110.610 C 16.901 110.382,17.493 109.621,18.216 108.920 C 18.939 108.219,19.535 107.383,19.541 107.062 C 19.546 106.741,20.307 105.818,21.231 105.009 C 22.155 104.201,22.911 103.267,22.911 102.934 C 22.911 102.601,23.671 101.613,24.601 100.738 C 25.531 99.864,26.291 98.932,26.291 98.669 C 26.291 98.406,27.221 97.272,28.357 96.150 C 29.493 95.028,30.423 93.931,30.423 93.712 C 30.423 93.493,31.606 92.139,33.052 90.704 C 34.498 89.269,35.681 87.884,35.681 87.626 C 35.681 87.368,36.779 86.080,38.122 84.764 C 39.465 83.447,40.563 82.153,40.563 81.888 C 40.563 81.298,43.967 77.770,44.550 77.756 C 44.779 77.751,45.783 76.859,46.780 75.775 C 47.776 74.690,50.390 71.859,52.588 69.484 C 56.287 65.486,58.666 62.807,64.340 56.252 C 65.540 54.867,68.809 50.897,71.604 47.430 C 76.196 41.736,82.822 34.178,83.222 34.178 C 83.309 34.178,83.376 74.615,83.371 124.038 M163.756 47.790 C 163.756 47.947,164.052 48.081,164.413 48.087 C 164.775 48.094,168.527 51.559,172.751 55.787 C 176.976 60.015,180.613 63.474,180.833 63.474 C 181.053 63.474,183.087 65.333,185.352 67.606 C 187.617 69.878,189.647 71.737,189.862 71.737 C 190.077 71.737,191.597 73.089,193.239 74.742 C 194.882 76.394,196.437 77.746,196.694 77.746 C 197.207 77.746,200.939 81.433,200.939 81.940 C 200.939 82.114,201.653 82.889,202.525 83.663 C 209.262 89.641,215.477 95.414,224.425 104.004 C 233.763 112.969,239.342 118.136,239.935 118.370 C 240.281 118.507,241.742 119.816,243.182 121.281 C 244.623 122.745,245.983 123.944,246.204 123.944 C 246.425 123.944,248.151 125.465,250.039 127.324 C 251.926 129.183,253.693 130.709,253.965 130.715 C 254.237 130.720,255.460 131.734,256.682 132.968 C 257.905 134.202,259.093 135.211,259.324 135.211 C 259.555 135.211,260.662 136.141,261.784 137.277 C 262.906 138.413,264.006 139.343,264.228 139.343 C 264.450 139.343,265.379 140.103,266.291 141.033 C 267.203 141.962,268.184 142.723,268.469 142.723 C 268.755 142.723,269.670 143.484,270.502 144.413 C 271.334 145.343,272.273 146.103,272.589 146.103 C 272.906 146.103,273.883 146.864,274.761 147.793 C 275.639 148.723,276.594 149.484,276.883 149.484 C 278.346 149.484,278.310 146.919,278.301 251.437 L 278.292 352.488 277.023 353.897 C 276.326 354.671,275.518 355.305,275.228 355.305 C 274.938 355.305,274.128 355.897,273.427 356.620 C 272.726 357.343,271.964 357.934,271.734 357.934 C 271.503 357.934,270.818 358.453,270.211 359.087 C 269.604 359.721,268.559 360.501,267.887 360.820 C 267.216 361.139,266.667 361.550,266.667 361.733 C 266.667 361.916,266.358 362.066,265.981 362.066 C 265.604 362.066,264.898 362.488,264.413 363.005 C 263.928 363.521,263.333 363.944,263.091 363.944 C 262.849 363.944,262.346 364.282,261.972 364.695 C 261.598 365.108,261.091 365.446,260.845 365.446 C 260.599 365.446,260.091 365.785,259.716 366.200 C 258.956 367.040,257.059 368.075,256.280 368.075 C 256.002 368.075,255.775 368.244,255.775 368.451 C 255.775 369.201,251.812 368.884,251.080 368.075 C 250.706 367.662,250.202 367.324,249.960 367.324 C 249.718 367.324,249.124 366.901,248.638 366.385 C 248.153 365.869,247.517 365.446,247.224 365.446 C 246.931 365.446,246.011 364.685,245.179 363.756 C 244.347 362.826,243.413 362.066,243.104 362.066 C 242.408 362.066,239.630 359.339,239.609 358.636 C 239.601 358.353,238.772 357.473,237.767 356.681 C 236.762 355.888,235.543 354.882,235.059 354.445 C 231.470 351.210,224.976 345.221,222.158 342.549 C 220.298 340.786,216.165 336.892,212.975 333.897 C 209.784 330.901,205.813 327.152,204.150 325.565 C 202.449 323.941,200.983 322.820,200.798 323.001 C 200.613 323.183,198.286 321.121,195.472 318.281 C 192.722 315.508,190.248 313.239,189.972 313.239 C 189.697 313.239,187.533 311.296,185.164 308.920 C 182.795 306.545,180.682 304.601,180.468 304.601 C 180.254 304.601,178.564 303.080,176.714 301.221 C 174.863 299.362,173.172 297.840,172.956 297.840 C 172.740 297.840,171.304 296.573,169.765 295.023 C 168.226 293.474,166.766 292.207,166.521 292.207 C 166.275 292.207,165.214 291.391,164.164 290.394 L 162.254 288.582 162.254 167.574 C 162.254 46.660,162.254 46.567,163.005 47.036 C 163.418 47.294,163.756 47.633,163.756 47.790 M284.131 155.862 C 286.610 157.848,291.850 161.990,295.775 165.066 C 299.700 168.143,303.105 170.839,303.342 171.058 C 303.579 171.276,306.091 173.315,308.925 175.587 C 311.759 177.859,314.776 180.348,315.630 181.117 C 316.484 181.886,317.538 182.520,317.971 182.525 C 318.421 182.531,319.627 183.420,320.785 184.601 C 321.899 185.737,323.027 186.667,323.292 186.667 C 323.556 186.667,324.702 187.596,325.838 188.732 C 326.974 189.869,328.116 190.798,328.376 190.798 C 328.636 190.798,329.937 191.897,331.268 193.239 C 332.598 194.582,333.864 195.681,334.080 195.681 C 334.296 195.681,336.410 197.624,338.779 200.000 C 341.148 202.376,343.265 204.319,343.484 204.319 C 343.702 204.319,345.758 206.178,348.052 208.451 C 350.346 210.723,352.402 212.582,352.622 212.582 C 353.342 212.582,356.056 215.539,356.056 216.323 C 356.056 216.744,356.199 217.089,356.373 217.089 C 356.727 217.089,359.954 219.834,363.380 223.049 C 364.620 224.213,366.479 225.913,367.512 226.827 C 368.545 227.742,371.164 230.120,373.333 232.112 C 375.502 234.104,378.460 236.809,379.906 238.124 C 387.472 245.004,394.404 251.851,394.602 252.640 C 394.900 253.827,394.629 254.108,389.135 258.310 C 386.538 260.296,383.653 262.557,382.723 263.335 C 381.793 264.112,377.553 267.589,373.301 271.060 C 369.048 274.531,363.524 279.095,361.025 281.201 C 358.324 283.479,356.408 284.849,356.299 284.582 C 356.198 284.334,356.102 284.511,356.086 284.974 C 356.054 285.888,351.153 291.080,350.322 291.080 C 350.058 291.080,348.497 292.432,346.854 294.085 C 345.212 295.737,343.691 297.089,343.475 297.089 C 343.259 297.089,341.569 298.610,339.718 300.469 C 337.868 302.329,336.178 303.850,335.962 303.850 C 335.747 303.850,334.057 305.371,332.207 307.230 C 330.356 309.089,328.613 310.610,328.334 310.610 C 328.055 310.610,326.749 311.709,325.432 313.052 C 324.116 314.394,322.820 315.495,322.552 315.498 C 322.285 315.501,321.144 316.431,320.018 317.564 C 318.892 318.697,317.756 319.624,317.493 319.624 C 317.117 319.624,312.203 323.535,311.362 324.504 C 311.068 324.842,299.045 335.078,297.462 336.338 C 296.683 336.958,294.548 338.739,292.718 340.297 C 290.887 341.854,286.981 345.112,284.038 347.535 L 278.685 351.941 278.685 251.817 C 278.685 171.819,278.780 151.749,279.155 151.972 C 279.413 152.126,281.653 153.876,284.131 155.862 " stroke="none" fill="#fa0404" fill-rule="evenodd"></path><path id="path2" d="M122.441 132.751 L 122.441 253.859 125.718 256.601 C 127.521 258.109,129.338 259.620,129.756 259.959 C 130.174 260.299,133.559 263.170,137.277 266.340 C 140.995 269.511,144.460 272.464,144.977 272.903 C 145.493 273.343,147.352 274.951,149.108 276.477 C 150.864 278.003,153.484 280.266,154.930 281.504 C 156.376 282.743,157.897 284.066,158.310 284.446 C 158.723 284.826,159.695 285.643,160.469 286.262 L 161.878 287.387 161.878 166.854 L 161.878 46.321 157.276 41.846 C 153.320 37.999,148.688 33.690,141.596 27.260 C 133.750 20.146,123.490 11.643,122.751 11.643 C 122.581 11.643,122.441 66.142,122.441 132.751 M79.876 37.653 C 78.122 39.563,74.400 43.963,71.604 47.430 C 63.502 57.477,59.484 62.059,46.479 76.083 L 44.695 78.007 44.699 124.356 L 44.703 170.704 46.295 172.437 C 47.171 173.390,48.983 175.418,50.321 176.944 C 51.660 178.470,52.843 179.803,52.951 179.906 C 53.896 180.817,60.225 188.060,64.601 193.239 C 70.916 200.714,74.677 204.916,79.709 210.120 L 83.361 213.897 83.371 124.038 C 83.376 74.615,83.309 34.178,83.222 34.178 C 83.136 34.178,81.630 35.742,79.876 37.653 M200.939 202.537 L 200.939 322.508 206.854 328.130 C 210.108 331.222,214.122 335.009,215.775 336.546 C 217.427 338.083,220.300 340.784,222.160 342.548 C 224.019 344.313,227.568 347.609,230.047 349.873 C 232.526 352.138,234.638 354.075,234.742 354.178 C 235.481 354.918,239.225 357.934,239.403 357.934 C 239.525 357.934,239.624 304.046,239.624 238.182 L 239.624 118.429 234.097 113.205 C 231.057 110.332,226.705 106.191,224.426 104.004 C 216.377 96.279,213.085 93.192,207.392 88.032 C 204.228 85.164,201.481 82.761,201.289 82.692 C 201.073 82.615,200.939 128.626,200.939 202.537 M278.685 251.817 L 278.685 351.941 284.038 347.535 C 286.981 345.112,290.887 341.854,292.718 340.297 C 294.548 338.739,296.683 336.958,297.462 336.338 C 299.195 334.959,310.812 325.044,312.113 323.833 C 312.629 323.352,314.023 322.167,315.210 321.198 L 317.368 319.437 317.369 251.017 L 317.371 182.597 315.399 180.907 C 314.315 179.978,311.315 177.507,308.732 175.417 C 306.150 173.326,303.729 171.359,303.352 171.045 C 302.974 170.731,299.510 167.999,295.652 164.974 C 291.795 161.948,286.610 157.848,284.131 155.862 C 281.653 153.876,279.413 152.126,279.155 151.972 C 278.780 151.749,278.685 171.819,278.685 251.817 M356.056 250.486 C 356.056 268.854,356.155 284.139,356.275 284.452 C 356.438 284.878,357.641 284.055,361.031 281.196 C 363.527 279.092,369.048 274.531,373.301 271.060 C 377.553 267.589,381.793 264.112,382.723 263.335 C 383.653 262.557,386.538 260.296,389.135 258.310 C 394.629 254.108,394.900 253.827,394.602 252.640 C 394.404 251.851,387.472 245.004,379.906 238.124 C 378.460 236.809,375.502 234.104,373.333 232.112 C 371.164 230.120,368.545 227.742,367.512 226.827 C 366.479 225.913,364.620 224.213,363.380 223.049 C 359.954 219.834,356.727 217.089,356.373 217.089 C 356.199 217.089,356.056 232.118,356.056 250.486 " stroke="none" fill="#040404" fill-rule="evenodd"></path></g></svg>