<svg id="svg" version="1.1" xmlns="http://www.w3.org/2000/svg" xmlns:xlink="http://www.w3.org/1999/xlink" width="400" height="353.125" viewBox="0, 0, 400,353.125"><g id="svgg"><path id="path0" d="M271.555 7.067 C 271.203 7.456,270.696 7.774,270.429 7.774 C 270.162 7.774,269.454 8.330,268.857 9.011 C 268.260 9.691,267.550 10.247,267.280 10.247 C 267.010 10.247,266.063 10.963,265.176 11.837 C 264.288 12.712,263.368 13.428,263.130 13.428 C 262.892 13.428,261.833 14.302,260.777 15.371 C 259.722 16.440,258.687 17.314,258.478 17.314 C 258.269 17.314,257.395 18.030,256.537 18.905 C 255.679 19.779,254.804 20.495,254.594 20.495 C 254.383 20.495,253.508 21.210,252.650 22.085 C 251.792 22.959,250.912 23.675,250.696 23.675 C 250.479 23.675,249.406 24.549,248.311 25.618 C 247.216 26.687,246.155 27.562,245.952 27.562 C 245.750 27.562,244.928 28.198,244.127 28.975 C 243.326 29.753,242.484 30.389,242.255 30.389 C 242.027 30.389,241.251 30.992,240.531 31.729 L 239.223 33.069 239.223 145.863 C 239.223 220.824,239.341 258.657,239.576 258.657 C 239.770 258.657,239.929 258.498,239.929 258.304 C 239.929 258.110,240.216 257.951,240.567 257.951 C 240.917 257.951,241.744 257.394,242.403 256.714 C 243.062 256.034,243.777 255.477,243.991 255.477 C 244.204 255.477,245.001 254.841,245.760 254.064 C 246.519 253.286,247.315 252.650,247.529 252.650 C 247.743 252.650,248.457 252.094,249.117 251.413 C 249.776 250.733,250.562 250.172,250.864 250.167 C 251.166 250.162,252.036 249.446,252.796 248.577 C 253.556 247.708,254.392 246.996,254.652 246.996 C 254.913 246.996,255.881 246.282,256.803 245.408 C 257.726 244.535,258.650 243.819,258.856 243.818 C 259.063 243.817,259.689 243.339,260.247 242.756 C 260.806 242.173,261.439 241.696,261.653 241.696 C 261.868 241.696,262.746 240.981,263.604 240.106 C 264.463 239.231,265.364 238.516,265.607 238.516 C 266.228 238.516,269.321 235.136,269.962 233.757 C 270.842 231.865,271.360 231.449,272.835 231.449 L 274.205 231.449 274.205 229.505 C 274.205 228.436,274.364 227.562,274.558 227.562 C 274.753 227.562,274.912 227.270,274.912 226.914 C 274.912 226.162,276.774 224.382,277.559 224.382 C 278.471 224.382,278.358 9.184,277.446 8.359 C 277.090 8.037,276.638 7.774,276.440 7.774 C 276.243 7.774,275.793 7.456,275.442 7.067 C 275.022 6.604,274.353 6.360,273.498 6.360 C 272.643 6.360,271.974 6.604,271.555 7.067 M317.314 116.254 C 317.314 179.404,317.389 190.813,317.802 190.813 C 318.070 190.813,320.287 188.825,322.729 186.396 C 325.171 183.966,327.357 181.979,327.587 181.979 C 327.817 181.979,331.649 178.322,336.103 173.852 C 340.557 169.382,344.394 165.724,344.631 165.724 C 344.868 165.724,347.564 163.218,350.623 160.155 L 356.184 154.586 356.184 116.147 L 356.184 77.709 345.423 66.946 C 339.505 61.027,334.481 56.184,334.259 56.184 C 334.037 56.184,331.945 54.276,329.610 51.943 C 327.275 49.611,325.179 47.703,324.952 47.703 C 324.725 47.703,323.431 46.583,322.075 45.215 C 320.053 43.173,318.107 41.696,317.437 41.696 C 317.370 41.696,317.314 75.247,317.314 116.254 M198.237 68.724 C 197.377 69.601,196.471 70.318,196.224 70.318 C 195.977 70.318,194.914 71.193,193.862 72.261 C 192.810 73.330,191.741 74.205,191.487 74.205 C 191.232 74.205,190.348 74.920,189.522 75.795 C 188.696 76.670,187.807 77.385,187.546 77.385 C 187.286 77.385,186.371 78.101,185.512 78.975 C 184.654 79.850,183.781 80.565,183.572 80.565 C 183.362 80.565,182.328 81.440,181.272 82.509 C 180.216 83.578,179.184 84.452,178.977 84.452 C 178.771 84.452,177.577 85.486,176.325 86.749 C 175.073 88.012,173.859 89.046,173.628 89.046 C 173.396 89.046,172.325 89.920,171.248 90.989 C 170.170 92.058,169.098 92.933,168.865 92.933 C 168.632 92.933,167.440 93.954,166.216 95.202 C 164.992 96.451,163.546 97.685,163.003 97.946 L 162.014 98.419 161.925 210.694 C 161.850 306.118,161.910 322.968,162.325 322.968 C 162.594 322.968,163.932 321.855,165.298 320.495 C 166.664 319.134,168.004 318.021,168.276 318.021 C 168.548 318.021,169.317 317.389,169.986 316.616 C 170.654 315.843,171.447 315.207,171.746 315.202 C 172.046 315.198,172.993 314.479,173.852 313.604 C 174.710 312.730,175.584 312.014,175.795 312.014 C 176.006 312.014,176.880 311.299,177.739 310.424 C 178.597 309.549,179.468 308.834,179.676 308.834 C 179.883 308.834,181.317 307.562,182.862 306.007 C 184.408 304.452,185.842 303.180,186.050 303.180 C 186.258 303.180,187.613 301.992,189.062 300.540 C 190.511 299.089,191.894 297.896,192.136 297.890 C 192.378 297.885,194.009 296.449,195.760 294.700 C 197.511 292.951,199.161 291.519,199.428 291.519 C 199.695 291.519,200.092 291.304,200.311 291.041 C 200.850 290.391,200.706 67.432,200.166 67.252 C 199.965 67.185,199.097 67.848,198.237 68.724 M121.201 134.099 C 120.542 134.779,119.756 135.340,119.454 135.345 C 119.152 135.351,118.282 136.066,117.522 136.935 C 116.762 137.805,115.926 138.516,115.666 138.516 C 115.405 138.516,114.437 139.231,113.515 140.104 C 112.592 140.978,111.671 141.693,111.467 141.694 C 111.264 141.695,110.476 142.332,109.717 143.110 C 108.958 143.887,108.164 144.523,107.952 144.523 C 107.741 144.523,106.865 145.239,106.007 146.113 C 105.149 146.988,104.281 147.704,104.078 147.706 C 103.876 147.708,102.995 148.416,102.120 149.280 C 101.246 150.144,100.329 150.859,100.082 150.867 C 99.836 150.876,98.949 151.599,98.111 152.473 C 97.273 153.348,96.353 154.064,96.066 154.064 C 95.780 154.064,95.006 154.620,94.346 155.300 C 93.687 155.981,92.973 156.537,92.759 156.537 C 92.545 156.537,91.748 157.173,90.989 157.951 C 90.230 158.728,89.436 159.364,89.224 159.364 C 89.013 159.364,88.137 160.080,87.279 160.954 C 86.421 161.829,85.491 162.544,85.213 162.544 C 83.723 162.544,83.769 160.309,83.757 233.414 L 83.746 303.048 84.737 303.997 C 85.282 304.520,85.882 304.947,86.071 304.947 C 86.259 304.947,87.598 306.140,89.046 307.597 C 90.494 309.055,91.846 310.247,92.050 310.247 C 92.255 310.247,93.526 311.360,94.876 312.721 C 96.226 314.081,97.518 315.194,97.747 315.194 C 97.976 315.194,99.888 316.942,101.997 319.078 C 104.105 321.214,106.036 322.963,106.288 322.965 C 106.539 322.967,108.816 325.035,111.347 327.562 C 113.879 330.088,116.134 332.155,116.360 332.155 C 116.585 332.155,118.085 333.464,119.692 335.063 L 122.615 337.970 122.615 235.416 C 122.615 179.012,122.567 132.862,122.507 132.862 C 122.448 132.862,121.861 133.419,121.201 134.099 M42.098 199.828 C 41.055 200.895,40.019 201.767,39.795 201.767 C 39.571 201.767,37.644 203.516,35.512 205.654 C 33.381 207.792,31.473 209.541,31.272 209.541 C 31.072 209.541,29.081 211.383,26.849 213.634 C 24.618 215.886,22.495 217.844,22.133 217.986 C 20.183 218.748,5.654 234.051,5.654 235.343 C 5.654 236.633,11.554 243.171,13.346 243.866 C 13.682 243.997,14.747 244.913,15.711 245.903 C 16.676 246.893,17.635 247.703,17.843 247.703 C 18.052 247.703,19.086 248.578,20.141 249.647 C 21.197 250.716,22.225 251.591,22.426 251.593 C 22.627 251.595,23.507 252.303,24.382 253.167 C 25.256 254.031,26.224 254.745,26.533 254.754 C 26.841 254.763,27.716 255.482,28.476 256.351 C 29.237 257.220,30.117 257.936,30.432 257.941 C 30.747 257.946,31.665 258.666,32.471 259.541 C 33.277 260.415,34.139 261.131,34.386 261.131 C 34.633 261.131,35.537 261.846,36.396 262.721 C 37.254 263.595,38.127 264.311,38.337 264.311 C 38.546 264.311,39.580 265.186,40.636 266.254 C 41.692 267.323,42.839 268.198,43.186 268.198 C 43.533 268.198,43.816 268.357,43.816 268.551 C 43.816 268.746,43.975 268.905,44.170 268.905 C 44.403 268.905,44.523 256.832,44.523 233.392 C 44.523 213.860,44.404 197.882,44.258 197.885 C 44.112 197.888,43.140 198.762,42.098 199.828 " stroke="none" fill="#fcfcfc" fill-rule="evenodd"></path><path id="path1" d="M269.258 1.439 C 269.258 2.008,268.325 2.827,267.677 2.827 C 267.043 2.827,265.371 4.352,265.371 4.931 C 265.371 5.134,265.041 5.300,264.637 5.300 C 264.233 5.300,263.291 5.936,262.544 6.714 C 261.797 7.491,260.991 8.127,260.752 8.127 C 260.513 8.127,259.642 8.843,258.816 9.717 C 257.990 10.592,257.139 11.307,256.925 11.307 C 256.712 11.307,256.537 11.466,256.537 11.661 C 256.537 11.855,256.219 12.014,255.830 12.014 C 255.442 12.014,255.124 12.180,255.124 12.384 C 255.124 12.863,253.499 14.488,253.020 14.488 C 252.816 14.488,252.650 14.647,252.650 14.841 C 252.650 15.035,252.400 15.194,252.095 15.194 C 251.544 15.194,250.530 15.996,250.530 16.431 C 250.530 16.798,249.554 17.668,249.142 17.668 C 248.934 17.668,248.763 17.827,248.763 18.021 C 248.763 18.216,248.513 18.375,248.208 18.375 C 247.573 18.375,246.643 19.200,246.643 19.763 C 246.643 19.971,246.468 20.141,246.255 20.141 C 246.041 20.141,245.421 20.618,244.876 21.201 C 244.332 21.784,243.692 22.261,243.455 22.261 C 243.219 22.261,242.339 22.977,241.501 23.852 C 240.663 24.726,239.728 25.442,239.423 25.442 C 239.119 25.442,238.869 25.601,238.869 25.795 C 238.869 25.989,238.699 26.148,238.491 26.148 C 238.087 26.148,237.102 27.016,237.102 27.372 C 237.102 27.737,234.673 30.035,234.287 30.035 C 234.087 30.035,233.922 30.200,233.922 30.400 C 233.922 30.786,231.624 33.216,231.259 33.216 C 230.902 33.216,230.035 34.200,230.035 34.604 C 230.035 34.812,229.752 34.982,229.407 34.982 C 229.061 34.982,228.549 35.300,228.269 35.689 C 227.988 36.078,227.628 36.396,227.468 36.396 C 227.131 36.396,225.442 38.024,225.442 38.348 C 225.442 38.782,224.419 39.576,223.861 39.576 C 223.323 39.576,221.555 41.066,221.555 41.519 C 221.555 41.791,219.883 43.463,219.611 43.463 C 219.334 43.463,217.668 45.137,217.668 45.416 C 217.668 45.843,216.649 46.643,216.103 46.643 C 215.798 46.643,215.548 46.802,215.548 46.996 C 215.548 47.191,215.381 47.350,215.178 47.350 C 214.699 47.350,213.074 48.974,213.074 49.454 C 213.074 49.657,212.911 49.823,212.712 49.823 C 212.239 49.823,209.187 52.875,209.187 53.348 C 209.187 53.547,208.864 53.710,208.469 53.710 C 207.732 53.710,205.300 55.870,205.300 56.525 C 205.300 56.726,205.126 56.890,204.912 56.890 C 204.699 56.890,204.078 57.367,203.534 57.951 C 202.989 58.534,202.315 59.011,202.036 59.011 C 201.757 59.011,200.906 59.722,200.146 60.591 C 199.136 61.746,198.497 62.174,197.775 62.181 C 196.904 62.190,195.053 63.524,195.053 64.143 C 195.053 64.577,194.030 65.371,193.472 65.371 C 192.928 65.371,191.166 66.863,191.166 67.324 C 191.166 67.683,190.184 68.551,189.778 68.551 C 189.570 68.551,189.399 68.710,189.399 68.905 C 189.399 69.099,189.116 69.258,188.771 69.258 C 188.425 69.258,187.913 69.576,187.633 69.965 C 187.352 70.353,186.920 70.671,186.671 70.671 C 186.422 70.671,186.219 70.842,186.219 71.050 C 186.219 71.582,185.302 72.438,184.732 72.438 C 184.470 72.438,184.026 72.756,183.746 73.145 C 183.465 73.534,183.101 73.852,182.936 73.852 C 182.510 73.852,181.625 74.789,181.625 75.240 C 181.625 75.448,181.343 75.618,180.997 75.618 C 180.651 75.618,180.139 75.936,179.859 76.325 C 179.579 76.714,179.218 77.032,179.058 77.032 C 178.637 77.032,177.032 78.699,177.032 79.136 C 177.032 79.339,176.708 79.505,176.313 79.505 C 175.672 79.505,173.145 81.630,173.145 82.169 C 173.145 82.525,172.161 83.392,171.757 83.392 C 171.548 83.392,171.378 83.551,171.378 83.746 C 171.378 83.940,171.132 84.099,170.832 84.099 C 170.217 84.099,168.551 85.636,168.551 86.203 C 168.551 86.406,168.348 86.572,168.099 86.572 C 167.851 86.572,167.418 86.890,167.138 87.279 C 166.858 87.668,166.381 87.986,166.078 87.986 C 165.775 87.986,165.298 88.304,165.018 88.693 C 164.738 89.081,164.305 89.399,164.056 89.399 C 163.808 89.399,163.604 89.564,163.604 89.764 C 163.604 90.419,161.173 92.580,160.436 92.580 C 160.041 92.580,159.717 92.754,159.717 92.968 C 159.717 93.181,159.002 94.032,158.127 94.858 C 157.253 95.684,156.537 96.550,156.537 96.783 C 156.537 97.392,154.900 98.940,154.256 98.940 C 153.956 98.940,153.710 99.099,153.710 99.293 C 153.710 99.488,153.540 99.647,153.332 99.647 C 152.928 99.647,151.943 100.514,151.943 100.870 C 151.943 100.987,151.392 101.635,150.718 102.309 C 150.045 102.982,149.397 103.534,149.280 103.534 C 148.924 103.534,148.057 104.518,148.057 104.922 C 148.057 105.130,147.739 105.300,147.350 105.300 C 146.961 105.300,146.643 105.459,146.643 105.654 C 146.643 105.848,146.477 106.007,146.274 106.007 C 145.885 106.007,144.170 107.592,144.170 107.951 C 144.170 108.269,142.475 109.894,142.144 109.894 C 141.983 109.894,141.623 110.212,141.343 110.601 C 141.063 110.989,140.652 111.307,140.431 111.307 C 140.209 111.307,139.730 111.705,139.365 112.191 C 139.000 112.677,138.575 113.074,138.420 113.074 C 138.006 113.074,135.689 115.463,135.689 115.889 C 135.689 116.090,135.366 116.254,134.971 116.254 C 134.233 116.254,131.802 118.415,131.802 119.069 C 131.802 119.270,131.564 119.435,131.272 119.435 C 130.981 119.435,130.742 119.594,130.742 119.788 C 130.742 119.982,130.493 120.141,130.189 120.141 C 129.885 120.141,128.775 121.016,127.723 122.085 C 126.671 123.154,125.604 124.028,125.351 124.028 C 125.098 124.028,124.662 124.346,124.382 124.735 C 124.101 125.124,123.737 125.442,123.572 125.442 C 123.220 125.442,122.261 126.347,122.261 126.678 C 122.261 127.222,121.177 127.915,120.327 127.915 C 119.416 127.915,117.668 129.298,117.668 130.019 C 117.668 130.222,117.337 130.389,116.933 130.389 C 116.529 130.389,115.588 131.025,114.841 131.802 C 114.094 132.580,113.288 133.216,113.049 133.216 C 112.810 133.216,111.939 133.931,111.113 134.806 C 110.287 135.680,109.345 136.396,109.020 136.396 C 108.447 136.396,107.420 137.183,107.420 137.623 C 107.420 138.080,105.660 139.576,105.124 139.576 C 104.587 139.576,102.827 141.072,102.827 141.529 C 102.827 141.962,101.804 142.756,101.246 142.756 C 100.702 142.756,98.940 144.248,98.940 144.709 C 98.940 145.141,97.918 145.936,97.363 145.936 C 96.739 145.936,94.346 148.169,94.346 148.751 C 94.346 148.952,94.013 149.117,93.605 149.117 C 93.197 149.117,92.417 149.594,91.873 150.177 C 91.328 150.760,90.617 151.237,90.292 151.237 C 89.719 151.237,88.693 152.024,88.693 152.464 C 88.693 152.925,86.930 154.417,86.387 154.417 C 85.828 154.417,84.806 155.211,84.806 155.645 C 84.806 156.101,83.046 157.597,82.509 157.597 C 81.972 157.597,80.212 159.093,80.212 159.550 C 80.212 159.831,79.268 160.777,78.989 160.777 C 78.624 160.777,76.325 163.207,76.325 163.592 C 76.325 163.793,76.087 163.958,75.795 163.958 C 75.504 163.958,75.265 164.117,75.265 164.311 C 75.265 164.505,75.017 164.664,74.714 164.664 C 74.412 164.664,73.459 165.380,72.596 166.254 C 71.734 167.129,70.853 167.845,70.638 167.845 C 70.424 167.845,69.803 168.322,69.258 168.905 C 68.713 169.488,68.093 169.965,67.879 169.965 C 67.666 169.965,67.491 170.135,67.491 170.343 C 67.491 170.876,66.574 171.731,66.004 171.731 C 65.742 171.731,65.298 172.049,65.018 172.438 C 64.738 172.827,64.373 173.145,64.208 173.145 C 63.861 173.145,62.898 174.048,62.898 174.372 C 62.898 174.781,61.164 176.325,60.705 176.326 C 60.204 176.326,58.304 177.846,58.304 178.247 C 58.304 178.553,57.375 179.505,57.076 179.505 C 56.798 179.505,55.124 181.172,55.124 181.449 C 55.124 181.898,53.358 183.392,52.827 183.392 C 52.290 183.392,50.530 184.888,50.530 185.345 C 50.530 185.626,49.586 186.572,49.307 186.572 C 48.942 186.572,46.643 189.002,46.643 189.388 C 46.643 189.588,46.405 189.753,46.113 189.753 C 45.822 189.753,45.583 189.912,45.583 190.106 C 45.583 190.300,45.329 190.459,45.018 190.459 C 44.707 190.459,44.008 190.936,43.463 191.519 C 42.918 192.102,42.274 192.580,42.031 192.580 C 41.789 192.580,40.914 193.295,40.088 194.170 C 39.262 195.044,38.411 195.760,38.198 195.760 C 37.984 195.760,37.809 195.998,37.809 196.290 C 37.809 196.581,37.555 196.820,37.244 196.820 C 36.934 196.820,36.234 197.297,35.689 197.880 C 35.144 198.463,34.592 198.940,34.462 198.940 C 34.165 198.940,33.216 199.875,33.216 200.168 C 33.216 200.446,31.549 202.120,31.272 202.120 C 30.913 202.120,29.329 203.836,29.329 204.224 C 29.329 204.427,29.011 204.594,28.622 204.594 C 28.233 204.594,27.915 204.753,27.915 204.947 C 27.915 205.141,27.749 205.300,27.546 205.300 C 27.157 205.300,25.442 206.885,25.442 207.244 C 25.442 207.516,23.770 209.187,23.498 209.187 C 23.226 209.187,21.555 210.859,21.555 211.131 C 21.555 211.580,19.789 213.074,19.258 213.074 C 18.631 213.074,16.961 214.604,16.961 215.178 C 16.961 215.381,16.797 215.548,16.596 215.548 C 16.210 215.548,13.781 217.846,13.781 218.211 C 13.781 218.489,12.835 219.435,12.558 219.435 C 12.279 219.435,9.894 221.820,9.894 222.098 C 9.894 222.376,8.948 223.322,8.671 223.322 C 8.392 223.322,6.007 225.707,6.007 225.985 C 6.007 226.263,5.061 227.208,4.784 227.208 C 4.419 227.208,2.120 229.638,2.120 230.024 C 2.120 230.224,1.950 230.389,1.742 230.389 C 0.587 230.389,0.254 231.497,0.254 235.336 C 0.254 239.175,0.587 240.283,1.742 240.283 C 1.950 240.283,2.120 240.447,2.120 240.648 C 2.120 241.034,4.419 243.463,4.784 243.463 C 5.061 243.463,6.007 244.409,6.007 244.686 C 6.007 244.965,8.392 247.350,8.671 247.350 C 9.027 247.350,9.894 248.334,9.894 248.738 C 9.894 248.946,10.177 249.117,10.523 249.117 C 10.868 249.117,11.381 249.435,11.661 249.823 C 11.941 250.212,12.301 250.530,12.462 250.530 C 12.882 250.530,14.488 252.197,14.488 252.634 C 14.488 252.837,14.806 253.004,15.194 253.004 C 15.583 253.004,15.901 253.163,15.901 253.357 C 15.901 253.551,16.067 253.710,16.270 253.710 C 16.664 253.710,18.375 255.297,18.375 255.663 C 18.375 256.103,19.401 256.890,19.974 256.890 C 20.299 256.890,21.241 257.606,22.067 258.481 C 22.893 259.355,23.764 260.071,24.003 260.071 C 24.242 260.071,25.048 260.707,25.795 261.484 C 26.542 262.261,27.484 262.898,27.887 262.898 C 28.291 262.898,28.622 263.062,28.622 263.263 C 28.622 263.918,31.053 266.078,31.790 266.078 C 32.186 266.078,32.509 266.244,32.509 266.447 C 32.509 266.927,34.133 268.551,34.613 268.551 C 34.816 268.551,34.982 268.710,34.982 268.905 C 34.982 269.099,35.232 269.258,35.538 269.258 C 36.089 269.258,37.102 270.059,37.102 270.495 C 37.102 270.826,38.061 271.731,38.413 271.731 C 38.578 271.731,38.942 272.049,39.223 272.438 C 39.503 272.827,40.015 273.145,40.361 273.145 C 40.706 273.145,40.989 273.304,40.989 273.498 C 40.989 273.693,41.387 273.852,41.873 273.852 C 42.359 273.852,42.756 274.022,42.756 274.230 C 42.756 274.762,43.673 275.618,44.243 275.618 C 44.506 275.618,44.950 275.936,45.230 276.325 C 45.510 276.714,45.942 277.032,46.191 277.032 C 46.440 277.032,46.643 277.202,46.643 277.410 C 46.643 277.973,47.573 278.799,48.208 278.799 C 48.513 278.799,48.763 278.958,48.763 279.152 C 48.763 279.346,48.929 279.505,49.133 279.505 C 49.540 279.505,51.237 281.098,51.237 281.480 C 51.237 281.873,53.143 283.391,53.638 283.392 C 54.097 283.392,55.830 284.936,55.830 285.345 C 55.830 285.669,56.794 286.572,57.141 286.572 C 57.306 286.572,57.670 286.890,57.951 287.279 C 58.231 287.668,58.675 287.986,58.937 287.986 C 59.507 287.986,60.424 288.842,60.424 289.374 C 60.424 289.582,60.590 289.753,60.793 289.753 C 60.996 289.753,62.176 290.786,63.415 292.049 C 64.653 293.313,65.883 294.346,66.148 294.346 C 66.412 294.346,66.858 294.664,67.138 295.053 C 67.418 295.442,67.851 295.760,68.099 295.760 C 68.348 295.760,68.551 295.923,68.551 296.122 C 68.551 296.322,69.263 297.196,70.132 298.066 C 71.001 298.935,71.876 299.647,72.076 299.647 C 72.275 299.647,72.438 299.885,72.438 300.177 C 72.438 300.468,72.692 300.707,73.003 300.707 C 73.314 300.707,74.014 301.184,74.558 301.767 C 75.103 302.350,75.723 302.827,75.937 302.827 C 76.150 302.827,76.325 302.991,76.325 303.192 C 76.325 303.578,78.624 306.007,78.989 306.007 C 79.266 306.007,80.212 306.953,80.212 307.230 C 80.212 307.699,82.698 309.894,83.229 309.894 C 83.784 309.894,84.806 310.690,84.806 311.122 C 84.806 311.400,86.472 313.074,86.749 313.074 C 87.108 313.074,88.693 314.790,88.693 315.178 C 88.693 315.381,89.016 315.548,89.411 315.548 C 90.052 315.548,92.580 317.672,92.580 318.211 C 92.580 318.567,93.564 319.435,93.968 319.435 C 94.176 319.435,94.346 319.594,94.346 319.788 C 94.346 319.982,94.583 320.141,94.873 320.141 C 95.456 320.141,101.060 325.578,101.060 326.145 C 101.060 326.341,101.263 326.502,101.512 326.502 C 101.761 326.502,102.193 326.820,102.473 327.208 C 102.754 327.597,103.266 327.915,103.612 327.915 C 103.957 327.915,104.240 328.074,104.240 328.269 C 104.240 328.463,104.479 328.622,104.770 328.622 C 105.062 328.622,105.300 328.785,105.300 328.985 C 105.300 329.457,108.352 332.509,108.825 332.509 C 109.024 332.509,109.187 332.672,109.187 332.871 C 109.187 333.344,112.239 336.396,112.712 336.396 C 112.911 336.396,113.074 336.634,113.074 336.926 C 113.074 337.217,113.328 337.456,113.639 337.456 C 113.950 337.456,114.650 337.933,115.194 338.516 C 115.739 339.099,116.291 339.576,116.421 339.576 C 116.719 339.576,117.668 340.511,117.668 340.804 C 117.668 341.400,119.515 342.756,120.327 342.756 C 121.177 342.756,122.261 343.450,122.261 343.993 C 122.261 344.324,123.220 345.230,123.572 345.230 C 123.737 345.230,124.101 345.548,124.382 345.936 C 124.662 346.325,125.105 346.643,125.367 346.643 C 125.628 346.643,126.367 347.200,127.009 347.880 C 127.650 348.560,128.400 349.117,128.674 349.117 C 128.948 349.117,129.402 349.435,129.682 349.823 C 129.962 350.212,130.486 350.530,130.845 350.530 C 131.562 350.530,132.509 351.320,132.509 351.918 C 132.509 352.545,138.354 352.409,138.995 351.767 C 139.287 351.475,139.629 351.237,139.755 351.237 C 139.881 351.237,140.596 350.601,141.343 349.823 C 142.090 349.046,142.872 348.410,143.082 348.410 C 143.291 348.410,143.463 348.171,143.463 347.880 C 143.463 347.588,143.668 347.350,143.919 347.350 C 144.169 347.350,145.077 346.714,145.936 345.936 C 146.795 345.159,147.624 344.523,147.777 344.523 C 147.931 344.523,148.057 344.357,148.057 344.154 C 148.057 343.760,149.644 342.049,150.009 342.049 C 150.290 342.049,151.237 341.106,151.237 340.826 C 151.237 340.548,153.622 338.163,153.900 338.163 C 154.180 338.163,155.124 337.216,155.124 336.935 C 155.124 336.656,156.790 334.982,157.067 334.982 C 157.339 334.982,159.011 333.311,159.011 333.039 C 159.011 332.767,160.682 331.095,160.954 331.095 C 161.231 331.095,162.898 329.421,162.898 329.143 C 162.898 328.608,163.989 327.915,164.832 327.915 C 165.644 327.915,167.491 326.559,167.491 325.963 C 167.491 325.638,168.455 324.735,168.801 324.735 C 168.967 324.735,169.331 324.417,169.611 324.028 C 169.891 323.640,170.343 323.322,170.615 323.322 C 170.887 323.322,171.795 322.606,172.633 321.731 C 173.471 320.857,174.406 320.141,174.711 320.141 C 175.016 320.141,175.265 319.982,175.265 319.788 C 175.265 319.594,175.435 319.435,175.644 319.435 C 176.055 319.435,177.032 318.565,177.032 318.198 C 177.032 317.762,178.046 316.961,178.597 316.961 C 178.902 316.961,179.152 316.802,179.152 316.608 C 179.152 316.413,179.322 316.254,179.531 316.254 C 179.942 316.254,180.919 315.385,180.919 315.018 C 180.919 314.582,181.932 313.781,182.484 313.781 C 182.789 313.781,183.039 313.622,183.039 313.428 C 183.039 313.233,183.205 313.074,183.408 313.074 C 183.802 313.074,185.512 311.487,185.512 311.122 C 185.512 310.797,186.476 309.894,186.823 309.894 C 186.988 309.894,187.352 309.576,187.633 309.187 C 187.913 308.799,188.357 308.481,188.619 308.481 C 189.189 308.481,190.106 307.625,190.106 307.092 C 190.106 306.884,190.269 306.714,190.469 306.714 C 190.941 306.714,193.993 303.662,193.993 303.190 C 193.993 302.990,194.316 302.827,194.711 302.827 C 195.449 302.827,197.880 300.667,197.880 300.012 C 197.880 299.811,198.051 299.647,198.261 299.647 C 198.471 299.647,199.253 299.011,200.000 298.233 C 200.747 297.456,201.540 296.820,201.762 296.820 C 202.287 296.820,206.007 293.102,206.007 292.577 C 206.007 292.055,206.901 291.166,207.426 291.166 C 207.651 291.166,208.689 290.292,209.732 289.223 C 210.776 288.154,211.875 287.279,212.175 287.279 C 212.475 287.279,212.721 287.120,212.721 286.926 C 212.721 286.731,212.891 286.572,213.099 286.572 C 213.506 286.572,214.488 285.704,214.488 285.345 C 214.488 284.888,216.248 283.392,216.784 283.392 C 217.321 283.392,219.081 281.896,219.081 281.440 C 219.081 281.008,220.103 280.212,220.658 280.212 C 221.282 280.212,223.675 277.979,223.675 277.397 C 223.675 277.196,223.998 277.032,224.393 277.032 C 225.131 277.032,227.562 274.872,227.562 274.217 C 227.562 274.016,227.896 273.852,228.303 273.852 C 228.711 273.852,229.491 273.375,230.035 272.792 C 230.580 272.208,231.200 271.731,231.414 271.731 C 231.627 271.731,231.802 271.572,231.802 271.378 C 231.802 271.184,232.002 271.025,232.247 271.025 C 232.492 271.025,233.168 270.472,233.749 269.796 C 234.330 269.120,235.091 268.563,235.440 268.559 C 236.033 268.552,237.809 267.082,237.809 266.599 C 237.809 266.138,238.849 265.371,239.473 265.371 C 239.832 265.371,240.356 265.053,240.636 264.664 C 240.916 264.276,241.428 263.958,241.774 263.958 C 242.120 263.958,242.403 263.719,242.403 263.428 C 242.403 263.125,242.721 262.898,243.144 262.898 C 243.552 262.898,244.332 262.420,244.876 261.837 C 245.421 261.254,246.132 260.777,246.457 260.777 C 247.030 260.777,248.057 259.990,248.057 259.550 C 248.057 259.093,249.817 257.597,250.353 257.597 C 250.981 257.597,252.650 256.068,252.650 255.493 C 252.650 255.290,252.973 255.124,253.369 255.124 C 254.106 255.124,256.537 252.964,256.537 252.309 C 256.537 252.108,256.868 251.943,257.272 251.943 C 257.675 251.943,258.617 251.307,259.364 250.530 C 260.111 249.753,261.052 249.117,261.456 249.117 C 261.860 249.117,262.191 248.950,262.191 248.747 C 262.191 248.173,263.860 246.643,264.488 246.643 C 265.024 246.643,266.784 245.147,266.784 244.690 C 266.784 244.258,267.806 243.463,268.361 243.463 C 268.985 243.463,271.378 241.230,271.378 240.648 C 271.378 240.447,271.542 240.283,271.743 240.283 C 272.398 240.283,274.558 237.851,274.558 237.114 C 274.558 236.550,274.788 236.396,275.630 236.396 C 277.262 236.396,279.152 234.358,279.152 232.599 C 279.152 231.102,279.717 230.129,281.700 228.208 C 282.436 227.494,283.039 226.580,283.039 226.176 C 283.039 225.759,283.268 225.442,283.569 225.442 C 283.860 225.442,284.099 225.283,284.099 225.088 C 284.099 224.894,284.352 224.735,284.660 224.735 C 284.969 224.735,285.917 224.019,286.767 223.145 C 287.617 222.270,288.522 221.555,288.778 221.555 C 289.034 221.555,289.472 221.237,289.753 220.848 C 290.033 220.459,290.397 220.141,290.563 220.141 C 290.989 220.141,291.873 219.204,291.873 218.753 C 291.873 218.545,292.156 218.375,292.501 218.375 C 292.847 218.375,293.359 218.057,293.640 217.668 C 293.920 217.279,294.352 216.961,294.601 216.961 C 294.850 216.961,295.053 216.841,295.053 216.694 C 295.053 216.547,295.530 216.216,296.113 215.958 C 296.696 215.700,297.173 215.331,297.173 215.139 C 297.173 214.674,298.086 213.781,298.561 213.781 C 298.770 213.781,298.940 213.622,298.940 213.428 C 298.940 213.233,299.190 213.074,299.495 213.074 C 300.130 213.074,301.060 212.249,301.060 211.686 C 301.060 211.478,301.235 211.307,301.448 211.307 C 301.662 211.307,302.282 210.830,302.827 210.247 C 303.371 209.664,304.011 209.187,304.248 209.187 C 304.485 209.187,305.364 208.472,306.202 207.597 C 307.040 206.723,307.818 206.007,307.931 206.007 C 308.321 206.007,310.592 204.416,310.596 204.140 C 310.604 203.676,313.020 201.413,313.507 201.413 C 313.759 201.413,314.440 200.860,315.021 200.184 C 315.602 199.508,316.204 198.952,316.359 198.948 C 316.692 198.939,318.375 197.302,318.375 196.987 C 318.375 196.453,319.465 195.760,320.305 195.760 C 321.220 195.760,323.675 193.709,323.675 192.945 C 323.675 192.744,323.838 192.580,324.038 192.580 C 324.510 192.580,327.562 189.528,327.562 189.055 C 327.562 188.856,327.765 188.693,328.014 188.693 C 328.262 188.693,328.695 188.375,328.975 187.986 C 329.255 187.597,329.768 187.279,330.113 187.279 C 330.459 187.279,330.742 187.120,330.742 186.926 C 330.742 186.731,330.981 186.572,331.272 186.572 C 331.564 186.572,331.802 186.413,331.802 186.219 C 331.802 186.025,333.392 184.276,335.336 182.332 C 337.279 180.389,339.028 178.799,339.223 178.799 C 339.417 178.799,339.576 178.627,339.576 178.418 C 339.576 178.208,340.212 177.425,340.989 176.678 C 341.767 175.932,342.403 175.149,342.403 174.939 C 342.403 174.730,342.569 174.558,342.772 174.558 C 342.974 174.558,344.008 173.684,345.068 172.615 C 346.129 171.546,347.171 170.671,347.385 170.671 C 347.598 170.671,348.219 170.194,348.763 169.611 C 349.308 169.028,349.860 168.551,349.990 168.551 C 350.285 168.551,351.237 167.618,351.237 167.328 C 351.237 166.963,353.666 164.664,354.052 164.664 C 354.253 164.664,354.417 164.500,354.417 164.299 C 354.417 163.913,356.716 161.484,357.081 161.484 C 357.370 161.484,358.304 160.533,358.304 160.238 C 358.304 160.107,359.019 159.325,359.894 158.499 C 360.769 157.673,361.484 156.807,361.484 156.574 C 361.484 156.084,363.068 154.417,363.534 154.417 C 363.707 154.417,364.913 153.383,366.215 152.120 C 367.516 150.857,368.733 149.823,368.919 149.823 C 369.105 149.823,369.258 149.659,369.258 149.458 C 369.258 149.072,371.557 146.643,371.922 146.643 C 372.199 146.643,373.145 145.697,373.145 145.420 C 373.145 145.055,375.574 142.756,375.960 142.756 C 376.161 142.756,376.325 142.597,376.325 142.403 C 376.325 142.208,376.525 142.049,376.770 142.049 C 377.015 142.049,377.691 141.496,378.272 140.820 C 378.853 140.144,379.459 139.588,379.619 139.584 C 379.958 139.575,380.919 138.665,380.919 138.353 C 380.919 138.080,383.301 135.689,383.572 135.689 C 383.799 135.689,384.426 135.192,385.690 134.011 C 386.158 133.573,386.632 133.216,386.745 133.216 C 387.017 133.216,389.399 130.825,389.399 130.552 C 389.399 130.196,390.383 129.329,390.787 129.329 C 390.996 129.329,391.166 129.170,391.166 128.975 C 391.166 128.781,391.412 128.622,391.712 128.622 C 392.327 128.622,393.993 127.085,393.993 126.518 C 393.993 126.315,394.231 126.148,394.523 126.148 C 394.814 126.148,395.053 125.989,395.053 125.795 C 395.053 125.601,395.299 125.442,395.599 125.442 C 396.214 125.442,397.880 123.905,397.880 123.338 C 397.880 123.134,398.118 122.968,398.410 122.968 C 398.701 122.968,398.940 122.663,398.940 122.291 C 398.940 121.918,399.139 121.547,399.382 121.466 C 400.605 121.055,399.681 113.074,398.410 113.074 C 398.122 113.074,397.173 112.135,397.173 111.851 C 397.173 111.572,394.788 109.187,394.510 109.187 C 394.232 109.187,393.286 108.241,393.286 107.964 C 393.286 107.599,390.857 105.300,390.471 105.300 C 390.270 105.300,390.106 105.137,390.106 104.938 C 390.106 104.465,387.054 101.413,386.582 101.413 C 386.382 101.413,386.219 101.249,386.219 101.048 C 386.219 100.663,383.920 98.233,383.555 98.233 C 383.278 98.233,382.332 97.287,382.332 97.010 C 382.332 96.731,379.947 94.346,379.669 94.346 C 379.391 94.346,378.445 93.400,378.445 93.123 C 378.445 92.758,376.016 90.459,375.630 90.459 C 375.429 90.459,375.265 90.296,375.265 90.097 C 375.265 89.624,372.213 86.572,371.741 86.572 C 371.541 86.572,371.378 86.408,371.378 86.207 C 371.378 85.822,369.079 83.392,368.714 83.392 C 368.437 83.392,367.491 82.446,367.491 82.169 C 367.491 81.804,365.062 79.505,364.676 79.505 C 364.475 79.505,364.311 79.334,364.311 79.124 C 364.311 78.915,363.675 78.132,362.898 77.385 C 362.120 76.638,361.484 75.835,361.484 75.600 C 361.484 75.366,360.610 74.334,359.541 73.306 C 358.472 72.279,357.597 71.266,357.597 71.055 C 357.597 70.844,357.426 70.671,357.216 70.671 C 357.007 70.671,356.224 70.035,355.477 69.258 C 354.730 68.481,353.948 67.845,353.738 67.845 C 353.528 67.845,353.357 67.681,353.357 67.482 C 353.357 67.009,343.238 56.890,342.765 56.890 C 342.566 56.890,342.403 56.719,342.403 56.509 C 342.403 56.300,341.767 55.517,340.989 54.770 C 340.212 54.023,339.576 53.241,339.576 53.031 C 339.576 52.822,339.373 52.650,339.124 52.650 C 338.875 52.650,338.443 52.332,338.163 51.943 C 337.882 51.555,337.405 51.237,337.102 51.237 C 336.800 51.237,336.323 50.919,336.042 50.530 C 335.762 50.141,335.330 49.823,335.081 49.823 C 334.832 49.823,334.629 49.660,334.629 49.461 C 334.629 48.988,331.577 45.936,331.105 45.936 C 330.905 45.936,330.742 45.772,330.742 45.571 C 330.742 44.989,328.349 42.756,327.725 42.756 C 327.170 42.756,326.148 41.961,326.148 41.529 C 326.148 41.245,324.480 39.576,324.196 39.576 C 323.908 39.576,322.968 38.629,322.968 38.339 C 322.968 37.904,321.954 37.102,321.403 37.102 C 321.098 37.102,320.848 36.943,320.848 36.749 C 320.848 36.555,320.490 36.392,320.053 36.388 C 319.590 36.384,318.817 35.867,318.201 35.151 C 317.620 34.475,316.932 33.922,316.672 33.922 C 316.412 33.922,315.588 33.286,314.841 32.509 C 314.094 31.731,313.152 31.095,312.749 31.095 C 312.345 31.095,312.014 30.918,312.014 30.701 C 312.014 30.089,309.479 27.915,308.765 27.915 C 308.414 27.915,308.127 27.738,308.127 27.521 C 308.127 26.981,305.630 24.735,305.029 24.735 C 304.520 24.735,303.534 23.905,303.534 23.476 C 303.534 23.076,301.633 21.556,301.132 21.555 C 300.585 21.555,298.940 19.975,298.940 19.451 C 298.940 19.248,298.701 19.081,298.410 19.081 C 298.118 19.081,297.880 18.922,297.880 18.728 C 297.880 18.534,297.630 18.375,297.326 18.375 C 297.021 18.375,296.086 17.659,295.248 16.784 C 294.410 15.910,293.531 15.194,293.294 15.194 C 293.057 15.194,292.417 14.717,291.873 14.134 C 291.328 13.551,290.708 13.074,290.494 13.074 C 290.281 13.074,290.106 12.904,290.106 12.696 C 290.106 12.163,289.189 11.307,288.619 11.307 C 288.357 11.307,287.913 10.989,287.633 10.601 C 287.352 10.212,286.988 9.894,286.823 9.894 C 286.476 9.894,285.512 8.991,285.512 8.666 C 285.512 8.388,283.846 6.714,283.569 6.714 C 283.297 6.714,281.625 5.042,281.625 4.770 C 281.625 4.317,279.857 2.827,279.319 2.827 C 278.671 2.827,277.739 2.008,277.739 1.439 C 277.739 1.190,276.278 1.060,273.498 1.060 C 270.718 1.060,269.258 1.190,269.258 1.439 M275.442 7.067 C 275.793 7.456,276.243 7.774,276.440 7.774 C 277.059 7.774,278.092 8.914,278.092 9.595 C 278.092 9.954,278.291 10.248,278.534 10.249 C 278.777 10.250,279.929 11.095,281.095 12.127 C 284.093 14.780,291.032 20.493,298.770 26.678 C 302.416 29.594,308.041 34.128,311.269 36.755 C 314.497 39.382,317.694 41.799,318.375 42.125 C 319.055 42.451,320.720 43.839,322.075 45.210 C 323.431 46.581,324.725 47.703,324.952 47.703 C 325.179 47.703,327.275 49.611,329.610 51.943 C 331.945 54.276,334.037 56.184,334.259 56.184 C 335.033 56.184,356.184 77.665,356.184 78.451 C 356.184 78.860,356.327 79.105,356.502 78.997 C 356.971 78.707,394.329 116.594,394.587 117.621 C 394.894 118.844,394.569 119.230,390.232 122.792 C 384.362 127.611,372.785 138.063,363.604 146.831 C 358.095 152.092,356.652 153.354,356.417 153.119 C 356.289 152.991,356.184 153.268,356.184 153.736 C 356.184 154.637,345.500 165.724,344.631 165.724 C 344.394 165.724,340.557 169.382,336.103 173.852 C 331.649 178.322,327.817 181.979,327.587 181.979 C 327.357 181.979,325.171 183.966,322.729 186.396 C 320.287 188.825,318.030 190.816,317.714 190.821 C 317.397 190.825,315.938 191.899,314.473 193.206 C 313.007 194.513,310.876 196.378,309.737 197.350 C 308.598 198.322,307.492 199.284,307.279 199.487 C 306.492 200.240,295.097 209.512,290.989 212.742 C 285.551 217.019,286.215 216.491,282.332 219.627 C 280.486 221.118,278.777 222.417,278.534 222.514 C 278.291 222.611,278.092 223.071,278.092 223.536 C 278.092 224.054,277.885 224.382,277.559 224.382 C 276.774 224.382,274.912 226.162,274.912 226.914 C 274.912 227.270,274.753 227.562,274.558 227.562 C 274.364 227.562,274.205 228.436,274.205 229.505 L 274.205 231.449 272.835 231.449 C 271.360 231.449,270.842 231.865,269.962 233.757 C 269.321 235.136,266.228 238.516,265.607 238.516 C 265.364 238.516,264.463 239.231,263.604 240.106 C 262.746 240.981,261.868 241.696,261.653 241.696 C 261.439 241.696,260.806 242.173,260.247 242.756 C 259.689 243.339,259.063 243.817,258.856 243.818 C 258.650 243.819,257.726 244.535,256.803 245.408 C 255.881 246.282,254.913 246.996,254.652 246.996 C 254.392 246.996,253.556 247.708,252.796 248.577 C 252.036 249.446,251.166 250.162,250.864 250.167 C 250.562 250.172,249.776 250.733,249.117 251.413 C 248.457 252.094,247.743 252.650,247.529 252.650 C 247.315 252.650,246.519 253.286,245.760 254.064 C 245.001 254.841,244.204 255.477,243.991 255.477 C 243.777 255.477,243.062 256.034,242.403 256.714 C 241.744 257.394,240.917 257.951,240.567 257.951 C 240.216 257.951,239.929 258.110,239.929 258.304 C 239.929 258.498,239.762 258.657,239.558 258.657 C 239.139 258.657,227.326 267.630,226.502 268.574 C 226.405 268.685,225.240 269.602,223.913 270.612 C 222.586 271.621,219.900 273.757,217.944 275.358 C 215.987 276.959,213.893 278.661,213.289 279.140 C 212.685 279.620,209.702 282.114,206.661 284.682 C 203.620 287.251,201.036 289.257,200.919 289.140 C 200.802 289.024,200.707 289.320,200.707 289.800 C 200.707 290.750,200.123 291.519,199.401 291.519 C 199.149 291.519,197.511 292.951,195.760 294.700 C 194.009 296.449,192.378 297.885,192.136 297.890 C 191.894 297.896,190.511 299.089,189.062 300.540 C 187.613 301.992,186.258 303.180,186.050 303.180 C 185.842 303.180,184.408 304.452,182.862 306.007 C 181.317 307.562,179.883 308.834,179.676 308.834 C 179.468 308.834,178.597 309.549,177.739 310.424 C 176.880 311.299,176.006 312.014,175.795 312.014 C 175.584 312.014,174.710 312.730,173.852 313.604 C 172.993 314.479,172.046 315.198,171.746 315.202 C 171.447 315.207,170.654 315.843,169.986 316.616 C 169.317 317.389,168.548 318.021,168.276 318.021 C 168.004 318.021,166.657 319.141,165.283 320.510 C 163.909 321.878,162.552 322.952,162.267 322.895 C 161.728 322.787,157.944 326.272,147.182 336.789 C 139.556 344.240,136.482 346.996,135.796 346.996 C 134.884 346.996,127.482 341.433,123.899 338.054 C 122.994 337.200,122.615 337.009,122.615 337.406 C 122.615 337.734,121.389 336.751,119.692 335.063 C 118.085 333.464,116.585 332.155,116.360 332.155 C 116.134 332.155,113.879 330.088,111.347 327.562 C 108.816 325.035,106.539 322.967,106.288 322.965 C 106.036 322.963,104.105 321.214,101.997 319.078 C 99.888 316.942,97.976 315.194,97.747 315.194 C 97.518 315.194,96.226 314.081,94.876 312.721 C 93.526 311.360,92.255 310.247,92.050 310.247 C 91.846 310.247,90.494 309.055,89.046 307.597 C 87.598 306.140,86.259 304.947,86.071 304.947 C 85.379 304.947,83.746 303.024,83.746 302.210 C 83.746 301.734,83.591 301.467,83.388 301.593 C 82.907 301.890,79.603 299.097,66.254 287.111 C 60.272 281.739,59.448 281.017,56.360 278.446 C 54.611 276.989,53.101 275.717,53.004 275.620 C 52.906 275.522,52.032 274.811,51.060 274.040 C 50.088 273.269,49.214 272.554,49.117 272.450 C 48.095 271.360,44.814 268.905,44.378 268.905 C 44.069 268.905,43.816 268.746,43.816 268.551 C 43.816 268.357,43.533 268.198,43.186 268.198 C 42.839 268.198,41.692 267.323,40.636 266.254 C 39.580 265.186,38.546 264.311,38.337 264.311 C 38.127 264.311,37.254 263.595,36.396 262.721 C 35.537 261.846,34.633 261.131,34.386 261.131 C 34.139 261.131,33.277 260.415,32.471 259.541 C 31.665 258.666,30.747 257.946,30.432 257.941 C 30.117 257.936,29.237 257.220,28.476 256.351 C 27.716 255.482,26.841 254.763,26.533 254.754 C 26.224 254.745,25.256 254.031,24.382 253.167 C 23.507 252.303,22.627 251.595,22.426 251.593 C 22.225 251.591,21.197 250.716,20.141 249.647 C 19.086 248.578,18.052 247.703,17.843 247.703 C 17.635 247.703,16.676 246.893,15.711 245.903 C 14.747 244.913,13.682 243.997,13.346 243.866 C 11.554 243.171,5.654 236.633,5.654 235.343 C 5.654 234.051,20.183 218.748,22.133 217.986 C 22.495 217.844,24.618 215.886,26.849 213.634 C 29.081 211.383,31.072 209.541,31.272 209.541 C 31.473 209.541,33.381 207.792,35.512 205.654 C 37.644 203.516,39.568 201.767,39.789 201.767 C 40.010 201.767,41.086 200.865,42.179 199.763 C 43.272 198.661,44.271 197.863,44.398 197.991 C 44.601 198.193,46.276 196.754,53.004 190.595 C 53.878 189.794,55.556 188.283,56.732 187.237 C 57.908 186.191,60.929 183.482,63.446 181.216 C 69.996 175.317,82.783 164.996,83.304 165.187 C 83.571 165.285,83.750 165.040,83.757 164.565 C 83.771 163.601,84.532 162.544,85.213 162.544 C 85.491 162.544,86.421 161.829,87.279 160.954 C 88.137 160.080,89.013 159.364,89.224 159.364 C 89.436 159.364,90.230 158.728,90.989 157.951 C 91.748 157.173,92.545 156.537,92.759 156.537 C 92.973 156.537,93.687 155.981,94.346 155.300 C 95.006 154.620,95.780 154.064,96.066 154.064 C 96.353 154.064,97.273 153.348,98.111 152.473 C 98.949 151.599,99.836 150.876,100.082 150.867 C 100.329 150.859,101.246 150.144,102.120 149.280 C 102.995 148.416,103.876 147.708,104.078 147.706 C 104.281 147.704,105.149 146.988,106.007 146.113 C 106.865 145.239,107.741 144.523,107.952 144.523 C 108.164 144.523,108.958 143.887,109.717 143.110 C 110.476 142.332,111.264 141.695,111.467 141.694 C 111.671 141.693,112.592 140.978,113.515 140.104 C 114.437 139.231,115.405 138.516,115.666 138.516 C 115.926 138.516,116.762 137.805,117.522 136.935 C 118.282 136.066,119.152 135.351,119.454 135.345 C 119.756 135.340,120.536 134.785,121.188 134.113 C 121.840 133.440,122.488 132.961,122.629 133.047 C 122.769 133.134,124.310 132.055,126.053 130.649 C 130.151 127.343,139.292 119.714,141.366 117.867 C 142.254 117.077,144.242 115.308,145.783 113.935 C 147.325 112.562,149.223 110.883,150.000 110.205 C 150.777 109.526,153.679 106.938,156.449 104.455 C 159.218 101.971,161.503 100.072,161.526 100.234 C 161.549 100.397,161.669 100.055,161.794 99.473 C 161.939 98.794,162.372 98.248,163.006 97.944 C 163.548 97.684,164.992 96.451,166.216 95.202 C 167.440 93.954,168.632 92.933,168.865 92.933 C 169.098 92.933,170.170 92.058,171.248 90.989 C 172.325 89.920,173.396 89.046,173.628 89.046 C 173.859 89.046,175.073 88.012,176.325 86.749 C 177.577 85.486,178.771 84.452,178.977 84.452 C 179.184 84.452,180.216 83.578,181.272 82.509 C 182.328 81.440,183.362 80.565,183.572 80.565 C 183.781 80.565,184.654 79.850,185.512 78.975 C 186.371 78.101,187.286 77.385,187.546 77.385 C 187.807 77.385,188.696 76.670,189.522 75.795 C 190.348 74.920,191.232 74.205,191.487 74.205 C 191.741 74.205,192.810 73.330,193.862 72.261 C 194.914 71.193,195.977 70.318,196.224 70.318 C 196.471 70.318,197.378 69.599,198.240 68.721 C 199.184 67.759,200.010 67.202,200.317 67.320 C 200.598 67.427,200.919 67.370,201.032 67.192 C 201.145 67.015,202.366 65.936,203.747 64.795 C 207.220 61.925,210.914 58.710,214.664 55.293 C 230.077 41.249,237.981 34.424,238.741 34.501 C 239.010 34.529,239.223 34.224,239.223 33.810 C 239.223 33.021,241.556 30.389,242.255 30.389 C 242.484 30.389,243.326 29.753,244.127 28.975 C 244.928 28.198,245.750 27.562,245.952 27.562 C 246.155 27.562,247.216 26.687,248.311 25.618 C 249.406 24.549,250.479 23.675,250.696 23.675 C 250.912 23.675,251.792 22.959,252.650 22.085 C 253.508 21.210,254.383 20.495,254.594 20.495 C 254.804 20.495,255.679 19.779,256.537 18.905 C 257.395 18.030,258.269 17.314,258.478 17.314 C 258.687 17.314,259.722 16.440,260.777 15.371 C 261.833 14.302,262.892 13.428,263.130 13.428 C 263.368 13.428,264.288 12.712,265.176 11.837 C 266.063 10.963,267.010 10.247,267.280 10.247 C 267.550 10.247,268.260 9.691,268.857 9.011 C 269.454 8.330,270.162 7.774,270.429 7.774 C 270.696 7.774,271.203 7.456,271.555 7.067 C 271.974 6.604,272.643 6.360,273.498 6.360 C 274.353 6.360,275.022 6.604,275.442 7.067 " stroke="none" fill="#f90404" fill-rule="evenodd"></path><path id="path2" d="M278.092 116.431 C 278.092 174.832,278.211 222.614,278.357 222.612 C 278.503 222.611,280.212 221.329,282.155 219.763 C 286.297 216.427,285.639 216.950,290.989 212.742 C 295.097 209.512,306.492 200.240,307.279 199.487 C 307.492 199.284,308.598 198.322,309.735 197.350 C 310.873 196.378,313.044 194.487,314.560 193.148 L 317.316 190.713 317.227 116.122 L 317.138 41.531 311.269 36.755 C 308.041 34.128,302.416 29.594,298.769 26.678 C 291.031 20.492,284.092 14.779,281.095 12.127 C 279.929 11.095,278.777 10.250,278.534 10.249 C 278.181 10.248,278.092 31.719,278.092 116.431 M234.806 37.343 C 228.132 43.095,224.496 46.334,214.664 55.293 C 210.914 58.710,207.220 61.925,203.747 64.795 C 202.366 65.936,201.120 67.049,200.977 67.269 C 200.669 67.743,200.611 288.832,200.919 289.140 C 201.036 289.257,203.620 287.251,206.661 284.682 C 209.702 282.114,212.685 279.620,213.289 279.140 C 213.893 278.661,215.987 276.959,217.944 275.358 C 219.900 273.757,222.586 271.621,223.913 270.612 C 225.240 269.602,226.405 268.679,226.502 268.560 C 226.664 268.362,232.497 263.788,237.243 260.138 L 239.224 258.615 239.135 146.563 C 239.076 72.245,238.927 34.475,238.693 34.405 C 238.498 34.346,236.749 35.669,234.806 37.343 M356.449 78.994 C 356.123 79.333,356.091 152.793,356.417 153.119 C 356.652 153.354,358.095 152.092,363.604 146.831 C 372.785 138.063,384.362 127.611,390.232 122.792 C 394.570 119.229,394.894 118.844,394.587 117.619 C 394.323 116.569,356.831 78.598,356.449 78.994 M157.774 103.278 C 155.830 105.033,152.968 107.581,151.413 108.940 C 149.859 110.298,147.792 112.142,146.820 113.037 C 142.981 116.572,133.308 124.771,126.416 130.330 L 122.620 133.392 122.618 235.117 L 122.615 336.842 123.899 338.054 C 127.482 341.433,134.884 346.996,135.796 346.996 C 136.482 346.996,139.556 344.240,147.182 336.789 C 150.685 333.366,155.415 328.798,157.694 326.638 L 161.837 322.710 161.837 211.553 C 161.837 150.416,161.718 100.326,161.572 100.241 C 161.427 100.156,159.717 101.523,157.774 103.278 M75.442 171.063 C 71.360 174.381,65.962 178.949,63.446 181.216 C 60.929 183.482,57.908 186.191,56.732 187.237 C 55.556 188.283,53.878 189.794,53.004 190.595 C 52.129 191.395,49.863 193.461,47.968 195.185 L 44.523 198.320 44.537 233.524 L 44.551 268.728 46.271 270.084 C 47.216 270.830,48.283 271.707,48.642 272.033 C 49.000 272.359,50.088 273.259,51.060 274.034 C 52.032 274.808,52.906 275.522,53.004 275.620 C 53.101 275.717,54.611 276.989,56.360 278.446 C 59.448 281.017,60.272 281.739,66.254 287.111 C 80.101 299.545,82.982 301.965,83.417 301.530 C 83.885 301.062,83.685 165.290,83.216 165.141 C 83.021 165.080,79.523 167.744,75.442 171.063 " stroke="none" fill="#040404" fill-rule="evenodd"></path></g></svg>