<svg id="svg" version="1.1" xmlns="http://www.w3.org/2000/svg" xmlns:xlink="http://www.w3.org/1999/xlink" width="400" height="435.2941176470588" viewBox="0, 0, 400,435.2941176470588"><g id="svgg"><path id="path0" d="M162.000 150.907 L 162.000 291.813 166.506 296.307 C 168.985 298.778,171.212 300.800,171.456 300.800 C 171.700 300.800,173.081 301.970,174.526 303.400 C 175.970 304.830,177.390 306.000,177.682 306.000 C 177.975 306.000,180.188 307.980,182.600 310.400 C 185.012 312.820,187.176 314.800,187.407 314.800 C 187.639 314.800,190.252 317.230,193.214 320.200 C 196.176 323.170,198.915 325.600,199.300 325.600 C 199.685 325.600,200.000 325.780,200.000 326.000 C 200.000 326.220,200.180 326.400,200.400 326.400 C 200.666 326.400,200.800 278.819,200.800 184.458 L 200.800 42.515 197.149 38.858 C 195.142 36.846,193.294 35.200,193.043 35.200 C 192.792 35.200,190.612 33.220,188.200 30.800 C 185.788 28.380,183.570 26.400,183.272 26.400 C 182.975 26.400,181.668 25.320,180.368 24.000 C 179.069 22.680,177.769 21.600,177.481 21.600 C 177.193 21.600,176.346 20.970,175.600 20.200 C 174.854 19.430,174.008 18.800,173.722 18.800 C 173.435 18.800,172.480 18.080,171.600 17.200 C 170.720 16.320,169.765 15.600,169.478 15.600 C 169.192 15.600,168.346 14.970,167.600 14.200 C 166.854 13.430,166.017 12.800,165.741 12.800 C 165.465 12.800,164.627 12.170,163.879 11.400 C 163.131 10.630,162.402 10.000,162.260 10.000 C 162.117 10.000,162.000 73.408,162.000 150.907 M113.400 45.028 C 108.120 50.367,103.529 54.750,103.197 54.768 C 102.865 54.786,98.500 58.896,93.497 63.903 L 84.400 73.006 84.400 144.607 L 84.400 216.208 91.504 223.304 C 95.411 227.207,98.826 230.400,99.092 230.400 C 99.358 230.400,104.430 235.260,110.363 241.200 C 116.296 247.140,121.421 252.000,121.752 252.000 C 122.082 252.000,122.464 252.180,122.600 252.400 C 122.736 252.620,123.017 252.800,123.224 252.800 C 123.676 252.800,123.752 35.730,123.300 35.484 C 123.135 35.394,118.680 39.689,113.400 45.028 M239.469 87.464 C 238.837 88.096,239.167 365.502,239.800 365.745 C 240.130 365.871,240.400 366.308,240.400 366.715 C 240.400 367.122,241.660 368.652,243.200 370.116 C 244.740 371.580,246.000 373.013,246.000 373.301 C 246.000 373.588,247.170 374.983,248.600 376.400 C 250.030 377.817,251.200 379.223,251.200 379.524 C 251.200 379.825,252.460 381.312,254.000 382.827 C 255.540 384.343,256.800 385.815,256.800 386.098 C 256.800 386.382,258.780 388.588,261.200 391.000 C 263.620 393.412,265.600 395.607,265.600 395.876 C 265.600 396.321,277.781 408.800,278.215 408.800 C 278.317 408.800,278.400 345.810,278.400 268.822 L 278.400 128.844 276.400 126.876 C 275.300 125.793,274.400 124.655,274.400 124.347 C 274.400 124.039,272.240 121.633,269.600 119.000 C 266.960 116.367,264.800 114.023,264.800 113.791 C 264.800 113.559,261.020 109.599,256.400 104.990 C 251.780 100.382,247.996 96.339,247.990 96.006 C 247.978 95.252,239.839 87.094,239.469 87.464 M43.200 111.235 C 41.990 112.523,40.727 113.582,40.394 113.589 C 40.061 113.595,37.543 115.850,34.800 118.600 C 32.057 121.350,29.607 123.600,29.355 123.600 C 29.104 123.600,26.942 125.579,24.549 127.999 C 22.157 130.418,19.930 132.401,19.600 132.406 C 19.270 132.410,17.492 133.941,15.649 135.807 C 13.806 137.673,12.089 139.200,11.832 139.200 C 11.248 139.200,8.000 142.477,8.000 143.066 C 8.000 143.306,7.730 143.726,7.400 144.000 C 5.447 145.621,8.949 152.800,11.693 152.800 C 11.983 152.800,13.561 154.150,15.200 155.800 C 16.839 157.450,18.407 158.800,18.685 158.800 C 18.963 158.800,20.040 159.700,21.078 160.800 C 22.116 161.900,23.243 162.803,23.583 162.806 C 23.922 162.810,25.073 163.710,26.139 164.806 C 27.206 165.903,28.315 166.800,28.603 166.800 C 28.892 166.800,29.900 167.610,30.843 168.600 C 31.787 169.590,32.816 170.400,33.131 170.400 C 33.446 170.400,34.874 171.570,36.304 173.000 C 37.734 174.430,39.111 175.600,39.364 175.600 C 39.618 175.600,40.894 176.680,42.200 178.000 C 46.379 182.223,46.000 185.558,46.000 144.600 C 46.000 124.910,45.865 108.821,45.700 108.846 C 45.535 108.871,44.410 109.946,43.200 111.235 M316.800 292.000 C 316.800 355.580,316.941 407.600,317.114 407.600 C 317.643 407.600,321.600 403.409,321.600 402.848 C 321.600 402.558,322.500 401.439,323.600 400.362 C 324.700 399.285,325.600 398.171,325.600 397.887 C 325.600 397.603,326.500 396.483,327.600 395.400 C 328.700 394.317,329.600 393.195,329.600 392.908 C 329.600 392.621,330.410 391.610,331.400 390.662 C 332.390 389.713,333.200 388.673,333.200 388.350 C 333.200 388.027,333.920 387.059,334.800 386.200 C 335.680 385.341,336.400 384.401,336.400 384.112 C 336.400 383.823,337.210 382.810,338.200 381.862 C 339.190 380.913,340.000 379.857,340.000 379.515 C 340.000 379.173,340.720 378.243,341.600 377.448 C 342.480 376.653,343.200 375.767,343.200 375.480 C 343.200 375.192,343.830 374.346,344.600 373.600 C 345.370 372.854,346.000 371.963,346.000 371.622 C 346.001 371.280,346.721 370.302,347.600 369.448 C 348.480 368.595,349.200 367.685,349.200 367.427 C 349.200 367.168,349.830 366.346,350.600 365.600 C 351.370 364.854,352.000 363.984,352.000 363.667 C 352.000 363.351,352.450 362.675,353.000 362.165 C 353.550 361.655,354.000 360.991,354.000 360.689 C 354.000 360.387,354.450 359.717,355.000 359.200 L 356.000 358.261 356.000 291.129 L 356.000 223.998 354.400 222.552 C 353.520 221.757,352.800 220.787,352.800 220.395 C 352.800 220.003,352.170 219.130,351.400 218.454 C 350.630 217.778,350.000 216.984,350.000 216.691 C 350.000 216.397,349.370 215.546,348.600 214.800 C 347.830 214.054,347.200 213.156,347.200 212.804 C 347.200 212.453,346.300 211.316,345.200 210.278 C 344.100 209.240,343.200 208.161,343.200 207.880 C 343.200 207.599,342.300 206.483,341.200 205.400 C 340.100 204.317,339.200 203.173,339.200 202.859 C 339.200 202.545,338.300 201.438,337.200 200.400 C 336.100 199.362,335.200 198.257,335.200 197.944 C 335.200 197.631,334.120 196.306,332.800 195.000 C 331.480 193.694,330.400 192.392,330.400 192.107 C 330.400 191.823,329.320 190.543,328.000 189.263 C 326.680 187.983,325.600 186.675,325.600 186.357 C 325.600 186.038,324.430 184.617,323.000 183.200 C 321.570 181.783,320.400 180.429,320.400 180.192 C 320.400 179.776,317.360 176.400,316.985 176.400 C 316.883 176.400,316.800 228.420,316.800 292.000 " stroke="none" fill="#fcfcfc" fill-rule="evenodd"></path><path id="path1" d="M153.600 2.000 C 153.600 2.220,153.150 2.400,152.600 2.400 C 151.978 2.400,151.600 2.627,151.600 3.000 C 151.600 3.330,151.407 3.600,151.171 3.600 C 150.618 3.600,149.600 4.618,149.600 5.171 C 149.600 5.407,149.227 5.600,148.771 5.600 C 147.886 5.600,146.800 6.466,146.800 7.171 C 146.800 7.407,146.570 7.600,146.288 7.600 C 146.007 7.600,145.517 7.960,145.200 8.400 C 144.883 8.840,144.297 9.200,143.899 9.200 C 143.501 9.200,143.071 9.470,142.945 9.800 C 142.818 10.130,142.541 10.400,142.329 10.400 C 141.810 10.400,140.800 11.438,140.800 11.971 C 140.800 12.207,140.530 12.400,140.200 12.400 C 139.870 12.400,139.600 12.580,139.600 12.800 C 139.600 13.020,139.240 13.200,138.800 13.200 C 138.356 13.200,138.000 13.467,138.000 13.800 C 138.000 14.130,137.807 14.400,137.571 14.400 C 137.018 14.400,136.000 15.418,136.000 15.971 C 136.000 16.207,135.770 16.400,135.488 16.400 C 135.207 16.400,134.717 16.760,134.400 17.200 C 134.083 17.640,133.593 18.000,133.312 18.000 C 133.030 18.000,132.800 18.270,132.800 18.600 C 132.800 18.930,132.485 19.206,132.100 19.213 C 131.235 19.228,130.000 20.129,130.000 20.744 C 130.000 20.995,129.807 21.200,129.571 21.200 C 129.105 21.200,128.000 22.185,128.000 22.600 C 128.000 23.015,126.895 24.000,126.429 24.000 C 126.193 24.000,126.000 24.193,126.000 24.429 C 126.000 24.982,124.982 26.000,124.429 26.000 C 124.193 26.000,124.000 26.193,124.000 26.429 C 124.000 26.982,122.982 28.000,122.429 28.000 C 122.193 28.000,122.000 28.180,122.000 28.400 C 122.000 28.620,121.370 28.800,120.600 28.800 C 119.622 28.800,119.200 28.981,119.200 29.400 C 119.200 29.730,119.007 30.000,118.771 30.000 C 118.305 30.000,117.200 30.985,117.200 31.400 C 117.200 31.815,116.095 32.800,115.629 32.800 C 115.393 32.800,115.200 32.993,115.200 33.229 C 115.200 33.782,114.182 34.800,113.629 34.800 C 113.393 34.800,113.200 34.993,113.200 35.229 C 113.200 35.695,112.215 36.800,111.800 36.800 C 111.385 36.800,110.400 37.905,110.400 38.371 C 110.400 38.607,110.207 38.800,109.971 38.800 C 109.505 38.800,108.400 39.785,108.400 40.200 C 108.400 40.615,107.295 41.600,106.829 41.600 C 106.593 41.600,106.400 41.793,106.400 42.029 C 106.400 42.582,105.382 43.600,104.829 43.600 C 104.593 43.600,104.400 43.793,104.400 44.029 C 104.400 44.582,103.382 45.600,102.829 45.600 C 102.593 45.600,102.400 45.793,102.400 46.029 C 102.400 46.582,101.382 47.600,100.829 47.600 C 100.593 47.600,100.400 47.780,100.400 48.000 C 100.400 48.220,100.104 48.400,99.743 48.400 C 99.039 48.400,96.800 50.527,96.800 51.196 C 96.800 51.418,96.607 51.600,96.371 51.600 C 96.136 51.600,95.686 51.857,95.371 52.171 C 95.057 52.486,94.800 52.936,94.800 53.171 C 94.800 53.407,94.607 53.600,94.371 53.600 C 93.818 53.600,92.800 54.618,92.800 55.171 C 92.800 55.407,92.607 55.600,92.371 55.600 C 91.818 55.600,90.800 56.618,90.800 57.171 C 90.800 57.407,90.612 57.600,90.382 57.600 C 89.839 57.600,88.000 59.439,88.000 59.982 C 88.000 60.212,87.807 60.400,87.571 60.400 C 87.018 60.400,86.000 61.418,86.000 61.971 C 86.000 62.207,85.807 62.400,85.571 62.400 C 85.018 62.400,84.000 63.418,84.000 63.971 C 84.000 64.207,83.807 64.400,83.571 64.400 C 83.018 64.400,82.000 65.418,82.000 65.971 C 82.000 66.207,81.813 66.400,81.584 66.400 C 81.134 66.400,78.000 69.371,78.000 69.797 C 78.000 70.133,76.935 71.200,76.600 71.200 C 76.185 71.200,75.200 72.305,75.200 72.771 C 75.200 73.007,75.007 73.200,74.771 73.200 C 74.218 73.200,73.200 74.218,73.200 74.771 C 73.200 75.007,73.007 75.200,72.771 75.200 C 72.218 75.200,71.200 76.218,71.200 76.771 C 71.200 77.007,71.011 77.200,70.781 77.200 C 70.235 77.200,66.400 81.035,66.400 81.581 C 66.400 81.811,66.207 82.000,65.971 82.000 C 65.736 82.000,65.286 82.257,64.971 82.571 C 64.657 82.886,64.400 83.336,64.400 83.571 C 64.400 83.807,64.130 84.000,63.800 84.000 C 63.470 84.000,63.200 84.180,63.200 84.400 C 63.200 84.620,62.865 84.800,62.456 84.800 C 62.047 84.800,61.374 85.250,60.961 85.800 C 60.548 86.350,60.060 86.800,59.876 86.800 C 59.484 86.800,58.400 87.828,58.400 88.200 C 58.400 88.615,57.295 89.600,56.829 89.600 C 56.593 89.600,56.400 89.793,56.400 90.029 C 56.400 90.264,56.143 90.714,55.829 91.029 C 55.514 91.343,55.064 91.600,54.829 91.600 C 54.593 91.600,54.400 91.793,54.400 92.029 C 54.400 92.582,53.382 93.600,52.829 93.600 C 52.593 93.600,52.400 93.793,52.400 94.029 C 52.400 94.582,51.382 95.600,50.829 95.600 C 50.593 95.600,50.400 95.793,50.400 96.029 C 50.400 96.676,49.342 97.600,48.600 97.600 C 47.858 97.600,46.800 98.524,46.800 99.171 C 46.800 99.407,46.607 99.600,46.371 99.600 C 45.818 99.600,44.800 100.618,44.800 101.171 C 44.800 101.407,44.530 101.600,44.200 101.600 C 43.870 101.600,43.600 101.780,43.600 102.000 C 43.600 102.220,43.150 102.400,42.600 102.400 C 42.050 102.400,41.600 102.593,41.600 102.829 C 41.600 103.382,40.582 104.400,40.029 104.400 C 39.793 104.400,39.600 104.588,39.600 104.818 C 39.600 105.547,37.669 107.200,36.818 107.200 C 36.358 107.200,36.000 107.462,36.000 107.800 C 36.000 108.130,35.807 108.400,35.571 108.400 C 35.018 108.400,34.000 109.418,34.000 109.971 C 34.000 110.207,33.807 110.400,33.571 110.400 C 33.018 110.400,32.000 111.418,32.000 111.971 C 32.000 112.207,31.807 112.400,31.571 112.400 C 31.018 112.400,30.000 113.418,30.000 113.971 C 30.000 114.207,29.807 114.400,29.571 114.400 C 29.105 114.400,28.000 115.385,28.000 115.800 C 28.000 116.357,26.813 117.200,26.029 117.200 C 25.573 117.200,25.200 117.380,25.200 117.600 C 25.200 117.820,24.930 118.000,24.600 118.000 C 24.270 118.000,24.000 118.193,24.000 118.429 C 24.000 118.982,22.982 120.000,22.429 120.000 C 22.193 120.000,22.000 120.193,22.000 120.429 C 22.000 120.982,20.982 122.000,20.429 122.000 C 20.193 122.000,20.000 122.193,20.000 122.429 C 20.000 122.982,18.982 124.000,18.429 124.000 C 18.193 124.000,18.000 124.193,18.000 124.429 C 18.000 125.076,16.942 126.000,16.200 126.000 C 15.458 126.000,14.400 126.924,14.400 127.571 C 14.400 127.807,14.207 128.000,13.971 128.000 C 13.418 128.000,12.400 129.018,12.400 129.571 C 12.400 129.807,12.207 130.000,11.971 130.000 C 11.418 130.000,10.400 131.018,10.400 131.571 C 10.400 131.807,10.130 132.000,9.800 132.000 C 9.470 132.000,9.200 132.180,9.200 132.400 C 9.200 132.620,8.840 132.800,8.400 132.800 C 7.956 132.800,7.600 133.067,7.600 133.400 C 7.600 133.730,7.407 134.000,7.171 134.000 C 6.618 134.000,5.600 135.018,5.600 135.571 C 5.600 135.807,5.370 136.000,5.088 136.000 C 4.807 136.000,4.317 136.360,4.000 136.800 C 3.683 137.240,3.193 137.600,2.912 137.600 C 2.630 137.600,2.400 137.870,2.400 138.200 C 2.400 138.530,2.220 138.800,2.000 138.800 C 1.780 138.800,1.600 139.250,1.600 139.800 C 1.600 140.375,1.370 140.800,1.057 140.800 C 0.678 140.800,0.438 141.628,0.259 143.556 C -0.042 146.795,0.356 152.400,0.887 152.400 C 1.393 152.400,2.400 153.446,2.400 153.971 C 2.400 154.207,2.593 154.400,2.829 154.400 C 3.382 154.400,4.400 155.418,4.400 155.971 C 4.400 156.207,4.593 156.400,4.829 156.400 C 5.382 156.400,6.400 157.418,6.400 157.971 C 6.400 158.207,6.670 158.400,7.000 158.400 C 7.330 158.400,7.600 158.580,7.600 158.800 C 7.600 159.020,7.864 159.200,8.186 159.200 C 8.858 159.200,11.200 161.365,11.200 161.987 C 11.200 162.214,11.430 162.400,11.712 162.400 C 11.993 162.400,12.483 162.760,12.800 163.200 C 13.117 163.640,13.607 164.000,13.888 164.000 C 14.170 164.000,14.400 164.270,14.400 164.600 C 14.400 164.940,14.759 165.200,15.229 165.200 C 16.013 165.200,17.200 166.043,17.200 166.600 C 17.200 167.015,18.305 168.000,18.771 168.000 C 19.007 168.000,19.200 168.270,19.200 168.600 C 19.200 168.940,19.559 169.200,20.029 169.200 C 20.914 169.200,22.000 170.066,22.000 170.771 C 22.000 171.007,22.227 171.200,22.505 171.200 C 22.783 171.200,23.348 171.650,23.761 172.200 C 24.174 172.750,24.847 173.200,25.256 173.200 C 25.665 173.200,26.000 173.380,26.000 173.600 C 26.000 173.820,26.193 174.000,26.429 174.000 C 26.895 174.000,28.000 174.985,28.000 175.400 C 28.000 175.957,29.187 176.800,29.971 176.800 C 30.441 176.800,30.800 177.060,30.800 177.400 C 30.800 177.730,30.993 178.000,31.229 178.000 C 31.782 178.000,32.800 179.018,32.800 179.571 C 32.800 179.807,33.027 180.000,33.305 180.000 C 33.583 180.000,34.148 180.450,34.561 181.000 C 34.974 181.550,35.647 182.000,36.056 182.000 C 36.465 182.000,36.800 182.180,36.800 182.400 C 36.800 182.620,36.993 182.800,37.229 182.800 C 37.695 182.800,38.800 183.785,38.800 184.200 C 38.800 184.615,39.905 185.600,40.371 185.600 C 40.607 185.600,40.800 185.870,40.800 186.200 C 40.800 186.619,41.222 186.800,42.200 186.800 C 42.970 186.800,43.600 186.980,43.600 187.200 C 43.600 187.420,43.870 187.600,44.200 187.600 C 44.530 187.600,44.800 187.793,44.800 188.029 C 44.800 188.562,45.810 189.600,46.329 189.600 C 46.541 189.600,46.818 189.870,46.945 190.200 C 47.071 190.530,47.451 190.800,47.787 190.800 C 48.124 190.800,48.400 190.980,48.400 191.200 C 48.400 191.420,48.670 191.600,49.000 191.600 C 49.330 191.600,49.600 191.793,49.600 192.029 C 49.600 192.495,50.585 193.600,51.000 193.600 C 51.415 193.600,52.400 194.705,52.400 195.171 C 52.400 195.407,52.593 195.600,52.829 195.600 C 53.382 195.600,54.400 196.618,54.400 197.171 C 54.400 197.407,54.670 197.600,55.000 197.600 C 55.330 197.600,55.600 197.780,55.600 198.000 C 55.600 198.220,56.050 198.400,56.600 198.400 C 57.150 198.400,57.600 198.589,57.600 198.819 C 57.600 199.365,61.435 203.200,61.981 203.200 C 62.211 203.200,62.400 203.393,62.400 203.629 C 62.400 204.182,63.418 205.200,63.971 205.200 C 64.207 205.200,64.400 205.393,64.400 205.629 C 64.400 206.182,65.418 207.200,65.971 207.200 C 66.207 207.200,66.400 207.401,66.400 207.647 C 66.400 208.221,68.842 210.385,69.500 210.394 C 69.775 210.397,70.000 210.580,70.000 210.800 C 70.000 211.020,70.270 211.200,70.600 211.200 C 70.930 211.200,71.200 211.393,71.200 211.629 C 71.200 212.095,72.185 213.200,72.600 213.200 C 73.015 213.200,74.000 214.305,74.000 214.771 C 74.000 215.007,74.193 215.200,74.429 215.200 C 74.982 215.200,76.000 216.218,76.000 216.771 C 76.000 217.007,76.193 217.200,76.429 217.200 C 77.077 217.200,78.000 218.258,78.000 219.003 C 78.000 219.720,80.908 222.800,81.584 222.800 C 81.813 222.800,82.000 222.993,82.000 223.229 C 82.000 223.782,83.018 224.800,83.571 224.800 C 83.807 224.800,84.000 224.993,84.000 225.229 C 84.000 225.782,85.018 226.800,85.571 226.800 C 85.807 226.800,86.000 226.993,86.000 227.229 C 86.000 227.782,87.018 228.800,87.571 228.800 C 87.807 228.800,88.000 228.989,88.000 229.219 C 88.000 229.765,91.835 233.600,92.381 233.600 C 92.611 233.600,92.800 233.793,92.800 234.029 C 92.800 234.582,93.818 235.600,94.371 235.600 C 94.607 235.600,94.800 235.870,94.800 236.200 C 94.800 236.540,95.159 236.800,95.629 236.800 C 96.413 236.800,97.600 237.643,97.600 238.200 C 97.600 238.615,98.705 239.600,99.171 239.600 C 99.407 239.600,99.600 239.793,99.600 240.029 C 99.600 240.495,100.585 241.600,101.000 241.600 C 101.415 241.600,102.400 242.705,102.400 243.171 C 102.400 243.407,102.593 243.600,102.829 243.600 C 103.382 243.600,104.400 244.618,104.400 245.171 C 104.400 245.407,104.593 245.600,104.829 245.600 C 105.382 245.600,106.400 246.618,106.400 247.171 C 106.400 247.407,106.593 247.600,106.829 247.600 C 107.295 247.600,108.400 248.585,108.400 249.000 C 108.400 249.415,109.505 250.400,109.971 250.400 C 110.207 250.400,110.400 250.593,110.400 250.829 C 110.400 251.295,111.385 252.400,111.800 252.400 C 112.215 252.400,113.200 253.505,113.200 253.971 C 113.200 254.207,113.393 254.400,113.629 254.400 C 114.182 254.400,115.200 255.418,115.200 255.971 C 115.200 256.207,115.393 256.400,115.629 256.400 C 116.182 256.400,117.200 257.418,117.200 257.971 C 117.200 258.207,117.650 258.400,118.200 258.400 C 118.750 258.400,119.200 258.580,119.200 258.800 C 119.200 259.020,119.650 259.200,120.200 259.200 C 120.750 259.200,121.200 259.393,121.200 259.629 C 121.200 260.095,122.185 261.200,122.600 261.200 C 123.015 261.200,124.000 262.305,124.000 262.771 C 124.000 263.007,124.193 263.200,124.429 263.200 C 124.982 263.200,126.000 264.218,126.000 264.771 C 126.000 265.007,126.193 265.200,126.429 265.200 C 126.895 265.200,128.000 266.185,128.000 266.600 C 128.000 267.015,129.105 268.000,129.571 268.000 C 129.807 268.000,130.000 268.205,130.000 268.456 C 130.000 269.071,131.235 269.972,132.100 269.987 C 132.485 269.994,132.800 270.270,132.800 270.600 C 132.800 270.930,133.030 271.200,133.312 271.200 C 133.593 271.200,134.083 271.560,134.400 272.000 C 134.717 272.440,135.207 272.800,135.488 272.800 C 135.770 272.800,136.000 272.993,136.000 273.229 C 136.000 273.782,137.018 274.800,137.571 274.800 C 137.807 274.800,138.000 274.986,138.000 275.213 C 138.000 275.835,140.342 278.000,141.014 278.000 C 141.336 278.000,141.600 278.180,141.600 278.400 C 141.600 278.620,141.870 278.800,142.200 278.800 C 142.530 278.800,142.800 278.993,142.800 279.229 C 142.800 279.782,143.818 280.800,144.371 280.800 C 144.607 280.800,144.800 280.993,144.800 281.229 C 144.800 281.782,145.818 282.800,146.371 282.800 C 146.607 282.800,146.800 282.980,146.800 283.200 C 146.800 283.420,147.160 283.600,147.600 283.600 C 148.044 283.600,148.400 283.867,148.400 284.200 C 148.400 284.530,148.586 284.800,148.813 284.800 C 150.063 284.800,151.600 287.250,151.600 289.242 C 151.600 291.189,152.202 292.400,153.171 292.400 C 153.407 292.400,153.600 292.593,153.600 292.829 C 153.600 293.382,154.618 294.400,155.171 294.400 C 155.407 294.400,155.600 294.593,155.600 294.829 C 155.600 295.382,156.618 296.400,157.171 296.400 C 157.407 296.400,157.600 296.596,157.600 296.836 C 157.600 297.075,158.410 298.059,159.400 299.021 C 160.390 299.983,161.200 300.957,161.200 301.185 C 161.200 301.413,161.430 301.600,161.712 301.600 C 161.993 301.600,162.483 301.960,162.800 302.400 C 163.117 302.840,163.607 303.200,163.888 303.200 C 164.170 303.200,164.400 303.393,164.400 303.629 C 164.400 304.182,165.418 305.200,165.971 305.200 C 166.207 305.200,166.400 305.393,166.400 305.629 C 166.400 306.334,167.486 307.200,168.371 307.200 C 168.827 307.200,169.200 307.393,169.200 307.629 C 169.200 308.182,170.218 309.200,170.771 309.200 C 171.007 309.200,171.200 309.393,171.200 309.629 C 171.200 310.182,172.218 311.200,172.771 311.200 C 173.007 311.200,173.200 311.380,173.200 311.600 C 173.200 311.820,173.650 312.000,174.200 312.000 C 174.750 312.000,175.200 312.193,175.200 312.429 C 175.200 312.982,176.218 314.000,176.771 314.000 C 177.007 314.000,177.200 314.230,177.200 314.512 C 177.200 314.793,177.560 315.283,178.000 315.600 C 178.440 315.917,178.800 316.407,178.800 316.688 C 178.800 316.970,178.990 317.200,179.223 317.200 C 179.455 317.200,180.508 318.100,181.563 319.200 C 182.617 320.300,183.777 321.200,184.140 321.200 C 184.503 321.200,184.800 321.380,184.800 321.600 C 184.800 321.820,184.993 322.000,185.229 322.000 C 185.782 322.000,186.800 323.018,186.800 323.571 C 186.800 323.807,186.993 324.000,187.229 324.000 C 187.695 324.000,188.800 324.985,188.800 325.400 C 188.800 325.815,189.905 326.800,190.371 326.800 C 190.607 326.800,190.800 326.993,190.800 327.229 C 190.800 327.782,191.818 328.800,192.371 328.800 C 192.607 328.800,192.800 328.993,192.800 329.229 C 192.800 329.782,193.818 330.800,194.371 330.800 C 194.607 330.800,194.800 330.980,194.800 331.200 C 194.800 331.420,195.250 331.600,195.800 331.600 C 196.422 331.600,196.800 331.827,196.800 332.200 C 196.800 332.533,197.156 332.800,197.600 332.800 C 198.040 332.800,198.400 332.980,198.400 333.200 C 198.400 333.420,198.670 333.600,199.000 333.600 C 199.330 333.600,199.600 333.793,199.600 334.029 C 199.600 334.582,200.618 335.600,201.171 335.600 C 201.407 335.600,201.600 335.793,201.600 336.029 C 201.600 336.582,202.618 337.600,203.171 337.600 C 203.407 337.600,203.600 337.793,203.600 338.029 C 203.600 338.582,204.618 339.600,205.171 339.600 C 205.407 339.600,205.600 339.793,205.600 340.029 C 205.600 340.495,206.585 341.600,207.000 341.600 C 207.334 341.600,208.400 342.666,208.400 343.000 C 208.400 343.415,209.505 344.400,209.971 344.400 C 210.207 344.400,210.400 344.593,210.400 344.829 C 210.400 345.382,211.418 346.400,211.971 346.400 C 212.207 346.400,212.400 346.670,212.400 347.000 C 212.400 347.330,212.535 347.600,212.700 347.600 C 212.865 347.601,213.523 348.051,214.162 348.600 C 214.801 349.150,215.485 349.600,215.680 349.600 C 216.176 349.600,218.000 351.473,218.000 351.982 C 218.000 352.212,218.193 352.400,218.429 352.400 C 218.982 352.400,220.000 353.418,220.000 353.971 C 220.000 354.207,220.193 354.400,220.429 354.400 C 220.982 354.400,222.000 355.418,222.000 355.971 C 222.000 356.207,222.193 356.400,222.429 356.400 C 222.982 356.400,224.000 357.418,224.000 357.971 C 224.000 358.207,224.236 358.400,224.525 358.400 C 224.814 358.400,225.298 359.030,225.600 359.800 C 225.902 360.570,226.309 361.200,226.503 361.200 C 226.911 361.200,228.000 362.218,228.000 362.600 C 228.000 363.015,229.105 364.000,229.571 364.000 C 229.807 364.000,230.000 364.193,230.000 364.429 C 230.000 364.982,231.018 366.000,231.571 366.000 C 231.807 366.000,232.000 366.270,232.000 366.600 C 232.000 366.930,232.180 367.200,232.400 367.200 C 232.620 367.200,232.800 367.566,232.800 368.013 C 232.800 368.459,233.070 368.929,233.400 369.055 C 233.730 369.182,234.000 369.626,234.000 370.043 C 234.000 370.459,234.180 370.800,234.400 370.800 C 234.620 370.800,234.800 371.070,234.800 371.400 C 234.800 371.730,234.993 372.000,235.229 372.000 C 235.782 372.000,236.800 373.018,236.800 373.571 C 236.800 373.807,236.993 374.000,237.229 374.000 C 237.782 374.000,238.800 375.018,238.800 375.571 C 238.800 375.807,238.980 376.000,239.200 376.000 C 239.420 376.000,239.600 376.335,239.600 376.744 C 239.600 377.153,240.050 377.826,240.600 378.239 C 241.150 378.652,241.600 379.217,241.600 379.495 C 241.600 379.773,241.830 380.000,242.112 380.000 C 242.393 380.000,242.883 380.360,243.200 380.800 C 243.517 381.240,244.007 381.600,244.288 381.600 C 244.570 381.600,244.800 382.050,244.800 382.600 C 244.800 383.150,244.980 383.600,245.200 383.600 C 245.420 383.600,245.600 383.870,245.600 384.200 C 245.600 384.530,245.793 384.800,246.029 384.800 C 246.495 384.800,247.600 385.785,247.600 386.200 C 247.600 386.615,248.705 387.600,249.171 387.600 C 249.407 387.600,249.600 387.870,249.600 388.200 C 249.600 388.530,249.780 388.800,250.000 388.800 C 250.220 388.800,250.400 389.096,250.400 389.457 C 250.400 390.161,252.527 392.400,253.196 392.400 C 253.418 392.400,253.600 392.593,253.600 392.829 C 253.600 393.382,254.618 394.400,255.171 394.400 C 255.407 394.400,255.600 394.593,255.600 394.829 C 255.600 395.382,256.618 396.400,257.171 396.400 C 257.407 396.400,257.600 396.630,257.600 396.912 C 257.600 397.193,257.960 397.683,258.400 398.000 C 258.840 398.317,259.200 398.987,259.200 399.488 C 259.200 399.990,259.393 400.400,259.629 400.400 C 260.182 400.400,261.200 401.418,261.200 401.971 C 261.200 402.207,261.393 402.400,261.629 402.400 C 262.182 402.400,263.200 403.418,263.200 403.971 C 263.200 404.207,263.393 404.400,263.629 404.400 C 264.182 404.400,265.200 405.418,265.200 405.971 C 265.200 406.207,265.393 406.400,265.629 406.400 C 266.095 406.400,267.200 407.385,267.200 407.800 C 267.200 408.215,268.305 409.200,268.771 409.200 C 269.007 409.200,269.200 409.393,269.200 409.629 C 269.200 410.095,270.185 411.200,270.600 411.200 C 271.015 411.200,272.000 412.305,272.000 412.771 C 272.000 413.007,272.193 413.200,272.429 413.200 C 272.982 413.200,274.000 414.218,274.000 414.771 C 274.000 415.007,274.450 415.200,275.000 415.200 C 275.550 415.200,276.000 415.380,276.000 415.600 C 276.000 415.820,276.270 416.000,276.600 416.000 C 276.930 416.000,277.200 416.189,277.200 416.419 C 277.200 416.965,281.035 420.800,281.581 420.800 C 281.811 420.800,282.000 420.993,282.000 421.229 C 282.000 421.782,283.018 422.800,283.571 422.800 C 283.807 422.800,284.000 422.993,284.000 423.229 C 284.000 423.782,285.018 424.800,285.571 424.800 C 285.807 424.800,286.000 424.993,286.000 425.229 C 286.000 425.782,287.018 426.800,287.571 426.800 C 287.807 426.800,288.000 426.989,288.000 427.219 C 288.000 427.983,291.947 431.600,292.781 431.600 C 293.242 431.600,293.600 431.862,293.600 432.200 C 293.600 432.573,293.978 432.800,294.600 432.800 C 295.150 432.800,295.600 432.980,295.600 433.200 C 295.600 433.431,296.867 433.600,298.600 433.600 C 300.333 433.600,301.600 433.431,301.600 433.200 C 301.600 432.980,301.917 432.800,302.304 432.800 C 302.691 432.800,303.546 432.174,304.204 431.409 C 304.862 430.643,305.521 430.013,305.669 430.009 C 305.981 429.999,308.400 427.636,308.400 427.341 C 308.400 426.973,309.540 426.000,309.971 426.000 C 310.207 426.000,310.400 425.807,310.400 425.571 C 310.400 425.018,311.418 424.000,311.971 424.000 C 312.207 424.000,312.400 423.807,312.400 423.571 C 312.400 423.018,313.418 422.000,313.971 422.000 C 314.207 422.000,314.404 421.775,314.409 421.500 C 314.413 421.225,315.043 420.462,315.809 419.804 C 316.574 419.146,317.200 418.291,317.200 417.904 C 317.200 417.517,317.380 417.200,317.600 417.200 C 317.820 417.200,318.000 416.930,318.000 416.600 C 318.000 416.270,318.193 416.000,318.429 416.000 C 318.982 416.000,320.000 414.982,320.000 414.429 C 320.000 414.193,320.193 414.000,320.429 414.000 C 320.982 414.000,322.000 412.982,322.000 412.429 C 322.000 412.193,322.188 412.000,322.418 412.000 C 322.961 412.000,324.800 410.161,324.800 409.618 C 324.800 409.388,324.993 409.200,325.229 409.200 C 325.782 409.200,326.800 408.182,326.800 407.629 C 326.800 407.393,327.070 407.200,327.400 407.200 C 327.740 407.200,328.000 406.841,328.000 406.371 C 328.000 405.486,328.866 404.400,329.571 404.400 C 329.807 404.400,330.000 404.207,330.000 403.971 C 330.000 403.418,331.018 402.400,331.571 402.400 C 331.807 402.400,332.000 402.033,332.000 401.585 C 332.000 401.137,332.810 399.983,333.800 399.021 C 334.801 398.048,335.600 396.900,335.600 396.436 C 335.600 395.960,335.858 395.600,336.200 395.600 C 336.530 395.600,336.800 395.407,336.800 395.171 C 336.800 394.618,337.818 393.600,338.371 393.600 C 338.607 393.600,338.800 393.330,338.800 393.000 C 338.800 392.670,338.980 392.400,339.200 392.400 C 339.420 392.400,339.600 392.040,339.600 391.600 C 339.600 391.156,339.867 390.800,340.200 390.800 C 340.530 390.800,340.800 390.573,340.800 390.295 C 340.800 390.017,341.250 389.452,341.800 389.039 C 342.350 388.626,342.800 387.953,342.800 387.544 C 342.800 387.135,342.980 386.800,343.200 386.800 C 343.420 386.800,343.600 386.530,343.600 386.200 C 343.600 385.870,343.793 385.600,344.029 385.600 C 344.582 385.600,345.600 384.582,345.600 384.029 C 345.600 383.793,345.780 383.600,346.000 383.600 C 346.220 383.600,346.400 383.150,346.400 382.600 C 346.400 382.050,346.582 381.600,346.804 381.600 C 347.473 381.600,349.600 379.361,349.600 378.657 C 349.600 378.296,349.780 378.000,350.000 378.000 C 350.220 378.000,350.400 377.730,350.400 377.400 C 350.400 377.070,350.593 376.800,350.829 376.800 C 351.534 376.800,352.400 375.714,352.400 374.829 C 352.400 374.359,352.660 374.000,353.000 374.000 C 353.330 374.000,353.600 373.770,353.600 373.488 C 353.600 373.207,353.960 372.717,354.400 372.400 C 354.840 372.083,355.200 371.413,355.200 370.912 C 355.200 370.410,355.393 370.000,355.629 370.000 C 356.182 370.000,357.200 368.982,357.200 368.429 C 357.200 368.193,357.470 368.000,357.800 368.000 C 358.140 368.000,358.400 367.641,358.400 367.171 C 358.400 366.286,359.266 365.200,359.971 365.200 C 360.207 365.200,360.400 364.750,360.400 364.200 C 360.400 363.650,360.580 363.200,360.800 363.200 C 361.020 363.200,361.200 362.930,361.200 362.600 C 361.200 362.270,361.470 362.000,361.800 362.000 C 362.211 362.000,362.400 361.588,362.400 360.695 C 362.400 359.770,362.691 359.171,363.400 358.639 C 363.950 358.226,364.400 357.553,364.400 357.144 C 364.400 356.735,364.580 356.400,364.800 356.400 C 365.020 356.400,365.200 356.130,365.200 355.800 C 365.200 355.470,365.380 355.200,365.600 355.200 C 365.820 355.200,366.000 354.750,366.000 354.200 C 366.000 353.650,366.193 353.200,366.429 353.200 C 366.982 353.200,368.000 352.182,368.000 351.629 C 368.000 351.393,368.270 351.200,368.600 351.200 C 368.933 351.200,369.200 350.844,369.200 350.400 C 369.200 349.960,369.380 349.600,369.600 349.600 C 369.820 349.600,370.000 349.330,370.000 349.000 C 370.000 348.670,370.270 348.400,370.600 348.400 C 370.973 348.400,371.200 348.022,371.200 347.400 C 371.200 346.850,371.380 346.400,371.600 346.400 C 371.820 346.400,372.000 346.065,372.000 345.656 C 372.000 345.247,372.450 344.574,373.000 344.161 C 373.551 343.747,374.000 343.004,374.000 342.505 C 374.000 342.007,374.205 341.600,374.456 341.600 C 375.071 341.600,375.972 340.365,375.987 339.500 C 375.994 339.115,376.180 338.800,376.400 338.800 C 376.620 338.800,376.800 338.530,376.800 338.200 C 376.800 337.870,377.070 337.600,377.400 337.600 C 377.773 337.600,378.000 337.222,378.000 336.600 C 378.000 336.050,378.180 335.600,378.400 335.600 C 378.620 335.600,378.800 335.150,378.800 334.600 C 378.800 334.050,378.993 333.600,379.229 333.600 C 379.934 333.600,380.800 332.514,380.800 331.629 C 380.800 331.173,381.005 330.800,381.256 330.800 C 381.857 330.800,382.771 329.572,382.787 328.743 C 382.794 328.381,383.070 327.982,383.400 327.855 C 383.730 327.729,384.000 327.259,384.000 326.813 C 384.000 326.366,384.180 326.000,384.400 326.000 C 384.620 326.000,384.800 325.730,384.800 325.400 C 384.800 325.070,384.980 324.800,385.200 324.800 C 385.420 324.800,385.600 324.350,385.600 323.800 C 385.600 323.178,385.827 322.800,386.200 322.800 C 386.533 322.800,386.800 322.444,386.800 322.000 C 386.800 321.560,386.980 321.200,387.200 321.200 C 387.420 321.200,387.600 320.930,387.600 320.600 C 387.600 320.270,387.870 320.000,388.200 320.000 C 388.573 320.000,388.800 319.622,388.800 319.000 C 388.800 318.450,388.980 318.000,389.200 318.000 C 389.420 318.000,389.600 317.550,389.600 317.000 C 389.600 316.378,389.827 316.000,390.200 316.000 C 390.557 316.000,390.800 315.633,390.800 315.095 C 390.800 314.596,391.249 313.853,391.800 313.439 C 392.350 313.026,392.800 312.353,392.800 311.944 C 392.800 311.535,392.980 311.200,393.200 311.200 C 393.420 311.200,393.600 310.750,393.600 310.200 C 393.600 309.578,393.827 309.200,394.200 309.200 C 394.537 309.200,394.800 308.843,394.800 308.383 C 394.800 307.934,395.160 307.180,395.600 306.708 C 396.040 306.236,396.400 305.523,396.400 305.125 C 396.400 304.726,396.670 304.400,397.000 304.400 C 397.373 304.400,397.600 304.022,397.600 303.400 C 397.600 302.850,397.780 302.400,398.000 302.400 C 398.220 302.400,398.400 302.015,398.400 301.544 C 398.400 301.073,398.715 300.458,399.100 300.176 C 399.715 299.727,399.800 298.905,399.800 293.404 C 399.800 287.858,399.720 287.099,399.100 286.752 C 398.680 286.517,398.400 285.888,398.400 285.180 C 398.400 284.531,398.220 284.000,398.000 284.000 C 397.780 284.000,397.600 283.550,397.600 283.000 C 397.600 282.378,397.373 282.000,397.000 282.000 C 396.627 282.000,396.400 281.622,396.400 281.000 C 396.400 280.450,396.220 280.000,396.000 280.000 C 395.780 280.000,395.600 279.550,395.600 279.000 C 395.600 278.450,395.420 278.000,395.200 278.000 C 394.980 278.000,394.800 277.634,394.800 277.187 C 394.800 276.741,394.530 276.271,394.200 276.145 C 393.870 276.018,393.600 275.484,393.600 274.957 C 393.600 274.431,393.420 274.000,393.200 274.000 C 392.980 274.000,392.800 273.634,392.800 273.187 C 392.800 272.741,392.530 272.271,392.200 272.145 C 391.870 272.018,391.600 271.484,391.600 270.957 C 391.600 270.431,391.420 270.000,391.200 270.000 C 390.980 270.000,390.800 269.634,390.800 269.187 C 390.800 268.741,390.530 268.271,390.200 268.145 C 389.870 268.018,389.594 267.619,389.587 267.257 C 389.571 266.428,388.657 265.200,388.056 265.200 C 387.805 265.200,387.600 264.750,387.600 264.200 C 387.600 263.650,387.420 263.200,387.200 263.200 C 386.980 263.200,386.800 262.750,386.800 262.200 C 386.800 261.578,386.573 261.200,386.200 261.200 C 385.827 261.200,385.600 260.822,385.600 260.200 C 385.600 259.650,385.420 259.200,385.200 259.200 C 384.980 259.200,384.800 258.945,384.800 258.632 C 384.800 257.919,383.502 255.606,383.100 255.603 C 382.935 255.601,382.800 255.330,382.800 255.000 C 382.800 254.670,382.620 254.400,382.400 254.400 C 382.180 254.400,382.000 253.950,382.000 253.400 C 382.000 252.778,381.773 252.400,381.400 252.400 C 381.060 252.400,380.800 252.041,380.800 251.571 C 380.800 250.686,379.934 249.600,379.229 249.600 C 378.993 249.600,378.800 249.150,378.800 248.600 C 378.800 248.050,378.620 247.600,378.400 247.600 C 378.180 247.600,378.000 247.150,378.000 246.600 C 378.000 245.978,377.773 245.600,377.400 245.600 C 377.070 245.600,376.800 245.274,376.800 244.875 C 376.800 244.477,376.440 243.764,376.000 243.292 C 375.560 242.820,375.200 242.150,375.200 241.804 C 375.200 241.458,374.930 241.071,374.600 240.945 C 374.270 240.818,374.000 240.464,374.000 240.157 C 374.000 239.851,373.820 239.600,373.600 239.600 C 373.380 239.600,373.200 239.234,373.200 238.787 C 373.200 238.341,372.930 237.871,372.600 237.745 C 372.270 237.618,371.994 237.219,371.987 236.857 C 371.971 236.028,371.057 234.800,370.456 234.800 C 370.205 234.800,370.000 234.427,370.000 233.971 C 370.000 233.086,369.134 232.000,368.429 232.000 C 368.193 232.000,368.000 231.730,368.000 231.400 C 368.000 231.070,367.820 230.800,367.600 230.800 C 367.380 230.800,367.200 230.350,367.200 229.800 C 367.200 229.250,367.007 228.800,366.771 228.800 C 366.124 228.800,365.200 227.742,365.200 227.000 C 365.200 226.258,364.276 225.200,363.629 225.200 C 363.393 225.200,363.200 224.750,363.200 224.200 C 363.200 223.650,363.020 223.200,362.800 223.200 C 362.580 223.200,362.400 222.595,362.400 221.856 C 362.400 220.889,362.119 220.301,361.400 219.761 C 360.850 219.348,360.400 218.783,360.400 218.505 C 360.400 218.227,360.130 218.000,359.800 218.000 C 359.460 218.000,359.200 217.641,359.200 217.171 C 359.200 216.387,358.357 215.200,357.800 215.200 C 357.243 215.200,356.400 214.013,356.400 213.229 C 356.400 212.759,356.140 212.400,355.800 212.400 C 355.470 212.400,355.200 212.170,355.200 211.888 C 355.200 211.607,354.840 211.117,354.400 210.800 C 353.960 210.483,353.600 209.813,353.600 209.312 C 353.600 208.768,353.358 208.400,353.000 208.400 C 352.670 208.400,352.400 208.207,352.400 207.971 C 352.400 207.505,351.415 206.400,351.000 206.400 C 350.443 206.400,349.600 205.213,349.600 204.429 C 349.600 203.959,349.340 203.600,349.000 203.600 C 348.670 203.600,348.400 203.407,348.400 203.171 C 348.400 202.618,347.382 201.600,346.829 201.600 C 346.593 201.600,346.400 201.330,346.400 201.000 C 346.400 200.670,346.220 200.400,346.000 200.400 C 345.780 200.400,345.600 200.027,345.600 199.571 C 345.600 198.686,344.734 197.600,344.029 197.600 C 343.793 197.600,343.600 197.407,343.600 197.171 C 343.600 196.936,343.343 196.486,343.029 196.171 C 342.714 195.857,342.264 195.600,342.029 195.600 C 341.793 195.600,341.600 195.227,341.600 194.771 C 341.600 193.886,340.734 192.800,340.029 192.800 C 339.793 192.800,339.600 192.607,339.600 192.371 C 339.600 191.818,338.582 190.800,338.029 190.800 C 337.793 190.800,337.600 190.530,337.600 190.200 C 337.600 189.870,337.420 189.600,337.200 189.600 C 336.980 189.600,336.800 189.283,336.800 188.896 C 336.800 188.509,336.174 187.654,335.409 186.996 C 334.643 186.338,334.013 185.575,334.009 185.300 C 334.004 185.025,333.807 184.800,333.571 184.800 C 332.866 184.800,332.000 183.714,332.000 182.829 C 332.000 182.359,331.740 182.000,331.400 182.000 C 331.070 182.000,330.800 181.807,330.800 181.571 C 330.800 181.018,329.782 180.000,329.229 180.000 C 328.993 180.000,328.800 179.807,328.800 179.571 C 328.800 179.018,327.782 178.000,327.229 178.000 C 326.993 178.000,326.800 177.627,326.800 177.171 C 326.800 176.286,325.934 175.200,325.229 175.200 C 324.993 175.200,324.800 174.970,324.800 174.688 C 324.800 174.407,324.440 173.917,324.000 173.600 C 323.560 173.283,323.200 172.793,323.200 172.512 C 323.200 172.230,323.007 172.000,322.771 172.000 C 322.218 172.000,321.200 170.982,321.200 170.429 C 321.200 170.193,321.013 170.000,320.785 170.000 C 320.557 170.000,319.583 169.190,318.621 168.200 C 317.659 167.210,316.675 166.400,316.436 166.400 C 316.196 166.400,316.000 166.130,316.000 165.800 C 316.000 165.470,315.820 165.200,315.600 165.200 C 315.380 165.200,315.200 164.827,315.200 164.371 C 315.200 163.486,314.334 162.400,313.629 162.400 C 313.393 162.400,313.200 162.207,313.200 161.971 C 313.200 161.736,312.943 161.286,312.629 160.971 C 312.314 160.657,311.864 160.400,311.629 160.400 C 311.393 160.400,311.200 160.026,311.200 159.569 C 311.200 158.725,308.378 155.600,307.616 155.600 C 307.387 155.600,307.200 155.150,307.200 154.600 C 307.200 154.050,307.020 153.600,306.800 153.600 C 306.580 153.600,306.400 153.330,306.400 153.000 C 306.400 152.670,306.207 152.400,305.971 152.400 C 305.418 152.400,304.400 151.382,304.400 150.829 C 304.400 150.593,304.220 150.400,304.000 150.400 C 303.780 150.400,303.600 150.103,303.600 149.740 C 303.600 149.377,302.700 148.217,301.600 147.163 C 300.500 146.108,299.600 144.990,299.600 144.679 C 299.600 144.367,299.150 143.774,298.600 143.361 C 298.050 142.948,297.600 142.383,297.600 142.105 C 297.600 141.827,297.407 141.600,297.171 141.600 C 296.523 141.600,295.600 140.542,295.600 139.797 C 295.600 139.080,292.692 136.000,292.016 136.000 C 291.787 136.000,291.600 135.550,291.600 135.000 C 291.600 134.450,291.420 134.000,291.200 134.000 C 290.980 134.000,290.800 133.730,290.800 133.400 C 290.800 133.070,290.607 132.800,290.371 132.800 C 289.818 132.800,288.800 131.782,288.800 131.229 C 288.800 130.993,288.607 130.800,288.371 130.800 C 287.818 130.800,286.800 129.782,286.800 129.229 C 286.800 128.993,286.530 128.800,286.200 128.800 C 285.870 128.800,285.600 128.451,285.600 128.024 C 285.600 127.597,285.420 127.136,285.200 127.000 C 284.980 126.864,284.800 126.403,284.800 125.976 C 284.800 125.549,284.620 125.200,284.400 125.200 C 284.180 125.200,284.000 124.930,284.000 124.600 C 284.000 124.270,283.807 124.000,283.571 124.000 C 283.336 124.000,282.886 123.743,282.571 123.429 C 282.257 123.114,282.000 122.664,282.000 122.429 C 282.000 122.193,281.730 122.000,281.400 122.000 C 281.060 122.000,280.800 121.641,280.800 121.171 C 280.800 120.286,279.934 119.200,279.229 119.200 C 278.993 119.200,278.800 119.007,278.800 118.771 C 278.800 118.305,277.815 117.200,277.400 117.200 C 277.066 117.200,276.000 116.134,276.000 115.800 C 276.000 115.385,274.895 114.400,274.429 114.400 C 274.193 114.400,274.000 114.207,274.000 113.971 C 274.000 113.418,272.982 112.400,272.429 112.400 C 272.193 112.400,272.000 112.130,272.000 111.800 C 272.000 111.470,271.820 111.200,271.600 111.200 C 271.380 111.200,271.200 110.865,271.200 110.456 C 271.200 110.047,270.750 109.374,270.200 108.961 C 269.650 108.548,269.200 107.983,269.200 107.705 C 269.200 107.427,268.970 107.200,268.688 107.200 C 268.407 107.200,267.917 106.840,267.600 106.400 C 267.283 105.960,266.793 105.600,266.512 105.600 C 266.230 105.600,266.000 105.370,266.000 105.088 C 266.000 104.807,265.640 104.317,265.200 104.000 C 264.760 103.683,264.400 103.193,264.400 102.912 C 264.400 102.630,264.207 102.400,263.971 102.400 C 263.418 102.400,262.400 101.382,262.400 100.829 C 262.400 100.593,262.207 100.400,261.971 100.400 C 261.418 100.400,260.400 99.382,260.400 98.829 C 260.400 98.593,260.170 98.400,259.888 98.400 C 259.607 98.400,259.117 98.040,258.800 97.600 C 258.483 97.160,257.993 96.800,257.712 96.800 C 257.430 96.800,257.200 96.607,257.200 96.371 C 257.200 95.818,256.182 94.800,255.629 94.800 C 255.393 94.800,255.200 94.530,255.200 94.200 C 255.200 93.870,255.020 93.600,254.800 93.600 C 254.580 93.600,254.400 93.227,254.400 92.771 C 254.400 91.886,253.534 90.800,252.829 90.800 C 252.593 90.800,252.400 90.607,252.400 90.371 C 252.400 89.818,251.382 88.800,250.829 88.800 C 250.593 88.800,250.400 88.607,250.400 88.371 C 250.400 87.905,249.415 86.800,249.000 86.800 C 248.585 86.800,247.600 85.695,247.600 85.229 C 247.600 84.993,247.407 84.800,247.171 84.800 C 246.705 84.800,245.600 83.815,245.600 83.400 C 245.600 82.985,244.495 82.000,244.029 82.000 C 243.793 82.000,243.600 81.730,243.600 81.400 C 243.600 81.060,243.241 80.800,242.771 80.800 C 241.886 80.800,240.800 79.934,240.800 79.229 C 240.800 78.993,240.564 78.800,240.275 78.800 C 239.986 78.800,239.502 78.170,239.200 77.400 C 238.898 76.630,238.491 76.000,238.297 76.000 C 237.804 76.000,236.800 74.946,236.800 74.429 C 236.800 74.193,236.607 74.000,236.371 74.000 C 235.905 74.000,234.800 73.015,234.800 72.600 C 234.800 72.185,233.695 71.200,233.229 71.200 C 232.993 71.200,232.800 71.007,232.800 70.771 C 232.800 70.218,231.782 69.200,231.229 69.200 C 230.993 69.200,230.800 68.827,230.800 68.371 C 230.800 67.486,229.934 66.400,229.229 66.400 C 228.993 66.400,228.800 66.207,228.800 65.971 C 228.800 65.736,228.543 65.286,228.229 64.971 C 227.914 64.657,227.464 64.400,227.229 64.400 C 226.993 64.400,226.800 63.950,226.800 63.400 C 226.800 62.850,226.620 62.400,226.400 62.400 C 226.180 62.400,226.000 62.130,226.000 61.800 C 226.000 61.470,225.807 61.200,225.571 61.200 C 225.018 61.200,224.000 60.182,224.000 59.629 C 224.000 59.393,223.820 59.200,223.600 59.200 C 223.380 59.200,223.200 58.840,223.200 58.400 C 223.200 57.956,222.933 57.600,222.600 57.600 C 222.270 57.600,222.000 57.407,222.000 57.171 C 222.000 56.936,221.743 56.486,221.429 56.171 C 221.114 55.857,220.664 55.600,220.429 55.600 C 220.193 55.600,220.000 55.150,220.000 54.600 C 220.000 54.050,219.820 53.600,219.600 53.600 C 219.380 53.600,219.200 53.330,219.200 53.000 C 219.200 52.670,219.007 52.400,218.771 52.400 C 218.218 52.400,217.200 51.382,217.200 50.829 C 217.200 50.593,217.007 50.400,216.771 50.400 C 216.305 50.400,215.200 49.415,215.200 49.000 C 215.200 48.585,214.095 47.600,213.629 47.600 C 213.393 47.600,213.200 47.227,213.200 46.771 C 213.200 45.886,212.334 44.800,211.629 44.800 C 211.393 44.800,211.200 44.607,211.200 44.371 C 211.200 43.818,210.182 42.800,209.629 42.800 C 209.393 42.800,209.200 42.607,209.200 42.371 C 209.200 41.818,208.182 40.800,207.629 40.800 C 207.393 40.800,207.200 40.350,207.200 39.800 C 207.200 39.250,207.020 38.800,206.800 38.800 C 206.580 38.800,206.400 38.530,206.400 38.200 C 206.400 37.870,206.212 37.600,205.982 37.600 C 205.439 37.600,203.600 35.761,203.600 35.218 C 203.600 34.988,203.407 34.800,203.171 34.800 C 202.618 34.800,201.600 33.782,201.600 33.229 C 201.600 32.993,201.407 32.800,201.171 32.800 C 200.618 32.800,199.600 31.782,199.600 31.229 C 199.600 30.993,199.373 30.800,199.095 30.800 C 198.817 30.800,198.252 30.350,197.839 29.800 C 197.426 29.250,196.793 28.800,196.432 28.800 C 196.072 28.800,195.517 28.440,195.200 28.000 C 194.883 27.560,194.393 27.200,194.112 27.200 C 193.830 27.200,193.600 27.007,193.600 26.771 C 193.600 26.218,192.582 25.200,192.029 25.200 C 191.793 25.200,191.600 25.007,191.600 24.771 C 191.600 24.218,190.582 23.200,190.029 23.200 C 189.793 23.200,189.600 23.007,189.600 22.771 C 189.600 22.218,188.582 21.200,188.029 21.200 C 187.793 21.200,187.600 20.930,187.600 20.600 C 187.600 20.260,187.241 20.000,186.771 20.000 C 185.987 20.000,184.800 19.157,184.800 18.600 C 184.800 18.266,183.734 17.200,183.400 17.200 C 182.985 17.200,182.000 16.095,182.000 15.629 C 182.000 15.393,181.550 15.200,181.000 15.200 C 180.450 15.200,180.000 15.020,180.000 14.800 C 180.000 14.580,179.730 14.400,179.400 14.400 C 179.070 14.400,178.800 14.207,178.800 13.971 C 178.800 13.266,177.714 12.400,176.829 12.400 C 176.373 12.400,176.000 12.207,176.000 11.971 C 176.000 11.418,174.982 10.400,174.429 10.400 C 174.193 10.400,174.000 10.130,174.000 9.800 C 174.000 9.442,173.632 9.200,173.088 9.200 C 172.587 9.200,171.917 8.840,171.600 8.400 C 171.283 7.960,170.793 7.600,170.512 7.600 C 170.230 7.600,170.000 7.330,170.000 7.000 C 170.000 6.660,169.641 6.400,169.171 6.400 C 168.286 6.400,167.200 5.534,167.200 4.829 C 167.200 4.593,166.930 4.400,166.600 4.400 C 166.270 4.400,166.000 4.220,166.000 4.000 C 166.000 3.780,165.209 3.600,164.243 3.600 C 163.050 3.600,162.412 3.407,162.255 3.000 C 162.111 2.623,161.499 2.400,160.613 2.400 C 159.836 2.400,159.200 2.220,159.200 2.000 C 159.200 1.771,158.000 1.600,156.400 1.600 C 154.800 1.600,153.600 1.771,153.600 2.000 M160.056 9.790 L 161.600 10.811 161.600 149.806 L 161.600 288.800 160.574 288.800 C 158.548 288.800,158.000 288.165,158.000 285.819 C 158.000 282.940,157.848 282.647,155.459 280.918 C 153.623 279.590,149.725 276.527,149.200 275.999 C 149.090 275.888,147.177 274.232,144.949 272.319 C 142.721 270.406,140.651 268.606,140.349 268.320 C 140.047 268.034,138.189 266.360,136.221 264.600 C 134.252 262.840,131.988 260.770,131.189 260.000 C 124.863 253.902,122.581 252.000,121.589 252.000 C 121.348 252.000,116.296 247.140,110.363 241.200 C 104.430 235.260,99.355 230.400,99.084 230.400 C 98.093 230.400,84.400 216.253,84.400 215.229 C 84.400 214.700,84.278 214.389,84.128 214.539 C 83.979 214.688,82.044 213.053,79.828 210.904 C 74.710 205.941,64.612 196.475,61.370 193.600 C 60.501 192.830,58.352 190.926,56.595 189.369 C 54.838 187.811,51.960 185.300,50.200 183.789 C 48.440 182.277,46.870 180.830,46.710 180.573 C 46.551 180.317,46.011 180.183,45.510 180.276 C 44.813 180.405,44.041 179.877,42.213 178.022 C 40.899 176.690,39.618 175.600,39.364 175.600 C 39.111 175.600,37.734 174.430,36.304 173.000 C 34.874 171.570,33.446 170.400,33.131 170.400 C 32.816 170.400,31.787 169.590,30.843 168.600 C 29.900 167.610,28.892 166.800,28.603 166.800 C 28.315 166.800,27.206 165.903,26.139 164.806 C 25.073 163.710,23.922 162.810,23.583 162.806 C 23.243 162.803,22.116 161.900,21.078 160.800 C 20.040 159.700,18.963 158.800,18.685 158.800 C 18.407 158.800,16.839 157.450,15.200 155.800 C 13.561 154.150,11.983 152.800,11.693 152.800 C 8.949 152.800,5.447 145.621,7.400 144.000 C 7.730 143.726,8.000 143.306,8.000 143.066 C 8.000 142.477,11.248 139.200,11.832 139.200 C 12.089 139.200,13.806 137.673,15.649 135.807 C 17.492 133.941,19.270 132.410,19.600 132.406 C 19.930 132.401,22.157 130.418,24.549 127.999 C 26.942 125.579,29.104 123.600,29.355 123.600 C 29.607 123.600,32.057 121.350,34.800 118.600 C 37.543 115.850,40.042 113.600,40.353 113.600 C 40.664 113.600,41.984 112.524,43.286 111.209 C 44.589 109.894,45.793 108.859,45.962 108.909 C 46.238 108.991,49.183 106.427,56.194 100.000 C 57.514 98.790,58.962 97.440,59.413 97.000 C 59.863 96.560,62.744 93.863,65.815 91.007 C 71.864 85.382,75.678 81.800,80.472 77.240 C 82.162 75.633,83.737 74.437,83.972 74.583 C 84.229 74.741,84.400 74.478,84.400 73.927 C 84.400 72.932,102.127 54.800,103.101 54.800 C 103.379 54.800,107.996 50.406,113.360 45.036 C 118.724 39.666,123.267 35.424,123.456 35.609 C 123.777 35.924,124.779 35.093,130.400 29.850 C 134.453 26.069,141.754 19.823,146.800 15.820 C 149.550 13.638,152.670 11.055,153.733 10.080 C 155.971 8.026,157.299 7.965,160.056 9.790 M163.879 11.400 C 164.627 12.170,165.465 12.800,165.741 12.800 C 166.017 12.800,166.854 13.430,167.600 14.200 C 168.346 14.970,169.192 15.600,169.478 15.600 C 169.765 15.600,170.720 16.320,171.600 17.200 C 172.480 18.080,173.435 18.800,173.722 18.800 C 174.008 18.800,174.854 19.430,175.600 20.200 C 176.346 20.970,177.193 21.600,177.481 21.600 C 177.769 21.600,179.069 22.680,180.368 24.000 C 181.668 25.320,182.975 26.400,183.272 26.400 C 183.570 26.400,185.788 28.380,188.200 30.800 C 190.612 33.220,192.792 35.200,193.043 35.200 C 193.294 35.200,195.142 36.846,197.149 38.858 L 200.800 42.515 200.800 184.458 C 200.800 278.819,200.666 326.400,200.400 326.400 C 200.180 326.400,200.000 326.220,200.000 326.000 C 200.000 325.780,199.685 325.600,199.300 325.600 C 198.915 325.600,196.176 323.170,193.214 320.200 C 190.252 317.230,187.639 314.800,187.407 314.800 C 187.176 314.800,185.012 312.820,182.600 310.400 C 180.188 307.980,177.975 306.000,177.682 306.000 C 177.390 306.000,175.970 304.830,174.526 303.400 C 173.081 301.970,171.700 300.800,171.456 300.800 C 171.212 300.800,168.985 298.778,166.506 296.307 L 162.000 291.813 162.000 150.907 C 162.000 73.408,162.117 10.000,162.260 10.000 C 162.402 10.000,163.131 10.630,163.879 11.400 M204.710 47.700 C 209.538 52.782,211.625 55.123,214.424 58.596 C 215.841 60.354,217.225 62.032,217.500 62.325 C 217.775 62.617,218.000 62.990,218.000 63.153 C 218.000 63.316,218.317 63.798,218.704 64.225 C 219.091 64.651,220.031 65.810,220.794 66.800 C 225.512 72.921,238.632 87.396,239.471 87.405 C 240.169 87.413,247.981 95.299,247.991 96.006 C 247.996 96.339,251.780 100.382,256.400 104.990 C 261.020 109.599,264.800 113.559,264.800 113.791 C 264.800 114.023,266.960 116.367,269.600 119.000 C 272.240 121.633,274.400 124.039,274.400 124.347 C 274.400 124.655,275.300 125.793,276.400 126.876 C 277.919 128.371,278.400 129.133,278.400 130.046 C 278.400 130.707,278.562 131.147,278.760 131.025 C 278.958 130.903,279.813 131.634,280.660 132.651 C 281.507 133.667,282.617 134.971,283.126 135.549 C 283.922 136.453,286.300 139.377,291.750 146.155 C 293.236 148.004,306.392 164.335,308.400 166.825 C 310.047 168.866,312.107 171.316,312.416 171.600 C 312.536 171.710,313.508 172.880,314.576 174.200 C 315.643 175.520,316.666 176.557,316.847 176.504 C 317.274 176.379,320.400 179.625,320.400 180.192 C 320.400 180.429,321.570 181.783,323.000 183.200 C 324.430 184.617,325.600 186.038,325.600 186.357 C 325.600 186.675,326.680 187.983,328.000 189.263 C 329.320 190.543,330.400 191.823,330.400 192.107 C 330.400 192.392,331.480 193.694,332.800 195.000 C 334.120 196.306,335.200 197.631,335.200 197.944 C 335.200 198.257,336.100 199.362,337.200 200.400 C 338.300 201.438,339.200 202.545,339.200 202.859 C 339.200 203.173,340.100 204.317,341.200 205.400 C 342.300 206.483,343.200 207.599,343.200 207.880 C 343.200 208.161,344.100 209.240,345.200 210.278 C 346.300 211.316,347.200 212.453,347.200 212.804 C 347.200 213.156,347.830 214.054,348.600 214.800 C 349.370 215.546,350.000 216.397,350.000 216.691 C 350.000 216.984,350.630 217.778,351.400 218.454 C 352.170 219.130,352.800 220.003,352.800 220.395 C 352.800 220.787,353.520 221.757,354.400 222.552 C 355.713 223.739,356.000 224.261,356.000 225.466 C 356.000 226.273,356.113 226.820,356.251 226.682 C 356.389 226.544,357.438 227.819,358.581 229.515 C 359.724 231.212,362.041 234.644,363.730 237.143 C 365.418 239.641,366.800 241.846,366.800 242.043 C 366.800 242.239,366.980 242.400,367.200 242.400 C 367.420 242.400,367.600 242.575,367.600 242.789 C 367.600 243.004,368.792 245.107,370.248 247.463 C 371.705 249.819,373.212 252.299,373.599 252.974 C 378.938 262.300,379.714 263.697,384.282 272.200 C 386.218 275.804,391.591 286.663,392.495 288.800 C 393.830 291.954,394.000 292.481,394.000 293.460 C 394.000 294.364,391.558 299.659,389.324 303.600 C 388.888 304.370,387.931 306.080,387.199 307.400 C 386.466 308.720,385.086 311.120,384.133 312.733 C 383.180 314.346,382.400 315.728,382.400 315.803 C 382.400 315.878,381.050 318.115,379.400 320.774 C 377.750 323.433,376.400 325.786,376.400 326.004 C 376.400 326.222,376.220 326.400,376.000 326.400 C 375.780 326.400,375.600 326.582,375.600 326.805 C 375.600 327.240,369.279 337.394,367.735 339.438 C 367.221 340.119,366.800 340.771,366.800 340.887 C 366.800 341.488,356.911 355.693,356.325 355.933 C 356.146 356.007,356.000 356.560,356.000 357.164 C 356.000 357.816,355.595 358.641,355.000 359.200 C 354.450 359.717,354.000 360.387,354.000 360.689 C 354.000 360.991,353.550 361.655,353.000 362.165 C 352.450 362.675,352.000 363.351,352.000 363.667 C 352.000 363.984,351.370 364.854,350.600 365.600 C 349.830 366.346,349.200 367.168,349.200 367.427 C 349.200 367.685,348.480 368.595,347.600 369.448 C 346.721 370.302,346.001 371.280,346.000 371.622 C 346.000 371.963,345.370 372.854,344.600 373.600 C 343.830 374.346,343.200 375.192,343.200 375.480 C 343.200 375.767,342.480 376.653,341.600 377.448 C 340.720 378.243,340.000 379.173,340.000 379.515 C 340.000 379.857,339.190 380.913,338.200 381.862 C 337.210 382.810,336.400 383.823,336.400 384.112 C 336.400 384.401,335.680 385.341,334.800 386.200 C 333.920 387.059,333.200 388.027,333.200 388.350 C 333.200 388.673,332.390 389.713,331.400 390.662 C 330.410 391.610,329.600 392.621,329.600 392.908 C 329.600 393.195,328.700 394.317,327.600 395.400 C 326.500 396.483,325.600 397.603,325.600 397.887 C 325.600 398.171,324.700 399.285,323.600 400.362 C 322.500 401.439,321.600 402.592,321.600 402.923 C 321.600 403.254,320.361 404.672,318.846 406.074 C 317.332 407.477,314.162 410.868,311.803 413.612 C 306.549 419.720,301.421 425.119,299.753 426.298 L 298.506 427.179 296.673 425.965 C 295.665 425.297,291.125 421.117,286.586 416.675 C 282.046 412.234,278.275 408.657,278.206 408.726 C 277.967 408.968,265.600 396.362,265.600 395.876 C 265.600 395.607,263.620 393.412,261.200 391.000 C 258.780 388.588,256.800 386.382,256.800 386.098 C 256.800 385.815,255.540 384.343,254.000 382.827 C 252.460 381.312,251.200 379.825,251.200 379.524 C 251.200 379.223,250.030 377.817,248.600 376.400 C 247.170 374.983,246.000 373.588,246.000 373.301 C 246.000 373.013,244.740 371.580,243.200 370.116 C 241.660 368.652,240.400 367.122,240.400 366.715 C 240.400 366.308,240.130 365.871,239.800 365.745 C 239.470 365.618,239.200 365.084,239.200 364.557 C 239.200 363.998,238.964 363.600,238.633 363.600 C 238.322 363.600,238.007 363.439,237.933 363.242 C 237.383 361.765,225.013 349.159,210.810 335.600 C 206.316 331.310,202.315 327.485,201.919 327.100 C 201.235 326.434,200.704 44.400,201.387 44.400 C 201.490 44.400,202.985 45.885,204.710 47.700 " stroke="none" fill="#f90404" fill-rule="evenodd"></path><path id="path2" d="M153.733 10.080 C 152.670 11.055,149.550 13.638,146.800 15.820 C 142.084 19.561,133.851 26.569,131.561 28.792 C 130.989 29.346,128.964 31.214,127.061 32.942 L 123.600 36.083 123.600 144.465 L 123.600 252.846 126.675 255.723 C 128.366 257.305,130.400 259.230,131.196 260.000 C 131.991 260.770,134.252 262.840,136.221 264.600 C 138.189 266.360,140.047 268.034,140.349 268.320 C 140.651 268.606,142.721 270.406,144.949 272.319 C 147.177 274.232,149.090 275.888,149.200 275.999 C 149.725 276.527,153.623 279.590,155.459 280.918 C 157.848 282.647,158.000 282.940,158.000 285.819 C 158.000 288.165,158.548 288.800,160.574 288.800 L 161.600 288.800 161.600 149.806 L 161.600 10.811 160.056 9.790 C 157.299 7.965,155.971 8.026,153.733 10.080 M201.200 185.400 C 201.200 320.602,201.230 326.429,201.919 327.100 C 202.315 327.485,206.316 331.310,210.810 335.600 C 225.013 349.159,237.383 361.765,237.933 363.242 C 238.007 363.439,238.322 363.600,238.633 363.600 C 239.121 363.600,239.200 344.394,239.200 225.611 L 239.200 87.622 236.100 84.284 C 229.251 76.908,223.686 70.552,220.794 66.800 C 220.031 65.810,219.091 64.651,218.704 64.225 C 218.317 63.798,218.000 63.316,218.000 63.153 C 218.000 62.990,217.775 62.617,217.500 62.325 C 217.225 62.032,215.841 60.354,214.424 58.596 C 213.008 56.838,210.948 54.410,209.847 53.200 C 206.395 49.406,201.582 44.400,201.387 44.400 C 201.284 44.400,201.200 107.850,201.200 185.400 M80.400 77.291 C 76.477 81.052,72.651 84.650,65.815 91.007 C 62.744 93.863,59.863 96.560,59.413 97.000 C 58.522 97.870,55.930 100.251,49.894 105.742 L 46.000 109.284 46.013 144.542 C 46.022 171.639,46.138 179.942,46.513 180.414 C 46.781 180.752,48.440 182.267,50.200 183.783 C 51.960 185.298,54.838 187.811,56.595 189.369 C 58.352 190.926,60.501 192.830,61.370 193.600 C 64.638 196.498,74.723 205.954,79.888 210.963 C 82.679 213.670,84.044 214.749,84.191 214.364 C 84.606 213.274,84.218 74.672,83.800 74.541 C 83.580 74.471,82.050 75.709,80.400 77.291 M278.692 131.041 C 278.531 131.202,278.395 193.718,278.388 269.967 L 278.377 408.600 286.608 416.675 C 291.136 421.117,295.665 425.297,296.673 425.965 L 298.506 427.179 299.753 426.298 C 301.467 425.086,306.608 419.657,312.156 413.200 L 316.795 407.800 316.794 292.400 L 316.792 177.000 315.367 175.200 C 314.583 174.210,313.550 172.946,313.071 172.391 C 311.167 170.186,309.736 168.481,308.400 166.825 C 306.965 165.046,293.998 148.950,291.748 146.155 C 291.060 145.300,289.260 143.054,287.748 141.164 C 285.094 137.845,282.718 135.003,280.192 132.125 C 279.528 131.368,278.853 130.880,278.692 131.041 M356.251 226.682 C 355.891 227.042,355.940 356.001,356.300 355.995 C 356.465 355.993,357.320 354.967,358.200 353.715 C 361.174 349.486,366.800 341.091,366.800 340.883 C 366.800 340.769,367.221 340.119,367.735 339.438 C 369.279 337.394,375.600 327.240,375.600 326.805 C 375.600 326.582,375.780 326.400,376.000 326.400 C 376.220 326.400,376.400 326.222,376.400 326.004 C 376.400 325.786,377.750 323.433,379.400 320.774 C 381.050 318.115,382.400 315.878,382.400 315.803 C 382.400 315.728,383.180 314.346,384.133 312.733 C 385.086 311.120,386.466 308.720,387.199 307.400 C 387.931 306.080,388.888 304.370,389.324 303.600 C 391.558 299.659,394.000 294.364,394.000 293.460 C 394.000 291.991,393.082 289.797,388.952 281.400 C 384.590 272.530,381.180 266.217,373.599 252.974 C 373.212 252.299,371.705 249.819,370.248 247.463 C 368.792 245.107,367.600 243.004,367.600 242.789 C 367.600 242.575,367.420 242.400,367.200 242.400 C 366.980 242.400,366.800 242.239,366.800 242.043 C 366.800 241.846,365.418 239.641,363.730 237.143 C 362.041 234.644,359.724 231.212,358.581 229.515 C 357.438 227.819,356.389 226.544,356.251 226.682 " stroke="none" fill="#040404" fill-rule="evenodd"></path></g></svg>