<svg id="svg" version="1.1" xmlns="http://www.w3.org/2000/svg" xmlns:xlink="http://www.w3.org/1999/xlink" width="400" height="850.9803921568628" viewBox="0, 0, 400,850.9803921568628"><g id="svgg"><path id="path0" d="M339.649 22.111 C 339.402 22.358,339.200 23.033,339.200 23.610 C 339.200 24.213,338.774 25.061,338.200 25.600 C 337.530 26.229,337.200 26.970,337.200 27.843 C 337.200 28.795,336.984 29.215,336.400 29.400 C 335.816 29.585,335.600 30.005,335.600 30.957 C 335.600 31.830,335.270 32.571,334.600 33.200 C 333.779 33.971,333.600 34.517,333.600 36.241 C 333.600 38.006,333.440 38.468,332.600 39.129 C 331.920 39.664,331.600 40.309,331.600 41.148 C 331.600 42.022,331.309 42.572,330.600 43.037 C 329.862 43.521,329.600 44.044,329.600 45.037 C 329.600 46.030,329.338 46.553,328.600 47.037 C 327.738 47.602,327.600 47.990,327.600 49.849 C 327.600 51.651,327.436 52.148,326.600 52.875 C 325.776 53.592,325.600 54.106,325.600 55.802 C 325.600 57.481,325.415 58.034,324.600 58.800 C 323.918 59.440,323.600 60.167,323.600 61.082 C 323.600 61.996,323.376 62.508,322.900 62.683 C 321.836 63.076,321.613 63.618,321.606 65.828 C 321.601 67.488,321.419 68.013,320.600 68.725 C 319.951 69.289,319.600 70.014,319.600 70.788 C 319.600 71.620,319.297 72.180,318.600 72.637 C 317.722 73.212,317.600 73.577,317.600 75.632 C 317.600 77.562,317.460 78.047,316.800 78.400 C 316.140 78.753,316.000 79.238,316.000 81.168 C 316.000 83.223,315.878 83.588,315.000 84.163 C 314.303 84.620,314.000 85.180,314.000 86.012 C 314.000 86.786,313.649 87.511,313.000 88.075 C 312.171 88.796,312.000 89.303,312.000 91.043 C 312.000 92.805,311.840 93.268,311.000 93.929 C 310.149 94.598,310.000 95.044,310.000 96.929 C 310.000 98.813,309.851 99.259,309.000 99.929 C 308.147 100.600,308.000 101.043,308.000 102.948 C 308.000 104.889,307.869 105.267,307.000 105.837 C 306.262 106.321,306.000 106.844,306.000 107.837 C 306.000 108.830,305.738 109.353,305.000 109.837 C 304.310 110.289,304.000 110.855,304.000 111.665 C 304.000 112.403,303.629 113.182,303.000 113.765 C 302.166 114.538,302.000 115.058,302.000 116.900 C 302.000 118.814,301.867 119.195,301.000 119.763 C 300.291 120.228,300.000 120.778,300.000 121.652 C 300.000 122.491,299.680 123.136,299.000 123.671 C 298.341 124.190,298.000 124.857,298.000 125.626 C 298.000 126.360,297.703 126.979,297.200 127.293 C 296.681 127.617,296.400 128.226,296.400 129.026 C 296.400 129.826,296.048 130.592,295.400 131.200 L 294.400 132.139 294.400 406.003 C 294.400 556.628,294.508 679.974,294.639 680.106 C 295.226 680.693,296.000 679.817,296.000 678.566 C 296.000 677.570,296.261 677.048,297.000 676.563 C 297.878 675.988,298.000 675.623,298.000 673.563 C 298.000 671.504,298.122 671.139,299.000 670.563 C 299.864 669.997,300.000 669.611,300.000 667.735 C 300.000 665.931,300.170 665.404,301.000 664.635 C 301.580 664.097,302.000 663.265,302.000 662.651 C 302.000 662.023,302.405 661.242,303.000 660.725 C 303.837 659.997,304.000 659.502,304.000 657.685 C 304.000 655.847,304.153 655.395,305.000 654.729 C 305.634 654.230,306.000 653.539,306.000 652.841 C 306.000 652.183,306.403 651.361,307.000 650.800 C 307.823 650.027,308.000 649.485,308.000 647.739 C 308.000 645.918,308.141 645.526,309.000 644.963 C 309.878 644.388,310.000 644.023,310.000 641.968 C 310.000 640.038,310.140 639.553,310.800 639.200 C 311.356 638.903,311.600 638.362,311.600 637.432 C 311.600 636.444,311.863 635.920,312.600 635.437 C 313.465 634.870,313.600 634.486,313.600 632.588 C 313.600 630.747,313.761 630.255,314.600 629.525 C 315.226 628.981,315.600 628.233,315.600 627.525 C 315.600 626.818,315.974 626.069,316.600 625.525 C 317.424 624.808,317.600 624.294,317.600 622.598 C 317.600 620.919,317.785 620.366,318.600 619.600 C 319.423 618.827,319.600 618.285,319.600 616.539 C 319.600 614.718,319.741 614.326,320.600 613.763 C 321.338 613.279,321.600 612.756,321.600 611.763 C 321.600 610.770,321.862 610.247,322.600 609.763 C 323.478 609.188,323.600 608.823,323.600 606.763 C 323.600 604.704,323.722 604.339,324.600 603.763 C 325.475 603.190,325.600 602.820,325.600 600.800 C 325.600 598.780,325.725 598.410,326.600 597.837 C 327.273 597.396,327.600 596.815,327.600 596.061 C 327.600 595.382,327.995 594.569,328.600 594.000 C 329.424 593.226,329.600 592.685,329.600 590.934 C 329.600 589.240,329.763 588.705,330.400 588.307 C 331.048 587.903,331.200 587.374,331.200 585.533 C 331.200 583.583,331.343 583.146,332.200 582.471 C 333.053 581.800,333.200 581.357,333.200 579.452 C 333.200 577.511,333.331 577.133,334.200 576.563 C 335.064 575.997,335.200 575.611,335.200 573.735 C 335.200 571.931,335.370 571.404,336.200 570.635 C 337.099 569.802,337.200 569.398,337.200 566.651 C 337.200 563.889,337.296 563.511,338.200 562.725 C 339.107 561.937,339.200 561.565,339.200 558.737 C 339.200 555.852,339.275 555.569,340.200 554.963 L 341.200 554.308 341.200 288.197 C 341.200 8.869,341.268 20.492,339.649 22.111 M246.500 229.016 C 245.722 229.831,245.200 230.791,245.200 231.408 C 245.200 231.993,244.768 232.839,244.200 233.365 C 243.559 233.959,243.200 234.725,243.200 235.500 C 243.200 236.347,242.901 236.904,242.200 237.363 C 241.462 237.847,241.200 238.370,241.200 239.363 C 241.200 240.356,240.938 240.879,240.200 241.363 C 239.527 241.804,239.200 242.385,239.200 243.139 C 239.200 243.818,238.805 244.631,238.200 245.200 C 237.592 245.771,237.200 246.582,237.200 247.266 C 237.200 247.960,236.892 248.585,236.400 248.893 C 235.872 249.223,235.600 249.826,235.600 250.667 C 235.600 251.550,235.293 252.183,234.600 252.729 C 233.926 253.259,233.600 253.911,233.600 254.729 C 233.600 255.546,233.274 256.198,232.600 256.729 C 231.958 257.234,231.600 257.917,231.600 258.637 C 231.600 259.467,231.078 260.249,229.600 261.637 C 228.038 263.103,227.600 263.785,227.600 264.748 C 227.600 265.622,227.309 266.172,226.600 266.637 C 225.910 267.089,225.600 267.655,225.600 268.465 C 225.600 269.203,225.229 269.982,224.600 270.565 C 223.959 271.159,223.600 271.925,223.600 272.700 C 223.600 273.547,223.301 274.104,222.600 274.563 C 221.891 275.028,221.600 275.578,221.600 276.452 C 221.600 277.415,221.162 278.097,219.600 279.563 C 218.161 280.914,217.600 281.743,217.600 282.517 C 217.600 283.274,217.067 284.094,215.800 285.286 C 214.561 286.453,214.000 287.305,214.000 288.022 C 214.000 288.757,213.349 289.705,211.798 291.232 C 210.586 292.425,209.236 293.766,208.798 294.214 C 208.359 294.662,208.000 295.488,208.000 296.050 C 208.000 296.767,207.404 297.612,206.000 298.886 C 204.464 300.279,204.000 300.973,204.000 301.878 C 204.000 302.636,203.643 303.366,203.000 303.925 L 202.000 304.795 202.000 563.663 L 202.000 822.532 204.000 824.400 C 205.444 825.749,206.000 826.568,206.000 827.347 C 206.000 828.174,206.806 829.218,209.448 831.813 L 212.896 835.200 215.770 835.200 C 219.233 835.200,221.600 833.599,221.600 831.255 C 221.600 830.377,221.890 829.828,222.600 829.363 C 223.321 828.891,223.600 828.352,223.600 827.430 C 223.600 826.407,224.000 825.784,225.600 824.315 C 227.143 822.899,227.600 822.206,227.600 821.285 C 227.600 820.454,227.903 819.893,228.600 819.437 C 229.346 818.948,229.600 818.432,229.600 817.405 C 229.600 816.438,229.838 815.901,230.400 815.600 C 230.956 815.303,231.200 814.762,231.200 813.832 C 231.200 812.844,231.463 812.320,232.200 811.837 C 232.902 811.377,233.200 810.821,233.200 809.972 C 233.200 809.195,233.558 808.430,234.200 807.835 C 234.780 807.297,235.200 806.465,235.200 805.851 C 235.200 805.223,235.605 804.442,236.200 803.925 C 236.826 803.381,237.200 802.633,237.200 801.925 C 237.200 801.218,237.574 800.469,238.200 799.925 C 238.813 799.392,239.200 798.630,239.200 797.957 C 239.200 797.261,239.567 796.569,240.200 796.071 C 240.880 795.536,241.200 794.891,241.200 794.052 C 241.200 793.178,241.491 792.628,242.200 792.163 C 242.922 791.690,243.200 791.152,243.200 790.226 C 243.200 789.357,243.522 788.664,244.200 788.075 C 244.849 787.511,245.200 786.786,245.200 786.012 C 245.200 785.180,245.503 784.620,246.200 784.163 C 246.929 783.685,247.200 783.154,247.200 782.200 C 247.200 781.246,247.471 780.715,248.200 780.237 L 249.200 779.582 249.200 504.223 C 249.200 352.777,249.091 228.581,248.957 228.233 C 248.597 227.293,247.949 227.499,246.500 229.016 M152.300 372.073 C 151.669 372.749,151.200 373.705,151.200 374.319 C 151.200 375.126,150.467 376.090,148.200 378.263 C 145.912 380.456,145.200 381.397,145.200 382.223 C 145.200 382.994,144.623 383.874,143.200 385.276 C 141.823 386.631,141.200 387.566,141.200 388.279 C 141.200 389.038,140.453 390.031,138.400 392.000 C 136.255 394.057,135.600 394.945,135.600 395.792 C 135.600 396.644,134.908 397.571,132.600 399.813 C 130.367 401.982,129.600 402.995,129.600 403.778 C 129.600 404.559,128.829 405.583,126.600 407.762 C 124.336 409.975,123.600 410.958,123.600 411.771 C 123.600 412.586,122.869 413.558,120.600 415.762 C 118.386 417.912,117.600 418.947,117.600 419.714 C 117.600 420.472,116.847 421.485,114.803 423.476 C 112.798 425.429,112.005 426.487,112.003 427.214 C 112.001 427.895,111.346 428.880,110.009 430.214 L 108.017 432.200 108.009 555.838 L 108.000 679.476 111.999 683.438 C 115.431 686.838,115.999 687.585,115.999 688.700 C 116.000 689.415,116.148 690.000,116.328 690.000 C 117.173 690.000,121.600 694.963,121.600 695.910 C 121.600 696.577,122.261 697.558,123.600 698.876 C 124.989 700.243,125.600 701.164,125.600 701.891 C 125.600 702.665,126.383 703.708,128.600 705.890 C 130.835 708.088,131.600 709.112,131.600 709.900 C 131.600 710.654,132.176 711.500,133.600 712.837 C 135.062 714.210,135.600 715.011,135.600 715.817 C 135.600 716.606,136.113 717.405,137.400 718.620 C 138.671 719.821,139.200 720.639,139.200 721.403 C 139.200 722.185,139.755 723.007,141.200 724.363 C 142.663 725.737,143.200 726.537,143.200 727.344 C 143.200 728.192,143.895 729.124,146.200 731.362 C 148.442 733.539,149.200 734.543,149.200 735.333 C 149.200 736.083,149.781 736.938,151.200 738.278 C 152.813 739.800,153.200 740.420,153.200 741.483 C 153.200 742.533,153.362 742.800,154.000 742.800 C 154.799 742.800,154.800 742.533,154.800 556.800 C 154.800 379.906,154.766 370.802,154.100 370.847 C 153.715 370.874,152.905 371.425,152.300 372.073 M61.270 494.490 C 61.012 494.748,60.800 495.473,60.800 496.101 C 60.800 496.992,60.188 497.825,58.000 499.912 C 55.933 501.883,55.200 502.855,55.200 503.624 C 55.200 504.618,50.417 510.000,49.533 510.000 C 49.350 510.000,49.200 510.600,49.200 511.332 C 49.200 512.426,48.806 513.041,47.000 514.764 C 45.790 515.919,44.800 517.009,44.800 517.185 C 44.800 517.362,44.440 517.601,44.000 517.716 C 43.403 517.872,43.198 518.264,43.194 519.263 C 43.189 520.395,42.729 521.050,40.194 523.538 C 38.004 525.687,37.200 526.753,37.200 527.507 C 37.200 528.254,36.431 529.291,34.400 531.282 C 32.320 533.321,31.600 534.301,31.600 535.093 C 31.600 535.855,31.030 536.694,29.600 538.037 C 28.121 539.425,27.600 540.207,27.600 541.037 C 27.600 541.867,27.079 542.649,25.600 544.037 C 24.138 545.410,23.600 546.211,23.600 547.018 C 23.600 547.869,22.915 548.775,20.600 550.987 C 18.109 553.367,17.600 554.068,17.600 555.113 C 17.600 555.962,17.340 556.511,16.800 556.800 C 16.075 557.188,16.000 557.638,16.000 561.590 L 16.000 565.952 18.797 568.676 C 20.813 570.640,21.595 571.685,21.597 572.422 C 21.600 573.471,23.924 576.400,24.754 576.400 C 24.999 576.400,25.200 576.579,25.200 576.797 C 25.200 577.015,25.740 577.675,26.400 578.263 C 27.163 578.943,27.600 579.719,27.600 580.394 C 27.600 580.978,28.005 581.836,28.500 582.300 C 28.995 582.765,29.616 583.382,29.880 583.672 C 30.144 583.963,31.538 585.370,32.977 586.800 C 34.816 588.628,35.594 589.700,35.596 590.411 C 35.599 591.161,36.580 592.370,39.400 595.096 C 42.333 597.932,43.200 599.015,43.200 599.838 C 43.200 600.658,44.130 601.834,47.200 604.897 C 50.140 607.832,51.200 609.155,51.200 609.891 C 51.200 610.641,52.403 612.086,55.973 615.622 C 59.901 619.513,60.768 620.584,60.873 621.675 C 60.970 622.691,61.187 623.000,61.800 623.000 C 62.596 623.000,62.600 622.700,62.701 558.950 C 62.807 492.276,62.821 492.939,61.270 494.490 " stroke="none" fill="#fcfcfc" fill-rule="evenodd"></path><path id="path1" d="M342.400 4.185 C 342.400 5.181,342.345 5.200,339.400 5.200 C 336.703 5.200,336.400 5.278,336.400 5.972 C 336.400 6.468,336.078 6.790,335.500 6.872 C 334.930 6.953,334.554 7.321,334.475 7.875 C 334.398 8.421,334.021 8.798,333.475 8.875 C 332.930 8.953,332.553 9.330,332.475 9.875 C 332.398 10.421,332.021 10.798,331.475 10.875 C 330.921 10.954,330.553 11.330,330.472 11.900 C 330.380 12.551,330.076 12.800,329.372 12.800 C 328.609 12.800,328.400 13.009,328.400 13.772 C 328.400 14.476,328.151 14.780,327.500 14.872 C 326.732 14.981,326.582 15.279,326.478 16.900 C 326.377 18.474,326.223 18.800,325.578 18.800 C 324.911 18.800,324.800 19.085,324.800 20.800 C 324.800 22.667,324.733 22.800,323.800 22.800 C 322.884 22.800,322.800 22.949,322.800 24.572 C 322.800 26.105,322.679 26.362,321.900 26.472 C 321.074 26.589,320.990 26.839,320.882 29.500 C 320.770 32.281,320.725 32.400,319.782 32.400 C 318.870 32.400,318.800 32.543,318.800 34.400 C 318.800 36.267,318.733 36.400,317.800 36.400 C 316.867 36.400,316.800 36.533,316.800 38.400 C 316.800 40.267,316.733 40.400,315.800 40.400 C 314.830 40.400,314.800 40.482,314.800 43.172 C 314.800 45.742,314.734 45.954,313.900 46.072 C 313.075 46.189,312.990 46.440,312.883 49.074 C 312.776 51.692,312.687 51.960,311.883 52.074 C 311.137 52.181,310.981 52.491,310.879 54.075 C 310.777 55.656,310.621 55.969,309.879 56.075 C 309.080 56.189,308.989 56.461,308.883 59.074 C 308.776 61.692,308.687 61.960,307.883 62.074 C 307.154 62.178,306.978 62.497,306.877 63.900 C 306.778 65.274,306.605 65.600,305.977 65.600 C 305.277 65.600,305.200 65.896,305.200 68.600 C 305.200 71.533,305.178 71.600,304.200 71.600 C 303.222 71.600,303.200 71.667,303.200 74.600 C 303.200 77.533,303.178 77.600,302.200 77.600 C 301.267 77.600,301.200 77.733,301.200 79.600 C 301.200 81.467,301.133 81.600,300.200 81.600 C 299.230 81.600,299.200 81.682,299.200 84.372 C 299.200 86.942,299.134 87.154,298.300 87.272 C 297.474 87.389,297.390 87.639,297.282 90.300 C 297.170 93.081,297.125 93.200,296.182 93.200 C 295.227 93.200,295.200 93.281,295.200 96.200 C 295.200 99.133,295.178 99.200,294.200 99.200 C 293.269 99.200,293.200 99.335,293.200 101.172 C 293.200 102.913,293.094 103.159,292.300 103.272 C 291.554 103.378,291.379 103.687,291.278 105.075 C 291.178 106.449,290.999 106.773,290.278 106.875 C 289.480 106.989,289.389 107.262,289.283 109.874 C 289.176 112.492,289.087 112.760,288.283 112.874 C 287.535 112.981,287.381 113.290,287.278 114.900 C 287.177 116.474,287.023 116.800,286.378 116.800 C 285.711 116.800,285.600 117.085,285.600 118.800 C 285.600 120.667,285.533 120.800,284.600 120.800 C 283.667 120.800,283.600 120.933,283.600 122.800 C 283.600 124.667,283.533 124.800,282.600 124.800 C 281.604 124.800,281.600 124.813,281.600 128.600 C 281.600 132.387,281.596 132.400,280.600 132.400 C 279.669 132.400,279.600 132.535,279.600 134.372 C 279.600 136.113,279.494 136.359,278.700 136.472 C 277.934 136.581,277.782 136.879,277.679 138.475 C 277.577 140.056,277.421 140.369,276.679 140.475 C 275.936 140.581,275.781 140.893,275.678 142.500 C 275.580 144.033,275.414 144.400,274.821 144.400 C 273.958 144.400,273.600 145.159,273.600 146.986 C 273.600 147.934,273.391 148.361,272.861 148.500 C 272.083 148.703,271.600 150.282,271.600 152.622 C 271.600 153.689,271.426 153.969,270.700 154.072 C 269.934 154.181,269.782 154.479,269.679 156.075 C 269.577 157.656,269.421 157.969,268.679 158.075 C 267.936 158.181,267.781 158.493,267.678 160.100 C 267.577 161.674,267.423 162.000,266.778 162.000 C 266.124 162.000,266.000 162.283,266.000 163.772 C 266.000 165.305,265.879 165.562,265.100 165.672 C 264.334 165.781,264.182 166.079,264.079 167.675 C 263.977 169.256,263.821 169.569,263.079 169.675 C 262.336 169.781,262.181 170.093,262.078 171.700 C 261.968 173.415,261.861 173.600,260.978 173.600 C 260.071 173.600,260.000 173.745,260.000 175.600 C 260.000 177.467,259.933 177.600,259.000 177.600 C 258.067 177.600,258.000 177.733,258.000 179.600 C 258.000 181.467,257.933 181.600,257.000 181.600 C 256.084 181.600,256.000 181.749,256.000 183.372 C 256.000 184.905,255.879 185.162,255.100 185.272 C 254.334 185.381,254.182 185.679,254.079 187.275 C 253.977 188.856,253.821 189.169,253.079 189.275 C 252.338 189.380,252.181 189.693,252.079 191.275 C 251.977 192.856,251.821 193.169,251.079 193.275 C 250.338 193.380,250.181 193.693,250.079 195.275 C 249.977 196.856,249.821 197.169,249.079 197.275 C 248.336 197.381,248.181 197.693,248.078 199.300 C 247.977 200.874,247.823 201.200,247.178 201.200 C 246.524 201.200,246.400 201.483,246.400 202.972 C 246.400 204.505,246.279 204.762,245.500 204.872 C 244.734 204.981,244.582 205.279,244.479 206.875 C 244.377 208.456,244.221 208.769,243.479 208.875 C 242.736 208.981,242.581 209.293,242.478 210.900 C 242.368 212.615,242.261 212.800,241.378 212.800 C 240.567 212.800,240.400 212.997,240.400 213.953 C 240.400 214.765,240.166 215.168,239.611 215.313 C 239.051 215.459,238.746 215.995,238.560 217.160 C 238.338 218.545,238.150 218.800,237.349 218.800 C 236.603 218.800,236.400 219.014,236.400 219.800 C 236.400 220.600,236.200 220.800,235.400 220.800 C 234.600 220.800,234.400 221.000,234.400 221.800 C 234.400 222.600,234.200 222.800,233.400 222.800 C 232.484 222.800,232.400 222.949,232.400 224.572 C 232.400 226.105,232.279 226.362,231.500 226.472 C 230.734 226.581,230.582 226.879,230.479 228.475 C 230.377 230.056,230.221 230.369,229.479 230.475 C 228.738 230.580,228.581 230.893,228.479 232.475 C 228.377 234.056,228.221 234.369,227.479 234.475 C 226.736 234.581,226.581 234.893,226.478 236.500 C 226.377 238.074,226.223 238.400,225.578 238.400 C 224.911 238.400,224.800 238.685,224.800 240.400 C 224.800 242.267,224.733 242.400,223.800 242.400 C 222.884 242.400,222.800 242.549,222.800 244.172 C 222.800 245.705,222.679 245.962,221.900 246.072 C 221.132 246.181,220.982 246.479,220.878 248.100 C 220.768 249.815,220.661 250.000,219.778 250.000 C 218.871 250.000,218.800 250.145,218.800 252.000 C 218.800 253.867,218.733 254.000,217.800 254.000 C 217.000 254.000,216.800 254.200,216.800 255.000 C 216.800 255.800,216.600 256.000,215.800 256.000 C 214.867 256.000,214.800 256.133,214.800 258.000 C 214.800 259.867,214.733 260.000,213.800 260.000 C 212.884 260.000,212.800 260.149,212.800 261.772 C 212.800 263.305,212.679 263.562,211.900 263.672 C 211.134 263.781,210.982 264.079,210.879 265.675 C 210.777 267.256,210.621 267.569,209.879 267.675 C 209.136 267.781,208.981 268.093,208.878 269.700 C 208.768 271.415,208.661 271.600,207.778 271.600 C 207.001 271.600,206.800 271.806,206.800 272.600 C 206.800 273.333,206.587 273.600,206.000 273.600 C 205.307 273.600,205.200 273.867,205.200 275.600 C 205.200 277.467,205.133 277.600,204.200 277.600 C 203.400 277.600,203.200 277.800,203.200 278.600 C 203.200 279.400,203.000 279.600,202.200 279.600 C 201.281 279.600,201.200 279.747,201.200 281.400 C 201.200 283.053,201.119 283.200,200.200 283.200 C 199.400 283.200,199.200 283.400,199.200 284.200 C 199.200 285.000,199.000 285.200,198.200 285.200 C 197.408 285.200,197.200 285.402,197.200 286.172 C 197.200 286.876,196.951 287.180,196.300 287.272 C 195.532 287.381,195.382 287.679,195.278 289.300 C 195.168 291.015,195.061 291.200,194.178 291.200 C 193.409 291.200,193.200 291.408,193.200 292.172 C 193.200 292.876,192.951 293.180,192.300 293.272 C 191.534 293.381,191.382 293.679,191.279 295.275 C 191.177 296.856,191.021 297.169,190.279 297.275 C 189.536 297.381,189.381 297.693,189.278 299.300 C 189.180 300.833,189.014 301.200,188.421 301.200 C 187.579 301.200,187.200 301.956,187.200 303.633 C 187.200 304.533,187.017 304.800,186.400 304.800 C 185.819 304.800,185.600 305.067,185.600 305.772 C 185.600 306.476,185.351 306.780,184.700 306.872 C 183.932 306.981,183.782 307.279,183.678 308.900 C 183.568 310.615,183.461 310.800,182.578 310.800 C 181.801 310.800,181.600 311.006,181.600 311.800 C 181.600 312.600,181.400 312.800,180.600 312.800 C 179.808 312.800,179.600 313.002,179.600 313.772 C 179.600 314.476,179.351 314.780,178.700 314.872 C 177.932 314.981,177.782 315.279,177.678 316.900 C 177.568 318.615,177.461 318.800,176.578 318.800 C 175.801 318.800,175.600 319.006,175.600 319.800 C 175.600 320.600,175.400 320.800,174.600 320.800 C 173.800 320.800,173.600 321.000,173.600 321.800 C 173.600 322.514,173.384 322.800,172.843 322.800 C 171.985 322.800,171.600 323.545,171.600 325.205 C 171.600 326.082,171.393 326.374,170.700 326.472 C 170.156 326.549,169.754 326.921,169.684 327.412 C 169.620 327.859,169.170 328.399,168.684 328.612 C 168.007 328.909,167.771 329.398,167.677 330.700 C 167.578 332.074,167.405 332.400,166.777 332.400 C 166.215 332.400,166.000 332.677,166.000 333.400 C 166.000 334.200,165.800 334.400,165.000 334.400 C 164.200 334.400,164.000 334.600,164.000 335.400 C 164.000 336.200,163.800 336.400,163.000 336.400 C 162.067 336.400,162.000 336.533,162.000 338.400 C 162.000 340.267,161.933 340.400,161.000 340.400 C 160.200 340.400,160.000 340.600,160.000 341.400 C 160.000 342.200,159.800 342.400,159.000 342.400 C 158.081 342.400,158.000 342.547,158.000 344.200 C 158.000 345.853,157.919 346.000,157.000 346.000 C 156.208 346.000,156.000 346.202,156.000 346.972 C 156.000 347.676,155.751 347.980,155.100 348.072 C 154.522 348.154,154.154 348.522,154.072 349.100 C 153.993 349.658,153.667 350.000,153.215 350.000 C 152.355 350.000,152.000 350.762,152.000 352.605 C 152.000 353.689,151.829 353.969,151.100 354.072 C 150.522 354.154,150.154 354.522,150.072 355.100 C 149.980 355.751,149.676 356.000,148.972 356.000 C 148.202 356.000,148.000 356.208,148.000 357.000 C 148.000 357.733,147.787 358.000,147.200 358.000 C 146.613 358.000,146.400 358.267,146.400 359.000 C 146.400 359.800,146.200 360.000,145.400 360.000 C 144.600 360.000,144.400 360.200,144.400 361.000 C 144.400 361.800,144.200 362.000,143.400 362.000 C 142.667 362.000,142.400 362.213,142.400 362.800 C 142.400 363.387,142.133 363.600,141.400 363.600 C 140.608 363.600,140.400 363.802,140.400 364.572 C 140.400 365.276,140.151 365.580,139.500 365.672 C 138.732 365.781,138.582 366.079,138.478 367.700 C 138.368 369.415,138.261 369.600,137.378 369.600 C 136.601 369.600,136.400 369.806,136.400 370.600 C 136.400 371.400,136.200 371.600,135.400 371.600 C 134.600 371.600,134.400 371.800,134.400 372.600 C 134.400 373.400,134.200 373.600,133.400 373.600 C 132.467 373.600,132.400 373.733,132.400 375.600 C 132.400 377.467,132.333 377.600,131.400 377.600 C 130.608 377.600,130.400 377.802,130.400 378.572 C 130.400 379.276,130.151 379.580,129.500 379.672 C 128.754 379.778,128.579 380.087,128.478 381.475 C 128.378 382.849,128.199 383.173,127.478 383.275 C 126.921 383.354,126.553 383.729,126.472 384.300 C 126.390 384.878,126.068 385.200,125.572 385.200 C 125.021 385.200,124.800 385.478,124.800 386.172 C 124.800 386.876,124.551 387.180,123.900 387.272 C 123.132 387.381,122.982 387.679,122.878 389.300 C 122.768 391.015,122.661 391.200,121.778 391.200 C 121.001 391.200,120.800 391.406,120.800 392.200 C 120.800 393.000,120.600 393.200,119.800 393.200 C 119.000 393.200,118.800 393.400,118.800 394.200 C 118.800 395.000,118.600 395.200,117.800 395.200 C 116.867 395.200,116.800 395.333,116.800 397.200 C 116.800 399.067,116.733 399.200,115.800 399.200 C 115.000 399.200,114.800 399.400,114.800 400.200 C 114.800 401.000,114.600 401.200,113.800 401.200 C 113.079 401.200,112.800 401.415,112.800 401.972 C 112.800 402.468,112.478 402.790,111.900 402.872 C 111.134 402.981,110.982 403.279,110.879 404.875 C 110.777 406.456,110.621 406.769,109.879 406.875 C 109.321 406.954,108.953 407.329,108.872 407.900 C 108.780 408.551,108.476 408.800,107.772 408.800 C 107.002 408.800,106.800 409.008,106.800 409.800 C 106.800 410.533,106.587 410.800,106.000 410.800 C 105.307 410.800,105.200 411.067,105.200 412.800 C 105.200 414.667,105.133 414.800,104.200 414.800 C 103.400 414.800,103.200 415.000,103.200 415.800 C 103.200 416.600,103.000 416.800,102.200 416.800 C 101.400 416.800,101.200 417.000,101.200 417.800 C 101.200 418.600,101.000 418.800,100.200 418.800 C 99.281 418.800,99.200 418.947,99.200 420.600 C 99.200 422.253,99.119 422.400,98.200 422.400 C 97.408 422.400,97.200 422.602,97.200 423.372 C 97.200 424.076,96.951 424.380,96.300 424.472 C 95.474 424.589,95.390 424.839,95.282 427.500 C 95.170 430.281,95.125 430.400,94.182 430.400 C 93.409 430.400,93.200 430.606,93.200 431.372 C 93.200 432.076,92.951 432.380,92.300 432.472 C 91.722 432.554,91.354 432.922,91.272 433.500 C 91.193 434.058,90.867 434.400,90.415 434.400 C 89.552 434.400,89.200 435.163,89.200 437.033 C 89.200 438.224,89.072 438.400,88.200 438.400 C 87.400 438.400,87.200 438.600,87.200 439.400 C 87.200 440.133,86.987 440.400,86.400 440.400 C 85.719 440.400,85.600 440.667,85.600 442.200 C 85.600 443.853,85.519 444.000,84.600 444.000 C 83.800 444.000,83.600 444.200,83.600 445.000 C 83.600 445.800,83.400 446.000,82.600 446.000 C 81.800 446.000,81.600 446.200,81.600 447.000 C 81.600 447.800,81.400 448.000,80.600 448.000 C 79.667 448.000,79.600 448.133,79.600 450.000 C 79.600 451.867,79.533 452.000,78.600 452.000 C 77.800 452.000,77.600 452.200,77.600 453.000 C 77.600 453.800,77.400 454.000,76.600 454.000 C 75.800 454.000,75.600 454.200,75.600 455.000 C 75.600 455.800,75.400 456.000,74.600 456.000 C 73.667 456.000,73.600 456.133,73.600 458.000 C 73.600 459.867,73.533 460.000,72.600 460.000 C 71.879 460.000,71.600 460.215,71.600 460.772 C 71.600 461.268,71.278 461.590,70.700 461.672 C 70.156 461.749,69.754 462.121,69.684 462.612 C 69.620 463.059,69.170 463.599,68.684 463.812 C 68.007 464.109,67.771 464.598,67.677 465.900 C 67.578 467.274,67.405 467.600,66.777 467.600 C 66.215 467.600,66.000 467.877,66.000 468.600 C 66.000 469.400,65.800 469.600,65.000 469.600 C 64.200 469.600,64.000 469.800,64.000 470.600 C 64.000 471.400,63.800 471.600,63.000 471.600 C 62.067 471.600,62.000 471.733,62.000 473.600 C 62.000 475.467,61.933 475.600,61.000 475.600 C 60.200 475.600,60.000 475.800,60.000 476.600 C 60.000 477.400,59.800 477.600,59.000 477.600 C 58.200 477.600,58.000 477.800,58.000 478.600 C 58.000 479.348,57.789 479.600,57.163 479.600 C 56.670 479.600,56.241 479.920,56.122 480.378 C 56.010 480.805,55.532 481.210,55.059 481.278 C 54.530 481.353,54.152 481.736,54.075 482.275 C 53.998 482.821,53.621 483.198,53.075 483.275 C 52.530 483.353,52.153 483.730,52.075 484.275 C 51.998 484.821,51.621 485.198,51.075 485.275 C 50.530 485.353,50.153 485.730,50.075 486.275 C 49.998 486.821,49.621 487.198,49.075 487.275 C 48.336 487.381,48.181 487.696,48.078 489.300 C 47.977 490.874,47.823 491.200,47.178 491.200 C 46.615 491.200,46.400 491.476,46.400 492.200 C 46.400 493.000,46.200 493.200,45.400 493.200 C 44.600 493.200,44.400 493.400,44.400 494.200 C 44.400 495.000,44.200 495.200,43.400 495.200 C 42.467 495.200,42.400 495.333,42.400 497.200 C 42.400 499.067,42.333 499.200,41.400 499.200 C 40.667 499.200,40.400 499.413,40.400 500.000 C 40.400 500.587,40.133 500.800,39.400 500.800 C 38.608 500.800,38.400 501.002,38.400 501.772 C 38.400 502.476,38.151 502.780,37.500 502.872 C 36.732 502.981,36.582 503.279,36.478 504.900 C 36.368 506.615,36.261 506.800,35.378 506.800 C 34.601 506.800,34.400 507.006,34.400 507.800 C 34.400 508.600,34.200 508.800,33.400 508.800 C 32.608 508.800,32.400 509.002,32.400 509.772 C 32.400 510.476,32.151 510.780,31.500 510.872 C 30.732 510.981,30.582 511.279,30.478 512.900 C 30.368 514.615,30.261 514.800,29.378 514.800 C 28.601 514.800,28.400 515.006,28.400 515.800 C 28.400 516.600,28.200 516.800,27.400 516.800 C 26.600 516.800,26.400 517.000,26.400 517.800 C 26.400 518.533,26.187 518.800,25.600 518.800 C 24.919 518.800,24.800 519.067,24.800 520.600 C 24.800 522.253,24.719 522.400,23.800 522.400 C 23.000 522.400,22.800 522.600,22.800 523.400 C 22.800 524.200,22.600 524.400,21.800 524.400 C 21.008 524.400,20.800 524.602,20.800 525.372 C 20.800 526.076,20.551 526.380,19.900 526.472 C 19.132 526.581,18.982 526.879,18.878 528.500 C 18.768 530.215,18.661 530.400,17.778 530.400 C 17.001 530.400,16.800 530.606,16.800 531.400 C 16.800 532.200,16.600 532.400,15.800 532.400 C 14.867 532.400,14.800 532.533,14.800 534.400 C 14.800 536.267,14.733 536.400,13.800 536.400 C 13.008 536.400,12.800 536.602,12.800 537.372 C 12.800 538.076,12.551 538.380,11.900 538.472 C 11.154 538.578,10.979 538.887,10.878 540.275 C 10.778 541.649,10.599 541.973,9.878 542.075 C 9.330 542.153,8.953 542.529,8.875 543.075 C 8.798 543.621,8.421 543.998,7.875 544.075 C 7.321 544.154,6.953 544.530,6.872 545.100 C 6.790 545.678,6.468 546.000,5.972 546.000 C 5.312 546.000,5.200 546.291,5.200 548.000 C 5.200 549.837,5.123 550.000,4.253 550.000 L 3.307 550.000 3.068 556.900 C 2.703 567.410,3.145 573.364,4.300 573.528 C 4.878 573.610,5.200 573.932,5.200 574.428 C 5.200 574.933,5.476 575.200,6.000 575.200 C 6.587 575.200,6.800 575.467,6.800 576.200 C 6.800 576.994,7.001 577.200,7.778 577.200 C 8.661 577.200,8.768 577.385,8.878 579.100 C 8.982 580.721,9.132 581.019,9.900 581.128 C 10.551 581.220,10.800 581.524,10.800 582.228 C 10.800 582.998,11.008 583.200,11.800 583.200 C 12.600 583.200,12.800 583.400,12.800 584.200 C 12.800 584.994,13.001 585.200,13.778 585.200 C 14.661 585.200,14.768 585.385,14.878 587.100 C 14.982 588.721,15.132 589.019,15.900 589.128 C 16.551 589.220,16.800 589.524,16.800 590.228 C 16.800 590.998,17.008 591.200,17.800 591.200 C 18.600 591.200,18.800 591.400,18.800 592.200 C 18.800 593.000,19.000 593.200,19.800 593.200 C 20.533 593.200,20.800 593.413,20.800 594.000 C 20.800 594.587,21.067 594.800,21.800 594.800 C 22.733 594.800,22.800 594.933,22.800 596.800 C 22.800 598.667,22.867 598.800,23.800 598.800 C 24.600 598.800,24.800 599.000,24.800 599.800 C 24.800 600.533,25.013 600.800,25.600 600.800 C 26.187 600.800,26.400 601.067,26.400 601.800 C 26.400 602.600,26.600 602.800,27.400 602.800 C 28.200 602.800,28.400 603.000,28.400 603.800 C 28.400 604.594,28.601 604.800,29.378 604.800 C 30.261 604.800,30.368 604.985,30.478 606.700 C 30.582 608.321,30.732 608.619,31.500 608.728 C 32.151 608.820,32.400 609.124,32.400 609.828 C 32.400 610.598,32.608 610.800,33.400 610.800 C 34.200 610.800,34.400 611.000,34.400 611.800 C 34.400 612.600,34.600 612.800,35.400 612.800 C 36.133 612.800,36.400 613.013,36.400 613.600 C 36.400 614.187,36.667 614.400,37.400 614.400 C 38.333 614.400,38.400 614.533,38.400 616.400 C 38.400 618.267,38.467 618.400,39.400 618.400 C 40.200 618.400,40.400 618.600,40.400 619.400 C 40.400 620.200,40.600 620.400,41.400 620.400 C 42.200 620.400,42.400 620.600,42.400 621.400 C 42.400 622.200,42.600 622.400,43.400 622.400 C 44.200 622.400,44.400 622.600,44.400 623.400 C 44.400 624.200,44.600 624.400,45.400 624.400 C 46.200 624.400,46.400 624.600,46.400 625.400 C 46.400 626.124,46.615 626.400,47.178 626.400 C 47.823 626.400,47.977 626.726,48.078 628.300 C 48.181 629.904,48.336 630.219,49.075 630.325 C 49.621 630.402,49.998 630.779,50.075 631.325 C 50.154 631.879,50.530 632.247,51.100 632.328 C 51.678 632.410,52.000 632.732,52.000 633.228 C 52.000 633.785,52.279 634.000,53.000 634.000 C 53.800 634.000,54.000 634.200,54.000 635.000 C 54.000 635.933,54.133 636.000,56.000 636.000 C 57.867 636.000,58.000 636.067,58.000 637.000 C 58.000 637.794,58.201 638.000,58.978 638.000 C 59.861 638.000,59.968 638.185,60.078 639.900 C 60.182 641.521,60.332 641.819,61.100 641.928 C 61.751 642.020,62.000 642.324,62.000 643.028 C 62.000 643.798,62.208 644.000,63.000 644.000 C 63.800 644.000,64.000 644.200,64.000 645.000 C 64.000 645.800,64.200 646.000,65.000 646.000 C 65.800 646.000,66.000 646.200,66.000 647.000 C 66.000 647.721,66.215 648.000,66.772 648.000 C 67.268 648.000,67.590 648.322,67.672 648.900 C 67.753 649.470,68.121 649.846,68.675 649.925 C 69.221 650.002,69.598 650.379,69.675 650.925 C 69.753 651.471,70.130 651.847,70.678 651.925 C 71.399 652.027,71.578 652.351,71.678 653.725 C 71.779 655.113,71.954 655.422,72.700 655.528 C 73.351 655.620,73.600 655.924,73.600 656.628 C 73.600 657.398,73.808 657.600,74.600 657.600 C 75.400 657.600,75.600 657.800,75.600 658.600 C 75.600 659.400,75.800 659.600,76.600 659.600 C 77.400 659.600,77.600 659.800,77.600 660.600 C 77.600 661.394,77.801 661.600,78.578 661.600 C 79.461 661.600,79.568 661.785,79.678 663.500 C 79.782 665.121,79.932 665.419,80.700 665.528 C 81.351 665.620,81.600 665.924,81.600 666.628 C 81.600 667.398,81.808 667.600,82.600 667.600 C 83.400 667.600,83.600 667.800,83.600 668.600 C 83.600 669.400,83.800 669.600,84.600 669.600 C 85.400 669.600,85.600 669.800,85.600 670.600 C 85.600 671.333,85.813 671.600,86.400 671.600 C 86.933 671.600,87.200 671.867,87.200 672.400 C 87.200 672.987,87.467 673.200,88.200 673.200 C 89.072 673.200,89.200 673.376,89.200 674.567 C 89.200 676.452,89.553 677.200,90.443 677.200 C 90.984 677.200,91.200 677.486,91.200 678.200 C 91.200 679.000,91.400 679.200,92.200 679.200 C 93.000 679.200,93.200 679.400,93.200 680.200 C 93.200 680.995,93.401 681.200,94.182 681.200 C 95.125 681.200,95.170 681.319,95.282 684.100 C 95.390 686.761,95.474 687.011,96.300 687.128 C 96.951 687.220,97.200 687.524,97.200 688.228 C 97.200 688.998,97.408 689.200,98.200 689.200 C 99.000 689.200,99.200 689.400,99.200 690.200 C 99.200 691.000,99.400 691.200,100.200 691.200 C 100.933 691.200,101.200 691.413,101.200 692.000 C 101.200 692.587,101.467 692.800,102.200 692.800 C 103.133 692.800,103.200 692.933,103.200 694.800 C 103.200 696.667,103.267 696.800,104.200 696.800 C 105.000 696.800,105.200 697.000,105.200 697.800 C 105.200 698.533,105.413 698.800,106.000 698.800 C 106.587 698.800,106.800 699.067,106.800 699.800 C 106.800 700.594,107.001 700.800,107.778 700.800 C 108.661 700.800,108.768 700.985,108.878 702.700 C 108.981 704.304,109.136 704.619,109.875 704.725 C 110.421 704.802,110.798 705.179,110.875 705.725 C 110.953 706.271,111.330 706.647,111.879 706.725 C 112.621 706.831,112.777 707.144,112.879 708.725 C 112.982 710.321,113.134 710.619,113.900 710.728 C 114.478 710.810,114.800 711.132,114.800 711.628 C 114.800 712.185,115.079 712.400,115.800 712.400 C 116.600 712.400,116.800 712.600,116.800 713.400 C 116.800 714.200,117.000 714.400,117.800 714.400 C 118.733 714.400,118.800 714.533,118.800 716.400 C 118.800 718.267,118.867 718.400,119.800 718.400 C 120.600 718.400,120.800 718.600,120.800 719.400 C 120.800 720.200,121.000 720.400,121.800 720.400 C 122.733 720.400,122.800 720.533,122.800 722.400 C 122.800 724.267,122.867 724.400,123.800 724.400 C 124.600 724.400,124.800 724.600,124.800 725.400 C 124.800 726.124,125.015 726.400,125.578 726.400 C 126.223 726.400,126.377 726.726,126.478 728.300 C 126.582 729.921,126.732 730.219,127.500 730.328 C 128.078 730.410,128.400 730.732,128.400 731.228 C 128.400 731.780,128.678 732.000,129.378 732.000 C 130.261 732.000,130.368 732.185,130.478 733.900 C 130.582 735.521,130.732 735.819,131.500 735.928 C 132.151 736.020,132.400 736.324,132.400 737.028 C 132.400 737.798,132.608 738.000,133.400 738.000 C 134.200 738.000,134.400 738.200,134.400 739.000 C 134.400 739.800,134.600 740.000,135.400 740.000 C 136.333 740.000,136.400 740.133,136.400 742.000 C 136.400 743.867,136.467 744.000,137.400 744.000 C 138.200 744.000,138.400 744.200,138.400 745.000 C 138.400 745.794,138.601 746.000,139.378 746.000 C 140.261 746.000,140.368 746.185,140.478 747.900 C 140.582 749.521,140.732 749.819,141.500 749.928 C 142.151 750.020,142.400 750.324,142.400 751.028 C 142.400 751.798,142.608 752.000,143.400 752.000 C 144.133 752.000,144.400 752.213,144.400 752.800 C 144.400 753.387,144.667 753.600,145.400 753.600 C 146.200 753.600,146.400 753.800,146.400 754.600 C 146.400 755.321,146.615 755.600,147.172 755.600 C 147.668 755.600,147.990 755.922,148.072 756.500 C 148.153 757.070,148.521 757.446,149.075 757.525 C 149.621 757.602,149.998 757.979,150.075 758.525 C 150.153 759.071,150.530 759.447,151.079 759.525 C 151.821 759.631,151.977 759.944,152.079 761.525 C 152.182 763.121,152.334 763.419,153.100 763.528 C 153.860 763.636,154.000 763.902,154.000 765.236 C 154.000 766.525,154.181 766.899,154.979 767.263 C 155.518 767.509,156.013 768.090,156.079 768.555 C 156.154 769.079,156.542 769.449,157.100 769.528 C 157.879 769.638,158.000 769.895,158.000 771.428 C 158.000 773.051,158.084 773.200,159.000 773.200 C 159.750 773.200,160.000 773.411,160.000 774.042 C 160.000 774.506,160.450 775.239,161.000 775.671 C 161.719 776.237,162.000 776.843,162.000 777.829 C 162.000 779.025,162.128 779.200,163.000 779.200 C 163.933 779.200,164.000 779.333,164.000 781.200 C 164.000 783.067,164.067 783.200,165.000 783.200 C 165.916 783.200,166.000 783.348,166.000 784.973 C 166.000 786.362,166.164 786.798,166.758 786.987 C 167.229 787.136,167.615 787.756,167.778 788.623 C 167.922 789.390,168.391 790.237,168.820 790.505 C 169.249 790.773,169.600 791.399,169.600 791.896 C 169.600 792.588,169.829 792.800,170.578 792.800 C 171.461 792.800,171.568 792.985,171.678 794.700 C 171.781 796.307,171.936 796.619,172.679 796.725 C 173.421 796.831,173.577 797.144,173.679 798.725 C 173.781 800.307,173.938 800.620,174.679 800.725 C 175.421 800.831,175.577 801.144,175.679 802.725 C 175.782 804.321,175.934 804.619,176.700 804.728 C 177.393 804.826,177.600 805.118,177.600 805.995 C 177.600 807.655,177.985 808.400,178.843 808.400 C 179.417 808.400,179.600 808.689,179.600 809.600 C 179.600 810.613,179.756 810.800,180.600 810.800 C 181.519 810.800,181.600 810.947,181.600 812.600 C 181.600 814.253,181.681 814.400,182.600 814.400 C 183.533 814.400,183.600 814.533,183.600 816.400 C 183.600 818.267,183.667 818.400,184.600 818.400 C 185.372 818.400,185.600 818.606,185.600 819.304 C 185.600 819.801,185.949 820.425,186.375 820.692 C 186.870 821.001,187.195 821.722,187.275 822.688 C 187.375 823.896,187.578 824.225,188.283 824.326 C 189.087 824.440,189.176 824.708,189.283 827.326 C 189.390 829.960,189.475 830.211,190.300 830.328 C 190.878 830.410,191.200 830.732,191.200 831.228 C 191.200 831.785,191.479 832.000,192.200 832.000 C 193.133 832.000,193.200 832.133,193.200 834.000 C 193.200 835.867,193.267 836.000,194.200 836.000 C 195.000 836.000,195.200 836.200,195.200 837.000 C 195.200 837.800,195.400 838.000,196.200 838.000 C 197.000 838.000,197.200 838.200,197.200 839.000 C 197.200 839.800,197.400 840.000,198.200 840.000 C 199.000 840.000,199.200 840.200,199.200 841.000 C 199.200 841.800,199.400 842.000,200.200 842.000 C 201.000 842.000,201.200 842.200,201.200 843.000 C 201.200 843.800,201.400 844.000,202.200 844.000 C 203.000 844.000,203.200 844.200,203.200 845.000 C 203.200 845.800,203.400 846.000,204.200 846.000 C 205.002 846.000,205.200 846.200,205.200 847.007 L 205.200 848.013 215.700 847.907 L 226.200 847.800 226.328 846.900 C 226.420 846.249,226.724 846.000,227.428 846.000 C 228.198 846.000,228.400 845.792,228.400 845.000 C 228.400 844.200,228.600 844.000,229.400 844.000 C 230.200 844.000,230.400 843.800,230.400 843.000 C 230.400 842.200,230.600 842.000,231.400 842.000 C 232.192 842.000,232.400 841.798,232.400 841.028 C 232.400 840.324,232.649 840.020,233.300 839.928 C 234.066 839.819,234.218 839.521,234.321 837.925 C 234.423 836.344,234.579 836.031,235.321 835.925 C 236.064 835.819,236.219 835.507,236.322 833.900 C 236.432 832.185,236.539 832.000,237.422 832.000 C 238.133 832.000,238.400 831.782,238.400 831.200 C 238.400 830.667,238.667 830.400,239.200 830.400 C 239.892 830.400,240.000 830.133,240.000 828.428 C 240.000 826.687,240.106 826.441,240.900 826.328 C 241.668 826.219,241.818 825.921,241.922 824.300 C 242.032 822.585,242.139 822.400,243.022 822.400 C 243.929 822.400,244.000 822.255,244.000 820.400 C 244.000 818.533,244.067 818.400,245.000 818.400 C 245.933 818.400,246.000 818.267,246.000 816.400 C 246.000 814.533,246.067 814.400,247.000 814.400 C 247.916 814.400,248.000 814.251,248.000 812.628 C 248.000 811.095,248.121 810.838,248.900 810.728 C 249.666 810.619,249.818 810.321,249.921 808.725 C 250.023 807.144,250.179 806.831,250.921 806.725 C 251.662 806.620,251.819 806.307,251.921 804.725 C 252.023 803.144,252.179 802.831,252.921 802.725 C 253.662 802.620,253.819 802.307,253.921 800.725 C 254.023 799.144,254.179 798.831,254.921 798.725 C 255.662 798.620,255.819 798.307,255.921 796.725 C 256.023 795.144,256.179 794.831,256.921 794.725 C 257.642 794.622,257.822 794.300,257.922 792.925 C 258.022 791.551,258.201 791.227,258.922 791.125 C 259.661 791.020,259.819 790.706,259.920 789.141 C 260.014 787.694,260.213 787.238,260.820 787.079 C 261.498 786.902,261.600 786.515,261.600 784.132 C 261.600 781.672,261.693 781.349,262.500 780.995 C 263.192 780.691,263.428 780.212,263.522 778.925 C 263.622 777.551,263.801 777.227,264.522 777.125 C 265.262 777.020,265.419 776.706,265.521 775.125 C 265.623 773.544,265.779 773.231,266.521 773.125 C 267.245 773.022,267.422 772.700,267.523 771.295 C 267.607 770.134,267.958 769.278,268.623 768.613 C 269.401 767.836,269.600 767.225,269.600 765.618 C 269.600 763.732,269.665 763.600,270.600 763.600 C 271.533 763.600,271.600 763.467,271.600 761.600 C 271.600 759.733,271.667 759.600,272.600 759.600 C 273.531 759.600,273.600 759.465,273.600 757.628 C 273.600 755.887,273.706 755.641,274.500 755.528 C 275.246 755.422,275.421 755.113,275.522 753.725 C 275.622 752.351,275.801 752.027,276.522 751.925 C 277.262 751.820,277.419 751.506,277.521 749.925 C 277.623 748.344,277.779 748.031,278.521 747.925 C 279.264 747.819,279.419 747.507,279.522 745.900 C 279.623 744.326,279.777 744.000,280.422 744.000 C 281.089 744.000,281.200 743.715,281.200 742.000 C 281.200 740.133,281.267 740.000,282.200 740.000 C 283.133 740.000,283.200 739.867,283.200 738.000 C 283.200 736.133,283.267 736.000,284.200 736.000 C 285.133 736.000,285.200 735.867,285.200 734.000 C 285.200 732.133,285.267 732.000,286.200 732.000 C 287.115 732.000,287.200 731.850,287.200 730.243 C 287.200 728.703,287.323 728.456,288.200 728.236 C 289.078 728.015,289.200 727.769,289.200 726.220 C 289.200 724.695,289.322 724.438,290.100 724.328 C 290.866 724.219,291.018 723.921,291.121 722.325 C 291.223 720.744,291.379 720.431,292.121 720.325 C 292.850 720.221,293.021 719.901,293.126 718.443 C 293.211 717.251,293.520 716.469,294.087 716.010 C 294.700 715.514,294.973 714.732,295.109 713.088 C 295.268 711.173,295.421 710.825,296.148 710.722 C 296.858 710.620,297.020 710.287,297.121 708.725 C 297.223 707.144,297.379 706.831,298.121 706.725 C 298.864 706.619,299.019 706.307,299.122 704.700 C 299.223 703.126,299.377 702.800,300.022 702.800 C 300.689 702.800,300.800 702.515,300.800 700.800 C 300.800 698.933,300.867 698.800,301.800 698.800 C 302.778 698.800,302.800 698.733,302.800 695.800 C 302.800 692.867,302.822 692.800,303.800 692.800 C 304.719 692.800,304.800 692.653,304.800 691.000 C 304.800 689.347,304.881 689.200,305.800 689.200 C 306.592 689.200,306.800 688.998,306.800 688.228 C 306.800 687.524,307.049 687.220,307.700 687.128 C 308.468 687.019,308.618 686.721,308.722 685.100 C 308.832 683.385,308.939 683.200,309.822 683.200 C 310.772 683.200,310.800 683.115,310.800 680.200 C 310.800 677.267,310.822 677.200,311.800 677.200 C 312.770 677.200,312.800 677.118,312.800 674.428 C 312.800 671.858,312.866 671.646,313.700 671.528 C 314.466 671.419,314.618 671.121,314.721 669.525 C 314.823 667.944,314.979 667.631,315.721 667.525 C 316.520 667.411,316.611 667.139,316.717 664.526 C 316.824 661.908,316.913 661.640,317.717 661.526 C 318.465 661.419,318.619 661.110,318.722 659.500 C 318.823 657.926,318.977 657.600,319.622 657.600 C 320.318 657.600,320.400 657.307,320.400 654.828 C 320.400 652.258,320.466 652.046,321.300 651.928 C 322.126 651.811,322.210 651.561,322.318 648.900 C 322.430 646.119,322.475 646.000,323.418 646.000 C 324.330 646.000,324.400 645.857,324.400 644.000 C 324.400 642.133,324.467 642.000,325.400 642.000 C 326.378 642.000,326.400 641.933,326.400 639.000 C 326.400 636.067,326.422 636.000,327.400 636.000 C 328.316 636.000,328.400 635.851,328.400 634.228 C 328.400 632.695,328.521 632.438,329.300 632.328 C 330.126 632.211,330.210 631.961,330.318 629.300 C 330.430 626.519,330.475 626.400,331.418 626.400 C 332.373 626.400,332.400 626.317,332.400 623.428 C 332.400 620.650,332.459 620.447,333.300 620.328 C 334.066 620.219,334.218 619.921,334.321 618.325 C 334.423 616.744,334.579 616.431,335.321 616.325 C 336.112 616.213,336.212 615.933,336.318 613.526 C 336.424 611.115,336.523 610.839,337.318 610.726 C 338.122 610.611,338.210 610.343,338.318 607.700 C 338.422 605.128,338.524 604.800,339.218 604.800 C 339.890 604.800,340.000 604.518,340.000 602.800 C 340.000 600.933,340.067 600.800,341.000 600.800 C 341.978 600.800,342.000 600.733,342.000 597.800 C 342.000 594.867,342.022 594.800,343.000 594.800 C 343.970 594.800,344.000 594.718,344.000 592.028 C 344.000 589.458,344.066 589.246,344.900 589.128 C 345.726 589.011,345.810 588.761,345.918 586.100 C 346.030 583.319,346.075 583.200,347.018 583.200 C 347.973 583.200,348.000 583.119,348.000 580.200 C 348.000 577.267,348.022 577.200,349.000 577.200 C 349.996 577.200,350.000 577.185,350.000 573.428 C 350.000 569.820,350.039 569.650,350.900 569.528 C 351.753 569.407,351.806 569.199,351.914 565.526 C 352.022 561.872,352.079 561.645,352.914 561.526 C 353.783 561.402,353.802 561.273,353.910 554.700 C 353.974 550.750,354.177 548.000,354.404 548.000 C 355.210 548.000,356.000 545.052,356.000 542.046 C 356.000 539.253,356.086 538.925,357.000 538.239 C 357.904 537.560,358.000 537.213,358.000 534.614 C 358.000 532.065,358.113 531.633,359.000 530.800 C 359.877 529.976,360.000 529.525,360.000 527.130 C 360.000 524.933,360.156 524.244,360.800 523.600 C 361.465 522.935,361.600 522.267,361.600 519.628 C 361.600 516.643,361.653 516.448,362.500 516.328 C 363.349 516.207,363.406 515.992,363.515 512.504 C 363.625 508.952,363.668 508.798,364.615 508.561 C 365.574 508.320,365.600 508.215,365.600 504.557 C 365.600 500.816,365.604 500.800,366.600 500.800 C 367.596 500.800,367.600 500.785,367.600 497.028 C 367.600 493.420,367.639 493.250,368.500 493.128 C 369.326 493.011,369.410 492.761,369.518 490.100 C 369.582 488.505,369.794 487.200,369.989 487.200 C 371.126 487.200,371.600 485.847,371.600 482.599 C 371.600 479.436,371.649 479.249,372.500 479.128 C 373.347 479.007,373.407 478.789,373.514 475.389 C 373.618 472.100,373.707 471.743,374.514 471.389 C 375.323 471.034,375.410 470.680,375.515 467.300 C 375.617 464.004,375.711 463.600,376.372 463.600 C 377.400 463.600,377.600 462.847,377.600 458.967 C 377.600 455.930,377.674 455.600,378.357 455.600 C 379.389 455.600,379.600 454.856,379.600 451.214 C 379.600 448.430,379.686 448.071,380.400 447.884 C 381.128 447.694,381.200 447.338,381.200 443.932 C 381.200 440.435,381.259 440.164,382.100 439.795 C 382.920 439.435,383.010 439.090,383.116 435.903 C 383.218 432.803,383.343 432.293,384.216 431.421 C 385.128 430.509,385.200 430.148,385.200 426.513 C 385.200 422.828,385.255 422.566,386.100 422.195 C 386.962 421.817,387.005 421.569,387.111 416.305 C 387.222 410.833,387.227 410.809,388.211 410.561 L 389.200 410.313 389.200 403.577 C 389.200 398.335,389.320 396.769,389.742 396.520 C 391.018 395.766,391.200 394.427,391.200 385.784 C 391.200 377.121,391.201 377.115,392.200 375.927 C 393.198 374.741,393.200 374.723,393.200 366.216 C 393.200 358.263,393.249 357.680,393.939 357.500 C 394.995 357.224,395.200 355.662,395.200 347.914 C 395.200 341.359,395.231 341.103,396.100 340.400 C 396.967 339.699,397.004 339.398,397.120 332.136 C 397.234 324.913,397.276 324.572,398.120 323.923 C 398.976 323.265,399.003 322.989,399.127 313.823 C 399.200 308.346,399.410 304.400,399.627 304.400 C 399.855 304.400,400.000 288.291,400.000 262.800 C 400.000 235.333,399.864 221.200,399.600 221.200 C 399.346 221.200,399.200 218.083,399.200 212.650 C 399.200 203.127,399.029 201.585,397.939 201.300 C 397.254 201.121,397.200 200.571,397.200 193.803 C 397.200 185.588,397.003 183.978,395.962 183.706 C 395.309 183.535,395.235 182.812,395.123 175.523 C 395.004 167.787,394.971 167.504,394.100 166.800 C 393.217 166.086,393.200 165.907,393.200 157.506 L 393.200 148.939 392.200 148.000 L 391.200 147.061 391.200 137.712 L 391.200 128.364 390.200 127.364 C 389.229 126.392,389.200 126.204,389.200 120.764 C 389.200 115.342,389.169 115.132,388.212 114.176 C 387.285 113.248,387.218 112.890,387.112 108.294 C 387.004 103.562,386.970 103.396,386.100 103.272 C 385.229 103.149,385.200 103.001,385.200 98.781 C 385.200 94.569,385.165 94.396,384.200 93.763 C 383.251 93.142,383.200 92.916,383.200 89.362 C 383.200 85.699,383.178 85.610,382.200 85.364 C 381.224 85.119,381.200 85.024,381.200 81.453 C 381.200 78.226,381.105 77.733,380.400 77.293 C 379.709 76.862,379.600 76.360,379.600 73.627 C 379.600 70.834,379.482 70.322,378.600 69.273 C 377.743 68.254,377.600 67.687,377.600 65.298 C 377.600 62.793,377.499 62.436,376.600 61.761 C 375.696 61.082,375.600 60.735,375.600 58.138 C 375.600 54.747,375.376 54.000,374.357 54.000 C 373.670 54.000,373.600 53.665,373.600 50.390 C 373.600 46.908,373.565 46.767,372.600 46.400 C 371.664 46.044,371.600 45.839,371.600 43.210 C 371.600 40.479,371.572 40.400,370.600 40.400 C 369.616 40.400,369.600 40.348,369.600 37.181 C 369.600 34.261,369.507 33.876,368.600 33.035 C 367.730 32.229,367.600 31.769,367.600 29.497 C 367.600 27.059,367.535 26.870,366.618 26.640 C 365.713 26.413,365.627 26.182,365.518 23.697 C 365.411 21.247,365.318 20.988,364.500 20.872 C 363.706 20.759,363.600 20.513,363.600 18.772 C 363.600 16.935,363.531 16.800,362.600 16.800 C 361.667 16.800,361.600 16.667,361.600 14.800 C 361.600 13.086,361.489 12.800,360.823 12.800 C 360.195 12.800,360.022 12.474,359.923 11.100 C 359.829 9.798,359.593 9.309,358.916 9.012 C 358.430 8.799,357.980 8.259,357.916 7.812 C 357.848 7.334,357.446 6.950,356.941 6.878 C 356.468 6.810,355.990 6.405,355.878 5.978 C 355.701 5.301,355.311 5.200,352.865 5.200 C 350.256 5.200,350.047 5.136,349.928 4.300 C 349.807 3.451,349.592 3.394,346.100 3.285 L 342.400 3.170 342.400 4.185 M347.736 18.021 C 348.311 18.473,348.966 19.532,349.193 20.375 C 349.420 21.217,349.874 22.130,350.203 22.402 C 350.531 22.675,350.802 23.191,350.804 23.549 C 350.806 23.907,351.236 25.120,351.760 26.245 C 352.284 27.370,352.842 28.900,353.001 29.645 C 353.160 30.390,353.614 31.720,354.009 32.600 C 354.404 33.480,354.858 34.920,355.018 35.800 C 355.178 36.680,355.644 38.068,356.054 38.884 C 356.464 39.700,356.808 40.780,356.818 41.284 C 356.827 41.788,357.112 42.920,357.451 43.800 C 357.789 44.680,358.330 46.480,358.652 47.800 C 358.974 49.120,359.507 50.922,359.837 51.805 C 360.166 52.688,360.680 54.488,360.978 55.805 C 361.277 57.122,361.801 58.920,362.143 59.800 C 362.485 60.680,362.773 61.872,362.782 62.450 C 362.792 63.027,363.091 64.287,363.446 65.250 C 363.801 66.212,364.414 68.440,364.808 70.200 C 365.692 74.146,366.534 77.512,367.815 82.220 C 368.357 84.212,368.800 86.388,368.800 87.058 C 368.800 87.727,369.133 89.248,369.539 90.437 C 369.946 91.627,370.406 93.590,370.561 94.800 C 370.716 96.010,371.171 98.080,371.574 99.400 C 371.976 100.720,372.432 102.970,372.587 104.400 C 372.742 105.830,373.197 108.350,373.598 110.000 C 373.999 111.650,374.547 114.620,374.815 116.600 C 375.084 118.580,375.471 120.643,375.674 121.185 C 375.878 121.727,376.222 124.787,376.437 127.985 C 376.653 131.183,377.090 135.420,377.408 137.400 C 377.727 139.380,378.179 144.060,378.413 147.800 C 378.647 151.540,379.104 156.383,379.429 158.563 C 379.754 160.742,380.199 164.792,380.417 167.563 C 380.636 170.333,381.095 174.220,381.437 176.200 C 381.779 178.180,382.218 182.115,382.412 184.944 C 382.607 187.774,383.033 191.464,383.360 193.144 C 383.687 194.825,384.155 198.990,384.400 202.400 C 384.645 205.810,385.006 209.320,385.202 210.201 C 385.570 211.850,385.854 215.538,387.210 236.271 C 388.083 249.613,388.305 276.660,387.606 284.600 C 387.393 287.020,386.939 293.590,386.596 299.200 C 385.974 309.388,385.398 315.756,385.048 316.323 C 384.946 316.488,384.659 319.228,384.411 322.412 C 384.162 325.595,383.691 329.575,383.362 331.256 C 383.034 332.936,382.606 336.626,382.412 339.456 C 382.218 342.285,381.782 346.310,381.445 348.400 C 381.107 350.490,380.640 354.450,380.408 357.200 C 380.176 359.950,379.729 363.820,379.416 365.800 C 379.103 367.780,378.645 372.370,378.400 376.000 C 378.154 379.630,377.704 383.958,377.400 385.618 C 377.096 387.278,376.734 390.968,376.595 393.818 C 376.456 396.668,376.007 400.890,375.597 403.200 C 375.187 405.510,374.738 408.480,374.598 409.800 C 374.458 411.120,374.074 413.370,373.745 414.800 C 373.416 416.230,372.881 419.019,372.556 420.999 C 372.231 422.978,371.721 425.318,371.422 426.199 C 371.124 427.079,370.761 428.880,370.615 430.200 C 370.470 431.520,370.090 433.230,369.771 434.000 C 369.452 434.770,368.939 436.750,368.632 438.400 C 368.325 440.050,367.798 442.480,367.462 443.800 C 367.126 445.120,366.552 447.370,366.188 448.800 C 365.823 450.230,365.209 452.840,364.823 454.600 C 364.438 456.360,363.825 458.661,363.461 459.714 C 363.098 460.767,362.800 462.167,362.800 462.827 C 362.800 463.486,362.516 464.695,362.170 465.513 C 361.823 466.331,361.203 468.440,360.791 470.200 C 359.747 474.666,358.796 478.287,358.112 480.400 C 357.791 481.390,357.344 483.100,357.118 484.200 C 356.892 485.300,356.378 487.190,355.975 488.400 C 355.573 489.610,355.123 491.410,354.975 492.400 C 354.827 493.390,354.477 494.650,354.199 495.200 C 353.920 495.750,353.407 497.588,353.058 499.284 C 352.710 500.979,352.170 502.977,351.858 503.722 C 351.547 504.468,351.161 506.028,351.002 507.188 C 350.842 508.349,350.392 510.041,350.002 510.949 C 349.612 511.857,349.173 513.573,349.025 514.763 C 348.877 515.952,348.520 517.392,348.232 517.963 C 347.944 518.533,347.479 520.260,347.199 521.800 C 346.919 523.340,346.379 525.410,346.000 526.400 C 345.621 527.390,345.186 529.173,345.034 530.363 C 344.881 531.552,344.497 533.026,344.180 533.639 C 343.863 534.252,343.421 536.043,343.197 537.621 C 342.973 539.198,342.627 540.781,342.426 541.138 C 342.047 541.817,342.068 541.864,341.462 539.000 C 341.369 538.560,341.272 541.824,341.246 546.254 L 341.200 554.308 340.200 554.963 C 339.275 555.569,339.200 555.852,339.200 558.737 C 339.200 561.565,339.107 561.937,338.200 562.725 C 337.296 563.511,337.200 563.889,337.200 566.651 C 337.200 569.398,337.099 569.802,336.200 570.635 C 335.370 571.404,335.200 571.931,335.200 573.735 C 335.200 575.611,335.064 575.997,334.200 576.563 C 333.331 577.133,333.200 577.511,333.200 579.452 C 333.200 581.357,333.053 581.800,332.200 582.471 C 331.343 583.146,331.200 583.583,331.200 585.533 C 331.200 587.374,331.048 587.903,330.400 588.307 C 329.763 588.705,329.600 589.240,329.600 590.934 C 329.600 592.685,329.424 593.226,328.600 594.000 C 327.995 594.569,327.600 595.382,327.600 596.061 C 327.600 596.815,327.273 597.396,326.600 597.837 C 325.725 598.410,325.600 598.780,325.600 600.800 C 325.600 602.820,325.475 603.190,324.600 603.763 C 323.722 604.339,323.600 604.704,323.600 606.763 C 323.600 608.823,323.478 609.188,322.600 609.763 C 321.862 610.247,321.600 610.770,321.600 611.763 C 321.600 612.756,321.338 613.279,320.600 613.763 C 319.741 614.326,319.600 614.718,319.600 616.539 C 319.600 618.285,319.423 618.827,318.600 619.600 C 317.785 620.366,317.600 620.919,317.600 622.598 C 317.600 624.294,317.424 624.808,316.600 625.525 C 315.974 626.069,315.600 626.818,315.600 627.525 C 315.600 628.233,315.226 628.981,314.600 629.525 C 313.761 630.255,313.600 630.747,313.600 632.588 C 313.600 634.486,313.465 634.870,312.600 635.437 C 311.863 635.920,311.600 636.444,311.600 637.432 C 311.600 638.362,311.356 638.903,310.800 639.200 C 310.140 639.553,310.000 640.038,310.000 641.968 C 310.000 644.023,309.878 644.388,309.000 644.963 C 308.141 645.526,308.000 645.918,308.000 647.739 C 308.000 649.485,307.823 650.027,307.000 650.800 C 306.403 651.361,306.000 652.183,306.000 652.841 C 306.000 653.539,305.634 654.230,305.000 654.729 C 304.153 655.395,304.000 655.847,304.000 657.685 C 304.000 659.502,303.837 659.997,303.000 660.725 C 302.405 661.242,302.000 662.023,302.000 662.651 C 302.000 663.265,301.580 664.097,301.000 664.635 C 300.170 665.404,300.000 665.931,300.000 667.735 C 300.000 669.611,299.864 669.997,299.000 670.563 C 298.122 671.139,298.000 671.504,298.000 673.563 C 298.000 675.623,297.878 675.988,297.000 676.563 C 296.261 677.048,296.000 677.570,296.000 678.566 C 296.000 679.817,295.226 680.693,294.639 680.106 C 294.508 679.974,294.400 556.628,294.400 406.003 L 294.400 132.139 295.400 131.200 C 296.048 130.592,296.400 129.826,296.400 129.026 C 296.400 128.226,296.681 127.617,297.200 127.293 C 297.703 126.979,298.000 126.360,298.000 125.626 C 298.000 124.857,298.341 124.190,299.000 123.671 C 299.680 123.136,300.000 122.491,300.000 121.652 C 300.000 120.778,300.291 120.228,301.000 119.763 C 301.867 119.195,302.000 118.814,302.000 116.900 C 302.000 115.058,302.166 114.538,303.000 113.765 C 303.629 113.182,304.000 112.403,304.000 111.665 C 304.000 110.855,304.310 110.289,305.000 109.837 C 305.738 109.353,306.000 108.830,306.000 107.837 C 306.000 106.844,306.262 106.321,307.000 105.837 C 307.869 105.267,308.000 104.889,308.000 102.948 C 308.000 101.043,308.147 100.600,309.000 99.929 C 309.851 99.259,310.000 98.813,310.000 96.929 C 310.000 95.044,310.149 94.598,311.000 93.929 C 311.840 93.268,312.000 92.805,312.000 91.043 C 312.000 89.303,312.171 88.796,313.000 88.075 C 313.649 87.511,314.000 86.786,314.000 86.012 C 314.000 85.180,314.303 84.620,315.000 84.163 C 315.878 83.588,316.000 83.223,316.000 81.168 C 316.000 79.238,316.140 78.753,316.800 78.400 C 317.460 78.047,317.600 77.562,317.600 75.632 C 317.600 73.577,317.722 73.212,318.600 72.637 C 319.297 72.180,319.600 71.620,319.600 70.788 C 319.600 70.014,319.951 69.289,320.600 68.725 C 321.419 68.013,321.601 67.488,321.606 65.828 C 321.613 63.618,321.836 63.076,322.900 62.683 C 323.376 62.508,323.600 61.996,323.600 61.082 C 323.600 60.167,323.918 59.440,324.600 58.800 C 325.415 58.034,325.600 57.481,325.600 55.802 C 325.600 54.106,325.776 53.592,326.600 52.875 C 327.436 52.148,327.600 51.651,327.600 49.849 C 327.600 47.990,327.738 47.602,328.600 47.037 C 329.338 46.553,329.600 46.030,329.600 45.037 C 329.600 44.044,329.862 43.521,330.600 43.037 C 331.309 42.572,331.600 42.022,331.600 41.148 C 331.600 40.309,331.920 39.664,332.600 39.129 C 333.440 38.468,333.600 38.006,333.600 36.241 C 333.600 34.517,333.779 33.971,334.600 33.200 C 335.270 32.571,335.600 31.830,335.600 30.957 C 335.600 30.005,335.816 29.585,336.400 29.400 C 336.984 29.215,337.200 28.795,337.200 27.843 C 337.200 26.970,337.530 26.229,338.200 25.600 C 338.788 25.047,339.200 24.215,339.200 23.579 C 339.200 22.078,340.112 21.369,340.958 22.215 C 341.476 22.733,341.600 22.748,341.600 22.291 C 341.600 21.979,341.960 21.398,342.400 21.000 C 342.840 20.602,343.200 20.050,343.200 19.774 C 343.200 18.018,346.240 16.844,347.736 18.021 M293.802 139.700 C 293.921 140.195,293.969 262.460,293.909 411.400 L 293.800 682.200 292.665 684.800 C 292.041 686.230,291.186 688.132,290.765 689.026 C 290.344 689.921,290.000 690.934,290.000 691.277 C 290.000 691.621,289.748 692.111,289.439 692.367 C 289.131 692.623,288.757 693.320,288.609 693.916 C 288.460 694.512,287.436 696.890,286.333 699.200 C 285.230 701.510,283.894 704.345,283.364 705.500 C 282.834 706.655,281.950 708.548,281.400 709.706 C 280.850 710.864,280.400 712.010,280.400 712.252 C 280.400 712.494,280.066 713.121,279.658 713.646 C 279.250 714.171,278.701 715.261,278.438 716.068 C 278.174 716.875,277.703 717.748,277.390 718.008 C 277.077 718.268,276.708 719.086,276.569 719.826 C 276.430 720.566,276.065 721.380,275.758 721.635 C 275.451 721.890,275.200 722.273,275.200 722.488 C 275.200 722.847,270.767 732.234,269.952 733.600 C 269.755 733.930,269.392 734.650,269.145 735.200 C 268.898 735.750,267.394 738.900,265.803 742.200 C 264.212 745.500,262.706 748.650,262.458 749.200 C 262.209 749.750,261.840 750.470,261.638 750.800 C 261.296 751.358,258.808 756.649,258.252 758.000 C 258.116 758.330,257.828 758.870,257.612 759.200 C 257.396 759.530,256.949 760.430,256.618 761.200 C 256.287 761.970,255.853 762.870,255.653 763.200 C 255.454 763.530,254.152 766.140,252.760 769.000 C 249.762 775.162,250.045 774.717,249.584 773.988 C 249.336 773.596,249.210 774.428,249.206 776.491 C 249.200 779.343,249.123 779.632,248.200 780.237 C 247.471 780.715,247.200 781.246,247.200 782.200 C 247.200 783.154,246.929 783.685,246.200 784.163 C 245.503 784.620,245.200 785.180,245.200 786.012 C 245.200 786.786,244.849 787.511,244.200 788.075 C 243.522 788.664,243.200 789.357,243.200 790.226 C 243.200 791.152,242.922 791.690,242.200 792.163 C 241.491 792.628,241.200 793.178,241.200 794.052 C 241.200 794.891,240.880 795.536,240.200 796.071 C 239.567 796.569,239.200 797.261,239.200 797.957 C 239.200 798.630,238.813 799.392,238.200 799.925 C 237.574 800.469,237.200 801.218,237.200 801.925 C 237.200 802.633,236.826 803.381,236.200 803.925 C 235.605 804.442,235.200 805.223,235.200 805.851 C 235.200 806.465,234.780 807.297,234.200 807.835 C 233.558 808.430,233.200 809.195,233.200 809.972 C 233.200 810.821,232.902 811.377,232.200 811.837 C 231.463 812.320,231.200 812.844,231.200 813.832 C 231.200 814.762,230.956 815.303,230.400 815.600 C 229.838 815.901,229.600 816.438,229.600 817.405 C 229.600 818.432,229.346 818.948,228.600 819.437 C 227.903 819.893,227.600 820.454,227.600 821.285 C 227.600 822.206,227.143 822.899,225.600 824.315 C 224.000 825.784,223.600 826.407,223.600 827.430 C 223.600 828.352,223.321 828.891,222.600 829.363 C 221.890 829.828,221.600 830.377,221.600 831.255 C 221.600 833.599,219.233 835.200,215.770 835.200 L 212.896 835.200 209.448 831.813 C 206.806 829.218,206.000 828.174,206.000 827.347 C 206.000 826.568,205.444 825.749,204.000 824.400 L 202.000 822.532 201.988 819.766 C 201.978 817.613,201.881 817.162,201.550 817.733 C 201.123 818.467,199.993 817.123,197.748 813.210 C 197.429 812.655,196.770 811.536,196.284 810.724 C 194.736 808.140,191.019 801.572,190.479 800.466 C 190.193 799.880,189.790 799.130,189.585 798.800 C 189.380 798.470,188.876 797.570,188.466 796.800 C 188.056 796.030,187.048 794.230,186.225 792.800 C 185.402 791.370,184.467 789.660,184.147 789.000 C 183.826 788.340,183.042 786.900,182.403 785.800 C 181.764 784.700,180.863 783.080,180.400 782.200 C 179.937 781.320,179.036 779.700,178.397 778.600 C 177.758 777.500,176.959 776.060,176.620 775.400 C 176.282 774.740,175.380 773.210,174.616 772.000 C 173.853 770.790,172.963 769.219,172.638 768.509 C 172.314 767.799,171.854 766.989,171.617 766.709 C 170.715 765.645,168.814 762.582,168.807 762.181 C 168.803 761.951,168.526 761.411,168.190 760.981 C 167.855 760.552,166.477 758.490,165.128 756.400 C 163.779 754.310,162.029 751.640,161.238 750.467 C 160.447 749.295,159.434 747.732,158.987 746.995 C 158.539 746.257,157.864 745.313,157.487 744.896 C 157.109 744.478,156.800 743.933,156.800 743.683 C 156.800 743.433,156.440 743.035,156.000 742.800 C 155.202 742.373,155.200 741.962,155.200 556.749 L 155.200 371.127 156.023 370.063 C 158.290 367.136,161.887 362.193,162.570 361.069 C 162.993 360.371,164.077 358.900,164.978 357.800 C 165.879 356.700,167.145 354.990,167.792 354.000 C 168.438 353.010,169.740 351.271,170.684 350.136 C 171.628 349.001,172.400 347.952,172.400 347.806 C 172.400 347.659,173.251 346.433,174.291 345.081 C 176.308 342.460,180.189 337.055,182.400 333.785 C 183.217 332.578,184.295 331.142,186.236 328.677 C 187.136 327.535,188.105 326.150,188.390 325.600 C 188.675 325.050,189.613 323.700,190.475 322.600 C 191.836 320.862,194.236 317.577,197.196 313.400 C 200.753 308.382,201.140 307.965,201.564 308.692 C 201.881 309.238,201.978 308.873,201.988 307.097 C 201.998 305.148,202.153 304.661,203.000 303.925 C 203.643 303.366,204.000 302.636,204.000 301.878 C 204.000 300.973,204.464 300.279,206.000 298.886 C 207.404 297.612,208.000 296.767,208.000 296.050 C 208.000 295.488,208.359 294.662,208.798 294.214 C 209.236 293.766,210.586 292.425,211.798 291.232 C 213.349 289.705,214.000 288.757,214.000 288.022 C 214.000 287.305,214.561 286.453,215.800 285.286 C 217.067 284.094,217.600 283.274,217.600 282.517 C 217.600 281.743,218.161 280.914,219.600 279.563 C 221.162 278.097,221.600 277.415,221.600 276.452 C 221.600 275.578,221.891 275.028,222.600 274.563 C 223.301 274.104,223.600 273.547,223.600 272.700 C 223.600 271.925,223.959 271.159,224.600 270.565 C 225.229 269.982,225.600 269.203,225.600 268.465 C 225.600 267.655,225.910 267.089,226.600 266.637 C 227.309 266.172,227.600 265.622,227.600 264.748 C 227.600 263.785,228.038 263.103,229.600 261.637 C 231.078 260.249,231.600 259.467,231.600 258.637 C 231.600 257.917,231.958 257.234,232.600 256.729 C 233.274 256.198,233.600 255.546,233.600 254.729 C 233.600 253.911,233.926 253.259,234.600 252.729 C 235.293 252.183,235.600 251.550,235.600 250.667 C 235.600 249.826,235.872 249.223,236.400 248.893 C 236.892 248.585,237.200 247.960,237.200 247.266 C 237.200 246.582,237.592 245.771,238.200 245.200 C 238.805 244.631,239.200 243.818,239.200 243.139 C 239.200 242.385,239.527 241.804,240.200 241.363 C 240.938 240.879,241.200 240.356,241.200 239.363 C 241.200 238.370,241.462 237.847,242.200 237.363 C 242.901 236.904,243.200 236.347,243.200 235.500 C 243.200 234.725,243.559 233.959,244.200 233.365 C 244.769 232.838,245.200 231.993,245.200 231.406 C 245.200 229.683,248.423 226.831,248.935 228.100 C 249.046 228.375,249.151 228.116,249.168 227.524 C 249.186 226.932,249.366 226.344,249.570 226.219 C 249.773 226.093,251.312 223.248,252.991 219.895 C 256.306 213.274,256.360 213.167,257.328 211.400 C 257.690 210.740,258.263 209.570,258.603 208.800 C 258.942 208.030,259.399 207.130,259.618 206.800 C 259.837 206.470,260.287 205.570,260.618 204.800 C 260.949 204.030,261.387 203.130,261.592 202.800 C 261.798 202.470,265.316 195.450,269.411 187.200 C 273.506 178.950,277.027 171.930,277.236 171.600 C 277.445 171.270,277.887 170.370,278.218 169.600 C 278.549 168.830,278.999 167.930,279.218 167.600 C 279.437 167.270,279.887 166.370,280.218 165.600 C 280.549 164.830,280.996 163.885,281.210 163.500 C 282.024 162.039,283.984 157.924,284.783 156.000 C 285.011 155.450,285.374 154.730,285.589 154.400 C 285.805 154.070,286.251 153.170,286.582 152.400 C 286.913 151.630,287.355 150.730,287.565 150.400 C 287.774 150.070,288.517 148.540,289.216 147.000 C 293.159 138.307,293.381 137.954,293.802 139.700 M154.800 556.800 C 154.800 742.533,154.799 742.800,154.000 742.800 C 153.362 742.800,153.200 742.533,153.200 741.483 C 153.200 740.420,152.813 739.800,151.200 738.278 C 149.781 736.938,149.200 736.083,149.200 735.333 C 149.200 734.543,148.442 733.539,146.200 731.362 C 143.895 729.124,143.200 728.192,143.200 727.344 C 143.200 726.537,142.663 725.737,141.200 724.363 C 139.755 723.007,139.200 722.185,139.200 721.403 C 139.200 720.639,138.671 719.821,137.400 718.620 C 136.113 717.405,135.600 716.606,135.600 715.817 C 135.600 715.011,135.062 714.210,133.600 712.837 C 132.176 711.500,131.600 710.654,131.600 709.900 C 131.600 709.112,130.835 708.088,128.600 705.890 C 126.383 703.708,125.600 702.665,125.600 701.891 C 125.600 701.164,124.989 700.243,123.600 698.876 C 122.261 697.558,121.600 696.577,121.600 695.910 C 121.600 694.963,117.173 690.000,116.328 690.000 C 116.148 690.000,116.000 689.415,115.999 688.700 C 115.999 687.585,115.431 686.838,111.999 683.438 L 108.000 679.476 108.000 676.461 C 108.000 673.738,107.944 673.522,107.420 674.224 C 106.846 674.991,106.833 674.991,106.261 674.200 C 105.943 673.760,105.349 673.012,104.941 672.538 C 104.111 671.572,103.362 670.642,100.163 666.600 C 98.945 665.060,97.645 663.440,97.276 663.000 C 94.468 659.656,90.024 654.262,89.200 653.197 C 88.650 652.486,87.840 651.514,87.400 651.037 C 86.103 649.630,82.683 645.540,81.187 643.607 C 79.812 641.830,79.558 641.529,77.578 639.333 C 77.016 638.710,74.845 636.130,72.754 633.600 C 62.440 621.120,62.889 621.615,62.667 622.466 C 62.319 623.796,61.022 623.222,60.873 621.672 C 60.768 620.586,59.895 619.507,55.973 615.622 C 52.403 612.086,51.200 610.641,51.200 609.891 C 51.200 609.155,50.140 607.832,47.200 604.897 C 44.130 601.834,43.200 600.658,43.200 599.838 C 43.200 599.015,42.333 597.932,39.400 595.096 C 36.580 592.370,35.599 591.161,35.596 590.411 C 35.594 589.700,34.816 588.628,32.977 586.800 C 31.538 585.370,30.144 583.963,29.880 583.672 C 29.616 583.382,28.995 582.765,28.500 582.300 C 28.005 581.836,27.600 580.978,27.600 580.394 C 27.600 579.719,27.163 578.943,26.400 578.263 C 25.740 577.675,25.200 577.015,25.200 576.797 C 25.200 576.579,24.999 576.400,24.754 576.400 C 23.924 576.400,21.600 573.471,21.597 572.422 C 21.595 571.685,20.813 570.640,18.797 568.676 L 16.000 565.952 16.000 561.590 C 16.000 557.638,16.075 557.188,16.800 556.800 C 17.340 556.511,17.600 555.962,17.600 555.113 C 17.600 554.068,18.109 553.367,20.600 550.987 C 22.915 548.775,23.600 547.869,23.600 547.018 C 23.600 546.211,24.138 545.410,25.600 544.037 C 27.079 542.649,27.600 541.867,27.600 541.037 C 27.600 540.207,28.121 539.425,29.600 538.037 C 31.030 536.694,31.600 535.855,31.600 535.093 C 31.600 534.301,32.320 533.321,34.400 531.282 C 36.431 529.291,37.200 528.254,37.200 527.507 C 37.200 526.753,38.004 525.687,40.194 523.538 C 42.729 521.050,43.189 520.395,43.194 519.263 C 43.198 518.264,43.403 517.872,44.000 517.716 C 44.440 517.601,44.800 517.362,44.800 517.185 C 44.800 517.009,45.790 515.919,47.000 514.764 C 48.806 513.041,49.200 512.426,49.200 511.332 C 49.200 510.600,49.350 510.000,49.533 510.000 C 50.417 510.000,55.200 504.618,55.200 503.624 C 55.200 502.855,55.933 501.883,58.000 499.912 C 60.188 497.825,60.800 496.992,60.800 496.101 C 60.800 494.647,61.527 493.842,62.278 494.465 C 62.993 495.058,63.636 494.449,66.400 490.562 C 67.610 488.861,69.005 487.040,69.500 486.516 C 69.995 485.992,70.400 485.481,70.400 485.380 C 70.400 485.227,72.758 482.014,75.374 478.600 C 75.987 477.800,77.380 475.933,79.483 473.090 C 80.097 472.259,80.921 471.179,81.314 470.690 C 81.707 470.200,83.012 468.450,84.214 466.800 C 85.415 465.150,86.743 463.350,87.164 462.800 C 87.585 462.250,88.440 461.135,89.065 460.321 C 89.689 459.508,92.000 456.392,94.200 453.396 C 96.400 450.400,98.927 447.015,99.816 445.874 C 100.704 444.734,102.140 442.810,103.007 441.600 C 103.873 440.390,104.779 439.220,105.019 439.000 C 105.259 438.780,105.782 438.076,106.179 437.436 L 106.903 436.271 107.437 437.236 C 107.922 438.111,107.974 437.924,107.995 435.200 L 108.017 432.200 110.009 430.214 C 111.346 428.880,112.001 427.895,112.003 427.214 C 112.005 426.487,112.798 425.429,114.803 423.476 C 116.847 421.485,117.600 420.472,117.600 419.714 C 117.600 418.947,118.386 417.912,120.600 415.762 C 122.869 413.558,123.600 412.586,123.600 411.771 C 123.600 410.958,124.336 409.975,126.600 407.762 C 128.829 405.583,129.600 404.559,129.600 403.778 C 129.600 402.995,130.367 401.982,132.600 399.813 C 134.908 397.571,135.600 396.644,135.600 395.792 C 135.600 394.945,136.255 394.057,138.400 392.000 C 140.453 390.031,141.200 389.038,141.200 388.279 C 141.200 387.566,141.823 386.631,143.200 385.276 C 144.623 383.874,145.200 382.994,145.200 382.223 C 145.200 381.397,145.912 380.456,148.200 378.263 C 150.467 376.090,151.200 375.126,151.200 374.319 C 151.200 373.106,153.026 370.920,154.100 370.847 C 154.766 370.802,154.800 379.906,154.800 556.800 " stroke="none" fill="#f90404" fill-rule="evenodd"></path><path id="path2" d="M344.431 18.236 C 343.754 18.805,343.200 19.469,343.200 19.710 C 343.200 19.951,342.795 20.580,342.300 21.106 L 341.400 22.064 341.400 280.732 C 341.400 548.913,341.409 550.227,343.197 537.621 C 343.421 536.043,343.863 534.252,344.180 533.639 C 344.497 533.026,344.881 531.552,345.034 530.363 C 345.186 529.173,345.621 527.390,346.000 526.400 C 346.379 525.410,346.919 523.340,347.199 521.800 C 347.479 520.260,347.944 518.533,348.232 517.963 C 348.520 517.392,348.877 515.952,349.025 514.763 C 349.173 513.573,349.612 511.857,350.002 510.949 C 350.392 510.041,350.842 508.349,351.002 507.188 C 351.161 506.028,351.547 504.468,351.858 503.722 C 352.170 502.977,352.710 500.979,353.058 499.284 C 353.407 497.588,353.920 495.750,354.199 495.200 C 354.477 494.650,354.827 493.390,354.975 492.400 C 355.123 491.410,355.573 489.610,355.975 488.400 C 356.378 487.190,356.892 485.300,357.118 484.200 C 357.344 483.100,357.791 481.390,358.112 480.400 C 358.796 478.287,359.747 474.666,360.791 470.200 C 361.203 468.440,361.823 466.331,362.170 465.513 C 362.516 464.695,362.800 463.486,362.800 462.827 C 362.800 462.167,363.098 460.767,363.461 459.714 C 363.825 458.661,364.438 456.360,364.823 454.600 C 365.209 452.840,365.823 450.230,366.188 448.800 C 366.552 447.370,367.126 445.120,367.462 443.800 C 367.798 442.480,368.325 440.050,368.632 438.400 C 368.939 436.750,369.452 434.770,369.771 434.000 C 370.090 433.230,370.470 431.520,370.615 430.200 C 370.761 428.880,371.124 427.079,371.422 426.199 C 371.721 425.318,372.231 422.978,372.556 420.999 C 372.881 419.019,373.416 416.230,373.745 414.800 C 374.074 413.370,374.458 411.120,374.598 409.800 C 374.738 408.480,375.187 405.510,375.597 403.200 C 376.007 400.890,376.456 396.668,376.595 393.818 C 376.734 390.968,377.096 387.278,377.400 385.618 C 377.704 383.958,378.154 379.630,378.400 376.000 C 378.645 372.370,379.103 367.780,379.416 365.800 C 379.729 363.820,380.176 359.950,380.408 357.200 C 380.640 354.450,381.107 350.490,381.445 348.400 C 381.782 346.310,382.218 342.285,382.412 339.456 C 382.606 336.626,383.034 332.936,383.362 331.256 C 383.691 329.575,384.162 325.595,384.411 322.412 C 384.659 319.228,384.946 316.488,385.048 316.323 C 385.398 315.756,385.974 309.388,386.596 299.200 C 386.939 293.590,387.393 287.020,387.606 284.600 C 388.305 276.660,388.083 249.613,387.210 236.271 C 385.854 215.538,385.570 211.850,385.202 210.201 C 385.006 209.320,384.645 205.810,384.400 202.400 C 384.155 198.990,383.687 194.825,383.360 193.144 C 383.033 191.464,382.607 187.774,382.412 184.944 C 382.218 182.115,381.779 178.180,381.437 176.200 C 381.095 174.220,380.636 170.333,380.417 167.563 C 380.199 164.792,379.754 160.742,379.429 158.563 C 379.104 156.383,378.647 151.540,378.413 147.800 C 378.179 144.060,377.727 139.380,377.408 137.400 C 377.090 135.420,376.653 131.183,376.437 127.985 C 376.222 124.787,375.878 121.727,375.674 121.185 C 375.471 120.643,375.084 118.580,374.815 116.600 C 374.547 114.620,373.999 111.650,373.598 110.000 C 373.197 108.350,372.742 105.830,372.587 104.400 C 372.432 102.970,371.976 100.720,371.574 99.400 C 371.171 98.080,370.716 96.010,370.561 94.800 C 370.406 93.590,369.946 91.627,369.539 90.437 C 369.133 89.248,368.800 87.727,368.800 87.058 C 368.800 86.388,368.357 84.212,367.815 82.220 C 366.534 77.512,365.692 74.146,364.808 70.200 C 364.414 68.440,363.801 66.212,363.446 65.250 C 363.091 64.287,362.792 63.027,362.782 62.450 C 362.773 61.872,362.485 60.680,362.143 59.800 C 361.801 58.920,361.277 57.122,360.978 55.805 C 360.680 54.488,360.166 52.688,359.837 51.805 C 359.507 50.922,358.974 49.120,358.652 47.800 C 358.330 46.480,357.789 44.680,357.451 43.800 C 357.112 42.920,356.827 41.788,356.818 41.284 C 356.808 40.780,356.464 39.700,356.054 38.884 C 355.644 38.068,355.178 36.680,355.018 35.800 C 354.858 34.920,354.404 33.480,354.009 32.600 C 353.614 31.720,353.160 30.390,353.001 29.645 C 352.842 28.900,352.284 27.370,351.760 26.245 C 351.236 25.120,350.806 23.907,350.804 23.549 C 350.802 23.191,350.531 22.675,350.203 22.402 C 349.874 22.130,349.420 21.217,349.193 20.375 C 348.417 17.491,346.395 16.583,344.431 18.236 M291.743 141.510 C 291.052 142.990,289.914 145.460,289.216 147.000 C 288.517 148.540,287.774 150.070,287.565 150.400 C 287.355 150.730,286.913 151.630,286.582 152.400 C 286.251 153.170,285.805 154.070,285.589 154.400 C 285.374 154.730,285.011 155.450,284.783 156.000 C 283.984 157.924,282.024 162.039,281.210 163.500 C 280.996 163.885,280.549 164.830,280.218 165.600 C 279.887 166.370,279.437 167.270,279.218 167.600 C 278.999 167.930,278.549 168.830,278.218 169.600 C 277.887 170.370,277.445 171.270,277.236 171.600 C 277.027 171.930,273.506 178.950,269.411 187.200 C 265.316 195.450,261.798 202.470,261.592 202.800 C 261.387 203.130,260.949 204.030,260.618 204.800 C 260.287 205.570,259.837 206.470,259.618 206.800 C 259.399 207.130,258.942 208.030,258.603 208.800 C 258.263 209.570,257.690 210.740,257.328 211.400 C 256.360 213.167,256.306 213.274,252.991 219.895 C 251.312 223.248,249.773 226.093,249.570 226.219 C 249.068 226.529,249.083 773.196,249.584 773.988 C 250.045 774.717,249.762 775.162,252.760 769.000 C 254.152 766.140,255.454 763.530,255.653 763.200 C 255.853 762.870,256.287 761.970,256.618 761.200 C 256.949 760.430,257.396 759.530,257.612 759.200 C 257.828 758.870,258.116 758.330,258.252 758.000 C 258.808 756.649,261.296 751.358,261.638 750.800 C 261.840 750.470,262.209 749.750,262.458 749.200 C 262.706 748.650,264.212 745.500,265.803 742.200 C 267.394 738.900,268.898 735.750,269.145 735.200 C 269.392 734.650,269.755 733.930,269.952 733.600 C 270.767 732.234,275.200 722.847,275.200 722.488 C 275.200 722.273,275.451 721.890,275.758 721.635 C 276.065 721.380,276.430 720.566,276.569 719.826 C 276.708 719.086,277.077 718.268,277.390 718.008 C 277.703 717.748,278.174 716.875,278.438 716.068 C 278.701 715.261,279.250 714.171,279.658 713.646 C 280.066 713.121,280.400 712.494,280.400 712.252 C 280.400 712.010,280.850 710.864,281.400 709.706 C 281.950 708.548,282.834 706.655,283.364 705.500 C 283.894 704.345,285.230 701.510,286.333 699.200 C 287.436 696.890,288.460 694.512,288.609 693.916 C 288.757 693.320,289.131 692.623,289.439 692.367 C 289.748 692.111,290.000 691.621,290.000 691.277 C 290.000 690.934,290.344 689.921,290.765 689.026 C 291.186 688.132,292.041 686.230,292.665 684.800 L 293.800 682.200 293.909 411.400 C 293.969 262.460,293.921 140.195,293.802 139.700 C 293.463 138.294,293.095 138.618,291.743 141.510 M199.600 310.062 C 198.830 311.160,197.750 312.661,197.200 313.398 C 196.650 314.135,195.300 316.015,194.200 317.575 C 193.100 319.136,191.345 321.502,190.300 322.833 C 189.255 324.164,188.400 325.398,188.400 325.576 C 188.400 325.753,187.545 326.994,186.500 328.333 C 184.130 331.371,183.165 332.654,182.400 333.785 C 180.189 337.055,176.308 342.460,174.291 345.081 C 173.251 346.433,172.400 347.659,172.400 347.806 C 172.400 347.952,171.628 349.001,170.684 350.136 C 169.740 351.271,168.438 353.010,167.792 354.000 C 167.145 354.990,165.879 356.700,164.978 357.800 C 164.077 358.900,162.993 360.371,162.570 361.069 C 161.887 362.193,158.290 367.136,156.023 370.063 L 155.200 371.127 155.200 556.749 C 155.200 741.962,155.202 742.373,156.000 742.800 C 156.440 743.035,156.800 743.433,156.800 743.683 C 156.800 743.933,157.109 744.478,157.487 744.896 C 157.864 745.313,158.539 746.257,158.987 746.995 C 159.434 747.732,160.447 749.295,161.238 750.467 C 162.029 751.640,163.779 754.310,165.128 756.400 C 166.477 758.490,167.855 760.552,168.190 760.981 C 168.526 761.411,168.803 761.951,168.807 762.181 C 168.814 762.582,170.715 765.645,171.617 766.709 C 171.854 766.989,172.314 767.799,172.638 768.509 C 172.963 769.219,173.853 770.790,174.616 772.000 C 175.380 773.210,176.282 774.740,176.620 775.400 C 176.959 776.060,177.758 777.500,178.397 778.600 C 179.036 779.700,179.937 781.320,180.400 782.200 C 180.863 783.080,181.764 784.700,182.403 785.800 C 183.042 786.900,183.826 788.340,184.147 789.000 C 184.467 789.660,185.402 791.370,186.225 792.800 C 187.892 795.697,189.139 797.974,189.921 799.550 C 190.207 800.128,190.606 800.870,190.808 801.200 C 191.009 801.530,192.125 803.476,193.287 805.524 C 194.449 807.573,195.798 809.913,196.284 810.724 C 196.770 811.536,197.429 812.655,197.748 813.210 C 200.072 817.260,201.125 818.488,201.565 817.665 C 202.242 816.400,202.177 309.581,201.500 308.709 C 201.062 308.145,200.827 308.311,199.600 310.062 M106.179 437.436 C 105.782 438.076,105.259 438.780,105.019 439.000 C 104.779 439.220,103.873 440.390,103.007 441.600 C 102.140 442.810,100.704 444.734,99.816 445.874 C 98.927 447.015,96.400 450.400,94.200 453.396 C 92.000 456.392,89.689 459.508,89.065 460.321 C 88.440 461.135,87.585 462.250,87.164 462.800 C 86.743 463.350,85.415 465.150,84.214 466.800 C 83.012 468.450,81.707 470.200,81.314 470.690 C 80.921 471.179,80.097 472.259,79.483 473.090 C 77.380 475.933,75.987 477.800,75.374 478.600 C 72.758 482.014,70.400 485.227,70.400 485.380 C 70.400 485.481,69.995 485.992,69.500 486.516 C 69.005 487.040,67.610 488.861,66.400 490.562 C 65.190 492.263,63.885 493.941,63.500 494.290 C 62.839 494.889,62.800 498.448,62.800 558.247 L 62.800 621.570 65.876 625.285 C 67.568 627.328,70.663 631.070,72.754 633.600 C 74.845 636.130,77.016 638.710,77.578 639.333 C 79.558 641.529,79.812 641.830,81.187 643.607 C 82.683 645.540,86.103 649.630,87.400 651.037 C 87.840 651.514,88.650 652.486,89.200 653.197 C 90.024 654.262,94.468 659.656,97.276 663.000 C 97.645 663.440,98.945 665.060,100.163 666.600 C 103.362 670.642,104.111 671.572,104.941 672.538 C 105.349 673.012,105.943 673.760,106.261 674.200 C 106.833 674.991,106.846 674.991,107.420 674.224 C 108.257 673.104,108.274 438.745,107.437 437.236 L 106.903 436.271 106.179 437.436 " stroke="none" fill="#040404" fill-rule="evenodd"></path></g></svg>